<?xml version="1.0" encoding="utf-8"?>
<svg viewBox="0 0 2160 3840" fill="none" xmlns="http://www.w3.org/2000/svg">
  <defs>
    <linearGradient id="paint0_linear_3_2" x1="1080" y1="0" x2="1080" y2="4183.5" gradientUnits="userSpaceOnUse">
      <stop offset="0.055" stop-color="#0B3168"/>
      <stop offset="0.42" stop-color="#17579A"/>
      <stop offset="0.655" stop-color="#2073BF"/>
      <stop offset="1" stop-color="#FFBB52"/>
    </linearGradient>
  </defs>
  <rect width="2160" height="3840" fill="url(#paint0_linear_3_2)"/>
  <rect x="648" y="3746" width="864" height="38.7692" rx="19.3846" fill="white" style="mix-blend-mode:luminosity"/>
  <rect x="648" y="3746" width="864" height="38.7692" rx="19.3846" fill="white" fill-opacity="0.01"/>
  <circle cx="356.5" cy="3542.5" r="131.5" fill="black" fill-opacity="0.5"/>
  <path d="M327 3495.36V3491.94C327 3484.07 331.1 3480 338.654 3480H373.4C380.953 3480 385 3484.07 385 3491.94V3495.36H327ZM349.66 3605C342.107 3605 338.006 3600.93 338.006 3593.06V3537.64C338.006 3532.27 336.82 3528.47 334.823 3525.38L331.478 3520.27C328.619 3515.82 327 3511.97 327 3507.19V3502.9H385V3507.19C385 3511.97 383.381 3515.82 380.576 3520.27L377.177 3525.38C375.18 3528.47 373.994 3532.27 373.994 3537.64V3593.06C373.994 3600.93 369.893 3605 362.394 3605H349.66ZM356.027 3564.13C360.829 3564.13 363.904 3560.66 363.904 3555.72V3540.68C363.904 3535.8 360.829 3532.43 356.027 3532.38C351.225 3532.32 348.096 3535.69 348.096 3540.68V3555.72C348.096 3560.66 351.225 3564.13 356.027 3564.13ZM356.027 3560C353.383 3560 351.171 3557.78 351.171 3555.12C351.171 3552.51 353.383 3550.23 356.027 3550.23C358.617 3550.23 360.883 3552.51 360.883 3555.12C360.883 3557.78 358.617 3560 356.027 3560Z" fill="white"/>
  <circle cx="1762.5" cy="3542.5" r="131.5" fill="black" fill-opacity="0.5"/>
  <path d="M1714.89 3594C1703.23 3594 1697 3587.87 1697 3576.3V3520.75C1697 3509.18 1703.23 3503 1714.89 3503H1728.02C1732.14 3503 1733.56 3502.31 1736.2 3499.61L1740.37 3495.28C1743.16 3492.37 1746.01 3491 1751.34 3491H1773.45C1778.78 3491 1781.63 3492.37 1784.42 3495.28L1788.59 3499.61C1791.23 3502.31 1792.65 3503 1796.71 3503H1810.17C1821.83 3503 1828 3509.18 1828 3520.75V3576.3C1828 3587.87 1821.83 3594 1810.17 3594H1714.89ZM1762.53 3576.82C1778.2 3576.82 1790.75 3564.25 1790.75 3548.45C1790.75 3532.7 1778.2 3520.07 1762.53 3520.07C1746.86 3520.07 1734.25 3532.7 1734.25 3548.45C1734.25 3564.25 1746.86 3576.82 1762.53 3576.82ZM1794.08 3529.05C1794.08 3533.07 1797.35 3536.24 1801.3 3536.24C1805.21 3536.18 1808.48 3533.01 1808.48 3529.05C1808.48 3525.19 1805.16 3521.86 1801.3 3521.86C1797.4 3521.86 1794.08 3525.19 1794.08 3529.05ZM1762.53 3566.31C1752.71 3566.31 1744.75 3558.38 1744.75 3548.45C1744.75 3538.56 1752.66 3530.58 1762.53 3530.58C1772.39 3530.58 1780.31 3538.56 1780.31 3548.45C1780.31 3558.38 1772.39 3566.31 1762.53 3566.31Z" fill="white"/>
  <path d="M1067.06 3572.41V3517.09H1090.12C1093.34 3517.09 1096.17 3517.71 1098.62 3518.96C1101.06 3520.2 1102.98 3521.94 1104.38 3524.18C1105.79 3526.41 1106.49 3529.06 1106.49 3532.13C1106.49 3534.36 1105.99 3536.51 1105.01 3538.59C1104.02 3540.62 1102.36 3542.36 1100.02 3543.81C1102.77 3544.8 1104.93 3546.44 1106.49 3548.72C1108.1 3550.96 1108.9 3553.63 1108.9 3556.75C1108.9 3559.71 1108.15 3562.39 1106.64 3564.77C1105.14 3567.11 1103.01 3568.98 1100.25 3570.39C1097.55 3571.74 1094.36 3572.41 1090.67 3572.41H1067.06ZM1076.49 3540.31H1089.11C1091.45 3540.31 1093.37 3539.61 1094.88 3538.2C1096.38 3536.75 1097.14 3534.9 1097.14 3532.67C1097.14 3530.49 1096.38 3528.7 1094.88 3527.29C1093.37 3525.89 1091.45 3525.19 1089.11 3525.19H1076.49V3540.31ZM1076.49 3564.31H1090.75C1093.34 3564.31 1095.45 3563.55 1097.06 3562.05C1098.67 3560.54 1099.47 3558.62 1099.47 3556.28C1099.47 3553.84 1098.67 3551.89 1097.06 3550.44C1095.45 3548.93 1093.34 3548.18 1090.75 3548.18H1076.49V3564.31ZM1145.61 3573.35C1141.45 3573.35 1137.63 3572.64 1134.15 3571.24C1130.72 3569.79 1127.74 3567.79 1125.19 3565.24C1122.7 3562.64 1120.75 3559.61 1119.35 3556.13C1118 3552.64 1117.32 3548.85 1117.32 3544.75C1117.32 3540.64 1118 3536.85 1119.35 3533.37C1120.75 3529.89 1122.72 3526.88 1125.27 3524.33C1127.81 3521.74 1130.8 3519.74 1134.23 3518.33C1137.71 3516.88 1141.5 3516.15 1145.61 3516.15C1150.54 3516.15 1154.88 3517.06 1158.62 3518.88C1162.36 3520.7 1165.35 3523.11 1167.58 3526.12C1169.87 3529.09 1171.22 3532.36 1171.63 3535.94L1162.52 3536.72C1162.2 3534.33 1161.24 3532.25 1159.63 3530.49C1158.02 3528.67 1156 3527.24 1153.56 3526.2C1151.11 3525.16 1148.49 3524.64 1145.68 3524.64C1141.89 3524.64 1138.57 3525.5 1135.71 3527.22C1132.91 3528.93 1130.72 3531.29 1129.17 3534.31C1127.61 3537.32 1126.83 3540.8 1126.83 3544.75C1126.83 3548.7 1127.61 3552.18 1129.17 3555.19C1130.72 3558.2 1132.91 3560.57 1135.71 3562.28C1138.57 3564 1141.89 3564.85 1145.68 3564.85C1148.54 3564.85 1151.19 3564.36 1153.63 3563.37C1156.07 3562.33 1158.07 3560.9 1159.63 3559.09C1161.24 3557.27 1162.2 3555.16 1162.52 3552.77L1171.63 3553.55C1171.22 3557.14 1169.89 3560.44 1167.66 3563.45C1165.43 3566.46 1162.41 3568.88 1158.62 3570.7C1154.88 3572.46 1150.54 3573.35 1145.61 3573.35ZM1177.76 3572.41L1199.58 3517.09H1209.09L1230.98 3572.41H1220.62L1215.63 3559.48H1193.19L1188.2 3572.41H1177.76ZM1196.15 3551.14H1212.59L1204.41 3529.4L1196.15 3551.14Z" fill="white"/>
  <path d="M946.812 3541.28C957.185 3541.28 966.2 3532.56 966.2 3521.22C966.2 3510.02 957.185 3501.71 946.812 3501.71C936.439 3501.71 927.424 3510.2 927.424 3521.31C927.424 3532.56 936.391 3541.28 946.812 3541.28ZM914.288 3583.29H979.287C984.473 3583.29 987.575 3581.02 987.575 3577.25C987.575 3565.55 971.92 3549.4 946.763 3549.4C921.656 3549.4 906 3565.55 906 3577.25C906 3581.02 909.102 3583.29 914.288 3583.29Z" fill="white"/>
  <path d="M321.011 709.097V585.521H347.988V636.344L392.719 585.521H425.267L379.143 639.477L429.27 709.097H396.2L360.346 659.84L347.988 673.939V709.097H321.011ZM465.917 711.185C456.751 711.185 449.325 708.807 443.639 704.049C438.069 699.176 435.284 692.852 435.284 685.078C435.284 678.812 436.735 673.706 439.636 669.761C442.537 665.816 446.25 662.741 450.775 660.537C455.416 658.332 460.29 656.766 465.395 655.837L493.591 650.616V648.701C493.591 644.988 492.083 642.087 489.066 639.999C486.049 637.794 482.162 636.692 477.405 636.692C473.343 636.692 469.746 637.62 466.614 639.477C463.597 641.333 461.624 644.234 460.696 648.179L436.155 647.309C437.083 640.463 439.462 634.719 443.291 630.078C447.236 625.437 452.167 621.956 458.085 619.635C464.119 617.198 470.733 615.98 477.927 615.98C491.387 615.98 501.714 619.055 508.908 625.204C516.102 631.238 519.699 639.07 519.699 648.701V709.097H494.984V699.524C492.083 703.469 488.022 706.428 482.8 708.4C477.579 710.257 471.951 711.185 465.917 711.185ZM472.705 691.692C478.855 691.692 483.844 690.125 487.674 686.992C491.619 683.859 493.591 679.276 493.591 673.242V668.195L472.879 672.024C469.398 672.604 466.555 673.764 464.351 675.505C462.262 677.129 461.218 679.45 461.218 682.467C461.218 685.368 462.262 687.63 464.351 689.255C466.555 690.879 469.34 691.692 472.705 691.692ZM542.284 709.097V618.068H565.954V627.815C568.739 623.522 572.452 620.505 577.094 618.765C581.735 616.908 586.492 615.98 591.366 615.98C604.013 615.98 613.296 620.911 619.214 630.774C622.231 625.669 626.35 621.956 631.571 619.635C636.909 617.198 642.362 615.98 647.932 615.98C658.375 615.98 666.613 619.403 672.647 626.249C678.681 633.095 681.698 642.61 681.698 654.793V709.097H655.59V656.708C655.59 651.022 654.256 646.671 651.587 643.654C648.918 640.637 645.263 639.129 640.622 639.129C635.981 639.129 632.209 640.753 629.309 644.002C626.408 647.135 624.957 651.37 624.957 656.708V709.097H598.85V656.708C598.85 651.022 597.515 646.671 594.847 643.654C592.178 640.637 588.581 639.129 584.056 639.129C579.414 639.129 575.643 640.753 572.742 644.002C569.841 647.135 568.391 651.37 568.391 656.708V709.097H542.284ZM712.408 607.625C708.115 607.625 704.344 606.291 701.095 603.622C697.962 600.953 696.396 597.298 696.396 592.657C696.396 587.9 697.962 584.187 701.095 581.518C704.344 578.849 708.115 577.515 712.408 577.515C716.702 577.515 720.415 578.849 723.548 581.518C726.681 584.187 728.247 587.9 728.247 592.657C728.247 597.298 726.681 600.953 723.548 603.622C720.415 606.291 716.702 607.625 712.408 607.625ZM699.355 709.097V618.068H725.462V709.097H699.355ZM778.67 711.185C766.835 711.185 757.378 708.575 750.3 703.353C743.338 698.132 739.683 690.937 739.335 681.771L763.354 679.508C763.934 683.801 765.558 686.992 768.227 689.081C771.012 691.17 774.377 692.214 778.322 692.214C781.687 692.214 784.414 691.576 786.503 690.299C788.707 688.907 789.809 686.992 789.809 684.556C789.809 681.307 788.069 678.986 784.588 677.594C781.223 676.085 777.22 674.751 772.579 673.59C769.098 672.662 765.5 671.618 761.787 670.458C758.19 669.181 754.825 667.557 751.692 665.584C748.56 663.612 746.007 661.001 744.034 657.752C742.178 654.387 741.249 650.152 741.249 645.046C741.249 636.112 744.44 629.034 750.822 623.812C757.32 618.591 766.023 615.98 776.93 615.98C787.953 615.98 796.946 618.417 803.908 623.29C810.87 628.163 814.583 634.835 815.047 643.306L790.854 645.568C790.39 641.855 788.881 639.129 786.328 637.388C783.776 635.647 780.933 634.777 777.8 634.777C774.551 634.777 771.998 635.473 770.142 636.866C768.285 638.142 767.357 639.941 767.357 642.261C767.357 645.51 769.039 647.889 772.404 649.397C775.885 650.79 779.947 652.008 784.588 653.053C788.069 653.865 791.608 654.909 795.205 656.185C798.918 657.346 802.341 658.97 805.474 661.059C808.607 663.031 811.102 665.758 812.958 669.239C814.931 672.604 815.917 677.013 815.917 682.467C815.917 691.17 812.494 698.132 805.648 703.353C798.918 708.575 789.926 711.185 778.67 711.185ZM835.25 731.897V720.236C839.312 720.236 842.735 719.366 845.519 717.625C848.304 715.885 849.929 713.332 850.393 709.967C850.161 710.083 849.871 710.141 849.523 710.141C849.175 710.141 848.884 710.141 848.652 710.141C844.359 710.141 840.588 708.749 837.339 705.964C834.206 703.179 832.64 699.292 832.64 694.302C832.64 689.313 834.206 685.426 837.339 682.641C840.588 679.74 844.359 678.29 848.652 678.29C853.062 678.29 856.775 679.856 859.792 682.989C862.924 686.122 864.491 691.053 864.491 697.783C864.491 704.049 863.563 709.735 861.706 714.84C859.85 720.062 856.775 724.181 852.481 727.198C848.188 730.331 842.445 731.897 835.25 731.897ZM915.491 709.097V689.777L950.649 656.011C957.147 649.746 962.311 644.524 966.14 640.347C969.969 636.17 972.696 632.515 974.32 629.382C976.061 626.249 976.931 623.232 976.931 620.331C976.931 616.27 975.422 613.079 972.406 610.758C969.389 608.322 965.443 607.103 960.57 607.103C955.581 607.103 951.345 608.496 947.864 611.28C944.499 614.065 942.643 618.3 942.295 623.986L916.013 623.464C916.593 615.458 918.856 608.496 922.801 602.578C926.862 596.544 932.2 591.845 938.814 588.48C945.544 585.115 953.26 583.432 961.962 583.432C970.317 583.432 977.627 584.941 983.893 587.958C990.275 590.975 995.206 595.152 998.687 600.489C1002.28 605.711 1004.08 611.861 1004.08 618.939C1004.08 626.249 1002.23 633.037 998.513 639.303C994.916 645.452 989.578 651.95 982.5 658.796L955.697 685.078H1006.69V709.097H915.491ZM1045.78 711.185C1042.88 711.185 1040.03 711.069 1037.25 710.837C1034.46 710.605 1031.68 710.257 1028.89 709.793V685.426C1031.68 685.89 1034.46 686.238 1037.25 686.47C1040.03 686.702 1042.88 686.818 1045.78 686.818C1056.1 686.818 1064.11 684.44 1069.8 679.682C1075.6 674.809 1079.48 668.137 1081.46 659.666C1078.79 662.219 1075.71 664.018 1072.23 665.062C1068.87 665.99 1065.39 666.454 1061.79 666.454C1053.9 666.454 1046.82 664.772 1040.55 661.407C1034.29 657.926 1029.36 653.169 1025.76 647.135C1022.16 640.985 1020.36 633.965 1020.36 626.075C1020.36 617.604 1022.28 610.178 1026.11 603.796C1029.94 597.414 1035.22 592.425 1041.95 588.828C1048.68 585.231 1056.34 583.432 1064.92 583.432C1074.9 583.432 1083.49 585.521 1090.68 589.698C1097.99 593.875 1103.62 599.909 1107.56 607.799C1111.51 615.574 1113.48 625.03 1113.48 636.17C1113.48 646.729 1111.92 656.592 1108.78 665.758C1105.77 674.809 1101.3 682.757 1095.38 689.603C1089.58 696.449 1082.5 701.787 1074.15 705.616C1065.79 709.329 1056.34 711.185 1045.78 711.185ZM1065.79 643.306C1071.25 643.306 1075.71 641.565 1079.19 638.084C1082.67 634.603 1084.42 630.31 1084.42 625.204C1084.42 619.751 1082.62 615.4 1079.02 612.151C1075.54 608.786 1071.13 607.103 1065.79 607.103C1060.57 607.103 1056.28 608.786 1052.91 612.151C1049.55 615.4 1047.86 619.751 1047.86 625.204C1047.86 630.426 1049.55 634.777 1052.91 638.258C1056.28 641.623 1060.57 643.306 1065.79 643.306ZM1164.8 709.097V585.521H1246.43V609.54H1191.78V635.647H1239.47V658.97H1191.78V709.097H1164.8ZM1302.49 711.185C1293.32 711.185 1285.02 709.097 1277.6 704.919C1270.29 700.742 1264.49 695.057 1260.19 687.863C1255.9 680.668 1253.75 672.546 1253.75 663.496C1253.75 654.445 1255.84 646.323 1260.02 639.129C1264.2 631.934 1269.88 626.307 1277.08 622.246C1284.27 618.068 1292.33 615.98 1301.27 615.98C1311.25 615.98 1319.72 618.01 1326.68 622.072C1333.64 626.133 1338.92 631.47 1342.52 638.084C1346.23 644.582 1348.09 651.544 1348.09 658.97C1348.09 661.407 1347.97 663.67 1347.74 665.758C1347.62 667.731 1347.28 669.471 1346.7 670.98H1279.86C1280.44 675.389 1281.89 679.102 1284.21 682.119C1286.53 685.02 1289.32 687.166 1292.57 688.559C1295.81 689.951 1299.06 690.647 1302.31 690.647C1307.42 690.647 1311.65 689.603 1315.02 687.514C1318.5 685.31 1320.82 682.409 1321.98 678.812L1347.04 679.856C1344.14 689.719 1338.69 697.435 1330.68 703.005C1322.79 708.458 1313.39 711.185 1302.49 711.185ZM1279.86 653.401H1322.15C1322.04 647.947 1319.95 643.596 1315.89 640.347C1311.94 636.982 1307.07 635.299 1301.27 635.299C1298.25 635.299 1295.18 635.938 1292.04 637.214C1289.03 638.49 1286.36 640.463 1284.04 643.132C1281.83 645.684 1280.44 649.107 1279.86 653.401ZM1415.51 711.185C1409.71 711.185 1404.37 710.199 1399.5 708.226C1394.74 706.254 1390.68 703.295 1387.31 699.35V709.097H1363.64V585.521H1389.75V625.727C1396.13 619.229 1404.89 615.98 1416.03 615.98C1424.5 615.98 1432.16 618.01 1439 622.072C1445.97 626.133 1451.48 631.76 1455.54 638.954C1459.6 646.032 1461.63 654.271 1461.63 663.67C1461.63 672.952 1459.6 681.191 1455.54 688.385C1451.48 695.579 1445.97 701.206 1439 705.268C1432.16 709.213 1424.33 711.185 1415.51 711.185ZM1412.55 687.689C1419.05 687.689 1424.44 685.542 1428.74 681.249C1433.03 676.839 1435.18 670.98 1435.18 663.67C1435.18 656.359 1433.03 650.5 1428.74 646.091C1424.44 641.681 1419.05 639.477 1412.55 639.477C1406.28 639.477 1400.89 641.623 1396.36 645.916C1391.95 650.21 1389.75 656.127 1389.75 663.67C1389.75 671.096 1391.95 676.955 1396.36 681.249C1400.89 685.542 1406.28 687.689 1412.55 687.689ZM1477.02 709.097V618.068H1500.69V629.034C1503.36 624.392 1506.84 621.085 1511.13 619.113C1515.42 617.024 1519.54 615.98 1523.49 615.98C1525.23 615.98 1526.8 616.096 1528.19 616.328C1529.58 616.56 1530.74 616.85 1531.67 617.198V641.391H1530.62C1529.58 641.159 1528.25 640.985 1526.62 640.869C1525 640.637 1523.49 640.521 1522.1 640.521C1516.76 640.521 1512.23 642.261 1508.52 645.742C1504.92 649.107 1503.12 654.213 1503.12 661.059V709.097H1477.02ZM1576.02 711.185C1565.81 711.185 1557.58 707.936 1551.31 701.438C1545.04 694.825 1541.91 685.774 1541.91 674.287V618.068H1568.02V670.98C1568.02 676.665 1569.47 680.901 1572.37 683.685C1575.27 686.47 1578.87 687.863 1583.16 687.863C1587.92 687.863 1591.81 686.412 1594.82 683.511C1597.84 680.494 1599.35 676.317 1599.35 670.98V618.068H1625.46V709.097H1601.96V700.22C1598.94 704.049 1595.05 706.834 1590.3 708.575C1585.54 710.315 1580.78 711.185 1576.02 711.185ZM1669.73 711.185C1660.57 711.185 1653.14 708.807 1647.45 704.049C1641.88 699.176 1639.1 692.852 1639.1 685.078C1639.1 678.812 1640.55 673.706 1643.45 669.761C1646.35 665.816 1650.06 662.741 1654.59 660.537C1659.23 658.332 1664.1 656.766 1669.21 655.837L1697.41 650.616V648.701C1697.41 644.988 1695.9 642.087 1692.88 639.999C1689.86 637.794 1685.98 636.692 1681.22 636.692C1677.16 636.692 1673.56 637.62 1670.43 639.477C1667.41 641.333 1665.44 644.234 1664.51 648.179L1639.97 647.309C1640.9 640.463 1643.28 634.719 1647.11 630.078C1651.05 625.437 1655.98 621.956 1661.9 619.635C1667.93 617.198 1674.55 615.98 1681.74 615.98C1695.2 615.98 1705.53 619.055 1712.72 625.204C1719.92 631.238 1723.51 639.07 1723.51 648.701V709.097H1698.8V699.524C1695.9 703.469 1691.84 706.428 1686.62 708.4C1681.39 710.257 1675.77 711.185 1669.73 711.185ZM1676.52 691.692C1682.67 691.692 1687.66 690.125 1691.49 686.992C1695.43 683.859 1697.41 679.276 1697.41 673.242V668.195L1676.69 672.024C1673.21 672.604 1670.37 673.764 1668.17 675.505C1666.08 677.129 1665.03 679.45 1665.03 682.467C1665.03 685.368 1666.08 687.63 1668.17 689.255C1670.37 690.879 1673.16 691.692 1676.52 691.692ZM1746.1 709.097V618.068H1769.77V629.034C1772.44 624.392 1775.92 621.085 1780.21 619.113C1784.51 617.024 1788.62 615.98 1792.57 615.98C1794.31 615.98 1795.88 616.096 1797.27 616.328C1798.66 616.56 1799.82 616.85 1800.75 617.198V641.391H1799.71C1798.66 641.159 1797.33 640.985 1795.7 640.869C1794.08 640.637 1792.57 640.521 1791.18 640.521C1785.84 640.521 1781.31 642.261 1777.6 645.742C1774 649.107 1772.21 654.213 1772.21 661.059V709.097H1746.1ZM1826.31 607.625C1822.02 607.625 1818.24 606.291 1815 603.622C1811.86 600.953 1810.3 597.298 1810.3 592.657C1810.3 587.9 1811.86 584.187 1815 581.518C1818.24 578.849 1822.02 577.515 1826.31 577.515C1830.6 577.515 1834.32 578.849 1837.45 581.518C1840.58 584.187 1842.15 587.9 1842.15 592.657C1842.15 597.298 1840.58 600.953 1837.45 603.622C1834.32 606.291 1830.6 607.625 1826.31 607.625ZM1813.26 709.097V618.068H1839.36V709.097H1813.26Z" fill="white"/>
  <path d="M2037.17 121.154C2038.98 121.154 2040.72 122.349 2042 124.477C2043.28 126.605 2044 129.491 2044 132.5C2044 135.509 2043.28 138.395 2042 140.523C2040.72 142.651 2038.98 143.846 2037.17 143.846L2037.17 132.5V121.154Z" fill="#37C058"/>
  <path d="M1921 109.4C1921 107.16 1921 106.04 1921.44 105.184C1921.82 104.431 1922.43 103.819 1923.18 103.436C1924.04 103 1925.16 103 1927.4 103H2028.49C2030.73 103 2031.85 103 2032.7 103.436C2033.46 103.819 2034.07 104.431 2034.45 105.184C2034.89 106.04 2034.89 107.16 2034.89 109.4V155.6C2034.89 157.84 2034.89 158.96 2034.45 159.816C2034.07 160.569 2033.46 161.181 2032.7 161.564C2031.85 162 2030.73 162 2028.49 162H1927.4C1925.16 162 1924.04 162 1923.18 161.564C1922.43 161.181 1921.82 160.569 1921.44 159.816C1921 158.96 1921 157.84 1921 155.6V109.4Z" fill="#37C058"/>
  <path d="M1939.11 144.346V126.253L1934.02 128.923V125.374L1940.15 122.045H1942.91V144.346H1939.11ZM1957.57 144.723C1955.71 144.723 1954.08 144.262 1952.7 143.341C1951.34 142.398 1950.28 141.069 1949.53 139.351C1948.8 137.634 1948.43 135.582 1948.43 133.195C1948.43 130.808 1948.8 128.756 1949.53 127.039C1950.26 125.322 1951.31 124.002 1952.67 123.081C1954.05 122.139 1955.68 121.668 1957.54 121.668C1959.42 121.668 1961.05 122.128 1962.41 123.05C1963.77 123.971 1964.82 125.29 1965.55 127.007C1966.3 128.724 1966.68 130.787 1966.68 133.195C1966.68 135.582 1966.31 137.634 1965.58 139.351C1964.85 141.069 1963.8 142.398 1962.44 143.341C1961.08 144.262 1959.46 144.723 1957.57 144.723ZM1957.57 141.268C1959.29 141.268 1960.59 140.576 1961.47 139.194C1962.37 137.791 1962.82 135.792 1962.82 133.195C1962.82 130.578 1962.37 128.578 1961.47 127.196C1960.59 125.814 1959.29 125.123 1957.57 125.123C1955.85 125.123 1954.55 125.824 1953.64 127.227C1952.74 128.609 1952.29 130.599 1952.29 133.195C1952.29 135.771 1952.74 137.76 1953.64 139.163C1954.57 140.566 1955.87 141.268 1957.57 141.268ZM1979.78 144.723C1977.92 144.723 1976.29 144.262 1974.91 143.341C1973.55 142.398 1972.49 141.069 1971.74 139.351C1971.01 137.634 1970.64 135.582 1970.64 133.195C1970.64 130.808 1971.01 128.756 1971.74 127.039C1972.47 125.322 1973.52 124.002 1974.88 123.081C1976.26 122.139 1977.88 121.668 1979.75 121.668C1981.63 121.668 1983.26 122.128 1984.62 123.05C1985.98 123.971 1987.02 125.29 1987.76 127.007C1988.51 128.724 1988.89 130.787 1988.89 133.195C1988.89 135.582 1988.52 137.634 1987.79 139.351C1987.06 141.069 1986.01 142.398 1984.65 143.341C1983.29 144.262 1981.66 144.723 1979.78 144.723ZM1979.78 141.268C1981.5 141.268 1982.79 140.576 1983.67 139.194C1984.57 137.791 1985.02 135.792 1985.02 133.195C1985.02 130.578 1984.57 128.578 1983.67 127.196C1982.79 125.814 1981.5 125.123 1979.78 125.123C1978.06 125.123 1976.75 125.824 1975.85 127.227C1974.95 128.609 1974.5 130.599 1974.5 133.195C1974.5 135.771 1974.95 137.76 1975.85 139.163C1976.77 140.566 1978.08 141.268 1979.78 141.268ZM1999.07 133.446C1997.94 133.446 1996.93 133.195 1996.05 132.693C1995.19 132.19 1994.51 131.499 1994.01 130.619C1993.53 129.74 1993.29 128.745 1993.29 127.636C1993.29 126.505 1993.53 125.5 1994.01 124.62C1994.51 123.741 1995.19 123.05 1996.05 122.547C1996.93 122.045 1997.94 121.793 1999.07 121.793C2000.2 121.793 2001.19 122.045 2002.05 122.547C2002.93 123.05 2003.61 123.741 2004.09 124.62C2004.59 125.5 2004.85 126.505 2004.85 127.636C2004.85 128.745 2004.59 129.74 2004.09 130.619C2003.61 131.499 2002.93 132.19 2002.05 132.693C2001.19 133.195 2000.2 133.446 1999.07 133.446ZM1996.52 144.346L2013.67 122.045H2017.41L2000.23 144.346H1996.52ZM1999.07 130.745C1999.9 130.745 2000.59 130.452 2001.14 129.866C2001.7 129.279 2001.99 128.536 2001.99 127.636C2001.99 126.714 2001.7 125.96 2001.14 125.374C2000.59 124.767 1999.9 124.463 1999.07 124.463C1998.23 124.463 1997.53 124.767 1996.96 125.374C1996.42 125.96 1996.14 126.714 1996.14 127.636C1996.14 128.536 1996.42 129.279 1996.96 129.866C1997.53 130.452 1998.23 130.745 1999.07 130.745ZM2014.83 144.597C2013.7 144.597 2012.7 144.346 2011.82 143.843C2010.96 143.341 2010.28 142.65 2009.78 141.77C2009.3 140.891 2009.05 139.885 2009.05 138.755C2009.05 137.624 2009.3 136.629 2009.78 135.771C2010.28 134.891 2010.96 134.2 2011.82 133.698C2012.7 133.195 2013.7 132.944 2014.83 132.944C2015.96 132.944 2016.96 133.195 2017.82 133.698C2018.7 134.2 2019.38 134.891 2019.86 135.771C2020.36 136.629 2020.61 137.624 2020.61 138.755C2020.61 139.885 2020.36 140.891 2019.86 141.77C2019.38 142.65 2018.7 143.341 2017.82 143.843C2016.96 144.346 2015.96 144.597 2014.83 144.597ZM2014.83 141.927C2015.67 141.927 2016.36 141.634 2016.91 141.048C2017.47 140.44 2017.75 139.676 2017.75 138.755C2017.75 137.833 2017.47 137.09 2016.91 136.525C2016.36 135.938 2015.67 135.645 2014.83 135.645C2014 135.645 2013.29 135.938 2012.73 136.525C2012.16 137.09 2011.88 137.833 2011.88 138.755C2011.88 139.676 2012.16 140.44 2012.73 141.048C2013.29 141.634 2014 141.927 2014.83 141.927Z" fill="black"/>
  <path d="M1736.67 117.75C1736.67 115.035 1738.76 112.833 1741.33 112.833H1746C1748.58 112.833 1750.67 115.035 1750.67 117.75V157.083C1750.67 159.799 1748.58 162 1746 162H1741.33C1738.76 162 1736.67 159.799 1736.67 157.083V117.75Z" fill="white"/>
  <path d="M1760 107.917C1760 105.201 1762.09 103 1764.67 103H1769.33C1771.91 103 1774 105.201 1774 107.917V157.083C1774 159.799 1771.91 162 1769.33 162H1764.67C1762.09 162 1760 159.799 1760 157.083V107.917Z" fill="white"/>
  <path d="M1713.33 134.958C1713.33 132.243 1715.42 130.042 1718 130.042H1722.67C1725.24 130.042 1727.33 132.243 1727.33 134.958V157.083C1727.33 159.799 1725.24 162 1722.67 162H1718C1715.42 162 1713.33 159.799 1713.33 157.083V134.958Z" fill="white"/>
  <path d="M1690 147.25C1690 144.535 1692.09 142.333 1694.67 142.333H1699.33C1701.91 142.333 1704 144.535 1704 147.25V157.083C1704 159.799 1701.91 162 1699.33 162H1694.67C1692.09 162 1690 159.799 1690 157.083V147.25Z" fill="white"/>
  <path fill-rule="evenodd" clip-rule="evenodd" d="M1845.39 116.13C1857.52 116.13 1869.19 120.887 1877.97 129.416C1878.64 130.074 1879.69 130.066 1880.35 129.397L1886.67 122.88C1887 122.541 1887.19 122.081 1887.18 121.603C1887.18 121.125 1886.99 120.668 1886.66 120.333C1863.59 97.7661 1827.2 97.7661 1804.13 120.333C1803.79 120.668 1803.6 121.125 1803.6 121.603C1803.6 122.081 1803.78 122.54 1804.11 122.88L1810.44 129.397C1811.09 130.067 1812.15 130.075 1812.81 129.416C1821.6 120.886 1833.27 116.13 1845.39 116.13ZM1845.57 135.805C1852.23 135.805 1858.66 138.333 1863.6 142.898C1864.26 143.546 1865.32 143.532 1865.97 142.866L1872.29 136.349C1872.62 136.007 1872.8 135.543 1872.8 135.061C1872.8 134.58 1872.6 134.12 1872.26 133.785C1857.22 119.504 1833.93 119.504 1818.89 133.785C1818.55 134.12 1818.36 134.58 1818.35 135.062C1818.35 135.544 1818.53 136.008 1818.86 136.349L1825.18 142.866C1825.83 143.532 1826.89 143.546 1827.55 142.898C1832.49 138.336 1838.91 135.808 1845.57 135.805ZM1858.42 148.527C1858.43 149.01 1858.24 149.476 1857.91 149.815L1846.97 161.075C1846.65 161.406 1846.22 161.592 1845.76 161.592C1845.31 161.592 1844.87 161.406 1844.55 161.075L1833.62 149.815C1833.28 149.476 1833.09 149.01 1833.1 148.526C1833.11 148.043 1833.32 147.586 1833.67 147.262C1840.65 141.235 1850.87 141.235 1857.85 147.262C1858.21 147.586 1858.41 148.044 1858.42 148.527Z" fill="white"/>
  <path d="M142.332 157L144.888 144.788H134.38L135.374 139.96H145.953L149.503 123.204H138.924L139.989 118.305H150.497L152.982 106.59H158.733L156.248 118.305H169.454L171.939 106.59H177.69L175.205 118.305H185.713L184.719 123.204H174.211L170.661 139.96H181.098L180.175 144.788H169.596L167.04 157H161.289L163.845 144.788H150.639L148.083 157H142.332ZM151.704 139.96H164.91L168.46 123.204H155.254L151.704 139.96ZM191.426 157L211.448 106.59H217.696L237.789 157H230.831L225.719 143.936H203.496L198.384 157H191.426ZM205.555 138.469H223.589L214.572 115.252L205.555 138.469ZM253.932 157L240.655 120.222H246.903L256.772 148.551L267.777 120.222H273.173L283.965 148.409L293.976 120.222H300.224L286.592 157H281.409L270.475 128.245L259.257 157H253.932ZM319.195 157.852C315.409 157.852 312.356 156.905 310.036 155.012C307.717 153.119 306.557 150.586 306.557 147.415C306.557 144.007 307.646 141.356 309.823 139.463C312.048 137.522 314.959 136.197 318.556 135.487L331.691 132.931V131.653C331.691 129.523 330.839 127.795 329.135 126.47C327.431 125.145 325.112 124.482 322.177 124.482C319.669 124.482 317.515 125.05 315.716 126.186C313.965 127.322 312.829 129.026 312.308 131.298L306.699 131.014C307.362 127.369 309.113 124.529 311.953 122.494C314.793 120.411 318.225 119.37 322.248 119.37C327.029 119.37 330.768 120.506 333.466 122.778C336.164 125.05 337.513 128.008 337.513 131.653V157H331.833V152.03C330.745 153.781 329.135 155.201 327.005 156.29C324.875 157.331 322.272 157.852 319.195 157.852ZM319.976 152.811C323.621 152.811 326.485 151.888 328.567 150.042C330.65 148.196 331.691 145.616 331.691 142.303V137.83L320.047 140.102C317.87 140.528 316.048 141.333 314.58 142.516C313.16 143.652 312.45 145.19 312.45 147.131C312.45 149.119 313.184 150.563 314.651 151.462C316.119 152.361 317.894 152.811 319.976 152.811ZM362.697 157.852C359.999 157.852 357.562 157.379 355.384 156.432C353.254 155.485 351.55 154.16 350.272 152.456C348.994 150.705 348.284 148.669 348.142 146.35L353.538 145.711C353.822 147.841 354.793 149.545 356.449 150.823C358.106 152.101 360.189 152.74 362.697 152.74C364.922 152.74 366.768 152.267 368.235 151.32C369.703 150.326 370.436 149.048 370.436 147.486C370.436 146.066 370.01 144.954 369.158 144.149C368.306 143.297 367.194 142.634 365.821 142.161C364.449 141.64 362.981 141.191 361.419 140.812C359.952 140.433 358.485 140.007 357.017 139.534C355.597 139.061 354.272 138.445 353.041 137.688C351.858 136.883 350.911 135.866 350.201 134.635C349.491 133.357 349.136 131.748 349.136 129.807C349.136 126.683 350.296 124.174 352.615 122.281C354.982 120.34 358.059 119.37 361.845 119.37C365.49 119.37 368.543 120.317 371.004 122.21C373.466 124.056 374.838 126.541 375.122 129.665L369.655 130.304C369.419 128.505 368.567 127.085 367.099 126.044C365.679 125.003 363.952 124.482 361.916 124.482C359.834 124.482 358.153 124.932 356.875 125.831C355.597 126.73 354.958 127.914 354.958 129.381C354.958 130.754 355.361 131.842 356.165 132.647C357.017 133.452 358.106 134.091 359.431 134.564C360.804 134.99 362.271 135.416 363.833 135.842C365.301 136.221 366.768 136.67 368.235 137.191C369.703 137.664 371.028 138.303 372.211 139.108C373.442 139.913 374.412 140.978 375.122 142.303C375.88 143.581 376.258 145.214 376.258 147.202C376.258 149.332 375.667 151.202 374.483 152.811C373.3 154.42 371.691 155.675 369.655 156.574C367.62 157.426 365.301 157.852 362.697 157.852ZM386.898 157V106.59H393.43L412.174 146.279L430.918 106.59H437.45V157H431.202V120.364L413.878 157H410.541L393.146 120.364V157H386.898ZM466.958 157.852C463.313 157.852 460.071 157.047 457.231 155.438C454.391 153.781 452.143 151.509 450.486 148.622C448.877 145.735 448.072 142.398 448.072 138.611C448.072 134.824 448.877 131.487 450.486 128.6C452.095 125.713 454.32 123.464 457.16 121.855C460 120.198 463.266 119.37 466.958 119.37C470.508 119.37 473.703 120.175 476.543 121.784C479.383 123.393 481.608 125.642 483.217 128.529C484.874 131.416 485.702 134.777 485.702 138.611C485.702 142.398 484.874 145.735 483.217 148.622C481.56 151.509 479.312 153.781 476.472 155.438C473.679 157.047 470.508 157.852 466.958 157.852ZM466.958 152.598C469.372 152.598 471.549 152.03 473.49 150.894C475.431 149.711 476.945 148.078 478.034 145.995C479.17 143.865 479.738 141.404 479.738 138.611C479.738 135.818 479.17 133.381 478.034 131.298C476.898 129.168 475.36 127.535 473.419 126.399C471.526 125.216 469.372 124.624 466.958 124.624C464.449 124.624 462.201 125.216 460.213 126.399C458.272 127.535 456.758 129.168 455.669 131.298C454.58 133.381 454.036 135.818 454.036 138.611C454.036 141.404 454.58 143.865 455.669 145.995C456.758 148.078 458.272 149.711 460.213 150.894C462.201 152.03 464.449 152.598 466.958 152.598ZM512.568 157.852C509.018 157.852 505.87 157.047 503.125 155.438C500.379 153.829 498.202 151.58 496.593 148.693C495.031 145.806 494.25 142.445 494.25 138.611C494.25 134.777 495.031 131.416 496.593 128.529C498.202 125.642 500.379 123.393 503.125 121.784C505.917 120.175 509.041 119.37 512.497 119.37C515.289 119.37 517.869 119.985 520.236 121.216C522.65 122.399 524.543 124.032 525.916 126.115V105.738H531.738V157H526.058V150.965C524.59 153.142 522.673 154.846 520.307 156.077C517.94 157.26 515.36 157.852 512.568 157.852ZM512.994 152.598C515.408 152.598 517.585 152.054 519.526 150.965C521.514 149.876 523.076 148.291 524.212 146.208C525.348 144.125 525.916 141.593 525.916 138.611C525.916 135.629 525.348 133.097 524.212 131.014C523.076 128.931 521.514 127.346 519.526 126.257C517.585 125.168 515.408 124.624 512.994 124.624C510.532 124.624 508.331 125.216 506.391 126.399C504.497 127.535 502.983 129.144 501.847 131.227C500.758 133.31 500.214 135.771 500.214 138.611C500.214 141.404 500.758 143.865 501.847 145.995C502.983 148.078 504.497 149.711 506.391 150.894C508.331 152.03 510.532 152.598 512.994 152.598ZM556.018 157.852C552.042 157.852 548.776 156.621 546.22 154.16C543.664 151.651 542.386 147.841 542.386 142.729V120.222H548.208V142.232C548.208 146.019 549.06 148.693 550.764 150.255C552.468 151.817 554.598 152.598 557.154 152.598C560.136 152.598 562.597 151.699 564.538 149.9C566.478 148.101 567.449 145.545 567.449 142.232V120.222H573.271V157H567.591V151.888C566.36 153.923 564.727 155.438 562.692 156.432C560.704 157.379 558.479 157.852 556.018 157.852ZM596.359 157.852C593.661 157.852 591.224 157.379 589.046 156.432C586.916 155.485 585.212 154.16 583.934 152.456C582.656 150.705 581.946 148.669 581.804 146.35L587.2 145.711C587.484 147.841 588.455 149.545 590.111 150.823C591.768 152.101 593.851 152.74 596.359 152.74C598.584 152.74 600.43 152.267 601.897 151.32C603.365 150.326 604.098 149.048 604.098 147.486C604.098 146.066 603.672 144.954 602.82 144.149C601.968 143.297 600.856 142.634 599.483 142.161C598.111 141.64 596.643 141.191 595.081 140.812C593.614 140.433 592.147 140.007 590.679 139.534C589.259 139.061 587.934 138.445 586.703 137.688C585.52 136.883 584.573 135.866 583.863 134.635C583.153 133.357 582.798 131.748 582.798 129.807C582.798 126.683 583.958 124.174 586.277 122.281C588.644 120.34 591.721 119.37 595.507 119.37C599.152 119.37 602.205 120.317 604.666 122.21C607.128 124.056 608.5 126.541 608.784 129.665L603.317 130.304C603.081 128.505 602.229 127.085 600.761 126.044C599.341 125.003 597.614 124.482 595.578 124.482C593.496 124.482 591.815 124.932 590.537 125.831C589.259 126.73 588.62 127.914 588.62 129.381C588.62 130.754 589.023 131.842 589.827 132.647C590.679 133.452 591.768 134.091 593.093 134.564C594.466 134.99 595.933 135.416 597.495 135.842C598.963 136.221 600.43 136.67 601.897 137.191C603.365 137.664 604.69 138.303 605.873 139.108C607.104 139.913 608.074 140.978 608.784 142.303C609.542 143.581 609.92 145.214 609.92 147.202C609.92 149.332 609.329 151.202 608.145 152.811C606.962 154.42 605.353 155.675 603.317 156.574C601.282 157.426 598.963 157.852 596.359 157.852Z" fill="white"/>
  <path d="M687.753 493V439.359H705.205C710.947 439.359 715.908 440.467 720.088 442.683C724.269 444.899 727.492 448.022 729.759 452.052C732.076 456.031 733.234 460.74 733.234 466.18C733.234 471.468 732.076 476.127 729.759 480.156C727.492 484.186 724.244 487.334 720.013 489.6C715.832 491.867 710.896 493 705.205 493H687.753ZM694.401 487.107H705.356C709.687 487.107 713.415 486.2 716.537 484.387C719.711 482.524 722.153 480.03 723.866 476.908C725.578 473.735 726.435 470.159 726.435 466.18C726.435 462.1 725.578 458.499 723.866 455.376C722.153 452.203 719.711 449.735 716.537 447.972C713.415 446.159 709.687 445.252 705.356 445.252H694.401V487.107ZM760.994 493.907C757.115 493.907 753.665 493.05 750.643 491.338C747.621 489.575 745.229 487.157 743.466 484.085C741.754 481.013 740.897 477.462 740.897 473.432C740.897 469.403 741.754 465.852 743.466 462.78C745.178 459.707 747.546 457.315 750.568 455.602C753.59 453.84 757.065 452.958 760.994 452.958C764.771 452.958 768.171 453.814 771.193 455.527C774.215 457.239 776.582 459.632 778.295 462.704C780.058 465.777 780.939 469.353 780.939 473.432C780.939 477.462 780.058 481.013 778.295 484.085C776.532 487.157 774.14 489.575 771.117 491.338C768.146 493.05 764.771 493.907 760.994 493.907ZM760.994 488.316C763.562 488.316 765.879 487.711 767.944 486.503C770.009 485.243 771.621 483.506 772.78 481.29C773.988 479.023 774.593 476.404 774.593 473.432C774.593 470.461 773.988 467.867 772.78 465.651C771.571 463.384 769.934 461.647 767.869 460.438C765.854 459.179 763.562 458.549 760.994 458.549C758.324 458.549 755.932 459.179 753.816 460.438C751.751 461.647 750.14 463.384 748.981 465.651C747.823 467.867 747.244 470.461 747.244 473.432C747.244 476.404 747.823 479.023 748.981 481.29C750.14 483.506 751.751 485.243 753.816 486.503C755.932 487.711 758.324 488.316 760.994 488.316ZM789.777 493V453.865H795.821V459.456C798.39 455.124 802.47 452.958 808.061 452.958C812.745 452.958 816.447 454.469 819.167 457.491C821.886 460.513 823.246 464.643 823.246 469.882V493H817.051V470.184C817.051 466.457 816.145 463.56 814.331 461.495C812.569 459.43 810.126 458.398 807.003 458.398C803.729 458.398 801.06 459.506 798.995 461.722C796.98 463.888 795.973 466.708 795.973 470.184V493H789.777ZM832.491 455.527V452.052C833.801 452.052 834.909 451.749 835.816 451.145C836.773 450.541 837.327 449.609 837.478 448.35C837.377 448.45 837.176 448.501 836.873 448.501C835.463 448.501 834.305 448.073 833.398 447.216C832.491 446.31 832.038 445.151 832.038 443.741C832.038 442.23 832.491 441.046 833.398 440.19C834.305 439.334 835.463 438.906 836.873 438.906C838.334 438.906 839.492 439.46 840.349 440.568C841.205 441.626 841.633 443.187 841.633 445.252C841.633 446.965 841.28 448.627 840.575 450.238C839.921 451.8 838.913 453.084 837.553 454.091C836.244 455.048 834.556 455.527 832.491 455.527ZM866.182 493.907C863.11 493.907 860.642 493.025 858.778 491.262C856.965 489.499 856.059 487.032 856.059 483.858V459.153H848.201V453.865H856.059V443.59L861.8 441.55H862.254V453.865H872.604V459.153H862.254V483.405C862.254 484.966 862.631 486.251 863.387 487.258C864.143 488.265 865.427 488.769 867.24 488.769C868.751 488.769 870.413 488.341 872.226 487.485H872.604V492.396C870.589 493.403 868.449 493.907 866.182 493.907ZM897.007 493V439.359H903.656V466.255L927.53 439.359H936.218L916.273 462.175L938.56 493H930.552L911.589 467.237L903.656 476.152V493H897.007ZM945.834 493V453.865H951.878V459.456C954.447 455.124 958.527 452.958 964.118 452.958C968.802 452.958 972.504 454.469 975.224 457.491C977.943 460.513 979.303 464.643 979.303 469.882V493H973.108V470.184C973.108 466.457 972.201 463.56 970.388 461.495C968.625 459.43 966.183 458.398 963.06 458.398C959.786 458.398 957.117 459.506 955.052 461.722C953.037 463.888 952.029 466.708 952.029 470.184V493H945.834ZM1007.44 493.907C1003.56 493.907 1000.11 493.05 997.086 491.338C994.063 489.575 991.671 487.157 989.908 484.085C988.196 481.013 987.339 477.462 987.339 473.432C987.339 469.403 988.196 465.852 989.908 462.78C991.621 459.707 993.988 457.315 997.01 455.602C1000.03 453.84 1003.51 452.958 1007.44 452.958C1011.21 452.958 1014.61 453.814 1017.64 455.527C1020.66 457.239 1023.02 459.632 1024.74 462.704C1026.5 465.777 1027.38 469.353 1027.38 473.432C1027.38 477.462 1026.5 481.013 1024.74 484.085C1022.97 487.157 1020.58 489.575 1017.56 491.338C1014.59 493.05 1011.21 493.907 1007.44 493.907ZM1007.44 488.316C1010 488.316 1012.32 487.711 1014.39 486.503C1016.45 485.243 1018.06 483.506 1019.22 481.29C1020.43 479.023 1021.04 476.404 1021.04 473.432C1021.04 470.461 1020.43 467.867 1019.22 465.651C1018.01 463.384 1016.38 461.647 1014.31 460.438C1012.3 459.179 1010 458.549 1007.44 458.549C1004.77 458.549 1002.37 459.179 1000.26 460.438C998.194 461.647 996.582 463.384 995.423 465.651C994.265 467.867 993.686 470.461 993.686 473.432C993.686 476.404 994.265 479.023 995.423 481.29C996.582 483.506 998.194 485.243 1000.26 486.503C1002.37 487.711 1004.77 488.316 1007.44 488.316ZM1046.07 493L1031.94 453.865H1038.59L1049.09 484.009L1060.8 453.865H1066.55L1078.03 483.858L1088.68 453.865H1095.33L1080.82 493H1075.31L1063.67 462.402L1051.74 493H1046.07ZM1112.45 477.739V476.228C1112.45 474.767 1112.6 473.306 1112.9 471.846C1113.25 470.385 1113.96 468.874 1115.01 467.313C1116.07 465.751 1117.66 464.14 1119.77 462.478C1122.09 460.614 1123.73 458.876 1124.68 457.265C1125.69 455.602 1126.2 453.915 1126.2 452.203C1126.2 449.684 1125.34 447.745 1123.63 446.385C1121.91 444.975 1119.65 444.27 1116.83 444.27C1114.06 444.27 1111.77 445.126 1109.95 446.839C1108.14 448.501 1107.11 450.792 1106.85 453.714L1100.36 453.487C1100.66 449.004 1102.27 445.378 1105.19 442.608C1108.11 439.838 1112.02 438.453 1116.9 438.453C1120.03 438.453 1122.8 439.007 1125.21 440.115C1127.63 441.172 1129.52 442.709 1130.88 444.723C1132.24 446.688 1132.92 449.004 1132.92 451.674C1132.92 454.142 1132.26 456.509 1130.96 458.776C1129.7 461.042 1127.56 463.409 1124.53 465.877C1122.17 467.791 1120.58 469.579 1119.77 471.241C1119.02 472.904 1118.64 474.566 1118.64 476.228V477.739H1112.45ZM1115.69 493.453C1114.28 493.453 1113.13 493.025 1112.22 492.169C1111.31 491.313 1110.86 490.154 1110.86 488.694C1110.86 487.233 1111.31 486.075 1112.22 485.218C1113.13 484.312 1114.28 483.858 1115.69 483.858C1117.05 483.858 1118.19 484.312 1119.09 485.218C1120 486.075 1120.45 487.233 1120.45 488.694C1120.45 490.154 1120 491.313 1119.09 492.169C1118.19 493.025 1117.05 493.453 1115.69 493.453ZM1157.32 493V439.359H1163.97V466.255L1187.84 439.359H1196.53L1176.58 462.175L1198.87 493H1190.86L1171.9 467.237L1163.97 476.152V493H1157.32ZM1217.27 493.907C1213.24 493.907 1209.99 492.899 1207.52 490.885C1205.06 488.87 1203.82 486.175 1203.82 482.801C1203.82 479.174 1204.98 476.354 1207.3 474.339C1209.66 472.274 1212.76 470.864 1216.59 470.108L1230.57 467.388V466.028C1230.57 463.762 1229.66 461.924 1227.85 460.513C1226.03 459.103 1223.57 458.398 1220.44 458.398C1217.77 458.398 1215.48 459.002 1213.57 460.211C1211.7 461.42 1210.5 463.233 1209.94 465.651L1203.97 465.349C1204.68 461.47 1206.54 458.448 1209.56 456.282C1212.59 454.066 1216.24 452.958 1220.52 452.958C1225.61 452.958 1229.58 454.167 1232.46 456.585C1235.33 459.002 1236.76 462.15 1236.76 466.028V493H1230.72V487.711C1229.56 489.575 1227.85 491.086 1225.58 492.244C1223.31 493.353 1220.54 493.907 1217.27 493.907ZM1218.1 488.543C1221.98 488.543 1225.03 487.56 1227.24 485.596C1229.46 483.632 1230.57 480.887 1230.57 477.361V472.601L1218.18 475.019C1215.86 475.472 1213.92 476.329 1212.36 477.588C1210.85 478.796 1210.09 480.433 1210.09 482.498C1210.09 484.614 1210.87 486.15 1212.43 487.107C1214 488.064 1215.88 488.543 1218.1 488.543ZM1261.79 493.907C1258.92 493.907 1256.33 493.403 1254.01 492.396C1251.74 491.388 1249.93 489.978 1248.57 488.165C1247.21 486.301 1246.46 484.135 1246.3 481.667L1252.05 480.987C1252.35 483.254 1253.38 485.067 1255.14 486.427C1256.91 487.787 1259.12 488.467 1261.79 488.467C1264.16 488.467 1266.12 487.963 1267.68 486.956C1269.25 485.898 1270.03 484.538 1270.03 482.876C1270.03 481.365 1269.57 480.182 1268.67 479.325C1267.76 478.419 1266.58 477.714 1265.12 477.21C1263.66 476.656 1262.09 476.177 1260.43 475.774C1258.87 475.372 1257.31 474.918 1255.75 474.415C1254.24 473.911 1252.83 473.256 1251.52 472.45C1250.26 471.594 1249.25 470.511 1248.49 469.202C1247.74 467.842 1247.36 466.129 1247.36 464.064C1247.36 460.74 1248.6 458.07 1251.06 456.056C1253.58 453.991 1256.86 452.958 1260.89 452.958C1264.76 452.958 1268.01 453.966 1270.63 455.98C1273.25 457.945 1274.71 460.589 1275.01 463.913L1269.2 464.593C1268.94 462.679 1268.04 461.168 1266.48 460.06C1264.96 458.952 1263.13 458.398 1260.96 458.398C1258.74 458.398 1256.96 458.876 1255.6 459.833C1254.24 460.79 1253.56 462.049 1253.56 463.611C1253.56 465.071 1253.98 466.23 1254.84 467.086C1255.75 467.942 1256.91 468.622 1258.32 469.126C1259.78 469.579 1261.34 470.033 1263 470.486C1264.56 470.889 1266.12 471.367 1267.68 471.921C1269.25 472.425 1270.66 473.105 1271.92 473.961C1273.23 474.818 1274.26 475.951 1275.01 477.361C1275.82 478.721 1276.22 480.459 1276.22 482.574C1276.22 484.841 1275.59 486.83 1274.33 488.543C1273.07 490.255 1271.36 491.59 1269.2 492.547C1267.03 493.453 1264.56 493.907 1261.79 493.907ZM1288.72 447.443C1287.46 447.443 1286.35 447.015 1285.4 446.159C1284.44 445.252 1283.96 444.144 1283.96 442.834C1283.96 441.475 1284.44 440.366 1285.4 439.51C1286.35 438.604 1287.46 438.15 1288.72 438.15C1290.03 438.15 1291.14 438.604 1292.05 439.51C1293 440.366 1293.48 441.475 1293.48 442.834C1293.48 444.144 1293 445.252 1292.05 446.159C1291.14 447.015 1290.03 447.443 1288.72 447.443ZM1285.62 493V453.865H1291.82V493H1285.62ZM1302.73 493V439.132H1308.93V459.531C1310.23 457.214 1311.97 455.552 1314.14 454.545C1316.3 453.487 1318.6 452.958 1321.01 452.958C1325.5 452.958 1329.15 454.394 1331.97 457.265C1334.79 460.136 1336.2 464.341 1336.2 469.882V493H1330V470.184C1330 466.154 1329.05 463.183 1327.13 461.269C1325.22 459.355 1322.83 458.398 1319.96 458.398C1316.73 458.398 1314.09 459.481 1312.02 461.647C1309.96 463.762 1308.93 466.608 1308.93 470.184V493H1302.73ZM1361.33 493V439.359H1367.45L1397.3 480.836V439.359H1403.94V493H1397.75L1367.98 451.296V493H1361.33ZM1433.62 493.907C1429.74 493.907 1426.29 493.05 1423.27 491.338C1420.24 489.575 1417.85 487.157 1416.09 484.085C1414.38 481.013 1413.52 477.462 1413.52 473.432C1413.52 469.403 1414.38 465.852 1416.09 462.78C1417.8 459.707 1420.17 457.315 1423.19 455.602C1426.21 453.84 1429.69 452.958 1433.62 452.958C1437.39 452.958 1440.79 453.814 1443.82 455.527C1446.84 457.239 1449.2 459.632 1450.92 462.704C1452.68 465.777 1453.56 469.353 1453.56 473.432C1453.56 477.462 1452.68 481.013 1450.92 484.085C1449.15 487.157 1446.76 489.575 1443.74 491.338C1440.77 493.05 1437.39 493.907 1433.62 493.907ZM1433.62 488.316C1436.18 488.316 1438.5 487.711 1440.57 486.503C1442.63 485.243 1444.24 483.506 1445.4 481.29C1446.61 479.023 1447.21 476.404 1447.21 473.432C1447.21 470.461 1446.61 467.867 1445.4 465.651C1444.19 463.384 1442.56 461.647 1440.49 460.438C1438.48 459.179 1436.18 458.549 1433.62 458.549C1430.95 458.549 1428.55 459.179 1426.44 460.438C1424.37 461.647 1422.76 463.384 1421.6 465.651C1420.44 467.867 1419.87 470.461 1419.87 473.432C1419.87 476.404 1420.44 479.023 1421.6 481.29C1422.76 483.506 1424.37 485.243 1426.44 486.503C1428.55 487.711 1430.95 488.316 1433.62 488.316ZM1464.29 477.739L1463.83 438.453H1470.56L1470.18 477.739H1464.29ZM1467.16 493.453C1465.8 493.453 1464.67 493.025 1463.76 492.169C1462.85 491.313 1462.4 490.154 1462.4 488.694C1462.4 487.233 1462.85 486.075 1463.76 485.218C1464.67 484.312 1465.8 483.858 1467.16 483.858C1468.57 483.858 1469.73 484.312 1470.63 485.218C1471.54 486.075 1471.99 487.233 1471.99 488.694C1471.99 490.154 1471.54 491.313 1470.63 492.169C1469.73 493.025 1468.57 493.453 1467.16 493.453Z" fill="white"/>
</svg>