<svg width="1634" height="628" viewBox="0 0 1634 628" fill="none" xmlns="http://www.w3.org/2000/svg">
<g filter="url(#filter0_d_70_2418)">
<rect x="6" width="1587.47" height="617.348" rx="30.8805" fill="#DCF8C7"/>
<path d="M90.2225 134.232C85.9888 134.232 82.1668 133.497 78.7563 132.027C75.3458 130.498 72.6116 128.352 70.5536 125.588C68.4955 122.766 67.3195 119.444 67.0255 115.622L74.6108 115.269C75.0812 119.267 76.7865 122.296 79.7265 124.354C82.7254 126.353 86.2828 127.353 90.3989 127.353C94.6914 127.353 98.1313 126.441 100.719 124.618C103.306 122.795 104.599 120.267 104.599 117.033C104.599 114.269 103.864 112.152 102.394 110.682C100.924 109.154 98.9839 108.007 96.573 107.243C94.221 106.478 91.6631 105.773 88.8995 105.126C86.5474 104.597 84.166 103.979 81.7552 103.273C79.4031 102.568 77.2569 101.598 75.3164 100.363C73.4348 99.0692 71.906 97.364 70.73 95.2471C69.5539 93.1303 68.9659 90.3961 68.9659 87.0444C68.9659 83.4575 69.7891 80.3705 71.4356 77.7832C73.1408 75.1372 75.4928 73.1085 78.4917 71.6973C81.5494 70.2273 85.1068 69.4923 89.1641 69.4923C92.8686 69.4923 96.2202 70.1685 99.2191 71.5209C102.277 72.8145 104.746 74.6374 106.628 76.9894C108.568 79.2827 109.744 81.9581 110.156 85.0158L102.571 85.3686C102.159 82.4285 100.689 80.1941 98.1607 78.6652C95.691 77.1364 92.7216 76.372 89.2523 76.372C85.6066 76.372 82.6078 77.254 80.2557 79.0181C77.9037 80.7233 76.7277 83.2811 76.7277 86.6916C76.7277 89.3376 77.4627 91.3957 78.9327 92.8657C80.4027 94.2769 82.3138 95.3647 84.6658 96.1292C87.0179 96.8936 89.5463 97.6286 92.2511 98.3342C94.662 98.9222 97.0434 99.5984 99.3955 100.363C101.806 101.068 103.982 102.039 105.922 103.273C107.863 104.508 109.421 106.184 110.597 108.301C111.773 110.359 112.361 113.064 112.361 116.416C112.361 120.12 111.42 123.295 109.539 125.941C107.657 128.587 105.04 130.645 101.689 132.115C98.3959 133.527 94.5738 134.232 90.2225 134.232ZM147.25 134.232C142.84 134.232 138.841 133.233 135.254 131.233C131.726 129.175 128.933 126.353 126.875 122.766C124.817 119.179 123.788 115.034 123.788 110.33C123.788 105.626 124.817 101.48 126.875 97.8932C128.933 94.3063 131.697 91.5133 135.166 89.514C138.694 87.456 142.634 86.427 146.985 86.427C151.572 86.427 155.511 87.3972 158.804 89.3376C162.156 91.2781 164.743 93.8653 166.566 97.0994C168.389 100.333 169.3 103.92 169.3 107.86C169.3 109.389 169.153 110.976 168.859 112.623H131.021C131.256 115.916 132.138 118.738 133.667 121.09C135.195 123.383 137.165 125.147 139.576 126.382C141.987 127.617 144.545 128.235 147.25 128.235C150.778 128.235 153.865 127.353 156.511 125.588C159.157 123.766 160.862 121.296 161.627 118.18L168.683 118.709C167.507 123.53 164.949 127.323 161.009 130.087C157.069 132.85 152.483 134.232 147.25 134.232ZM131.197 106.449H162.156C162.097 102.45 160.686 99.128 157.922 96.482C155.158 93.7771 151.513 92.4247 146.985 92.4247C144.457 92.4247 142.046 92.9833 139.753 94.1005C137.459 95.1589 135.548 96.7172 134.019 98.7752C132.491 100.833 131.55 103.391 131.197 106.449ZM181.626 133.174V70.5507H188.858V133.174H181.626ZM217.784 134.232C213.08 134.232 209.287 133.056 206.406 130.704C203.525 128.352 202.084 125.206 202.084 121.267C202.084 117.033 203.437 113.74 206.141 111.388C208.905 108.977 212.521 107.331 216.99 106.449L233.308 103.273V101.686C233.308 99.0398 232.249 96.8936 230.132 95.2471C228.015 93.6007 225.134 92.7775 221.489 92.7775C218.372 92.7775 215.697 93.4831 213.462 94.8943C211.287 96.3056 209.875 98.4224 209.228 101.245L202.261 100.892C203.084 96.3644 205.259 92.8363 208.787 90.3079C212.316 87.7206 216.579 86.427 221.577 86.427C227.516 86.427 232.161 87.8382 235.513 90.6607C238.864 93.4831 240.54 97.1582 240.54 101.686V133.174H233.484V127C232.132 129.175 230.132 130.939 227.486 132.292C224.84 133.585 221.606 134.232 217.784 134.232ZM218.754 127.97C223.282 127.97 226.839 126.823 229.427 124.53C232.014 122.237 233.308 119.032 233.308 114.916V109.359L218.842 112.182C216.138 112.711 213.874 113.711 212.051 115.181C210.287 116.592 209.405 118.503 209.405 120.914C209.405 123.383 210.316 125.177 212.139 126.294C213.962 127.411 216.167 127.97 218.754 127.97ZM256.39 133.174V87.4854H263.446V93.9241C264.975 91.2193 266.945 89.3082 269.356 88.191C271.767 87.015 274.413 86.427 277.294 86.427C280.94 86.427 284.085 87.2502 286.732 88.8966C289.436 90.4843 291.465 92.8951 292.817 96.1292C294.287 92.7187 296.463 90.2491 299.344 88.7202C302.226 87.1914 305.195 86.427 308.253 86.427C313.486 86.427 317.661 88.1028 320.777 91.4545C323.953 94.8061 325.54 99.716 325.54 106.184V133.174H318.308V106.537C318.308 101.833 317.249 98.3636 315.132 96.1292C313.074 93.8947 310.37 92.7775 307.018 92.7775C303.313 92.7775 300.315 94.0417 298.021 96.5702C295.728 99.0398 294.581 102.362 294.581 106.537V133.174H287.349V106.537C287.349 101.833 286.29 98.3636 284.174 96.1292C282.116 93.8947 279.411 92.7775 276.059 92.7775C272.355 92.7775 269.356 94.0417 267.063 96.5702C264.769 99.0398 263.623 102.362 263.623 106.537V133.174H256.39ZM352.67 134.232C347.966 134.232 344.174 133.056 341.292 130.704C338.411 128.352 336.971 125.206 336.971 121.267C336.971 117.033 338.323 113.74 341.028 111.388C343.791 108.977 347.408 107.331 351.877 106.449L368.194 103.273V101.686C368.194 99.0398 367.136 96.8936 365.019 95.2471C362.902 93.6007 360.021 92.7775 356.375 92.7775C353.258 92.7775 350.583 93.4831 348.349 94.8943C346.173 96.3056 344.762 98.4224 344.115 101.245L337.147 100.892C337.97 96.3644 340.146 92.8363 343.674 90.3079C347.202 87.7206 351.465 86.427 356.463 86.427C362.402 86.427 367.047 87.8382 370.399 90.6607C373.751 93.4831 375.426 97.1582 375.426 101.686V133.174H368.37V127C367.018 129.175 365.019 130.939 362.373 132.292C359.727 133.585 356.493 134.232 352.67 134.232ZM353.641 127.97C358.168 127.97 361.726 126.823 364.313 124.53C366.9 122.237 368.194 119.032 368.194 114.916V109.359L353.729 112.182C351.024 112.711 348.76 113.711 346.937 115.181C345.173 116.592 344.291 118.503 344.291 120.914C344.291 123.383 345.203 125.177 347.026 126.294C348.848 127.411 351.053 127.97 353.641 127.97ZM406.911 134.232C403.324 134.232 400.443 133.203 398.267 131.145C396.15 129.087 395.092 126.206 395.092 122.501V93.6595H385.919V87.4854H395.092V75.49L401.795 73.1085H402.324V87.4854H414.408V93.6595H402.324V121.972C402.324 123.795 402.765 125.294 403.648 126.471C404.53 127.647 406.029 128.235 408.146 128.235C409.91 128.235 411.85 127.735 413.967 126.735H414.408V132.468C412.056 133.644 409.557 134.232 406.911 134.232ZM461.579 134.232C458.228 134.232 455.2 133.644 452.495 132.468C449.849 131.292 447.732 129.646 446.144 127.529C444.557 125.353 443.674 122.825 443.498 119.944L450.201 119.15C450.554 121.796 451.76 123.913 453.818 125.5C455.876 127.088 458.463 127.882 461.579 127.882C464.343 127.882 466.636 127.294 468.459 126.118C470.282 124.883 471.193 123.295 471.193 121.355C471.193 119.591 470.664 118.209 469.606 117.209C468.547 116.151 467.166 115.328 465.46 114.74C463.755 114.093 461.932 113.534 459.992 113.064C458.169 112.593 456.346 112.064 454.523 111.476C452.759 110.888 451.113 110.124 449.584 109.183C448.114 108.183 446.938 106.919 446.056 105.39C445.174 103.803 444.733 101.803 444.733 99.3926C444.733 95.5117 446.174 92.3953 449.055 90.0433C451.995 87.6324 455.817 86.427 460.521 86.427C465.049 86.427 468.841 87.603 471.899 89.9551C474.957 92.2483 476.662 95.3353 477.015 99.2162L470.223 100.01C469.929 97.7756 468.871 96.0116 467.048 94.7179C465.284 93.4243 463.138 92.7775 460.609 92.7775C458.022 92.7775 455.935 93.3361 454.347 94.4533C452.759 95.5706 451.965 97.0406 451.965 98.8634C451.965 100.569 452.465 101.921 453.465 102.921C454.523 103.92 455.876 104.714 457.522 105.302C459.227 105.831 461.05 106.361 462.991 106.89C464.813 107.36 466.636 107.919 468.459 108.566C470.282 109.154 471.928 109.947 473.398 110.947C474.927 111.947 476.133 113.27 477.015 114.916C477.956 116.504 478.426 118.532 478.426 121.002C478.426 123.648 477.691 125.971 476.221 127.97C474.751 129.969 472.752 131.527 470.223 132.645C467.695 133.703 464.813 134.232 461.579 134.232ZM495.084 79.9883C493.614 79.9883 492.32 79.4885 491.203 78.4888C490.086 77.4304 489.527 76.1368 489.527 74.608C489.527 73.0203 490.086 71.7267 491.203 70.7271C492.32 69.6687 493.614 69.1395 495.084 69.1395C496.612 69.1395 497.906 69.6687 498.965 70.7271C500.082 71.7267 500.64 73.0203 500.64 74.608C500.64 76.1368 500.082 77.4304 498.965 78.4888C497.906 79.4885 496.612 79.9883 495.084 79.9883ZM491.467 133.174V87.4854H498.7V133.174H491.467ZM527.437 134.232C522.733 134.232 518.94 133.056 516.059 130.704C513.178 128.352 511.737 125.206 511.737 121.267C511.737 117.033 513.09 113.74 515.794 111.388C518.558 108.977 522.174 107.331 526.643 106.449L542.961 103.273V101.686C542.961 99.0398 541.902 96.8936 539.785 95.2471C537.668 93.6007 534.787 92.7775 531.142 92.7775C528.025 92.7775 525.35 93.4831 523.115 94.8943C520.94 96.3056 519.528 98.4224 518.882 101.245L511.914 100.892C512.737 96.3644 514.912 92.8363 518.441 90.3079C521.969 87.7206 526.232 86.427 531.23 86.427C537.169 86.427 541.814 87.8382 545.166 90.6607C548.517 93.4831 550.193 97.1582 550.193 101.686V133.174H543.137V127C541.785 129.175 539.785 130.939 537.139 132.292C534.493 133.585 531.259 134.232 527.437 134.232ZM528.407 127.97C532.935 127.97 536.492 126.823 539.08 124.53C541.667 122.237 542.961 119.032 542.961 114.916V109.359L528.495 112.182C525.791 112.711 523.527 113.711 521.704 115.181C519.94 116.592 519.058 118.503 519.058 120.914C519.058 123.383 519.969 125.177 521.792 126.294C523.615 127.411 525.82 127.97 528.407 127.97ZM566.043 133.174V87.4854H573.099V94.0123C576.098 88.9554 580.861 86.427 587.388 86.427C592.856 86.427 597.178 88.191 600.354 91.7191C603.529 95.2471 605.116 100.069 605.116 106.184V133.174H597.884V106.537C597.884 102.186 596.826 98.8046 594.709 96.3938C592.651 93.9829 589.799 92.7775 586.153 92.7775C582.331 92.7775 579.215 94.0711 576.804 96.6584C574.452 99.1868 573.276 102.48 573.276 106.537V133.174H566.043ZM640.201 151.873C636.614 151.873 633.292 151.285 630.234 150.109C627.176 148.933 624.589 147.198 622.472 144.905C620.414 142.611 619.032 139.848 618.327 136.614L625.471 135.82C626.588 138.878 628.47 141.23 631.116 142.876C633.821 144.522 636.82 145.346 640.113 145.346C642.935 145.346 645.522 144.699 647.874 143.405C650.285 142.17 652.196 140.318 653.607 137.849C655.019 135.438 655.724 132.498 655.724 129.028V123.648C654.078 126.235 651.755 128.293 648.756 129.822C645.757 131.292 642.553 132.027 639.142 132.027C634.85 132.027 630.998 131.057 627.588 129.117C624.177 127.117 621.473 124.412 619.473 121.002C617.533 117.533 616.563 113.622 616.563 109.271C616.563 104.861 617.533 100.951 619.473 97.5404C621.414 94.0711 624.089 91.3663 627.5 89.4258C630.91 87.4266 634.82 86.427 639.231 86.427C642.582 86.427 645.757 87.162 648.756 88.632C651.755 90.0433 654.137 92.1307 655.901 94.8943V87.4854H662.957V129.028C662.957 133.732 661.928 137.79 659.87 141.2C657.87 144.669 655.166 147.315 651.755 149.138C648.345 150.961 644.493 151.873 640.201 151.873ZM639.76 125.5C642.759 125.5 645.463 124.853 647.874 123.56C650.285 122.266 652.196 120.414 653.607 118.003C655.019 115.534 655.724 112.623 655.724 109.271C655.724 105.861 655.019 102.95 653.607 100.539C652.196 98.0696 650.285 96.188 647.874 94.8943C645.463 93.6007 642.759 92.9539 639.76 92.9539C636.702 92.9539 633.968 93.6595 631.557 95.0707C629.205 96.4232 627.353 98.3342 626 100.804C624.648 103.215 623.972 106.037 623.972 109.271C623.972 112.446 624.648 115.269 626 117.739C627.353 120.149 629.205 122.06 631.557 123.472C633.968 124.824 636.702 125.5 639.76 125.5ZM682.627 133.703C681.039 133.703 679.716 133.203 678.658 132.204C677.6 131.204 677.07 129.852 677.07 128.146C677.07 126.441 677.6 125.089 678.658 124.089C679.716 123.031 681.039 122.501 682.627 122.501C684.273 122.501 685.626 123.031 686.684 124.089C687.743 125.089 688.272 126.441 688.272 128.146C688.272 129.852 687.743 131.204 686.684 132.204C685.626 133.203 684.273 133.703 682.627 133.703ZM69.6715 246.174V183.551H91.4573C97.5138 183.551 102.247 185.227 105.658 188.578C109.127 191.871 110.862 196.252 110.862 201.72C110.862 207.13 109.127 211.54 105.658 214.95C102.247 218.302 97.5138 219.978 91.4573 219.978H77.4333V246.174H69.6715ZM77.4333 213.098H91.3691C95.0148 213.098 97.8666 212.04 99.9247 209.923C102.042 207.806 103.1 205.072 103.1 201.72C103.1 198.251 102.042 195.517 99.9247 193.517C97.8666 191.459 95.0148 190.43 91.3691 190.43H77.4333V213.098ZM135.784 247.232C131.08 247.232 127.287 246.056 124.406 243.704C121.525 241.352 120.084 238.206 120.084 234.267C120.084 230.033 121.437 226.74 124.142 224.388C126.905 221.977 130.521 220.331 134.99 219.449L151.308 216.273V214.686C151.308 212.04 150.249 209.894 148.132 208.247C146.016 206.601 143.134 205.777 139.489 205.777C136.372 205.777 133.697 206.483 131.462 207.894C129.287 209.306 127.875 211.422 127.229 214.245L120.261 213.892C121.084 209.364 123.26 205.836 126.788 203.308C130.316 200.721 134.579 199.427 139.577 199.427C145.516 199.427 150.161 200.838 153.513 203.661C156.864 206.483 158.54 210.158 158.54 214.686V246.174H151.484V240C150.132 242.175 148.132 243.939 145.486 245.292C142.84 246.585 139.606 247.232 135.784 247.232ZM136.754 240.97C141.282 240.97 144.84 239.823 147.427 237.53C150.014 235.237 151.308 232.032 151.308 227.916V222.359L136.843 225.182C134.138 225.711 131.874 226.711 130.051 228.181C128.287 229.592 127.405 231.503 127.405 233.914C127.405 236.383 128.316 238.177 130.139 239.294C131.962 240.411 134.167 240.97 136.754 240.97ZM174.39 246.174V182.492H181.623V221.654L204.202 200.485H213.375L195.206 218.214L215.139 246.174H206.584L189.737 222.8L181.623 230.65V246.174H174.39ZM244.668 247.232C240.258 247.232 236.259 246.233 232.672 244.233C229.144 242.175 226.351 239.353 224.293 235.766C222.235 232.179 221.206 228.034 221.206 223.33C221.206 218.626 222.235 214.48 224.293 210.893C226.351 207.306 229.115 204.513 232.584 202.514C236.112 200.456 240.052 199.427 244.403 199.427C248.989 199.427 252.929 200.397 256.222 202.338C259.574 204.278 262.161 206.865 263.984 210.099C265.807 213.333 266.718 216.92 266.718 220.86C266.718 222.389 266.571 223.976 266.277 225.623H228.439C228.674 228.916 229.556 231.738 231.085 234.09C232.613 236.383 234.583 238.147 236.994 239.382C239.405 240.617 241.963 241.235 244.668 241.235C248.196 241.235 251.283 240.353 253.929 238.588C256.575 236.766 258.28 234.296 259.044 231.18L266.101 231.709C264.925 236.53 262.367 240.323 258.427 243.087C254.487 245.85 249.901 247.232 244.668 247.232ZM228.615 219.449H259.574C259.515 215.45 258.104 212.128 255.34 209.482C252.576 206.777 248.931 205.425 244.403 205.425C241.875 205.425 239.464 205.983 237.17 207.101C234.877 208.159 232.966 209.717 231.437 211.775C229.909 213.833 228.968 216.391 228.615 219.449ZM295.625 247.232C292.039 247.232 289.157 246.203 286.982 244.145C284.865 242.087 283.806 239.206 283.806 235.501V206.66H274.633V200.485H283.806V188.49L290.51 186.109H291.039V200.485H303.123V206.66H291.039V234.972C291.039 236.795 291.48 238.294 292.362 239.471C293.244 240.647 294.743 241.235 296.86 241.235C298.624 241.235 300.565 240.735 302.682 239.735H303.123V245.468C300.77 246.644 298.271 247.232 295.625 247.232ZM350.294 247.232C346.942 247.232 343.914 246.644 341.209 245.468C338.563 244.292 336.446 242.646 334.859 240.529C333.271 238.353 332.389 235.825 332.213 232.944L338.916 232.15C339.269 234.796 340.474 236.913 342.532 238.5C344.59 240.088 347.177 240.882 350.294 240.882C353.057 240.882 355.351 240.294 357.174 239.118C358.996 237.883 359.908 236.295 359.908 234.355C359.908 232.591 359.379 231.209 358.32 230.209C357.262 229.151 355.88 228.328 354.175 227.74C352.469 227.093 350.647 226.534 348.706 226.064C346.883 225.593 345.061 225.064 343.238 224.476C341.474 223.888 339.827 223.124 338.298 222.183C336.828 221.183 335.652 219.919 334.77 218.39C333.888 216.803 333.447 214.803 333.447 212.393C333.447 208.512 334.888 205.395 337.769 203.043C340.709 200.632 344.531 199.427 349.235 199.427C353.763 199.427 357.556 200.603 360.613 202.955C363.671 205.248 365.376 208.335 365.729 212.216L358.938 213.01C358.644 210.776 357.585 209.012 355.762 207.718C353.998 206.424 351.852 205.777 349.324 205.777C346.736 205.777 344.649 206.336 343.061 207.453C341.474 208.571 340.68 210.041 340.68 211.863C340.68 213.569 341.18 214.921 342.179 215.921C343.238 216.92 344.59 217.714 346.237 218.302C347.942 218.831 349.765 219.361 351.705 219.89C353.528 220.36 355.351 220.919 357.174 221.566C358.996 222.154 360.643 222.947 362.113 223.947C363.642 224.947 364.847 226.27 365.729 227.916C366.67 229.504 367.14 231.532 367.14 234.002C367.14 236.648 366.405 238.971 364.935 240.97C363.465 242.969 361.466 244.527 358.938 245.645C356.409 246.703 353.528 247.232 350.294 247.232ZM395.529 247.232C390.59 247.232 386.532 245.703 383.357 242.646C380.182 239.529 378.594 234.796 378.594 228.445V200.485H385.827V227.828C385.827 232.532 386.885 235.854 389.002 237.795C391.119 239.735 393.765 240.705 396.94 240.705C400.645 240.705 403.702 239.588 406.113 237.354C408.524 235.119 409.729 231.944 409.729 227.828V200.485H416.962V246.174H409.906V239.823C408.377 242.352 406.348 244.233 403.82 245.468C401.35 246.644 398.587 247.232 395.529 247.232ZM451.201 247.232C446.791 247.232 442.881 246.233 439.47 244.233C436.06 242.234 433.355 239.441 431.356 235.854C429.415 232.267 428.445 228.093 428.445 223.33C428.445 218.567 429.415 214.392 431.356 210.805C433.355 207.218 436.06 204.425 439.47 202.426C442.94 200.427 446.821 199.427 451.113 199.427C454.582 199.427 457.787 200.191 460.727 201.72C463.726 203.19 466.078 205.219 467.783 207.806V182.492H475.016V246.174H467.96V238.677C466.137 241.382 463.755 243.498 460.815 245.027C457.875 246.497 454.671 247.232 451.201 247.232ZM451.73 240.705C454.729 240.705 457.434 240.029 459.845 238.677C462.315 237.324 464.255 235.354 465.666 232.767C467.078 230.18 467.783 227.034 467.783 223.33C467.783 219.625 467.078 216.479 465.666 213.892C464.255 211.305 462.315 209.335 459.845 207.983C457.434 206.63 454.729 205.954 451.73 205.954C448.673 205.954 445.939 206.689 443.528 208.159C441.176 209.57 439.294 211.569 437.883 214.157C436.53 216.744 435.854 219.802 435.854 223.33C435.854 226.799 436.53 229.857 437.883 232.503C439.294 235.09 441.176 237.118 443.528 238.588C445.939 240 448.673 240.705 451.73 240.705ZM503.061 247.232C498.357 247.232 494.564 246.056 491.683 243.704C488.802 241.352 487.361 238.206 487.361 234.267C487.361 230.033 488.714 226.74 491.418 224.388C494.182 221.977 497.798 220.331 502.267 219.449L518.585 216.273V214.686C518.585 212.04 517.526 209.894 515.409 208.247C513.292 206.601 510.411 205.777 506.766 205.777C503.649 205.777 500.974 206.483 498.739 207.894C496.564 209.306 495.152 211.422 494.505 214.245L487.538 213.892C488.361 209.364 490.536 205.836 494.064 203.308C497.593 200.721 501.856 199.427 506.854 199.427C512.793 199.427 517.438 200.838 520.79 203.661C524.141 206.483 525.817 210.158 525.817 214.686V246.174H518.761V240C517.408 242.175 515.409 243.939 512.763 245.292C510.117 246.585 506.883 247.232 503.061 247.232ZM504.031 240.97C508.559 240.97 512.116 239.823 514.704 237.53C517.291 235.237 518.585 232.032 518.585 227.916V222.359L504.119 225.182C501.415 225.711 499.151 226.711 497.328 228.181C495.564 229.592 494.682 231.503 494.682 233.914C494.682 236.383 495.593 238.177 497.416 239.294C499.239 240.411 501.444 240.97 504.031 240.97ZM541.667 246.174V183.286H548.9V207.101C550.429 204.396 552.457 202.455 554.986 201.279C557.514 200.044 560.189 199.427 563.012 199.427C568.245 199.427 572.508 201.103 575.801 204.454C579.094 207.806 580.74 212.716 580.74 219.184V246.174H573.508V219.537C573.508 214.833 572.391 211.364 570.156 209.129C567.922 206.895 565.129 205.777 561.777 205.777C558.014 205.777 554.927 207.042 552.516 209.57C550.105 212.04 548.9 215.362 548.9 219.537V246.174H541.667ZM628.766 247.232C625.415 247.232 622.386 246.644 619.681 245.468C617.035 244.292 614.919 242.646 613.331 240.529C611.743 238.353 610.861 235.825 610.685 232.944L617.388 232.15C617.741 234.796 618.946 236.913 621.005 238.5C623.063 240.088 625.65 240.882 628.766 240.882C631.53 240.882 633.823 240.294 635.646 239.118C637.469 237.883 638.38 236.295 638.38 234.355C638.38 232.591 637.851 231.209 636.793 230.209C635.734 229.151 634.352 228.328 632.647 227.74C630.942 227.093 629.119 226.534 627.179 226.064C625.356 225.593 623.533 225.064 621.71 224.476C619.946 223.888 618.3 223.124 616.771 222.183C615.301 221.183 614.125 219.919 613.243 218.39C612.361 216.803 611.92 214.803 611.92 212.393C611.92 208.512 613.36 205.395 616.242 203.043C619.182 200.632 623.004 199.427 627.708 199.427C632.236 199.427 636.028 200.603 639.086 202.955C642.143 205.248 643.849 208.335 644.202 212.216L637.41 213.01C637.116 210.776 636.058 209.012 634.235 207.718C632.471 206.424 630.324 205.777 627.796 205.777C625.209 205.777 623.121 206.336 621.534 207.453C619.946 208.571 619.152 210.041 619.152 211.863C619.152 213.569 619.652 214.921 620.652 215.921C621.71 216.92 623.063 217.714 624.709 218.302C626.414 218.831 628.237 219.361 630.177 219.89C632 220.36 633.823 220.919 635.646 221.566C637.469 222.154 639.115 222.947 640.585 223.947C642.114 224.947 643.32 226.27 644.202 227.916C645.142 229.504 645.613 231.532 645.613 234.002C645.613 236.648 644.878 238.971 643.408 240.97C641.938 242.969 639.938 244.527 637.41 245.645C634.882 246.703 632 247.232 628.766 247.232ZM671.884 247.232C667.18 247.232 663.388 246.056 660.506 243.704C657.625 241.352 656.184 238.206 656.184 234.267C656.184 230.033 657.537 226.74 660.242 224.388C663.005 221.977 666.622 220.331 671.091 219.449L687.408 216.273V214.686C687.408 212.04 686.349 209.894 684.233 208.247C682.116 206.601 679.235 205.777 675.589 205.777C672.472 205.777 669.797 206.483 667.562 207.894C665.387 209.306 663.976 211.422 663.329 214.245L656.361 213.892C657.184 209.364 659.36 205.836 662.888 203.308C666.416 200.721 670.679 199.427 675.677 199.427C681.616 199.427 686.261 200.838 689.613 203.661C692.965 206.483 694.64 210.158 694.64 214.686V246.174H687.584V240C686.232 242.175 684.233 243.939 681.587 245.292C678.94 246.585 675.706 247.232 671.884 247.232ZM672.855 240.97C677.382 240.97 680.94 239.823 683.527 237.53C686.114 235.237 687.408 232.032 687.408 227.916V222.359L672.943 225.182C670.238 225.711 667.974 226.711 666.151 228.181C664.387 229.592 663.505 231.503 663.505 233.914C663.505 236.383 664.417 238.177 666.239 239.294C668.062 240.411 670.267 240.97 672.855 240.97ZM710.491 246.174V200.485H717.547V206.924C719.075 204.219 721.045 202.308 723.456 201.191C725.867 200.015 728.513 199.427 731.394 199.427C735.04 199.427 738.186 200.25 740.832 201.897C743.537 203.484 745.565 205.895 746.918 209.129C748.388 205.719 750.563 203.249 753.445 201.72C756.326 200.191 759.295 199.427 762.353 199.427C767.586 199.427 771.761 201.103 774.878 204.454C778.053 207.806 779.641 212.716 779.641 219.184V246.174H772.408V219.537C772.408 214.833 771.35 211.364 769.233 209.129C767.175 206.895 764.47 205.777 761.118 205.777C757.414 205.777 754.415 207.042 752.122 209.57C749.828 212.04 748.682 215.362 748.682 219.537V246.174H741.449V219.537C741.449 214.833 740.391 211.364 738.274 209.129C736.216 206.895 733.511 205.777 730.159 205.777C726.455 205.777 723.456 207.042 721.163 209.57C718.87 212.04 717.723 215.362 717.723 219.537V246.174H710.491ZM792.835 263.814V200.485H799.891V207.894C801.714 205.189 804.095 203.102 807.035 201.632C810.034 200.162 813.239 199.427 816.649 199.427C821.059 199.427 824.97 200.427 828.38 202.426C831.791 204.425 834.466 207.218 836.407 210.805C838.406 214.392 839.405 218.567 839.405 223.33C839.405 228.034 838.406 232.209 836.407 235.854C834.466 239.441 831.791 242.234 828.38 244.233C824.97 246.233 821.089 247.232 816.738 247.232C813.327 247.232 810.122 246.497 807.124 245.027C804.125 243.498 801.773 241.44 800.067 238.853V263.814H792.835ZM816.12 240.705C819.178 240.705 821.883 240 824.235 238.588C826.646 237.118 828.527 235.09 829.88 232.503C831.291 229.857 831.996 226.799 831.996 223.33C831.996 219.802 831.291 216.744 829.88 214.157C828.527 211.569 826.646 209.57 824.235 208.159C821.883 206.689 819.178 205.954 816.12 205.954C813.121 205.954 810.387 206.63 807.917 207.983C805.507 209.335 803.596 211.305 802.184 213.892C800.773 216.479 800.067 219.625 800.067 223.33C800.067 227.034 800.773 230.18 802.184 232.767C803.596 235.354 805.507 237.324 807.917 238.677C810.387 240.029 813.121 240.705 816.12 240.705ZM873.448 247.232C869.038 247.232 865.04 246.233 861.453 244.233C857.925 242.175 855.132 239.353 853.074 235.766C851.016 232.179 849.987 228.034 849.987 223.33C849.987 218.626 851.016 214.48 853.074 210.893C855.132 207.306 857.896 204.513 861.365 202.514C864.893 200.456 868.833 199.427 873.184 199.427C877.77 199.427 881.71 200.397 885.003 202.338C888.354 204.278 890.942 206.865 892.765 210.099C894.587 213.333 895.499 216.92 895.499 220.86C895.499 222.389 895.352 223.976 895.058 225.623H857.219C857.455 228.916 858.337 231.738 859.865 234.09C861.394 236.383 863.364 238.147 865.775 239.382C868.186 240.617 870.744 241.235 873.448 241.235C876.976 241.235 880.064 240.353 882.71 238.588C885.356 236.766 887.061 234.296 887.825 231.18L894.881 231.709C893.705 236.53 891.148 240.323 887.208 243.087C883.268 245.85 878.682 247.232 873.448 247.232ZM857.396 219.449H888.354C888.296 215.45 886.884 212.128 884.121 209.482C881.357 206.777 877.711 205.425 873.184 205.425C870.655 205.425 868.245 205.983 865.951 207.101C863.658 208.159 861.747 209.717 860.218 211.775C858.689 213.833 857.749 216.391 857.396 219.449ZM913.381 246.703C911.793 246.703 910.47 246.203 909.412 245.204C908.354 244.204 907.824 242.852 907.824 241.146C907.824 239.441 908.354 238.089 909.412 237.089C910.47 236.031 911.793 235.501 913.381 235.501C915.027 235.501 916.38 236.031 917.438 237.089C918.497 238.089 919.026 239.441 919.026 241.146C919.026 242.852 918.497 244.204 917.438 245.204C916.38 246.203 915.027 246.703 913.381 246.703ZM69.6715 359.174V296.551H93.8388C97.308 296.551 100.395 297.256 103.1 298.668C105.864 300.02 108.039 301.96 109.627 304.489C111.214 307.017 112.008 309.987 112.008 313.397C112.008 315.926 111.42 318.425 110.244 320.894C109.068 323.305 107.069 325.393 104.247 327.157C107.363 328.274 109.862 330.126 111.744 332.713C113.625 335.242 114.566 338.27 114.566 341.798C114.566 345.032 113.743 347.972 112.097 350.618C110.509 353.206 108.245 355.293 105.305 356.881C102.365 358.409 98.8957 359.174 94.8972 359.174H69.6715ZM77.4333 324.07H93.1332C96.426 324.07 99.1015 323.129 101.16 321.247C103.218 319.307 104.247 316.808 104.247 313.75C104.247 310.692 103.218 308.223 101.16 306.341C99.1015 304.401 96.426 303.43 93.1332 303.43H77.4333V324.07ZM77.4333 352.294H95.0736C98.6017 352.294 101.424 351.294 103.541 349.295C105.717 347.296 106.804 344.768 106.804 341.71C106.804 338.417 105.717 335.771 103.541 333.772C101.365 331.773 98.5429 330.773 95.0736 330.773H77.4333V352.294ZM142.983 360.232C138.044 360.232 133.986 358.703 130.811 355.646C127.636 352.529 126.048 347.796 126.048 341.445V313.485H133.281V340.828C133.281 345.532 134.339 348.854 136.456 350.795C138.573 352.735 141.219 353.705 144.394 353.705C148.099 353.705 151.156 352.588 153.567 350.354C155.978 348.119 157.183 344.944 157.183 340.828V313.485H164.416V359.174H157.36V352.823C155.831 355.352 153.802 357.233 151.274 358.468C148.804 359.644 146.041 360.232 142.983 360.232ZM177.663 359.174V295.492H184.896V334.654L207.475 313.485H216.648L198.479 331.214L218.412 359.174H209.857L193.01 335.8L184.896 343.65V359.174H177.663ZM243.773 360.232C240.186 360.232 237.304 359.203 235.129 357.145C233.012 355.087 231.954 352.206 231.954 348.501V319.66H222.781V313.485H231.954V301.49L238.657 299.109H239.186V313.485H251.27V319.66H239.186V347.972C239.186 349.795 239.627 351.294 240.509 352.471C241.391 353.647 242.891 354.235 245.007 354.235C246.771 354.235 248.712 353.735 250.829 352.735H251.27V358.468C248.918 359.644 246.419 360.232 243.773 360.232ZM267.947 305.988C266.477 305.988 265.184 305.488 264.066 304.489C262.949 303.43 262.391 302.137 262.391 300.608C262.391 299.02 262.949 297.727 264.066 296.727C265.184 295.669 266.477 295.139 267.947 295.139C269.476 295.139 270.77 295.669 271.828 296.727C272.945 297.727 273.504 299.02 273.504 300.608C273.504 302.137 272.945 303.43 271.828 304.489C270.77 305.488 269.476 305.988 267.947 305.988ZM264.331 359.174V313.485H271.564V359.174H264.331ZM305.745 376.814V313.485H312.801V320.894C314.624 318.189 317.006 316.102 319.946 314.632C322.944 313.162 326.149 312.427 329.56 312.427C333.97 312.427 337.88 313.427 341.29 315.426C344.701 317.425 347.376 320.218 349.317 323.805C351.316 327.392 352.316 331.567 352.316 336.33C352.316 341.034 351.316 345.209 349.317 348.854C347.376 352.441 344.701 355.234 341.29 357.233C337.88 359.233 333.999 360.232 329.648 360.232C326.237 360.232 323.033 359.497 320.034 358.027C317.035 356.498 314.683 354.44 312.978 351.853V376.814H305.745ZM329.03 353.705C332.088 353.705 334.793 353 337.145 351.588C339.556 350.118 341.437 348.09 342.79 345.503C344.201 342.857 344.907 339.799 344.907 336.33C344.907 332.802 344.201 329.744 342.79 327.157C341.437 324.569 339.556 322.57 337.145 321.159C334.793 319.689 332.088 318.954 329.03 318.954C326.032 318.954 323.297 319.63 320.828 320.983C318.417 322.335 316.506 324.305 315.095 326.892C313.683 329.479 312.978 332.625 312.978 336.33C312.978 340.034 313.683 343.18 315.095 345.767C316.506 348.354 318.417 350.324 320.828 351.677C323.297 353.029 326.032 353.705 329.03 353.705ZM386.359 360.232C381.949 360.232 377.95 359.233 374.363 357.233C370.835 355.175 368.042 352.353 365.984 348.766C363.926 345.179 362.897 341.034 362.897 336.33C362.897 331.626 363.926 327.48 365.984 323.893C368.042 320.306 370.806 317.513 374.275 315.514C377.803 313.456 381.743 312.427 386.094 312.427C390.681 312.427 394.62 313.397 397.913 315.338C401.265 317.278 403.852 319.865 405.675 323.099C407.498 326.333 408.409 329.92 408.409 333.86C408.409 335.389 408.262 336.976 407.968 338.623H370.13C370.365 341.916 371.247 344.738 372.776 347.09C374.304 349.383 376.274 351.147 378.685 352.382C381.096 353.617 383.654 354.235 386.359 354.235C389.887 354.235 392.974 353.353 395.62 351.588C398.266 349.766 399.971 347.296 400.735 344.18L407.792 344.709C406.616 349.53 404.058 353.323 400.118 356.087C396.178 358.85 391.592 360.232 386.359 360.232ZM370.306 332.449H401.265C401.206 328.45 399.795 325.128 397.031 322.482C394.267 319.777 390.622 318.425 386.094 318.425C383.566 318.425 381.155 318.983 378.862 320.101C376.568 321.159 374.657 322.717 373.128 324.775C371.6 326.833 370.659 329.391 370.306 332.449ZM420.735 359.174V313.485H427.791V320.012C430.79 314.955 435.552 312.427 442.079 312.427C447.548 312.427 451.87 314.191 455.045 317.719C458.22 321.247 459.808 326.069 459.808 332.184V359.174H452.575V332.537C452.575 328.186 451.517 324.805 449.4 322.394C447.342 319.983 444.49 318.777 440.844 318.777C437.022 318.777 433.906 320.071 431.495 322.658C429.143 325.187 427.967 328.48 427.967 332.537V359.174H420.735ZM494.892 377.873C491.305 377.873 487.983 377.285 484.925 376.109C481.868 374.933 479.28 373.198 477.164 370.905C475.106 368.611 473.724 365.848 473.018 362.614L480.162 361.82C481.28 364.878 483.161 367.23 485.807 368.876C488.512 370.522 491.511 371.346 494.804 371.346C497.626 371.346 500.214 370.699 502.566 369.405C504.976 368.17 506.887 366.318 508.299 363.849C509.71 361.438 510.416 358.498 510.416 355.028V349.648C508.769 352.235 506.446 354.293 503.448 355.822C500.449 357.292 497.244 358.027 493.834 358.027C489.541 358.027 485.69 357.057 482.279 355.117C478.869 353.117 476.164 350.412 474.165 347.002C472.224 343.533 471.254 339.622 471.254 335.271C471.254 330.861 472.224 326.951 474.165 323.54C476.105 320.071 478.781 317.366 482.191 315.426C485.601 313.427 489.512 312.427 493.922 312.427C497.274 312.427 500.449 313.162 503.448 314.632C506.446 316.043 508.828 318.131 510.592 320.894V313.485H517.648V355.028C517.648 359.732 516.619 363.79 514.561 367.2C512.562 370.669 509.857 373.315 506.446 375.138C503.036 376.961 499.185 377.873 494.892 377.873ZM494.451 351.5C497.45 351.5 500.155 350.853 502.566 349.56C504.976 348.266 506.887 346.414 508.299 344.003C509.71 341.534 510.416 338.623 510.416 335.271C510.416 331.861 509.71 328.95 508.299 326.539C506.887 324.07 504.976 322.188 502.566 320.894C500.155 319.601 497.45 318.954 494.451 318.954C491.393 318.954 488.659 319.66 486.248 321.071C483.896 322.423 482.044 324.334 480.692 326.804C479.339 329.215 478.663 332.037 478.663 335.271C478.663 338.446 479.339 341.269 480.692 343.739C482.044 346.149 483.896 348.06 486.248 349.472C488.659 350.824 491.393 351.5 494.451 351.5ZM536.084 305.988C534.614 305.988 533.32 305.488 532.203 304.489C531.085 303.43 530.527 302.137 530.527 300.608C530.527 299.02 531.085 297.727 532.203 296.727C533.32 295.669 534.614 295.139 536.084 295.139C537.612 295.139 538.906 295.669 539.964 296.727C541.082 297.727 541.64 299.02 541.64 300.608C541.64 302.137 541.082 303.43 539.964 304.489C538.906 305.488 537.612 305.988 536.084 305.988ZM532.467 359.174V313.485H539.7V359.174H532.467ZM554.501 359.174V313.485H561.557V320.365C563.086 317.543 565.027 315.514 567.379 314.279C569.731 313.044 571.965 312.427 574.082 312.427C575.493 312.427 576.669 312.633 577.61 313.044V319.836H577.257C576.904 319.718 576.493 319.63 576.022 319.571C575.611 319.513 574.905 319.483 573.906 319.483C571.73 319.483 569.701 320.042 567.82 321.159C565.997 322.276 564.527 323.923 563.41 326.098C562.292 328.215 561.734 330.802 561.734 333.86V359.174H554.501ZM592.502 305.988C591.032 305.988 589.738 305.488 588.621 304.489C587.504 303.43 586.945 302.137 586.945 300.608C586.945 299.02 587.504 297.727 588.621 296.727C589.738 295.669 591.032 295.139 592.502 295.139C594.03 295.139 595.324 295.669 596.382 296.727C597.5 297.727 598.058 299.02 598.058 300.608C598.058 302.137 597.5 303.43 596.382 304.489C595.324 305.488 594.03 305.988 592.502 305.988ZM588.885 359.174V313.485H596.118V359.174H588.885ZM610.919 359.174V313.485H617.975V319.924C619.504 317.219 621.474 315.308 623.885 314.191C626.296 313.015 628.942 312.427 631.823 312.427C635.469 312.427 638.614 313.25 641.261 314.897C643.965 316.484 645.994 318.895 647.346 322.129C648.816 318.719 650.992 316.249 653.873 314.72C656.755 313.191 659.724 312.427 662.782 312.427C668.015 312.427 672.19 314.103 675.306 317.454C678.482 320.806 680.069 325.716 680.069 332.184V359.174H672.837V332.537C672.837 327.833 671.778 324.364 669.661 322.129C667.603 319.895 664.899 318.777 661.547 318.777C657.842 318.777 654.844 320.042 652.55 322.57C650.257 325.04 649.11 328.362 649.11 332.537V359.174H641.878V332.537C641.878 327.833 640.82 324.364 638.703 322.129C636.645 319.895 633.94 318.777 630.588 318.777C626.884 318.777 623.885 320.042 621.592 322.57C619.298 325.04 618.152 328.362 618.152 332.537V359.174H610.919ZM707.199 360.232C702.495 360.232 698.703 359.056 695.821 356.704C692.94 354.352 691.5 351.206 691.5 347.267C691.5 343.033 692.852 339.74 695.557 337.388C698.321 334.977 701.937 333.331 706.406 332.449L722.723 329.273V327.686C722.723 325.04 721.665 322.894 719.548 321.247C717.431 319.601 714.55 318.777 710.904 318.777C707.788 318.777 705.112 319.483 702.878 320.894C700.702 322.306 699.291 324.422 698.644 327.245L691.676 326.892C692.499 322.364 694.675 318.836 698.203 316.308C701.731 313.721 705.994 312.427 710.992 312.427C716.931 312.427 721.576 313.838 724.928 316.661C728.28 319.483 729.956 323.158 729.956 327.686V359.174H722.899V353C721.547 355.175 719.548 356.939 716.902 358.292C714.256 359.585 711.022 360.232 707.199 360.232ZM708.17 353.97C712.697 353.97 716.255 352.823 718.842 350.53C721.429 348.237 722.723 345.032 722.723 340.916V335.359L708.258 338.182C705.553 338.711 703.289 339.711 701.466 341.181C699.702 342.592 698.82 344.503 698.82 346.914C698.82 349.383 699.732 351.177 701.555 352.294C703.377 353.411 705.582 353.97 708.17 353.97ZM745.806 359.174V313.485H752.862V320.012C755.861 314.955 760.623 312.427 767.15 312.427C772.619 312.427 776.941 314.191 780.116 317.719C783.291 321.247 784.879 326.069 784.879 332.184V359.174H777.646V332.537C777.646 328.186 776.588 324.805 774.471 322.394C772.413 319.983 769.561 318.777 765.916 318.777C762.093 318.777 758.977 320.071 756.566 322.658C754.214 325.187 753.038 328.48 753.038 332.537V359.174H745.806ZM831.405 360.232C826.701 360.232 822.908 359.056 820.027 356.704C817.146 354.352 815.705 351.206 815.705 347.267C815.705 343.033 817.058 339.74 819.763 337.388C822.526 334.977 826.143 333.331 830.611 332.449L846.929 329.273V327.686C846.929 325.04 845.87 322.894 843.753 321.247C841.637 319.601 838.755 318.777 835.11 318.777C831.993 318.777 829.318 319.483 827.083 320.894C824.908 322.306 823.497 324.422 822.85 327.245L815.882 326.892C816.705 322.364 818.881 318.836 822.409 316.308C825.937 313.721 830.2 312.427 835.198 312.427C841.137 312.427 845.782 313.838 849.134 316.661C852.485 319.483 854.161 323.158 854.161 327.686V359.174H847.105V353C845.753 355.175 843.753 356.939 841.107 358.292C838.461 359.585 835.227 360.232 831.405 360.232ZM832.375 353.97C836.903 353.97 840.461 352.823 843.048 350.53C845.635 348.237 846.929 345.032 846.929 340.916V335.359L832.464 338.182C829.759 338.711 827.495 339.711 825.672 341.181C823.908 342.592 823.026 344.503 823.026 346.914C823.026 349.383 823.938 351.177 825.76 352.294C827.583 353.411 829.788 353.97 832.375 353.97ZM891.003 360.232C886.593 360.232 882.683 359.233 879.272 357.233C875.862 355.234 873.157 352.441 871.158 348.854C869.218 345.267 868.247 341.093 868.247 336.33C868.247 331.567 869.218 327.392 871.158 323.805C873.157 320.218 875.862 317.425 879.272 315.426C882.742 313.427 886.623 312.427 890.915 312.427C894.384 312.427 897.589 313.191 900.529 314.72C903.528 316.19 905.88 318.219 907.585 320.806V295.492H914.818V359.174H907.762V351.677C905.939 354.382 903.557 356.498 900.617 358.027C897.677 359.497 894.473 360.232 891.003 360.232ZM891.533 353.705C894.531 353.705 897.236 353.029 899.647 351.677C902.117 350.324 904.057 348.354 905.468 345.767C906.88 343.18 907.585 340.034 907.585 336.33C907.585 332.625 906.88 329.479 905.468 326.892C904.057 324.305 902.117 322.335 899.647 320.983C897.236 319.63 894.531 318.954 891.533 318.954C888.475 318.954 885.741 319.689 883.33 321.159C880.978 322.57 879.096 324.569 877.685 327.157C876.332 329.744 875.656 332.802 875.656 336.33C875.656 339.799 876.332 342.857 877.685 345.503C879.096 348.09 880.978 350.118 883.33 351.588C885.741 353 888.475 353.705 891.533 353.705ZM942.863 360.232C938.159 360.232 934.366 359.056 931.485 356.704C928.604 354.352 927.163 351.206 927.163 347.267C927.163 343.033 928.516 339.74 931.22 337.388C933.984 334.977 937.6 333.331 942.069 332.449L958.387 329.273V327.686C958.387 325.04 957.328 322.894 955.211 321.247C953.094 319.601 950.213 318.777 946.568 318.777C943.451 318.777 940.776 319.483 938.541 320.894C936.366 322.306 934.954 324.422 934.308 327.245L927.34 326.892C928.163 322.364 930.338 318.836 933.867 316.308C937.395 313.721 941.658 312.427 946.656 312.427C952.595 312.427 957.24 313.838 960.592 316.661C963.943 319.483 965.619 323.158 965.619 327.686V359.174H958.563V353C957.211 355.175 955.211 356.939 952.565 358.292C949.919 359.585 946.685 360.232 942.863 360.232ZM943.833 353.97C948.361 353.97 951.918 352.823 954.506 350.53C957.093 348.237 958.387 345.032 958.387 340.916V335.359L943.921 338.182C941.217 338.711 938.953 339.711 937.13 341.181C935.366 342.592 934.484 344.503 934.484 346.914C934.484 349.383 935.395 351.177 937.218 352.294C939.041 353.411 941.246 353.97 943.833 353.97ZM1021.84 360.232C1017.43 360.232 1013.52 359.233 1010.11 357.233C1006.7 355.234 1004 352.441 1002 348.854C1000.06 345.267 999.085 341.093 999.085 336.33C999.085 331.567 1000.06 327.392 1002 323.805C1004 320.218 1006.7 317.425 1010.11 315.426C1013.58 313.427 1017.46 312.427 1021.75 312.427C1025.22 312.427 1028.43 313.191 1031.37 314.72C1034.37 316.19 1036.72 318.219 1038.42 320.806V295.492H1045.66V359.174H1038.6V351.677C1036.78 354.382 1034.4 356.498 1031.46 358.027C1028.52 359.497 1025.31 360.232 1021.84 360.232ZM1022.37 353.705C1025.37 353.705 1028.07 353.029 1030.49 351.677C1032.95 350.324 1034.9 348.354 1036.31 345.767C1037.72 343.18 1038.42 340.034 1038.42 336.33C1038.42 332.625 1037.72 329.479 1036.31 326.892C1034.9 324.305 1032.95 322.335 1030.49 320.983C1028.07 319.63 1025.37 318.954 1022.37 318.954C1019.31 318.954 1016.58 319.689 1014.17 321.159C1011.82 322.57 1009.93 324.569 1008.52 327.157C1007.17 329.744 1006.49 332.802 1006.49 336.33C1006.49 339.799 1007.17 342.857 1008.52 345.503C1009.93 348.09 1011.82 350.118 1014.17 351.588C1016.58 353 1019.31 353.705 1022.37 353.705ZM1064.09 305.988C1062.62 305.988 1061.32 305.488 1060.21 304.489C1059.09 303.43 1058.53 302.137 1058.53 300.608C1058.53 299.02 1059.09 297.727 1060.21 296.727C1061.32 295.669 1062.62 295.139 1064.09 295.139C1065.62 295.139 1066.91 295.669 1067.97 296.727C1069.09 297.727 1069.64 299.02 1069.64 300.608C1069.64 302.137 1069.09 303.43 1067.97 304.489C1066.91 305.488 1065.62 305.988 1064.09 305.988ZM1060.47 359.174V313.485H1067.7V359.174H1060.47ZM1106.32 360.232C1102.85 360.232 1099.62 359.497 1096.62 358.027C1093.68 356.498 1091.32 354.352 1089.56 351.588V359.174H1082.5V296.551H1089.74V320.806C1091.44 318.16 1093.77 316.102 1096.71 314.632C1099.7 313.162 1102.94 312.427 1106.41 312.427C1110.76 312.427 1114.64 313.427 1118.05 315.426C1121.46 317.425 1124.14 320.218 1126.08 323.805C1128.08 327.392 1129.08 331.567 1129.08 336.33C1129.08 341.093 1128.08 345.267 1126.08 348.854C1124.14 352.441 1121.46 355.234 1118.05 357.233C1114.64 359.233 1110.73 360.232 1106.32 360.232ZM1105.79 353.705C1108.85 353.705 1111.55 353 1113.9 351.588C1116.32 350.118 1118.2 348.09 1119.55 345.503C1120.96 342.857 1121.67 339.799 1121.67 336.33C1121.67 332.802 1120.96 329.744 1119.55 327.157C1118.2 324.569 1116.32 322.57 1113.9 321.159C1111.55 319.689 1108.85 318.954 1105.79 318.954C1102.79 318.954 1100.06 319.63 1097.59 320.983C1095.18 322.335 1093.27 324.305 1091.85 326.892C1090.44 329.479 1089.74 332.625 1089.74 336.33C1089.74 340.034 1090.44 343.18 1091.85 345.767C1093.27 348.354 1095.18 350.324 1097.59 351.677C1100.06 353.029 1102.79 353.705 1105.79 353.705ZM1155.36 360.232C1150.65 360.232 1146.86 359.056 1143.98 356.704C1141.1 354.352 1139.66 351.206 1139.66 347.267C1139.66 343.033 1141.01 339.74 1143.71 337.388C1146.48 334.977 1150.09 333.331 1154.56 332.449L1170.88 329.273V327.686C1170.88 325.04 1169.82 322.894 1167.7 321.247C1165.59 319.601 1162.71 318.777 1159.06 318.777C1155.94 318.777 1153.27 319.483 1151.03 320.894C1148.86 322.306 1147.45 324.422 1146.8 327.245L1139.83 326.892C1140.66 322.364 1142.83 318.836 1146.36 316.308C1149.89 313.721 1154.15 312.427 1159.15 312.427C1165.09 312.427 1169.73 313.838 1173.09 316.661C1176.44 319.483 1178.11 323.158 1178.11 327.686V359.174H1171.06V353C1169.7 355.175 1167.7 356.939 1165.06 358.292C1162.41 359.585 1159.18 360.232 1155.36 360.232ZM1156.33 353.97C1160.85 353.97 1164.41 352.823 1167 350.53C1169.59 348.237 1170.88 345.032 1170.88 340.916V335.359L1156.42 338.182C1153.71 338.711 1151.45 339.711 1149.62 341.181C1147.86 342.592 1146.98 344.503 1146.98 346.914C1146.98 349.383 1147.89 351.177 1149.71 352.294C1151.53 353.411 1153.74 353.97 1156.33 353.97ZM1205.46 359.174L1188.97 313.485H1196.73L1208.99 348.678L1222.66 313.485H1229.37L1242.77 348.501L1255.21 313.485H1262.97L1246.04 359.174H1239.6L1226.01 323.452L1212.08 359.174H1205.46ZM1286.54 360.232C1281.84 360.232 1278.04 359.056 1275.16 356.704C1272.28 354.352 1270.84 351.206 1270.84 347.267C1270.84 343.033 1272.19 339.74 1274.9 337.388C1277.66 334.977 1281.28 333.331 1285.75 332.449L1302.06 329.273V327.686C1302.06 325.04 1301 322.894 1298.89 321.247C1296.77 319.601 1293.89 318.777 1290.24 318.777C1287.13 318.777 1284.45 319.483 1282.22 320.894C1280.04 322.306 1278.63 324.422 1277.98 327.245L1271.02 326.892C1271.84 322.364 1274.01 318.836 1277.54 316.308C1281.07 313.721 1285.33 312.427 1290.33 312.427C1296.27 312.427 1300.92 313.838 1304.27 316.661C1307.62 319.483 1309.3 323.158 1309.3 327.686V359.174H1302.24V353C1300.89 355.175 1298.89 356.939 1296.24 358.292C1293.6 359.585 1290.36 360.232 1286.54 360.232ZM1287.51 353.97C1292.04 353.97 1295.59 352.823 1298.18 350.53C1300.77 348.237 1302.06 345.032 1302.06 340.916V335.359L1287.6 338.182C1284.89 338.711 1282.63 339.711 1280.81 341.181C1279.04 342.592 1278.16 344.503 1278.16 346.914C1278.16 349.383 1279.07 351.177 1280.89 352.294C1282.72 353.411 1284.92 353.97 1287.51 353.97ZM1325.15 359.174V296.286H1332.38V320.101C1333.91 317.396 1335.94 315.455 1338.46 314.279C1340.99 313.044 1343.67 312.427 1346.49 312.427C1351.72 312.427 1355.99 314.103 1359.28 317.454C1362.57 320.806 1364.22 325.716 1364.22 332.184V359.174H1356.99V332.537C1356.99 327.833 1355.87 324.364 1353.63 322.129C1351.4 319.895 1348.61 318.777 1345.26 318.777C1341.49 318.777 1338.4 320.042 1335.99 322.57C1333.58 325.04 1332.38 328.362 1332.38 332.537V359.174H1325.15ZM1402.54 378.843C1400.13 378.843 1398.37 378.519 1397.25 377.873V371.522H1397.96C1398.43 371.64 1398.98 371.728 1399.63 371.787C1400.28 371.904 1400.98 371.963 1401.75 371.963C1403.45 371.963 1404.95 371.257 1406.25 369.846C1407.6 368.435 1408.89 366.112 1410.13 362.878L1411.98 358.027L1393.28 313.485H1401.04L1415.77 349.207L1430.41 313.485H1438.18L1417.18 364.113C1416.01 366.936 1414.83 369.464 1413.66 371.698C1412.48 373.933 1411.01 375.668 1409.25 376.902C1407.54 378.196 1405.31 378.843 1402.54 378.843ZM1461.31 360.232C1456.6 360.232 1452.81 359.056 1449.93 356.704C1447.05 354.352 1445.61 351.206 1445.61 347.267C1445.61 343.033 1446.96 339.74 1449.66 337.388C1452.43 334.977 1456.04 333.331 1460.51 332.449L1476.83 329.273V327.686C1476.83 325.04 1475.77 322.894 1473.65 321.247C1471.54 319.601 1468.66 318.777 1465.01 318.777C1461.89 318.777 1459.22 319.483 1456.98 320.894C1454.81 322.306 1453.4 324.422 1452.75 327.245L1445.78 326.892C1446.61 322.364 1448.78 318.836 1452.31 316.308C1455.84 313.721 1460.1 312.427 1465.1 312.427C1471.04 312.427 1475.68 313.838 1479.03 316.661C1482.39 319.483 1484.06 323.158 1484.06 327.686V359.174H1477.01V353C1475.65 355.175 1473.65 356.939 1471.01 358.292C1468.36 359.585 1465.13 360.232 1461.31 360.232ZM1462.28 353.97C1466.8 353.97 1470.36 352.823 1472.95 350.53C1475.54 348.237 1476.83 345.032 1476.83 340.916V335.359L1462.36 338.182C1459.66 338.711 1457.4 339.711 1455.57 341.181C1453.81 342.592 1452.93 344.503 1452.93 346.914C1452.93 349.383 1453.84 351.177 1455.66 352.294C1457.48 353.411 1459.69 353.97 1462.28 353.97ZM1505.47 359.703C1503.88 359.703 1502.56 359.203 1501.5 358.204C1500.44 357.204 1499.91 355.852 1499.91 354.146C1499.91 352.441 1500.44 351.089 1501.5 350.089C1502.56 349.031 1503.88 348.501 1505.47 348.501C1507.11 348.501 1508.47 349.031 1509.53 350.089C1510.58 351.089 1511.11 352.441 1511.11 354.146C1511.11 355.852 1510.58 357.204 1509.53 358.204C1508.47 359.203 1507.11 359.703 1505.47 359.703ZM83.6074 473.174V417.43H65.2615V410.551H109.627V417.43H91.3691V473.174H83.6074ZM137.43 474.232C133.02 474.232 129.022 473.233 125.435 471.233C121.907 469.175 119.114 466.353 117.056 462.766C114.998 459.179 113.969 455.034 113.969 450.33C113.969 445.626 114.998 441.48 117.056 437.893C119.114 434.306 121.877 431.513 125.347 429.514C128.875 427.456 132.814 426.427 137.166 426.427C141.752 426.427 145.692 427.397 148.985 429.338C152.336 431.278 154.924 433.865 156.746 437.099C158.569 440.333 159.481 443.92 159.481 447.86C159.481 449.389 159.334 450.976 159.04 452.623H121.201C121.436 455.916 122.318 458.738 123.847 461.09C125.376 463.383 127.346 465.147 129.757 466.382C132.168 467.617 134.725 468.235 137.43 468.235C140.958 468.235 144.045 467.353 146.692 465.588C149.338 463.766 151.043 461.296 151.807 458.18L158.863 458.709C157.687 463.53 155.129 467.323 151.19 470.087C147.25 472.85 142.664 474.232 137.43 474.232ZM121.378 446.449H152.336C152.278 442.45 150.866 439.128 148.103 436.482C145.339 433.777 141.693 432.425 137.166 432.425C134.637 432.425 132.226 432.983 129.933 434.101C127.64 435.159 125.729 436.717 124.2 438.775C122.671 440.833 121.73 443.391 121.378 446.449ZM171.806 473.174V427.485H178.862V434.365C180.391 431.543 182.332 429.514 184.684 428.279C187.036 427.044 189.27 426.427 191.387 426.427C192.798 426.427 193.974 426.633 194.915 427.044V433.836H194.562C194.209 433.718 193.798 433.63 193.327 433.571C192.916 433.513 192.21 433.483 191.211 433.483C189.035 433.483 187.006 434.042 185.125 435.159C183.302 436.276 181.832 437.923 180.715 440.098C179.597 442.215 179.039 444.802 179.039 447.86V473.174H171.806ZM209.807 419.988C208.337 419.988 207.043 419.488 205.926 418.489C204.809 417.43 204.25 416.137 204.25 414.608C204.25 413.02 204.809 411.727 205.926 410.727C207.043 409.669 208.337 409.139 209.807 409.139C211.335 409.139 212.629 409.669 213.687 410.727C214.805 411.727 215.363 413.02 215.363 414.608C215.363 416.137 214.805 417.43 213.687 418.489C212.629 419.488 211.335 419.988 209.807 419.988ZM206.19 473.174V427.485H213.423V473.174H206.19ZM228.224 473.174V427.485H235.28V433.924C236.809 431.219 238.779 429.308 241.19 428.191C243.601 427.015 246.247 426.427 249.128 426.427C252.774 426.427 255.92 427.25 258.566 428.897C261.27 430.484 263.299 432.895 264.651 436.129C266.121 432.719 268.297 430.249 271.178 428.72C274.06 427.191 277.029 426.427 280.087 426.427C285.32 426.427 289.495 428.103 292.611 431.454C295.787 434.806 297.374 439.716 297.374 446.184V473.174H290.142V446.537C290.142 441.833 289.083 438.364 286.966 436.129C284.908 433.895 282.204 432.777 278.852 432.777C275.147 432.777 272.149 434.042 269.855 436.57C267.562 439.04 266.416 442.362 266.416 446.537V473.174H259.183V446.537C259.183 441.833 258.125 438.364 256.008 436.129C253.95 433.895 251.245 432.777 247.893 432.777C244.189 432.777 241.19 434.042 238.897 436.57C236.603 439.04 235.457 442.362 235.457 446.537V473.174H228.224ZM324.505 474.232C319.8 474.232 316.008 473.056 313.127 470.704C310.245 468.352 308.805 465.206 308.805 461.267C308.805 457.033 310.157 453.74 312.862 451.388C315.626 448.977 319.242 447.331 323.711 446.449L340.028 443.273V441.686C340.028 439.04 338.97 436.894 336.853 435.247C334.736 433.601 331.855 432.777 328.209 432.777C325.093 432.777 322.417 433.483 320.183 434.894C318.007 436.306 316.596 438.422 315.949 441.245L308.981 440.892C309.804 436.364 311.98 432.836 315.508 430.308C319.036 427.721 323.299 426.427 328.297 426.427C334.236 426.427 338.881 427.838 342.233 430.661C345.585 433.483 347.261 437.158 347.261 441.686V473.174H340.204V467C338.852 469.175 336.853 470.939 334.207 472.292C331.561 473.585 328.327 474.232 324.505 474.232ZM325.475 467.97C330.002 467.97 333.56 466.823 336.147 464.53C338.734 462.237 340.028 459.032 340.028 454.916V449.359L325.563 452.182C322.858 452.711 320.594 453.711 318.771 455.181C317.007 456.592 316.125 458.503 316.125 460.914C316.125 463.383 317.037 465.177 318.86 466.294C320.682 467.411 322.887 467.97 325.475 467.97ZM363.111 473.174V409.492H370.343V448.654L392.923 427.485H402.096L383.926 445.214L403.86 473.174H395.304L378.458 449.8L370.343 457.65V473.174H363.111ZM426.574 474.232C421.87 474.232 418.077 473.056 415.196 470.704C412.314 468.352 410.874 465.206 410.874 461.267C410.874 457.033 412.226 453.74 414.931 451.388C417.695 448.977 421.311 447.331 425.78 446.449L442.097 443.273V441.686C442.097 439.04 441.039 436.894 438.922 435.247C436.805 433.601 433.924 432.777 430.278 432.777C427.162 432.777 424.486 433.483 422.252 434.894C420.076 436.306 418.665 438.422 418.018 441.245L411.05 440.892C411.873 436.364 414.049 432.836 417.577 430.308C421.105 427.721 425.368 426.427 430.366 426.427C436.305 426.427 440.951 427.838 444.302 430.661C447.654 433.483 449.33 437.158 449.33 441.686V473.174H442.274V467C440.921 469.175 438.922 470.939 436.276 472.292C433.63 473.585 430.396 474.232 426.574 474.232ZM427.544 467.97C432.072 467.97 435.629 466.823 438.216 464.53C440.804 462.237 442.097 459.032 442.097 454.916V449.359L427.632 452.182C424.927 452.711 422.663 453.711 420.841 455.181C419.077 456.592 418.195 458.503 418.195 460.914C418.195 463.383 419.106 465.177 420.929 466.294C422.752 467.411 424.957 467.97 427.544 467.97ZM480.615 474.232C477.263 474.232 474.235 473.644 471.53 472.468C468.884 471.292 466.767 469.646 465.18 467.529C463.592 465.353 462.71 462.825 462.534 459.944L469.237 459.15C469.59 461.796 470.795 463.913 472.853 465.5C474.911 467.088 477.499 467.882 480.615 467.882C483.379 467.882 485.672 467.294 487.495 466.118C489.318 464.883 490.229 463.295 490.229 461.355C490.229 459.591 489.7 458.209 488.641 457.209C487.583 456.151 486.201 455.328 484.496 454.74C482.791 454.093 480.968 453.534 479.027 453.064C477.205 452.593 475.382 452.064 473.559 451.476C471.795 450.888 470.149 450.124 468.62 449.183C467.15 448.183 465.974 446.919 465.092 445.39C464.21 443.803 463.769 441.803 463.769 439.393C463.769 435.512 465.209 432.395 468.09 430.043C471.031 427.632 474.853 426.427 479.557 426.427C484.084 426.427 487.877 427.603 490.935 429.955C493.992 432.248 495.698 435.335 496.05 439.216L489.259 440.01C488.965 437.776 487.906 436.012 486.084 434.718C484.32 433.424 482.173 432.777 479.645 432.777C477.058 432.777 474.97 433.336 473.383 434.453C471.795 435.571 471.001 437.041 471.001 438.863C471.001 440.569 471.501 441.921 472.501 442.921C473.559 443.92 474.911 444.714 476.558 445.302C478.263 445.831 480.086 446.361 482.026 446.89C483.849 447.36 485.672 447.919 487.495 448.566C489.318 449.154 490.964 449.947 492.434 450.947C493.963 451.947 495.168 453.27 496.05 454.916C496.991 456.504 497.462 458.532 497.462 461.002C497.462 463.648 496.727 465.971 495.257 467.97C493.787 469.969 491.787 471.527 489.259 472.645C486.73 473.703 483.849 474.232 480.615 474.232ZM514.119 419.988C512.649 419.988 511.356 419.488 510.238 418.489C509.121 417.43 508.563 416.137 508.563 414.608C508.563 413.02 509.121 411.727 510.238 410.727C511.356 409.669 512.649 409.139 514.119 409.139C515.648 409.139 516.942 409.669 518 410.727C519.117 411.727 519.676 413.02 519.676 414.608C519.676 416.137 519.117 417.43 518 418.489C516.942 419.488 515.648 419.988 514.119 419.988ZM510.503 473.174V427.485H517.736V473.174H510.503ZM532.537 473.174V410.286H539.769V434.101C541.298 431.396 543.327 429.455 545.855 428.279C548.384 427.044 551.059 426.427 553.882 426.427C559.115 426.427 563.378 428.103 566.671 431.454C569.964 434.806 571.61 439.716 571.61 446.184V473.174H564.378V446.537C564.378 441.833 563.26 438.364 561.026 436.129C558.792 433.895 555.999 432.777 552.647 432.777C548.884 432.777 545.797 434.042 543.386 436.57C540.975 439.04 539.769 442.362 539.769 446.537V473.174H532.537ZM577.764 479.348H665.966V391.146H577.764V479.348Z" fill="black"/>
<path d="M1393.54 560.915C1389.95 560.915 1386.84 560.009 1384.21 558.197C1381.62 556.345 1379.6 553.73 1378.16 550.354C1376.76 546.978 1376.06 542.942 1376.06 538.249C1376.06 533.514 1376.76 529.458 1378.16 526.082C1379.56 522.705 1381.55 520.111 1384.15 518.3C1386.78 516.488 1389.91 515.582 1393.54 515.582C1397.16 515.582 1400.27 516.488 1402.86 518.3C1405.45 520.111 1407.45 522.705 1408.85 526.082C1410.29 529.458 1411.01 533.514 1411.01 538.249C1411.01 542.942 1410.31 546.978 1408.91 550.354C1407.51 553.73 1405.5 556.345 1402.86 558.197C1400.27 560.009 1397.16 560.915 1393.54 560.915ZM1393.54 555.974C1397.41 555.974 1400.35 554.451 1402.37 551.404C1404.43 548.316 1405.45 543.931 1405.45 538.249C1405.45 532.525 1404.43 528.14 1402.37 525.094C1400.35 522.047 1397.41 520.523 1393.54 520.523C1389.66 520.523 1386.7 522.067 1384.64 525.155C1382.62 528.202 1381.62 532.567 1381.62 538.249C1381.62 543.889 1382.64 548.254 1384.7 551.342C1386.76 554.43 1389.71 555.974 1393.54 555.974ZM1419.05 560.174V556.592L1431.83 543.622C1434.55 540.863 1436.67 538.557 1438.19 536.705C1439.72 534.852 1440.79 533.225 1441.4 531.825C1442.02 530.384 1442.33 528.943 1442.33 527.502C1442.33 525.32 1441.57 523.611 1440.04 522.376C1438.56 521.141 1436.59 520.523 1434.12 520.523C1431.6 520.523 1429.52 521.203 1427.88 522.561C1426.23 523.92 1425.32 525.876 1425.16 528.429L1419.85 528.243C1420.05 525.691 1420.78 523.467 1422.01 521.573C1423.25 519.679 1424.91 518.217 1427.01 517.188C1429.11 516.118 1431.52 515.582 1434.24 515.582C1437 515.582 1439.39 516.076 1441.4 517.065C1443.46 518.053 1445.05 519.432 1446.16 521.203C1447.31 522.973 1447.89 525.011 1447.89 527.317C1447.89 529.005 1447.58 530.673 1446.96 532.32C1446.39 533.925 1445.42 535.655 1444.06 537.508C1442.7 539.319 1440.89 541.398 1438.62 543.745L1427.38 555.356H1449.43V560.174H1419.05ZM1462.59 560.544C1461.48 560.544 1460.55 560.194 1459.81 559.494C1459.07 558.794 1458.7 557.847 1458.7 556.653C1458.7 555.459 1459.07 554.512 1459.81 553.812C1460.55 553.071 1461.48 552.701 1462.59 552.701C1463.74 552.701 1464.69 553.071 1465.43 553.812C1466.17 554.512 1466.54 555.459 1466.54 556.653C1466.54 557.847 1466.17 558.794 1465.43 559.494C1464.69 560.194 1463.74 560.544 1462.59 560.544ZM1475.2 560.174V556.592L1487.98 543.622C1490.7 540.863 1492.82 538.557 1494.34 536.705C1495.87 534.852 1496.94 533.225 1497.56 531.825C1498.17 530.384 1498.48 528.943 1498.48 527.502C1498.48 525.32 1497.72 523.611 1496.2 522.376C1494.71 521.141 1492.74 520.523 1490.27 520.523C1487.76 520.523 1485.68 521.203 1484.03 522.561C1482.38 523.92 1481.48 525.876 1481.31 528.429L1476 528.243C1476.21 525.691 1476.93 523.467 1478.16 521.573C1479.4 519.679 1481.06 518.217 1483.16 517.188C1485.26 516.118 1487.67 515.582 1490.39 515.582C1493.15 515.582 1495.54 516.076 1497.56 517.065C1499.61 518.053 1501.2 519.432 1502.31 521.203C1503.46 522.973 1504.04 525.011 1504.04 527.317C1504.04 529.005 1503.73 530.673 1503.11 532.32C1502.54 533.925 1501.57 535.655 1500.21 537.508C1498.85 539.319 1497.04 541.398 1494.78 543.745L1483.54 555.356H1505.58V560.174H1475.2ZM1522.14 560.915C1521.11 560.915 1520.12 560.874 1519.18 560.791C1518.23 560.709 1517.32 560.586 1516.46 560.421V555.48C1517.36 555.645 1518.27 555.768 1519.18 555.851C1520.12 555.933 1521.11 555.974 1522.14 555.974C1525.8 555.974 1528.77 555.254 1531.03 553.812C1533.3 552.33 1535.03 550.395 1536.22 548.007C1537.42 545.578 1538.2 542.963 1538.57 540.163C1537.21 542.016 1535.58 543.313 1533.69 544.054C1531.84 544.754 1529.94 545.104 1528.01 545.104C1525.33 545.104 1522.9 544.487 1520.72 543.251C1518.54 542.016 1516.81 540.307 1515.53 538.125C1514.26 535.902 1513.62 533.349 1513.62 530.467C1513.62 527.543 1514.28 524.97 1515.59 522.747C1516.91 520.482 1518.7 518.732 1520.97 517.497C1523.23 516.221 1525.78 515.582 1528.63 515.582C1531.84 515.582 1534.66 516.303 1537.09 517.744C1539.52 519.144 1541.41 521.223 1542.77 523.982C1544.17 526.74 1544.87 530.117 1544.87 534.111C1544.87 537.569 1544.42 540.904 1543.51 544.116C1542.65 547.328 1541.29 550.21 1539.43 552.762C1537.62 555.274 1535.27 557.271 1532.39 558.753C1529.51 560.194 1526.09 560.915 1522.14 560.915ZM1528.69 540.287C1530.66 540.287 1532.41 539.854 1533.94 538.99C1535.46 538.084 1536.63 536.89 1537.46 535.408C1538.32 533.884 1538.75 532.196 1538.75 530.343C1538.75 528.326 1538.3 526.596 1537.4 525.155C1536.53 523.673 1535.34 522.541 1533.81 521.758C1532.29 520.935 1530.58 520.523 1528.69 520.523C1525.93 520.523 1523.64 521.429 1521.83 523.241C1520.06 525.011 1519.18 527.379 1519.18 530.343C1519.18 532.237 1519.59 533.946 1520.41 535.469C1521.23 536.952 1522.35 538.125 1523.75 538.99C1525.19 539.854 1526.83 540.287 1528.69 540.287Z" fill="#828287"/>
</g>
<defs>
<filter id="filter0_d_70_2418" x="0.853244" y="0" width="1638.29" height="627.642" filterUnits="userSpaceOnUse" color-interpolation-filters="sRGB">
<feFlood flood-opacity="0" result="BackgroundImageFix"/>
<feColorMatrix in="SourceAlpha" type="matrix" values="0 0 0 0 0 0 0 0 0 0 0 0 0 0 0 0 0 0 127 0" result="hardAlpha"/>
<feOffset dy="5.14676"/>
<feGaussianBlur stdDeviation="2.57338"/>
<feColorMatrix type="matrix" values="0 0 0 0 0 0 0 0 0 0 0 0 0 0 0 0 0 0 0.2 0"/>
<feBlend mode="normal" in2="BackgroundImageFix" result="effect1_dropShadow_70_2418"/>
<feBlend mode="normal" in="SourceGraphic" in2="effect1_dropShadow_70_2418" result="shape"/>
</filter>
</defs>
</svg>
