<svg width="2160" height="1541" viewBox="0 0 2160 1541" fill="none" xmlns="http://www.w3.org/2000/svg">
<g filter="url(#filter0_bi_118_299)">
<rect width="2160" height="1541" fill="#171717"/>
<path d="M1950.94 179.401H1961.36V189.095C1961.36 200.704 1967.28 206.566 1979.06 206.566H2039.25C2051.03 206.566 2056.94 200.704 2056.94 189.095V129.187C2056.94 117.634 2051.03 111.773 2039.25 111.773H2028.82V102.643C2028.82 91.033 2022.85 85.1719 2011.13 85.1719H1950.94C1939.1 85.1719 1933.24 91.033 1933.24 102.643V161.987C1933.24 173.597 1939.1 179.401 1950.94 179.401ZM1951.05 170.328C1945.41 170.328 1942.31 167.341 1942.31 161.48V103.15C1942.31 97.2887 1945.41 94.2454 1951.05 94.2454H2010.96C2016.54 94.2454 2019.75 97.2887 2019.75 103.15V111.773H1979.06C1967.28 111.773 1961.36 117.577 1961.36 129.187V170.328H1951.05ZM1979.23 197.492C1973.59 197.492 1970.44 194.449 1970.44 188.588V129.694C1970.44 123.833 1973.59 120.846 1979.23 120.846H2039.14C2044.72 120.846 2047.87 123.833 2047.87 129.694V188.644C2047.87 194.449 2044.72 197.492 2039.14 197.492H1979.23Z" fill="#5794F7"/>
<path d="M1560.86 106.588C1556.58 101.178 1545.93 96.3872 1534.04 96.3872C1518.42 96.3872 1505.8 104.446 1502.7 111.998V190.729C1502.7 195.013 1505.46 196.647 1508.56 196.647C1510.99 196.647 1512.45 195.914 1513.97 194.731C1517.19 191.969 1523.67 188.25 1534.04 188.25C1544.46 188.25 1551.73 191.857 1554.55 194.393C1556.02 195.576 1557.76 196.647 1560.86 196.647C1563.96 196.647 1565.71 195.463 1567.17 194.393C1570.22 192.026 1577.32 188.25 1587.69 188.25C1598.11 188.25 1604.6 192.026 1607.81 194.731C1609.33 195.914 1610.74 196.647 1613.16 196.647C1616.26 196.647 1619.08 195.013 1619.08 190.729V111.998C1615.98 104.446 1603.3 96.3872 1587.69 96.3872C1575.85 96.3872 1565.2 101.178 1560.86 106.588ZM1511.77 114.703C1513.07 111.209 1521.24 104.897 1534.04 104.897C1546.89 104.897 1555.23 111.266 1556.35 114.703V185.995C1551 181.994 1542.83 179.74 1534.04 179.74C1525.3 179.74 1517.13 181.994 1511.77 186.221V114.703ZM1610.01 114.703V186.221C1604.6 181.994 1596.48 179.74 1587.69 179.74C1578.9 179.74 1570.78 181.994 1565.43 185.995V114.703C1566.55 111.266 1574.89 104.897 1587.69 104.897C1600.54 104.897 1608.71 111.209 1610.01 114.703Z" fill="#5794F7"/>
<path d="M1080 161.593C1082.42 161.593 1084.45 159.564 1084.45 157.197V99.3178L1084.11 90.8642L1087.89 94.8656L1096.46 103.995C1097.25 104.897 1098.43 105.348 1099.5 105.348C1101.81 105.348 1103.61 103.657 1103.61 101.347C1103.61 100.163 1103.11 99.2615 1102.26 98.4161L1083.21 80.0436C1082.09 78.9165 1081.13 78.522 1080 78.522C1078.82 78.522 1077.86 78.9165 1076.73 80.0436L1057.68 98.4161C1056.84 99.2615 1056.33 100.163 1056.33 101.347C1056.33 103.657 1058.02 105.348 1060.39 105.348C1061.46 105.348 1062.7 104.897 1063.49 103.995L1072.05 94.8656L1075.83 90.8642L1075.49 99.3178V157.197C1075.49 159.564 1077.58 161.593 1080 161.593ZM1047.65 205.721H1112.29C1124.07 205.721 1129.99 199.859 1129.99 188.25V132.005C1129.99 120.395 1124.07 114.534 1112.29 114.534H1096.57V123.608H1112.12C1117.7 123.608 1120.92 126.651 1120.92 132.512V187.743C1120.92 193.604 1117.7 196.647 1112.12 196.647H1047.76C1042.13 196.647 1039.03 193.604 1039.03 187.743V132.512C1039.03 126.651 1042.13 123.608 1047.76 123.608H1063.37V114.534H1047.65C1035.87 114.534 1029.96 120.395 1029.96 132.005V188.25C1029.96 199.859 1035.87 205.721 1047.65 205.721Z" fill="#5794F7"/>
<path d="M576.656 195.238C578.121 195.238 579.361 194.675 580.319 193.716L625.01 150.04C626.081 148.969 626.645 147.673 626.645 146.264C626.645 144.798 626.081 143.446 625.01 142.488L580.375 98.8671C579.361 97.8526 578.121 97.2891 576.656 97.2891C573.725 97.2891 571.527 99.5434 571.527 102.474C571.527 103.827 572.091 105.179 572.993 106.137L614.021 146.264L572.993 186.39C572.091 187.348 571.527 188.644 571.527 190.053C571.527 192.984 573.725 195.238 576.656 195.238Z" fill="#707070"/>
<path d="M183.656 193.66C184.614 194.618 185.854 195.182 187.319 195.182C190.25 195.182 192.448 192.984 192.448 190.053C192.448 188.644 191.884 187.348 190.982 186.39L149.954 146.264L190.982 106.137C191.884 105.179 192.448 103.827 192.448 102.474C192.448 99.5434 190.25 97.2891 187.319 97.2891C185.854 97.2891 184.614 97.8526 183.656 98.8107L139.021 142.488C137.95 143.389 137.33 144.798 137.33 146.264C137.33 147.673 137.894 148.969 138.964 150.04L183.656 193.66Z" fill="#5794F7"/>
</g>
<defs>
<filter id="filter0_bi_118_299" x="-109.924" y="-109.924" width="2379.85" height="1760.85" filterUnits="userSpaceOnUse" color-interpolation-filters="sRGB">
<feFlood flood-opacity="0" result="BackgroundImageFix"/>
<feGaussianBlur in="BackgroundImageFix" stdDeviation="54.9618"/>
<feComposite in2="SourceAlpha" operator="in" result="effect1_backgroundBlur_118_299"/>
<feBlend mode="normal" in="SourceGraphic" in2="effect1_backgroundBlur_118_299" result="shape"/>
<feColorMatrix in="SourceAlpha" type="matrix" values="0 0 0 0 0 0 0 0 0 0 0 0 0 0 0 0 0 0 127 0" result="hardAlpha"/>
<feOffset dy="1.81374"/>
<feComposite in2="hardAlpha" operator="arithmetic" k2="-1" k3="1"/>
<feColorMatrix type="matrix" values="0 0 0 0 1 0 0 0 0 1 0 0 0 0 1 0 0 0 0.3 0"/>
<feBlend mode="normal" in2="shape" result="effect2_innerShadow_118_299"/>
</filter>
</defs>
</svg>
