<?xml version="1.0" encoding="UTF-8" standalone="no"?>
<svg
   width="2160"
   height="3840"
   viewBox="0 0 2160 3840"
   fill="none"
   version="1.1"
   id="svg186"
   xmlns="http://www.w3.org/2000/svg"
   xmlns:svg="http://www.w3.org/2000/svg">
  <rect
     width="2160"
     height="3840"
     fill="url(#paint0_linear_70_3266)"
     id="rect143"
     style="fill:url(#paint0_linear_70_3266)"
     x="0"
     y="0" />
  <path
     d="M 0,0 H 2160 V 3840 H 0 Z"
     fill="#000000"
     fill-opacity="0.76"
     id="path145" />
  <path
     d="m 782.926,308 v -39.05 h 8.47 V 308 Z m 27.919,0 v -39.05 h 8.03 l 16.885,23.76 v -23.76 h 8.415 V 308 h -8.03 L 819.26,283.855 V 308 Z m 71.983,0.66 c -3.006,0 -5.756,-0.495 -8.25,-1.485 -2.493,-1.027 -4.638,-2.438 -6.435,-4.235 -1.796,-1.833 -3.19,-3.978 -4.18,-6.435 -0.99,-2.457 -1.485,-5.133 -1.485,-8.03 0,-2.86 0.495,-5.518 1.485,-7.975 0.99,-2.457 2.384,-4.602 4.18,-6.435 1.834,-1.833 3.979,-3.245 6.435,-4.235 2.494,-1.027 5.244,-1.54 8.25,-1.54 3.667,0 6.839,0.66 9.515,1.98 2.677,1.283 4.804,3.007 6.38,5.17 1.577,2.127 2.512,4.455 2.805,6.985 l -8.25,0.66 c -0.22,-1.43 -0.843,-2.677 -1.87,-3.74 -1.026,-1.063 -2.291,-1.888 -3.795,-2.475 -1.466,-0.623 -3.043,-0.935 -4.73,-0.935 -2.383,0 -4.473,0.55 -6.27,1.65 -1.76,1.063 -3.135,2.53 -4.125,4.4 -0.953,1.87 -1.43,4.033 -1.43,6.49 0,2.42 0.477,4.583 1.43,6.49 0.99,1.87 2.365,3.355 4.125,4.455 1.76,1.063 3.85,1.595 6.27,1.595 1.687,0 3.264,-0.293 4.73,-0.88 1.504,-0.623 2.769,-1.467 3.795,-2.53 1.027,-1.1 1.65,-2.347 1.87,-3.74 l 8.25,0.66 c -0.293,2.53 -1.228,4.877 -2.805,7.04 -1.54,2.127 -3.666,3.85 -6.38,5.17 -2.676,1.283 -5.848,1.925 -9.515,1.925 z m 55.852,0 c -2.97,0 -5.702,-0.495 -8.195,-1.485 -2.494,-1.027 -4.657,-2.457 -6.49,-4.29 -1.834,-1.833 -3.264,-3.978 -4.29,-6.435 -0.99,-2.457 -1.485,-5.115 -1.485,-7.975 0,-2.86 0.513,-5.518 1.54,-7.975 1.026,-2.457 2.456,-4.602 4.29,-6.435 1.833,-1.833 3.996,-3.245 6.49,-4.235 2.493,-1.027 5.206,-1.54 8.14,-1.54 2.933,0 5.646,0.513 8.14,1.54 2.493,1.027 4.656,2.457 6.49,4.29 1.87,1.797 3.318,3.923 4.345,6.38 1.026,2.457 1.54,5.115 1.54,7.975 0,2.86 -0.514,5.518 -1.54,7.975 -0.99,2.457 -2.402,4.602 -4.235,6.435 -1.834,1.797 -4.015,3.208 -6.545,4.235 -2.494,1.027 -5.225,1.54 -8.195,1.54 z m 0,-7.755 c 2.346,0 4.4,-0.532 6.16,-1.595 1.796,-1.063 3.19,-2.53 4.18,-4.4 0.99,-1.87 1.485,-4.015 1.485,-6.435 0,-2.42 -0.495,-4.565 -1.485,-6.435 -0.99,-1.87 -2.384,-3.337 -4.18,-4.4 -1.76,-1.063 -3.814,-1.595 -6.16,-1.595 -2.31,0 -4.364,0.532 -6.16,1.595 -1.76,1.063 -3.135,2.53 -4.125,4.4 -0.99,1.87 -1.485,4.015 -1.485,6.435 0,2.42 0.495,4.565 1.485,6.435 0.99,1.87 2.365,3.337 4.125,4.4 1.796,1.063 3.85,1.595 6.16,1.595 z M 977.478,308 v -39.05 h 9.68 l 11.495,24.365 11.497,-24.365 h 9.68 V 308 h -8.42 V 285.34 L 1000.85,308 h -4.232 L 985.893,285.23 V 308 Z m 61.752,0 v -39.05 h 8.47 V 308 Z m 27.92,0 v -39.05 h 8.03 l 16.89,23.76 v -23.76 h 8.41 V 308 h -8.03 l -16.88,-24.145 V 308 Z m 71.33,0.66 c -2.86,0 -5.48,-0.495 -7.87,-1.485 -2.38,-1.027 -4.47,-2.438 -6.27,-4.235 -1.76,-1.833 -3.13,-3.978 -4.12,-6.435 -0.96,-2.457 -1.43,-5.133 -1.43,-8.03 0,-2.86 0.49,-5.518 1.48,-7.975 0.99,-2.457 2.39,-4.602 4.18,-6.435 1.84,-1.833 3.98,-3.245 6.44,-4.235 2.49,-1.027 5.24,-1.54 8.25,-1.54 3.52,0 6.58,0.605 9.18,1.815 2.64,1.21 4.77,2.823 6.38,4.84 1.62,2.017 2.62,4.217 3.03,6.6 l -8.42,0.77 c -0.36,-1.283 -1.06,-2.402 -2.09,-3.355 -0.99,-0.953 -2.18,-1.687 -3.57,-2.2 -1.4,-0.55 -2.88,-0.825 -4.46,-0.825 -2.38,0 -4.47,0.55 -6.27,1.65 -1.76,1.063 -3.13,2.53 -4.12,4.4 -0.96,1.87 -1.43,4.033 -1.43,6.49 0,2.42 0.49,4.583 1.48,6.49 0.99,1.87 2.4,3.355 4.24,4.455 1.87,1.063 4.05,1.595 6.54,1.595 2.94,0 5.32,-0.733 7.15,-2.2 1.84,-1.467 2.84,-3.318 3.03,-5.555 h -11.28 v -7.425 h 19.8 V 308 h -6.82 l -0.49,-5.28 c -1.36,1.87 -3.12,3.337 -5.28,4.4 -2.13,1.027 -4.55,1.54 -7.26,1.54 z m 81.04,0 c -3.01,0 -5.76,-0.495 -8.25,-1.485 -2.49,-1.027 -4.64,-2.438 -6.43,-4.235 -1.8,-1.833 -3.19,-3.978 -4.18,-6.435 -0.99,-2.457 -1.49,-5.133 -1.49,-8.03 0,-2.86 0.5,-5.518 1.49,-7.975 0.99,-2.457 2.38,-4.602 4.18,-6.435 1.83,-1.833 3.97,-3.245 6.43,-4.235 2.49,-1.027 5.24,-1.54 8.25,-1.54 3.67,0 6.84,0.66 9.52,1.98 2.67,1.283 4.8,3.007 6.38,5.17 1.57,2.127 2.51,4.455 2.8,6.985 l -8.25,0.66 c -0.22,-1.43 -0.84,-2.677 -1.87,-3.74 -1.03,-1.063 -2.29,-1.888 -3.79,-2.475 -1.47,-0.623 -3.05,-0.935 -4.73,-0.935 -2.39,0 -4.48,0.55 -6.27,1.65 -1.76,1.063 -3.14,2.53 -4.13,4.4 -0.95,1.87 -1.43,4.033 -1.43,6.49 0,2.42 0.48,4.583 1.43,6.49 0.99,1.87 2.37,3.355 4.13,4.455 1.76,1.063 3.85,1.595 6.27,1.595 1.68,0 3.26,-0.293 4.73,-0.88 1.5,-0.623 2.76,-1.467 3.79,-2.53 1.03,-1.1 1.65,-2.347 1.87,-3.74 l 8.25,0.66 c -0.29,2.53 -1.23,4.877 -2.8,7.04 -1.54,2.127 -3.67,3.85 -6.38,5.17 -2.68,1.283 -5.85,1.925 -9.52,1.925 z m 33.74,-0.66 15.24,-39.05 h 8.69 l 15.29,39.05 h -9.3 l -3.02,-8.14 h -14.47 l -2.97,8.14 z m 15.13,-15.73 h 9.07 l -4.56,-12.43 z m 40.73,15.73 v -39.05 h 8.53 v 31.46 h 18.53 V 308 Z m 43.66,0 v -39.05 h 8.52 v 31.46 h 18.54 V 308 Z"
     fill="#2073bf"
     id="path147" />
  <path
     d="m 375.727,1673 v -34.63 h -33.799 v -17.23 h 33.799 v -34.29 h 18.225 v 34.29 h 33.633 v 17.23 H 393.952 V 1673 Z m 121.6,1.99 c -8.947,0 -16.789,-1.93 -23.527,-5.8 -6.738,-3.98 -11.984,-9.67 -15.74,-17.07 -3.755,-7.4 -5.633,-16.4 -5.633,-27 0,-9.72 1.325,-18.89 3.976,-27.51 2.651,-8.72 6.572,-16.4 11.764,-23.03 5.302,-6.62 11.874,-11.81 19.716,-15.57 7.842,-3.75 16.899,-5.63 27.172,-5.63 2.872,0 5.578,0.11 8.118,0.33 2.541,0.22 5.026,0.55 7.456,0.99 v 18.06 c -2.43,-0.44 -4.915,-0.77 -7.456,-0.99 -2.54,-0.22 -5.191,-0.33 -7.953,-0.33 -8.173,0 -14.966,1.54 -20.378,4.64 -5.413,2.98 -9.61,7.07 -12.592,12.26 -2.983,5.08 -5.081,10.88 -6.296,17.39 3.203,-3.64 6.848,-6.18 10.935,-7.62 4.087,-1.54 8.339,-2.32 12.757,-2.32 7.401,0 14.028,1.66 19.882,4.97 5.854,3.32 10.493,7.9 13.917,13.75 3.425,5.86 5.137,12.6 5.137,20.22 0,7.84 -1.768,14.8 -5.302,20.87 -3.535,6.08 -8.45,10.83 -14.746,14.25 -6.185,3.43 -13.254,5.14 -21.207,5.14 z m -0.663,-17.56 c 6.296,0 11.432,-2.05 15.408,-6.13 4.087,-4.09 6.131,-9.39 6.131,-15.91 0,-6.52 -2.044,-11.82 -6.131,-15.91 -3.976,-4.19 -9.112,-6.29 -15.408,-6.29 -6.517,0 -11.874,2.15 -16.071,6.46 -4.197,4.2 -6.296,9.44 -6.296,15.74 0,6.52 2.099,11.82 6.296,15.91 4.308,4.08 9.665,6.13 16.071,6.13 z m 59.803,15.57 v -13.92 l 33.8,-33.47 c 6.737,-6.73 12.039,-12.31 15.905,-16.73 3.866,-4.53 6.627,-8.5 8.284,-11.93 1.657,-3.42 2.485,-6.79 2.485,-10.1 0,-4.86 -1.712,-8.68 -5.136,-11.44 -3.424,-2.87 -8.008,-4.3 -13.751,-4.3 -5.744,0 -10.549,1.6 -14.415,4.8 -3.866,3.09 -5.964,7.73 -6.296,13.92 l -19.55,-0.5 c 0.552,-7.18 2.596,-13.47 6.13,-18.89 3.535,-5.41 8.284,-9.61 14.249,-12.59 6.075,-2.98 12.978,-4.47 20.71,-4.47 7.621,0 14.304,1.38 20.047,4.14 5.744,2.76 10.218,6.57 13.421,11.43 3.203,4.86 4.804,10.55 4.804,17.07 0,6.85 -1.822,13.42 -5.467,19.71 -3.645,6.19 -9.389,13.31 -17.231,21.38 l -28,28.16 h 54.012 V 1673 Z m 182.54,1.99 c -8.505,0 -16.016,-1.49 -22.532,-4.48 -6.407,-2.98 -11.432,-7.06 -15.077,-12.26 -3.535,-5.3 -5.302,-11.43 -5.302,-18.39 0,-7.29 1.933,-13.53 5.799,-18.72 3.866,-5.19 9.167,-8.78 15.905,-10.77 -5.081,-2.54 -9.112,-6.07 -12.095,-10.6 -2.871,-4.53 -4.307,-9.56 -4.307,-15.08 0,-6.18 1.601,-11.6 4.804,-16.24 3.314,-4.74 7.787,-8.45 13.421,-11.1 5.633,-2.65 12.094,-3.97 19.384,-3.97 7.18,0 13.586,1.32 19.219,3.97 5.744,2.65 10.218,6.36 13.421,11.1 3.313,4.64 4.97,10.06 4.97,16.24 0,5.52 -1.491,10.55 -4.473,15.08 -2.872,4.53 -6.793,8.06 -11.764,10.6 6.628,1.99 11.874,5.64 15.74,10.94 3.866,5.19 5.799,11.37 5.799,18.55 0,6.96 -1.823,13.09 -5.468,18.39 -3.534,5.2 -8.56,9.28 -15.077,12.26 -6.406,2.99 -13.862,4.48 -22.367,4.48 z m 0,-72.4 c 5.413,0 9.776,-1.39 13.089,-4.15 3.314,-2.87 4.971,-6.73 4.971,-11.59 0,-4.86 -1.657,-8.73 -4.971,-11.6 -3.203,-2.98 -7.566,-4.48 -13.089,-4.48 -5.412,0 -9.775,1.5 -13.088,4.48 -3.204,2.87 -4.805,6.74 -4.805,11.6 0,4.86 1.601,8.72 4.805,11.59 3.313,2.76 7.676,4.15 13.088,4.15 z m 0,55 c 6.849,0 12.316,-1.71 16.403,-5.13 4.087,-3.43 6.13,-8.07 6.13,-13.92 0,-5.86 -2.043,-10.44 -6.13,-13.75 -4.087,-3.43 -9.554,-5.14 -16.403,-5.14 -6.737,0 -12.205,1.71 -16.402,5.14 -4.087,3.31 -6.13,7.89 -6.13,13.75 0,5.85 2.043,10.49 6.13,13.92 4.197,3.42 9.665,5.13 16.402,5.13 z m 84.167,15.41 v -95.43 l -26.841,14.08 v -18.72 l 32.308,-17.56 h 14.58 V 1673 Z m 47.668,0 v -13.92 l 33.799,-33.47 c 6.738,-6.73 12.04,-12.31 15.906,-16.73 3.866,-4.53 6.627,-8.5 8.284,-11.93 1.657,-3.42 2.485,-6.79 2.485,-10.1 0,-4.86 -1.712,-8.68 -5.136,-11.44 -3.424,-2.87 -8.008,-4.3 -13.752,-4.3 -5.743,0 -10.548,1.6 -14.414,4.8 -3.866,3.09 -5.965,7.73 -6.296,13.92 l -19.55,-0.5 c 0.552,-7.18 2.595,-13.47 6.13,-18.89 3.534,-5.41 8.284,-9.61 14.249,-12.59 6.075,-2.98 12.978,-4.47 20.71,-4.47 7.621,0 14.304,1.38 20.047,4.14 5.744,2.76 10.217,6.57 13.42,11.43 3.204,4.86 4.805,10.55 4.805,17.07 0,6.85 -1.822,13.42 -5.467,19.71 -3.645,6.19 -9.389,13.31 -17.231,21.38 l -28,28.16 h 54.012 V 1673 Z m 136.318,0 33.3,-44.4 -30.82,-41.75 h 21.71 l 20.21,27 20.21,-27 h 21.71 l -30.99,41.75 33.31,44.4 h -22.7 l -21.54,-29.16 -21.7,29.16 z m 99.5,0 33.31,-44.4 -30.82,-41.75 h 21.7 l 20.22,27 20.21,-27 h 21.7 l -30.98,41.75 33.3,44.4 h -22.7 l -21.53,-29.16 -21.71,29.16 z m 99.51,0 33.3,-44.4 -30.82,-41.75 h 21.71 l 20.21,27 20.22,-27 h 21.7 l -30.98,41.75 33.3,44.4 h -22.7 l -21.54,-29.16 -21.7,29.16 z m 99.51,0 33.3,-44.4 -30.82,-41.75 h 21.71 l 20.21,27 20.21,-27 H 1392 l -30.99,41.75 33.31,44.4 h -22.7 l -21.54,-29.16 -21.71,29.16 z m 135.91,0 33.3,-44.4 -30.82,-41.75 h 21.71 l 20.21,27 20.21,-27 h 21.71 l -30.99,41.75 33.31,44.4 h -22.7 l -21.54,-29.16 -21.71,29.16 z m 99.5,0 33.3,-44.4 -30.81,-41.75 h 21.7 l 20.22,27 20.21,-27 h 21.7 l -30.98,41.75 33.3,44.4 h -22.7 l -21.53,-29.16 -21.71,29.16 z m 99.51,0 33.3,-44.4 -30.82,-41.75 h 21.71 l 20.21,27 20.21,-27 h 21.71 l -30.98,41.75 33.3,44.4 h -22.7 L 1685,1643.84 1663.3,1673 Z m 99.5,0 33.31,-44.4 -30.82,-41.75 h 21.7 l 20.22,27 20.21,-27 h 21.71 l -30.99,41.75 33.3,44.4 h -22.69 l -21.54,-29.16 -21.71,29.16 z"
     fill="#ffffff"
     id="path149" />
  <path
     d="m 593.556,1867.35 v -69.58 h 7.938 l 38.71,53.8 v -53.8 h 8.624 v 69.58 h -8.036 l -38.612,-54.09 v 54.09 z m 96.054,1.18 c -5.031,0 -9.506,-1.11 -13.426,-3.33 -3.92,-2.29 -7.023,-5.43 -9.31,-9.41 -2.221,-3.99 -3.332,-8.59 -3.332,-13.82 0,-5.23 1.111,-9.83 3.332,-13.82 2.221,-3.98 5.292,-7.09 9.212,-9.31 3.92,-2.28 8.428,-3.43 13.524,-3.43 4.9,0 9.31,1.11 13.23,3.33 3.92,2.23 6.991,5.33 9.212,9.31 2.287,3.99 3.43,8.63 3.43,13.92 0,5.23 -1.143,9.83 -3.43,13.82 -2.287,3.98 -5.39,7.12 -9.31,9.41 -3.855,2.22 -8.232,3.33 -13.132,3.33 z m 0,-7.25 c 3.332,0 6.337,-0.79 9.016,-2.36 2.679,-1.63 4.769,-3.88 6.272,-6.76 1.568,-2.94 2.352,-6.33 2.352,-10.19 0,-3.85 -0.784,-7.22 -2.352,-10.09 -1.568,-2.94 -3.691,-5.2 -6.37,-6.77 -2.613,-1.63 -5.586,-2.45 -8.918,-2.45 -3.463,0 -6.566,0.82 -9.31,2.45 -2.679,1.57 -4.769,3.83 -6.272,6.77 -1.503,2.87 -2.254,6.24 -2.254,10.09 0,3.86 0.751,7.25 2.254,10.19 1.503,2.88 3.593,5.13 6.272,6.76 2.744,1.57 5.847,2.36 9.31,2.36 z m 39.63,6.07 v -50.76 h 7.84 v 7.15 c 1.699,-3 3.888,-5.13 6.566,-6.37 2.679,-1.3 5.619,-1.96 8.82,-1.96 4.051,0 7.546,0.92 10.486,2.75 3.006,1.76 5.26,4.44 6.762,8.03 1.634,-3.79 4.051,-6.53 7.252,-8.23 3.202,-1.7 6.501,-2.55 9.898,-2.55 5.815,0 10.454,1.86 13.916,5.59 3.528,3.72 5.292,9.18 5.292,16.36 v 29.99 h -8.036 v -29.59 c 0,-5.23 -1.176,-9.08 -3.528,-11.57 -2.286,-2.48 -5.292,-3.72 -9.016,-3.72 -4.116,0 -7.448,1.4 -9.996,4.21 -2.548,2.75 -3.822,6.44 -3.822,11.08 v 29.59 h -8.036 v -29.59 c 0,-5.23 -1.176,-9.08 -3.528,-11.57 -2.286,-2.48 -5.292,-3.72 -9.016,-3.72 -4.116,0 -7.448,1.4 -9.996,4.21 -2.548,2.75 -3.822,6.44 -3.822,11.08 v 29.59 z m 115.601,1.18 c -5.031,0 -9.506,-1.11 -13.426,-3.33 -3.92,-2.29 -7.024,-5.43 -9.31,-9.41 -2.222,-3.99 -3.332,-8.59 -3.332,-13.82 0,-5.23 1.11,-9.83 3.332,-13.82 2.221,-3.98 5.292,-7.09 9.212,-9.31 3.92,-2.28 8.428,-3.43 13.524,-3.43 4.9,0 9.31,1.11 13.23,3.33 3.92,2.23 6.99,5.33 9.212,9.31 2.286,3.99 3.43,8.63 3.43,13.92 0,5.23 -1.144,9.83 -3.43,13.82 -2.287,3.98 -5.39,7.12 -9.31,9.41 -3.855,2.22 -8.232,3.33 -13.132,3.33 z m 0,-7.25 c 3.332,0 6.337,-0.79 9.016,-2.36 2.678,-1.63 4.769,-3.88 6.272,-6.76 1.568,-2.94 2.352,-6.33 2.352,-10.19 0,-3.85 -0.784,-7.22 -2.352,-10.09 -1.568,-2.94 -3.692,-5.2 -6.37,-6.77 -2.614,-1.63 -5.586,-2.45 -8.918,-2.45 -3.463,0 -6.566,0.82 -9.31,2.45 -2.679,1.57 -4.77,3.83 -6.272,6.77 -1.503,2.87 -2.254,6.24 -2.254,10.09 0,3.86 0.751,7.25 2.254,10.19 1.502,2.88 3.593,5.13 6.272,6.76 2.744,1.57 5.847,2.36 9.31,2.36 z m 39.63,6.07 v -50.76 h 7.84 v 7.64 c 1.699,-3.13 3.855,-5.39 6.468,-6.76 2.613,-1.37 5.096,-2.06 7.448,-2.06 1.568,0 2.875,0.23 3.92,0.69 v 7.54 h -0.392 c -0.392,-0.13 -0.849,-0.22 -1.372,-0.29 -0.457,-0.06 -1.241,-0.1 -2.352,-0.1 -2.417,0 -4.671,0.62 -6.762,1.86 -2.025,1.25 -3.659,3.08 -4.9,5.49 -1.241,2.35 -1.862,5.23 -1.862,8.63 v 28.12 z m 75.417,0 v -61.93 h -20.384 v -7.65 h 49.294 v 7.65 h -20.286 v 61.93 z m 44.992,-59.09 c -1.63,0 -3.07,-0.56 -4.31,-1.67 -1.241,-1.17 -1.862,-2.61 -1.862,-4.31 0,-1.76 0.621,-3.2 1.862,-4.31 1.24,-1.18 2.68,-1.77 4.31,-1.77 1.7,0 3.14,0.59 4.31,1.77 1.25,1.11 1.87,2.55 1.87,4.31 0,1.7 -0.62,3.14 -1.87,4.31 -1.17,1.11 -2.61,1.67 -4.31,1.67 z m -4.02,59.09 v -50.76 h 8.04 v 50.76 z m 47.81,1.18 c -4.9,0 -9.24,-1.11 -13.03,-3.33 -3.79,-2.22 -6.8,-5.33 -9.02,-9.31 -2.16,-3.99 -3.23,-8.63 -3.23,-13.92 0,-5.29 1.07,-9.93 3.23,-13.92 2.22,-3.98 5.23,-7.08 9.02,-9.31 3.85,-2.22 8.16,-3.33 12.93,-3.33 3.86,0 7.42,0.85 10.68,2.55 3.34,1.63 5.95,3.89 7.84,6.76 v -28.12 h 8.04 v 70.75 h -7.84 v -8.33 c -2.03,3.01 -4.67,5.36 -7.94,7.06 -3.26,1.63 -6.83,2.45 -10.68,2.45 z m 0.59,-7.25 c 3.33,0 6.34,-0.75 9.01,-2.26 2.75,-1.5 4.9,-3.69 6.47,-6.56 1.57,-2.88 2.35,-6.37 2.35,-10.49 0,-4.12 -0.78,-7.61 -2.35,-10.49 -1.57,-2.87 -3.72,-5.06 -6.47,-6.56 -2.67,-1.5 -5.68,-2.26 -9.01,-2.26 -3.4,0 -6.44,0.82 -9.12,2.45 -2.61,1.57 -4.7,3.79 -6.27,6.67 -1.5,2.87 -2.25,6.27 -2.25,10.19 0,3.86 0.75,7.25 2.25,10.19 1.57,2.88 3.66,5.13 6.27,6.76 2.68,1.57 5.72,2.36 9.12,2.36 z m 57.03,7.25 c -5.23,0 -9.44,-1.31 -12.64,-3.92 -3.2,-2.61 -4.8,-6.11 -4.8,-10.49 0,-4.7 1.5,-8.36 4.5,-10.97 3.08,-2.68 7.09,-4.51 12.06,-5.49 l 18.13,-3.53 v -1.76 c 0,-2.94 -1.18,-5.33 -3.53,-7.16 -2.35,-1.83 -5.55,-2.74 -9.6,-2.74 -3.47,0 -6.44,0.78 -8.92,2.35 -2.42,1.57 -3.99,3.92 -4.71,7.06 l -7.74,-0.4 c 0.92,-5.03 3.33,-8.95 7.25,-11.76 3.92,-2.87 8.66,-4.31 14.21,-4.31 6.6,0 11.76,1.57 15.49,4.71 3.72,3.13 5.58,7.22 5.58,12.25 v 34.98 h -7.84 v -6.86 c -1.5,2.42 -3.72,4.38 -6.66,5.88 -2.94,1.44 -6.53,2.16 -10.78,2.16 z m 1.08,-6.96 c 5.03,0 8.98,-1.27 11.86,-3.82 2.87,-2.55 4.31,-6.11 4.31,-10.68 v -6.18 l -16.07,3.14 c -3.01,0.59 -5.52,1.7 -7.55,3.33 -1.96,1.57 -2.94,3.69 -2.94,6.37 0,2.74 1.01,4.74 3.04,5.98 2.02,1.24 4.47,1.86 7.35,1.86 z m 41.82,5.78 v -70.75 h 8.03 v 43.51 l 25.09,-23.52 h 10.19 l -20.19,19.7 22.15,31.06 h -9.5 l -18.72,-25.97 -9.02,8.72 v 17.25 z m 77.54,0 v -69.58 h 22.64 c 7.44,0 13.88,1.44 19.3,4.31 5.42,2.88 9.61,6.93 12.55,12.16 3,5.16 4.5,11.27 4.5,18.32 0,6.86 -1.5,12.91 -4.5,18.13 -2.94,5.23 -7.16,9.31 -12.65,12.25 -5.42,2.94 -11.82,4.41 -19.2,4.41 z m 8.62,-7.64 h 14.21 c 5.62,0 10.46,-1.18 14.51,-3.53 4.11,-2.42 7.28,-5.65 9.5,-9.7 2.22,-4.12 3.33,-8.76 3.33,-13.92 0,-5.29 -1.11,-9.96 -3.33,-14.01 -2.22,-4.12 -5.39,-7.32 -9.5,-9.61 -4.05,-2.35 -8.89,-3.52 -14.51,-3.52 h -14.21 z m 69.85,-51.45 c -1.63,0 -3.07,-0.56 -4.31,-1.67 -1.24,-1.17 -1.87,-2.61 -1.87,-4.31 0,-1.76 0.63,-3.2 1.87,-4.31 1.24,-1.18 2.68,-1.77 4.31,-1.77 1.7,0 3.13,0.59 4.31,1.77 1.24,1.11 1.86,2.55 1.86,4.31 0,1.7 -0.62,3.14 -1.86,4.31 -1.18,1.11 -2.61,1.67 -4.31,1.67 z m -4.02,59.09 v -50.76 h 8.04 v 50.76 z m 24.48,0 v -70.75 h 8.04 v 43.51 l 25.09,-23.52 h 10.19 l -20.19,19.7 22.15,31.06 h -9.51 l -18.72,-25.97 -9.01,8.72 v 17.25 z m 78.09,1.18 c -4.9,0 -9.35,-1.11 -13.33,-3.33 -3.92,-2.29 -7.02,-5.43 -9.31,-9.41 -2.29,-3.99 -3.43,-8.59 -3.43,-13.82 0,-5.23 1.14,-9.83 3.43,-13.82 2.29,-3.98 5.36,-7.09 9.21,-9.31 3.92,-2.28 8.3,-3.43 13.13,-3.43 5.1,0 9.48,1.08 13.13,3.24 3.73,2.15 6.6,5.03 8.63,8.62 2.02,3.59 3.04,7.58 3.04,11.96 0,1.7 -0.17,3.46 -0.49,5.29 h -42.05 c 0.27,3.66 1.25,6.79 2.94,9.41 1.7,2.54 3.89,4.5 6.57,5.88 2.68,1.37 5.52,2.05 8.53,2.05 3.92,0 7.35,-0.98 10.29,-2.94 2.94,-2.02 4.83,-4.76 5.68,-8.23 l 7.84,0.59 c -1.31,5.36 -4.15,9.57 -8.53,12.64 -4.37,3.07 -9.47,4.61 -15.28,4.61 z m -17.84,-30.87 h 34.4 c -0.07,-4.44 -1.63,-8.14 -4.71,-11.08 -3.07,-3 -7.12,-4.5 -12.15,-4.5 -2.81,0 -5.49,0.62 -8.03,1.86 -2.55,1.17 -4.67,2.91 -6.37,5.19 -1.7,2.29 -2.75,5.13 -3.14,8.53 z m 56.03,29.69 v -50.76 h 7.84 v 7.25 c 3.33,-5.62 8.63,-8.43 15.88,-8.43 6.07,0 10.88,1.96 14.4,5.88 3.53,3.92 5.3,9.28 5.3,16.07 v 29.99 h -8.04 v -29.59 c 0,-4.84 -1.18,-8.59 -3.53,-11.27 -2.29,-2.68 -5.45,-4.02 -9.5,-4.02 -4.25,0 -7.71,1.44 -10.39,4.31 -2.62,2.81 -3.92,6.47 -3.92,10.98 v 29.59 z m 73.58,1.18 c -5.23,0 -9.44,-1.31 -12.64,-3.92 -3.21,-2.61 -4.81,-6.11 -4.81,-10.49 0,-4.7 1.51,-8.36 4.51,-10.97 3.07,-2.68 7.09,-4.51 12.06,-5.49 l 18.13,-3.53 v -1.76 c 0,-2.94 -1.18,-5.33 -3.53,-7.16 -2.35,-1.83 -5.56,-2.74 -9.61,-2.74 -3.46,0 -6.43,0.78 -8.91,2.35 -2.42,1.57 -3.99,3.92 -4.71,7.06 l -7.74,-0.4 c 0.91,-5.03 3.33,-8.95 7.25,-11.76 3.92,-2.87 8.66,-4.31 14.21,-4.31 6.6,0 11.76,1.57 15.49,4.71 3.72,3.13 5.58,7.22 5.58,12.25 v 34.98 h -7.84 v -6.86 c -1.5,2.42 -3.72,4.38 -6.66,5.88 -2.94,1.44 -6.54,2.16 -10.78,2.16 z m 1.08,-6.96 c 5.03,0 8.98,-1.27 11.85,-3.82 2.88,-2.55 4.32,-6.11 4.32,-10.68 v -6.18 l -16.08,3.14 c -3,0.59 -5.52,1.7 -7.54,3.33 -1.96,1.57 -2.94,3.69 -2.94,6.37 0,2.74 1.01,4.74 3.04,5.98 2.02,1.24 4.47,1.86 7.35,1.86 z m 41.81,5.78 v -69.58 h 8.04 v 69.58 z"
     fill="#c1c1c1"
     id="path151" />
  <circle
     cx="1080"
     cy="961"
     r="408"
     fill="#313131"
     id="circle153" />
  <g
     mask="url(#mask0_70_3266)"
     id="g160">
    <circle
       cx="1080.45"
       cy="1348.91"
       r="298.63501"
       fill="#727272"
       id="circle158" />
  </g>
  <circle
     cx="1080"
     cy="802.97803"
     r="161.593"
     fill="#727272"
     id="circle162" />
  <defs
     id="defs184">
    <linearGradient
       id="paint0_linear_70_3266"
       x1="1080"
       y1="0"
       x2="1080"
       y2="4332"
       gradientUnits="userSpaceOnUse">
      <stop
         offset="0.0459809"
         stop-color="#0B3168"
         id="stop174" />
      <stop
         offset="0.607389"
         stop-color="#2073BF"
         id="stop176" />
      <stop
         offset="1"
         stop-color="#FFBB52"
         id="stop178" />
    </linearGradient>
    <clipPath
       id="clip0_70_3266">
      <rect
         width="2160"
         height="3840"
         fill="white"
         id="rect181" />
    </clipPath>
    <mask
       id="mask0_70_3266"
       maskUnits="userSpaceOnUse"
       x="672"
       y="553"
       width="816"
       height="816"
       style="mask-type:alpha">
      <circle
         cx="1080"
         cy="961"
         r="408"
         fill="#313131"
         id="circle155" />
    </mask>
  </defs>
</svg>
