<?xml version="1.0" encoding="UTF-8" standalone="no"?>
<svg
   width="2160"
   height="3840"
   viewBox="0 0 2160 3840"
   fill="none"
   version="1.1"
   id="svg186"
   xmlns="http://www.w3.org/2000/svg"
   xmlns:svg="http://www.w3.org/2000/svg">
  <rect
     width="2160"
     height="3840"
     fill="url(#paint0_linear_70_3266)"
     id="rect143"
     style="fill:url(#paint0_linear_70_3266)"
     x="0"
     y="0" />
  <path
     d="M 0,0 H 2160 V 3840 H 0 Z"
     fill="#000000"
     fill-opacity="0.76"
     id="path145" />
  <path
     d="m 782.926,308 v -39.05 h 8.47 V 308 Z m 27.919,0 v -39.05 h 8.03 l 16.885,23.76 v -23.76 h 8.415 V 308 h -8.03 L 819.26,283.855 V 308 Z m 71.983,0.66 c -3.006,0 -5.756,-0.495 -8.25,-1.485 -2.493,-1.027 -4.638,-2.438 -6.435,-4.235 -1.796,-1.833 -3.19,-3.978 -4.18,-6.435 -0.99,-2.457 -1.485,-5.133 -1.485,-8.03 0,-2.86 0.495,-5.518 1.485,-7.975 0.99,-2.457 2.384,-4.602 4.18,-6.435 1.834,-1.833 3.979,-3.245 6.435,-4.235 2.494,-1.027 5.244,-1.54 8.25,-1.54 3.667,0 6.839,0.66 9.515,1.98 2.677,1.283 4.804,3.007 6.38,5.17 1.577,2.127 2.512,4.455 2.805,6.985 l -8.25,0.66 c -0.22,-1.43 -0.843,-2.677 -1.87,-3.74 -1.026,-1.063 -2.291,-1.888 -3.795,-2.475 -1.466,-0.623 -3.043,-0.935 -4.73,-0.935 -2.383,0 -4.473,0.55 -6.27,1.65 -1.76,1.063 -3.135,2.53 -4.125,4.4 -0.953,1.87 -1.43,4.033 -1.43,6.49 0,2.42 0.477,4.583 1.43,6.49 0.99,1.87 2.365,3.355 4.125,4.455 1.76,1.063 3.85,1.595 6.27,1.595 1.687,0 3.264,-0.293 4.73,-0.88 1.504,-0.623 2.769,-1.467 3.795,-2.53 1.027,-1.1 1.65,-2.347 1.87,-3.74 l 8.25,0.66 c -0.293,2.53 -1.228,4.877 -2.805,7.04 -1.54,2.127 -3.666,3.85 -6.38,5.17 -2.676,1.283 -5.848,1.925 -9.515,1.925 z m 55.852,0 c -2.97,0 -5.702,-0.495 -8.195,-1.485 -2.494,-1.027 -4.657,-2.457 -6.49,-4.29 -1.834,-1.833 -3.264,-3.978 -4.29,-6.435 -0.99,-2.457 -1.485,-5.115 -1.485,-7.975 0,-2.86 0.513,-5.518 1.54,-7.975 1.026,-2.457 2.456,-4.602 4.29,-6.435 1.833,-1.833 3.996,-3.245 6.49,-4.235 2.493,-1.027 5.206,-1.54 8.14,-1.54 2.933,0 5.646,0.513 8.14,1.54 2.493,1.027 4.656,2.457 6.49,4.29 1.87,1.797 3.318,3.923 4.345,6.38 1.026,2.457 1.54,5.115 1.54,7.975 0,2.86 -0.514,5.518 -1.54,7.975 -0.99,2.457 -2.402,4.602 -4.235,6.435 -1.834,1.797 -4.015,3.208 -6.545,4.235 -2.494,1.027 -5.225,1.54 -8.195,1.54 z m 0,-7.755 c 2.346,0 4.4,-0.532 6.16,-1.595 1.796,-1.063 3.19,-2.53 4.18,-4.4 0.99,-1.87 1.485,-4.015 1.485,-6.435 0,-2.42 -0.495,-4.565 -1.485,-6.435 -0.99,-1.87 -2.384,-3.337 -4.18,-4.4 -1.76,-1.063 -3.814,-1.595 -6.16,-1.595 -2.31,0 -4.364,0.532 -6.16,1.595 -1.76,1.063 -3.135,2.53 -4.125,4.4 -0.99,1.87 -1.485,4.015 -1.485,6.435 0,2.42 0.495,4.565 1.485,6.435 0.99,1.87 2.365,3.337 4.125,4.4 1.796,1.063 3.85,1.595 6.16,1.595 z M 977.478,308 v -39.05 h 9.68 l 11.495,24.365 11.497,-24.365 h 9.68 V 308 h -8.42 V 285.34 L 1000.85,308 h -4.232 L 985.893,285.23 V 308 Z m 61.752,0 v -39.05 h 8.47 V 308 Z m 27.92,0 v -39.05 h 8.03 l 16.89,23.76 v -23.76 h 8.41 V 308 h -8.03 l -16.88,-24.145 V 308 Z m 71.33,0.66 c -2.86,0 -5.48,-0.495 -7.87,-1.485 -2.38,-1.027 -4.47,-2.438 -6.27,-4.235 -1.76,-1.833 -3.13,-3.978 -4.12,-6.435 -0.96,-2.457 -1.43,-5.133 -1.43,-8.03 0,-2.86 0.49,-5.518 1.48,-7.975 0.99,-2.457 2.39,-4.602 4.18,-6.435 1.84,-1.833 3.98,-3.245 6.44,-4.235 2.49,-1.027 5.24,-1.54 8.25,-1.54 3.52,0 6.58,0.605 9.18,1.815 2.64,1.21 4.77,2.823 6.38,4.84 1.62,2.017 2.62,4.217 3.03,6.6 l -8.42,0.77 c -0.36,-1.283 -1.06,-2.402 -2.09,-3.355 -0.99,-0.953 -2.18,-1.687 -3.57,-2.2 -1.4,-0.55 -2.88,-0.825 -4.46,-0.825 -2.38,0 -4.47,0.55 -6.27,1.65 -1.76,1.063 -3.13,2.53 -4.12,4.4 -0.96,1.87 -1.43,4.033 -1.43,6.49 0,2.42 0.49,4.583 1.48,6.49 0.99,1.87 2.4,3.355 4.24,4.455 1.87,1.063 4.05,1.595 6.54,1.595 2.94,0 5.32,-0.733 7.15,-2.2 1.84,-1.467 2.84,-3.318 3.03,-5.555 h -11.28 v -7.425 h 19.8 V 308 h -6.82 l -0.49,-5.28 c -1.36,1.87 -3.12,3.337 -5.28,4.4 -2.13,1.027 -4.55,1.54 -7.26,1.54 z m 81.04,0 c -3.01,0 -5.76,-0.495 -8.25,-1.485 -2.49,-1.027 -4.64,-2.438 -6.43,-4.235 -1.8,-1.833 -3.19,-3.978 -4.18,-6.435 -0.99,-2.457 -1.49,-5.133 -1.49,-8.03 0,-2.86 0.5,-5.518 1.49,-7.975 0.99,-2.457 2.38,-4.602 4.18,-6.435 1.83,-1.833 3.97,-3.245 6.43,-4.235 2.49,-1.027 5.24,-1.54 8.25,-1.54 3.67,0 6.84,0.66 9.52,1.98 2.67,1.283 4.8,3.007 6.38,5.17 1.57,2.127 2.51,4.455 2.8,6.985 l -8.25,0.66 c -0.22,-1.43 -0.84,-2.677 -1.87,-3.74 -1.03,-1.063 -2.29,-1.888 -3.79,-2.475 -1.47,-0.623 -3.05,-0.935 -4.73,-0.935 -2.39,0 -4.48,0.55 -6.27,1.65 -1.76,1.063 -3.14,2.53 -4.13,4.4 -0.95,1.87 -1.43,4.033 -1.43,6.49 0,2.42 0.48,4.583 1.43,6.49 0.99,1.87 2.37,3.355 4.13,4.455 1.76,1.063 3.85,1.595 6.27,1.595 1.68,0 3.26,-0.293 4.73,-0.88 1.5,-0.623 2.76,-1.467 3.79,-2.53 1.03,-1.1 1.65,-2.347 1.87,-3.74 l 8.25,0.66 c -0.29,2.53 -1.23,4.877 -2.8,7.04 -1.54,2.127 -3.67,3.85 -6.38,5.17 -2.68,1.283 -5.85,1.925 -9.52,1.925 z m 33.74,-0.66 15.24,-39.05 h 8.69 l 15.29,39.05 h -9.3 l -3.02,-8.14 h -14.47 l -2.97,8.14 z m 15.13,-15.73 h 9.07 l -4.56,-12.43 z m 40.73,15.73 v -39.05 h 8.53 v 31.46 h 18.53 V 308 Z m 43.66,0 v -39.05 h 8.52 v 31.46 h 18.54 V 308 Z"
     fill="#2073bf"
     id="path147" />
  <path
     d="m 375.727,1673 v -34.63 h -33.799 v -17.23 h 33.799 v -34.29 h 18.225 v 34.29 h 33.633 v 17.23 H 393.952 V 1673 Z m 121.6,1.99 c -8.947,0 -16.789,-1.93 -23.527,-5.8 -6.738,-3.98 -11.984,-9.67 -15.74,-17.07 -3.755,-7.4 -5.633,-16.4 -5.633,-27 0,-9.72 1.325,-18.89 3.976,-27.51 2.651,-8.72 6.572,-16.4 11.764,-23.03 5.302,-6.62 11.874,-11.81 19.716,-15.57 7.842,-3.75 16.899,-5.63 27.172,-5.63 2.872,0 5.578,0.11 8.118,0.33 2.541,0.22 5.026,0.55 7.456,0.99 v 18.06 c -2.43,-0.44 -4.915,-0.77 -7.456,-0.99 -2.54,-0.22 -5.191,-0.33 -7.953,-0.33 -8.173,0 -14.966,1.54 -20.378,4.64 -5.413,2.98 -9.61,7.07 -12.592,12.26 -2.983,5.08 -5.081,10.88 -6.296,17.39 3.203,-3.64 6.848,-6.18 10.935,-7.62 4.087,-1.54 8.339,-2.32 12.757,-2.32 7.401,0 14.028,1.66 19.882,4.97 5.854,3.32 10.493,7.9 13.917,13.75 3.425,5.86 5.137,12.6 5.137,20.22 0,7.84 -1.768,14.8 -5.302,20.87 -3.535,6.08 -8.45,10.83 -14.746,14.25 -6.185,3.43 -13.254,5.14 -21.207,5.14 z m -0.663,-17.56 c 6.296,0 11.432,-2.05 15.408,-6.13 4.087,-4.09 6.131,-9.39 6.131,-15.91 0,-6.52 -2.044,-11.82 -6.131,-15.91 -3.976,-4.19 -9.112,-6.29 -15.408,-6.29 -6.517,0 -11.874,2.15 -16.071,6.46 -4.197,4.2 -6.296,9.44 -6.296,15.74 0,6.52 2.099,11.82 6.296,15.91 4.308,4.08 9.665,6.13 16.071,6.13 z m 59.803,15.57 v -13.92 l 33.8,-33.47 c 6.737,-6.73 12.039,-12.31 15.905,-16.73 3.866,-4.53 6.627,-8.5 8.284,-11.93 1.657,-3.42 2.485,-6.79 2.485,-10.1 0,-4.86 -1.712,-8.68 -5.136,-11.44 -3.424,-2.87 -8.008,-4.3 -13.751,-4.3 -5.744,0 -10.549,1.6 -14.415,4.8 -3.866,3.09 -5.964,7.73 -6.296,13.92 l -19.55,-0.5 c 0.552,-7.18 2.596,-13.47 6.13,-18.89 3.535,-5.41 8.284,-9.61 14.249,-12.59 6.075,-2.98 12.978,-4.47 20.71,-4.47 7.621,0 14.304,1.38 20.047,4.14 5.744,2.76 10.218,6.57 13.421,11.43 3.203,4.86 4.804,10.55 4.804,17.07 0,6.85 -1.822,13.42 -5.467,19.71 -3.645,6.19 -9.389,13.31 -17.231,21.38 l -28,28.16 h 54.012 V 1673 Z m 182.54,1.99 c -8.505,0 -16.016,-1.49 -22.532,-4.48 -6.407,-2.98 -11.432,-7.06 -15.077,-12.26 -3.535,-5.3 -5.302,-11.43 -5.302,-18.39 0,-7.29 1.933,-13.53 5.799,-18.72 3.866,-5.19 9.167,-8.78 15.905,-10.77 -5.081,-2.54 -9.112,-6.07 -12.095,-10.6 -2.871,-4.53 -4.307,-9.56 -4.307,-15.08 0,-6.18 1.601,-11.6 4.804,-16.24 3.314,-4.74 7.787,-8.45 13.421,-11.1 5.633,-2.65 12.094,-3.97 19.384,-3.97 7.18,0 13.586,1.32 19.219,3.97 5.744,2.65 10.218,6.36 13.421,11.1 3.313,4.64 4.97,10.06 4.97,16.24 0,5.52 -1.491,10.55 -4.473,15.08 -2.872,4.53 -6.793,8.06 -11.764,10.6 6.628,1.99 11.874,5.64 15.74,10.94 3.866,5.19 5.799,11.37 5.799,18.55 0,6.96 -1.823,13.09 -5.468,18.39 -3.534,5.2 -8.56,9.28 -15.077,12.26 -6.406,2.99 -13.862,4.48 -22.367,4.48 z m 0,-72.4 c 5.413,0 9.776,-1.39 13.089,-4.15 3.314,-2.87 4.971,-6.73 4.971,-11.59 0,-4.86 -1.657,-8.73 -4.971,-11.6 -3.203,-2.98 -7.566,-4.48 -13.089,-4.48 -5.412,0 -9.775,1.5 -13.088,4.48 -3.204,2.87 -4.805,6.74 -4.805,11.6 0,4.86 1.601,8.72 4.805,11.59 3.313,2.76 7.676,4.15 13.088,4.15 z m 0,55 c 6.849,0 12.316,-1.71 16.403,-5.13 4.087,-3.43 6.13,-8.07 6.13,-13.92 0,-5.86 -2.043,-10.44 -6.13,-13.75 -4.087,-3.43 -9.554,-5.14 -16.403,-5.14 -6.737,0 -12.205,1.71 -16.402,5.14 -4.087,3.31 -6.13,7.89 -6.13,13.75 0,5.85 2.043,10.49 6.13,13.92 4.197,3.42 9.665,5.13 16.402,5.13 z m 84.167,15.41 v -95.43 l -26.841,14.08 v -18.72 l 32.308,-17.56 h 14.58 V 1673 Z m 47.668,0 v -13.92 l 33.799,-33.47 c 6.738,-6.73 12.04,-12.31 15.906,-16.73 3.866,-4.53 6.627,-8.5 8.284,-11.93 1.657,-3.42 2.485,-6.79 2.485,-10.1 0,-4.86 -1.712,-8.68 -5.136,-11.44 -3.424,-2.87 -8.008,-4.3 -13.752,-4.3 -5.743,0 -10.548,1.6 -14.414,4.8 -3.866,3.09 -5.965,7.73 -6.296,13.92 l -19.55,-0.5 c 0.552,-7.18 2.595,-13.47 6.13,-18.89 3.534,-5.41 8.284,-9.61 14.249,-12.59 6.075,-2.98 12.978,-4.47 20.71,-4.47 7.621,0 14.304,1.38 20.047,4.14 5.744,2.76 10.217,6.57 13.42,11.43 3.204,4.86 4.805,10.55 4.805,17.07 0,6.85 -1.822,13.42 -5.467,19.71 -3.645,6.19 -9.389,13.31 -17.231,21.38 l -28,28.16 h 54.012 V 1673 Z m 136.318,0 33.3,-44.4 -30.82,-41.75 h 21.71 l 20.21,27 20.21,-27 h 21.71 l -30.99,41.75 33.31,44.4 h -22.7 l -21.54,-29.16 -21.7,29.16 z m 99.5,0 33.31,-44.4 -30.82,-41.75 h 21.7 l 20.22,27 20.21,-27 h 21.7 l -30.98,41.75 33.3,44.4 h -22.7 l -21.53,-29.16 -21.71,29.16 z m 99.51,0 33.3,-44.4 -30.82,-41.75 h 21.71 l 20.21,27 20.22,-27 h 21.7 l -30.98,41.75 33.3,44.4 h -22.7 l -21.54,-29.16 -21.7,29.16 z m 99.51,0 33.3,-44.4 -30.82,-41.75 h 21.71 l 20.21,27 20.21,-27 H 1392 l -30.99,41.75 33.31,44.4 h -22.7 l -21.54,-29.16 -21.71,29.16 z m 135.91,0 33.3,-44.4 -30.82,-41.75 h 21.71 l 20.21,27 20.21,-27 h 21.71 l -30.99,41.75 33.31,44.4 h -22.7 l -21.54,-29.16 -21.71,29.16 z m 99.5,0 33.3,-44.4 -30.81,-41.75 h 21.7 l 20.22,27 20.21,-27 h 21.7 l -30.98,41.75 33.3,44.4 h -22.7 l -21.53,-29.16 -21.71,29.16 z m 99.51,0 33.3,-44.4 -30.82,-41.75 h 21.71 l 20.21,27 20.21,-27 h 21.71 l -30.98,41.75 33.3,44.4 h -22.7 L 1685,1643.84 1663.3,1673 Z m 99.5,0 33.31,-44.4 -30.82,-41.75 h 21.7 l 20.22,27 20.21,-27 h 21.71 l -30.99,41.75 33.3,44.4 h -22.69 l -21.54,-29.16 -21.71,29.16 z"
     fill="#ffffff"
     id="path149" />
  <path
     d="m 593.556,1867.35 v -69.58 h 7.938 l 38.71,53.8 v -53.8 h 8.624 v 69.58 h -8.036 l -38.612,-54.09 v 54.09 z m 96.054,1.18 c -5.031,0 -9.506,-1.11 -13.426,-3.33 -3.92,-2.29 -7.023,-5.43 -9.31,-9.41 -2.221,-3.99 -3.332,-8.59 -3.332,-13.82 0,-5.23 1.111,-9.83 3.332,-13.82 2.221,-3.98 5.292,-7.09 9.212,-9.31 3.92,-2.28 8.428,-3.43 13.524,-3.43 4.9,0 9.31,1.11 13.23,3.33 3.92,2.23 6.991,5.33 9.212,9.31 2.287,3.99 3.43,8.63 3.43,13.92 0,5.23 -1.143,9.83 -3.43,13.82 -2.287,3.98 -5.39,7.12 -9.31,9.41 -3.855,2.22 -8.232,3.33 -13.132,3.33 z m 0,-7.25 c 3.332,0 6.337,-0.79 9.016,-2.36 2.679,-1.63 4.769,-3.88 6.272,-6.76 1.568,-2.94 2.352,-6.33 2.352,-10.19 0,-3.85 -0.784,-7.22 -2.352,-10.09 -1.568,-2.94 -3.691,-5.2 -6.37,-6.77 -2.613,-1.63 -5.586,-2.45 -8.918,-2.45 -3.463,0 -6.566,0.82 -9.31,2.45 -2.679,1.57 -4.769,3.83 -6.272,6.77 -1.503,2.87 -2.254,6.24 -2.254,10.09 0,3.86 0.751,7.25 2.254,10.19 1.503,2.88 3.593,5.13 6.272,6.76 2.744,1.57 5.847,2.36 9.31,2.36 z m 39.63,6.07 v -50.76 h 7.84 v 7.15 c 1.699,-3 3.888,-5.13 6.566,-6.37 2.679,-1.3 5.619,-1.96 8.82,-1.96 4.051,0 7.546,0.92 10.486,2.75 3.006,1.76 5.26,4.44 6.762,8.03 1.634,-3.79 4.051,-6.53 7.252,-8.23 3.202,-1.7 6.501,-2.55 9.898,-2.55 5.815,0 10.454,1.86 13.916,5.59 3.528,3.72 5.292,9.18 5.292,16.36 v 29.99 h -8.036 v -29.59 c 0,-5.23 -1.176,-9.08 -3.528,-11.57 -2.286,-2.48 -5.292,-3.72 -9.016,-3.72 -4.116,0 -7.448,1.4 -9.996,4.21 -2.548,2.75 -3.822,6.44 -3.822,11.08 v 29.59 h -8.036 v -29.59 c 0,-5.23 -1.176,-9.08 -3.528,-11.57 -2.286,-2.48 -5.292,-3.72 -9.016,-3.72 -4.116,0 -7.448,1.4 -9.996,4.21 -2.548,2.75 -3.822,6.44 -3.822,11.08 v 29.59 z m 115.601,1.18 c -5.031,0 -9.506,-1.11 -13.426,-3.33 -3.92,-2.29 -7.024,-5.43 -9.31,-9.41 -2.222,-3.99 -3.332,-8.59 -3.332,-13.82 0,-5.23 1.11,-9.83 3.332,-13.82 2.221,-3.98 5.292,-7.09 9.212,-9.31 3.92,-2.28 8.428,-3.43 13.524,-3.43 4.9,0 9.31,1.11 13.23,3.33 3.92,2.23 6.99,5.33 9.212,9.31 2.286,3.99 3.43,8.63 3.43,13.92 0,5.23 -1.144,9.83 -3.43,13.82 -2.287,3.98 -5.39,7.12 -9.31,9.41 -3.855,2.22 -8.232,3.33 -13.132,3.33 z m 0,-7.25 c 3.332,0 6.337,-0.79 9.016,-2.36 2.678,-1.63 4.769,-3.88 6.272,-6.76 1.568,-2.94 2.352,-6.33 2.352,-10.19 0,-3.85 -0.784,-7.22 -2.352,-10.09 -1.568,-2.94 -3.692,-5.2 -6.37,-6.77 -2.614,-1.63 -5.586,-2.45 -8.918,-2.45 -3.463,0 -6.566,0.82 -9.31,2.45 -2.679,1.57 -4.77,3.83 -6.272,6.77 -1.503,2.87 -2.254,6.24 -2.254,10.09 0,3.86 0.751,7.25 2.254,10.19 1.502,2.88 3.593,5.13 6.272,6.76 2.744,1.57 5.847,2.36 9.31,2.36 z m 39.63,6.07 v -50.76 h 7.84 v 7.64 c 1.699,-3.13 3.855,-5.39 6.468,-6.76 2.613,-1.37 5.096,-2.06 7.448,-2.06 1.568,0 2.875,0.23 3.92,0.69 v 7.54 h -0.392 c -0.392,-0.13 -0.849,-0.22 -1.372,-0.29 -0.457,-0.06 -1.241,-0.1 -2.352,-0.1 -2.417,0 -4.671,0.62 -6.762,1.86 -2.025,1.25 -3.659,3.08 -4.9,5.49 -1.241,2.35 -1.862,5.23 -1.862,8.63 v 28.12 z m 75.417,0 v -61.93 h -20.384 v -7.65 h 49.294 v 7.65 h -20.286 v 61.93 z m 44.992,-59.09 c -1.63,0 -3.07,-0.56 -4.31,-1.67 -1.241,-1.17 -1.862,-2.61 -1.862,-4.31 0,-1.76 0.621,-3.2 1.862,-4.31 1.24,-1.18 2.68,-1.77 4.31,-1.77 1.7,0 3.14,0.59 4.31,1.77 1.25,1.11 1.87,2.55 1.87,4.31 0,1.7 -0.62,3.14 -1.87,4.31 -1.17,1.11 -2.61,1.67 -4.31,1.67 z m -4.02,59.09 v -50.76 h 8.04 v 50.76 z m 47.81,1.18 c -4.9,0 -9.24,-1.11 -13.03,-3.33 -3.79,-2.22 -6.8,-5.33 -9.02,-9.31 -2.16,-3.99 -3.23,-8.63 -3.23,-13.92 0,-5.29 1.07,-9.93 3.23,-13.92 2.22,-3.98 5.23,-7.08 9.02,-9.31 3.85,-2.22 8.16,-3.33 12.93,-3.33 3.86,0 7.42,0.85 10.68,2.55 3.34,1.63 5.95,3.89 7.84,6.76 v -28.12 h 8.04 v 70.75 h -7.84 v -8.33 c -2.03,3.01 -4.67,5.36 -7.94,7.06 -3.26,1.63 -6.83,2.45 -10.68,2.45 z m 0.59,-7.25 c 3.33,0 6.34,-0.75 9.01,-2.26 2.75,-1.5 4.9,-3.69 6.47,-6.56 1.57,-2.88 2.35,-6.37 2.35,-10.49 0,-4.12 -0.78,-7.61 -2.35,-10.49 -1.57,-2.87 -3.72,-5.06 -6.47,-6.56 -2.67,-1.5 -5.68,-2.26 -9.01,-2.26 -3.4,0 -6.44,0.82 -9.12,2.45 -2.61,1.57 -4.7,3.79 -6.27,6.67 -1.5,2.87 -2.25,6.27 -2.25,10.19 0,3.86 0.75,7.25 2.25,10.19 1.57,2.88 3.66,5.13 6.27,6.76 2.68,1.57 5.72,2.36 9.12,2.36 z m 57.03,7.25 c -5.23,0 -9.44,-1.31 -12.64,-3.92 -3.2,-2.61 -4.8,-6.11 -4.8,-10.49 0,-4.7 1.5,-8.36 4.5,-10.97 3.08,-2.68 7.09,-4.51 12.06,-5.49 l 18.13,-3.53 v -1.76 c 0,-2.94 -1.18,-5.33 -3.53,-7.16 -2.35,-1.83 -5.55,-2.74 -9.6,-2.74 -3.47,0 -6.44,0.78 -8.92,2.35 -2.42,1.57 -3.99,3.92 -4.71,7.06 l -7.74,-0.4 c 0.92,-5.03 3.33,-8.95 7.25,-11.76 3.92,-2.87 8.66,-4.31 14.21,-4.31 6.6,0 11.76,1.57 15.49,4.71 3.72,3.13 5.58,7.22 5.58,12.25 v 34.98 h -7.84 v -6.86 c -1.5,2.42 -3.72,4.38 -6.66,5.88 -2.94,1.44 -6.53,2.16 -10.78,2.16 z m 1.08,-6.96 c 5.03,0 8.98,-1.27 11.86,-3.82 2.87,-2.55 4.31,-6.11 4.31,-10.68 v -6.18 l -16.07,3.14 c -3.01,0.59 -5.52,1.7 -7.55,3.33 -1.96,1.57 -2.94,3.69 -2.94,6.37 0,2.74 1.01,4.74 3.04,5.98 2.02,1.24 4.47,1.86 7.35,1.86 z m 41.82,5.78 v -70.75 h 8.03 v 43.51 l 25.09,-23.52 h 10.19 l -20.19,19.7 22.15,31.06 h -9.5 l -18.72,-25.97 -9.02,8.72 v 17.25 z m 77.54,0 v -69.58 h 22.64 c 7.44,0 13.88,1.44 19.3,4.31 5.42,2.88 9.61,6.93 12.55,12.16 3,5.16 4.5,11.27 4.5,18.32 0,6.86 -1.5,12.91 -4.5,18.13 -2.94,5.23 -7.16,9.31 -12.65,12.25 -5.42,2.94 -11.82,4.41 -19.2,4.41 z m 8.62,-7.64 h 14.21 c 5.62,0 10.46,-1.18 14.51,-3.53 4.11,-2.42 7.28,-5.65 9.5,-9.7 2.22,-4.12 3.33,-8.76 3.33,-13.92 0,-5.29 -1.11,-9.96 -3.33,-14.01 -2.22,-4.12 -5.39,-7.32 -9.5,-9.61 -4.05,-2.35 -8.89,-3.52 -14.51,-3.52 h -14.21 z m 69.85,-51.45 c -1.63,0 -3.07,-0.56 -4.31,-1.67 -1.24,-1.17 -1.87,-2.61 -1.87,-4.31 0,-1.76 0.63,-3.2 1.87,-4.31 1.24,-1.18 2.68,-1.77 4.31,-1.77 1.7,0 3.13,0.59 4.31,1.77 1.24,1.11 1.86,2.55 1.86,4.31 0,1.7 -0.62,3.14 -1.86,4.31 -1.18,1.11 -2.61,1.67 -4.31,1.67 z m -4.02,59.09 v -50.76 h 8.04 v 50.76 z m 24.48,0 v -70.75 h 8.04 v 43.51 l 25.09,-23.52 h 10.19 l -20.19,19.7 22.15,31.06 h -9.51 l -18.72,-25.97 -9.01,8.72 v 17.25 z m 78.09,1.18 c -4.9,0 -9.35,-1.11 -13.33,-3.33 -3.92,-2.29 -7.02,-5.43 -9.31,-9.41 -2.29,-3.99 -3.43,-8.59 -3.43,-13.82 0,-5.23 1.14,-9.83 3.43,-13.82 2.29,-3.98 5.36,-7.09 9.21,-9.31 3.92,-2.28 8.3,-3.43 13.13,-3.43 5.1,0 9.48,1.08 13.13,3.24 3.73,2.15 6.6,5.03 8.63,8.62 2.02,3.59 3.04,7.58 3.04,11.96 0,1.7 -0.17,3.46 -0.49,5.29 h -42.05 c 0.27,3.66 1.25,6.79 2.94,9.41 1.7,2.54 3.89,4.5 6.57,5.88 2.68,1.37 5.52,2.05 8.53,2.05 3.92,0 7.35,-0.98 10.29,-2.94 2.94,-2.02 4.83,-4.76 5.68,-8.23 l 7.84,0.59 c -1.31,5.36 -4.15,9.57 -8.53,12.64 -4.37,3.07 -9.47,4.61 -15.28,4.61 z m -17.84,-30.87 h 34.4 c -0.07,-4.44 -1.63,-8.14 -4.71,-11.08 -3.07,-3 -7.12,-4.5 -12.15,-4.5 -2.81,0 -5.49,0.62 -8.03,1.86 -2.55,1.17 -4.67,2.91 -6.37,5.19 -1.7,2.29 -2.75,5.13 -3.14,8.53 z m 56.03,29.69 v -50.76 h 7.84 v 7.25 c 3.33,-5.62 8.63,-8.43 15.88,-8.43 6.07,0 10.88,1.96 14.4,5.88 3.53,3.92 5.3,9.28 5.3,16.07 v 29.99 h -8.04 v -29.59 c 0,-4.84 -1.18,-8.59 -3.53,-11.27 -2.29,-2.68 -5.45,-4.02 -9.5,-4.02 -4.25,0 -7.71,1.44 -10.39,4.31 -2.62,2.81 -3.92,6.47 -3.92,10.98 v 29.59 z m 73.58,1.18 c -5.23,0 -9.44,-1.31 -12.64,-3.92 -3.21,-2.61 -4.81,-6.11 -4.81,-10.49 0,-4.7 1.51,-8.36 4.51,-10.97 3.07,-2.68 7.09,-4.51 12.06,-5.49 l 18.13,-3.53 v -1.76 c 0,-2.94 -1.18,-5.33 -3.53,-7.16 -2.35,-1.83 -5.56,-2.74 -9.61,-2.74 -3.46,0 -6.43,0.78 -8.91,2.35 -2.42,1.57 -3.99,3.92 -4.71,7.06 l -7.74,-0.4 c 0.91,-5.03 3.33,-8.95 7.25,-11.76 3.92,-2.87 8.66,-4.31 14.21,-4.31 6.6,0 11.76,1.57 15.49,4.71 3.72,3.13 5.58,7.22 5.58,12.25 v 34.98 h -7.84 v -6.86 c -1.5,2.42 -3.72,4.38 -6.66,5.88 -2.94,1.44 -6.54,2.16 -10.78,2.16 z m 1.08,-6.96 c 5.03,0 8.98,-1.27 11.85,-3.82 2.88,-2.55 4.32,-6.11 4.32,-10.68 v -6.18 l -16.08,3.14 c -3,0.59 -5.52,1.7 -7.54,3.33 -1.96,1.57 -2.94,3.69 -2.94,6.37 0,2.74 1.01,4.74 3.04,5.98 2.02,1.24 4.47,1.86 7.35,1.86 z m 41.81,5.78 v -69.58 h 8.04 v 69.58 z"
     fill="#c1c1c1"
     id="path151" />
  <circle
     cx="1080"
     cy="961"
     r="408"
     fill="#313131"
     id="circle153" />
  <g
     mask="url(#mask0_70_3266)"
     id="g160">
    <circle
       cx="1080.45"
       cy="1348.91"
       r="298.63501"
       fill="#727272"
       id="circle158" />
  </g>
  <circle
     cx="1080"
     cy="802.97803"
     r="161.593"
     fill="#727272"
     id="circle162" />
  <rect
     x="201"
     y="2425"
     width="1759"
     height="457.22198"
     rx="228.61099"
     fill="#eaeaea"
     fill-opacity="0.2"
     id="rect164" />
  <path
     d="m 825.318,2675.07 c -4.454,0 -8.562,-0.78 -12.323,-2.34 -3.761,-1.62 -7.029,-3.85 -9.806,-6.69 -2.778,-2.89 -4.947,-6.27 -6.509,-10.15 -1.504,-3.88 -2.257,-8.1 -2.257,-12.67 0,-4.57 0.753,-8.79 2.257,-12.67 1.562,-3.88 3.76,-7.23 6.595,-10.07 2.835,-2.89 6.162,-5.12 9.98,-6.68 3.877,-1.62 8.1,-2.43 12.671,-2.43 5.323,0 10.038,0.96 14.146,2.86 4.107,1.91 7.434,4.49 9.98,7.73 2.545,3.18 4.108,6.68 4.686,10.5 l -10.24,0.95 c -0.463,-2.48 -1.62,-4.65 -3.472,-6.51 -1.793,-1.9 -3.992,-3.38 -6.595,-4.42 -2.604,-1.1 -5.41,-1.65 -8.418,-1.65 -4.224,0 -7.927,0.95 -11.109,2.86 -3.124,1.91 -5.554,4.55 -7.289,7.9 -1.736,3.36 -2.604,7.23 -2.604,11.63 0,4.4 0.868,8.27 2.604,11.63 1.793,3.35 4.281,5.99 7.463,7.9 3.24,1.91 7.029,2.86 11.369,2.86 5.554,0 10.009,-1.48 13.364,-4.43 3.414,-3 5.207,-6.97 5.381,-11.89 h -20.134 v -9.19 h 30.635 v 33.93 h -8.158 l -0.694,-10.24 c -2.199,3.53 -5.149,6.3 -8.852,8.33 -3.703,1.97 -7.926,2.95 -12.671,2.95 z m 64.984,0 c -4.455,0 -8.476,-1.01 -12.063,-3.04 -3.587,-2.02 -6.422,-4.8 -8.505,-8.33 -2.083,-3.59 -3.124,-7.66 -3.124,-12.24 0,-4.62 1.012,-8.7 3.037,-12.23 2.083,-3.53 4.889,-6.31 8.418,-8.33 3.529,-2.03 7.464,-3.04 11.803,-3.04 4.744,0 8.794,0.98 12.15,2.95 3.355,1.91 5.93,4.48 7.723,7.72 1.852,3.19 2.777,6.69 2.777,10.5 0,0.99 -0.057,1.94 -0.173,2.87 -0.058,0.92 -0.203,1.76 -0.434,2.52 H 876.59 c 0.231,2.71 1.012,5.03 2.343,6.94 1.389,1.91 3.066,3.35 5.034,4.34 2.025,0.92 4.136,1.39 6.335,1.39 3.008,0 5.583,-0.7 7.724,-2.09 2.198,-1.44 3.616,-3.41 4.252,-5.9 l 9.633,0.52 c -1.273,4.86 -3.876,8.65 -7.811,11.37 -3.876,2.72 -8.475,4.08 -13.798,4.08 z m -13.625,-28.03 h 25.948 c -0.058,-3.41 -1.273,-6.16 -3.645,-8.25 -2.372,-2.14 -5.409,-3.21 -9.112,-3.21 -2.025,0 -3.992,0.44 -5.901,1.3 -1.91,0.81 -3.53,2.06 -4.86,3.74 -1.273,1.67 -2.083,3.82 -2.43,6.42 z m 62.811,28.03 c -5.439,0 -9.865,-1.27 -13.278,-3.82 -3.356,-2.6 -5.149,-6.1 -5.381,-10.5 l 9.199,-0.95 c 0.29,2.31 1.273,4.13 2.951,5.46 1.736,1.33 3.876,2 6.422,2 2.199,0 4.021,-0.46 5.467,-1.39 1.447,-0.93 2.17,-2.17 2.17,-3.73 0,-1.45 -0.463,-2.58 -1.389,-3.39 -0.867,-0.86 -2.053,-1.56 -3.558,-2.08 -1.504,-0.52 -3.124,-1.01 -4.86,-1.47 -1.735,-0.47 -3.529,-0.99 -5.38,-1.57 -1.794,-0.57 -3.443,-1.33 -4.947,-2.25 -1.504,-0.99 -2.719,-2.26 -3.645,-3.82 -0.925,-1.62 -1.388,-3.67 -1.388,-6.16 0,-4.11 1.504,-7.38 4.512,-9.81 3.067,-2.49 7.117,-3.73 12.15,-3.73 4.918,0 8.997,1.19 12.237,3.56 3.24,2.31 5.004,5.46 5.293,9.46 l -9.285,0.95 c -0.232,-2.02 -1.129,-3.56 -2.691,-4.6 -1.504,-1.1 -3.269,-1.65 -5.293,-1.65 -2.083,0 -3.761,0.47 -5.034,1.39 -1.273,0.87 -1.909,2.03 -1.909,3.47 0,1.39 0.434,2.52 1.302,3.39 0.925,0.81 2.111,1.47 3.558,1.99 1.504,0.47 3.124,0.93 4.86,1.39 1.735,0.46 3.5,0.99 5.293,1.56 1.852,0.58 3.53,1.36 5.034,2.35 1.562,0.98 2.806,2.31 3.732,3.99 0.925,1.62 1.388,3.73 1.388,6.33 0,2.72 -0.752,5.12 -2.256,7.21 -1.447,2.02 -3.501,3.61 -6.162,4.77 -2.603,1.1 -5.641,1.65 -9.112,1.65 z m 49.886,0 c -4.455,0 -8.476,-1.01 -12.063,-3.04 -3.587,-2.02 -6.422,-4.8 -8.505,-8.33 -2.082,-3.59 -3.124,-7.66 -3.124,-12.24 0,-4.62 1.013,-8.7 3.038,-12.23 2.082,-3.53 4.888,-6.31 8.418,-8.33 3.529,-2.03 7.463,-3.04 11.802,-3.04 4.744,0 8.794,0.98 12.15,2.95 3.36,1.91 5.93,4.48 7.72,7.72 1.86,3.19 2.78,6.69 2.78,10.5 0,0.99 -0.06,1.94 -0.17,2.87 -0.06,0.92 -0.21,1.76 -0.44,2.52 h -35.318 c 0.232,2.71 1.013,5.03 2.344,6.94 1.388,1.91 3.066,3.35 5.033,4.34 2.025,0.92 4.137,1.39 6.335,1.39 3.009,0 5.583,-0.7 7.724,-2.09 2.198,-1.44 3.612,-3.41 4.252,-5.9 l 9.63,0.52 c -1.27,4.86 -3.87,8.65 -7.81,11.37 -3.874,2.72 -8.473,4.08 -13.796,4.08 z m -13.625,-28.03 h 25.951 c -0.06,-3.41 -1.28,-6.16 -3.647,-8.25 -2.373,-2.14 -5.41,-3.21 -9.113,-3.21 -2.025,0 -3.992,0.44 -5.901,1.3 -1.909,0.81 -3.529,2.06 -4.86,3.74 -1.273,1.67 -2.083,3.82 -2.43,6.42 z m 46.761,26.99 v -45.13 h 9.28 v 6.08 c 1.45,-2.55 3.3,-4.37 5.56,-5.47 2.25,-1.1 4.36,-1.65 6.33,-1.65 0.81,0 1.53,0.06 2.17,0.17 0.69,0.12 1.24,0.26 1.65,0.44 v 9.28 h -0.43 c -0.47,-0.11 -1.02,-0.2 -1.65,-0.26 -0.64,-0.11 -1.36,-0.17 -2.17,-0.17 -2.9,0 -5.41,1.07 -7.55,3.21 -2.14,2.08 -3.21,5.09 -3.21,9.03 v 24.47 z m 69.19,1.04 c -4.98,0 -9.03,-1.56 -12.15,-4.69 -3.13,-3.18 -4.69,-7.78 -4.69,-13.8 v -27.68 h 9.98 v 26.64 c 0,3.71 0.87,6.4 2.6,8.07 1.8,1.68 4.02,2.52 6.69,2.52 3.06,0 5.55,-0.92 7.46,-2.78 1.97,-1.85 2.95,-4.45 2.95,-7.81 v -26.64 h 9.98 v 45.13 h -9.29 v -5.38 c -1.5,2.2 -3.47,3.82 -5.9,4.86 -2.37,1.04 -4.91,1.56 -7.63,1.56 z m 34.62,-1.04 v -45.13 h 9.29 v 5.82 c 1.33,-2.26 3.21,-3.97 5.64,-5.12 2.49,-1.16 5.15,-1.74 7.98,-1.74 5.33,0 9.55,1.74 12.67,5.21 3.13,3.41 4.69,8.13 4.69,14.14 v 26.82 h -9.98 v -26.21 c 0,-3.47 -0.87,-6.19 -2.6,-8.16 -1.74,-2.02 -4.14,-3.04 -7.21,-3.04 -3.12,0 -5.67,1.05 -7.63,3.13 -1.91,2.08 -2.87,4.77 -2.87,8.07 v 26.21 z m 70.09,1.04 c -3.93,0 -7.12,-1.1 -9.55,-3.3 -2.43,-2.25 -3.64,-5.44 -3.64,-9.54 v -24.91 h -8.59 v -8.42 h 8.59 v -10.93 l 9.37,-3.3 h 0.61 v 14.23 h 10.85 v 8.42 h -10.85 v 24.04 c 0,1.68 0.43,3.06 1.3,4.16 0.87,1.04 2.29,1.57 4.25,1.57 0.81,0 1.62,-0.09 2.43,-0.26 0.81,-0.24 1.62,-0.53 2.43,-0.87 h 0.44 v 7.55 c -1.1,0.52 -2.32,0.89 -3.65,1.13 -1.33,0.29 -2.66,0.43 -3.99,0.43 z m 34.53,0 c -4.98,0 -9.03,-1.56 -12.15,-4.69 -3.12,-3.18 -4.69,-7.78 -4.69,-13.8 v -27.68 h 9.98 v 26.64 c 0,3.71 0.87,6.4 2.61,8.07 1.79,1.68 4.02,2.52 6.68,2.52 3.07,0 5.55,-0.92 7.46,-2.78 1.97,-1.85 2.95,-4.45 2.95,-7.81 v -26.64 h 9.98 v 45.13 h -9.28 v -5.38 c -1.51,2.2 -3.47,3.82 -5.9,4.86 -2.38,1.04 -4.92,1.56 -7.64,1.56 z m 34.63,-1.04 v -62.66 h 9.98 v 35.93 l 19,-18.4 h 12.07 l -17.19,17.7 19.36,27.43 h -11.72 l -15.01,-21 -6.51,6.42 v 14.58 z m 69.75,0 v -45.13 h 9.28 v 5.64 c 1.51,-2.43 3.42,-4.13 5.73,-5.12 2.31,-1.04 4.8,-1.56 7.46,-1.56 3.36,0 6.28,0.72 8.77,2.17 2.49,1.39 4.42,3.5 5.81,6.33 1.51,-3 3.62,-5.17 6.34,-6.5 2.78,-1.34 5.58,-2 8.42,-2 5.2,0 9.31,1.68 12.32,5.03 3.07,3.3 4.6,8.07 4.6,14.32 v 26.82 h -9.98 v -26.21 c 0,-3.76 -0.87,-6.57 -2.6,-8.42 -1.68,-1.85 -3.91,-2.78 -6.69,-2.78 -3.01,0 -5.44,1.02 -7.29,3.04 -1.85,2.03 -2.77,4.75 -2.77,8.16 v 26.21 h -9.98 v -26.21 c 0,-3.76 -0.87,-6.57 -2.61,-8.42 -1.68,-1.85 -3.93,-2.78 -6.77,-2.78 -2.95,0 -5.38,1.02 -7.29,3.04 -1.85,2.03 -2.77,4.75 -2.77,8.16 v 26.21 z m 102.55,1.04 c -4.46,0 -8.48,-1.01 -12.06,-3.04 -3.59,-2.02 -6.43,-4.8 -8.51,-8.33 -2.08,-3.59 -3.12,-7.66 -3.12,-12.24 0,-4.62 1.01,-8.7 3.04,-12.23 2.08,-3.53 4.88,-6.31 8.41,-8.33 3.53,-2.03 7.47,-3.04 11.81,-3.04 4.74,0 8.79,0.98 12.15,2.95 3.35,1.91 5.93,4.48 7.72,7.72 1.85,3.19 2.78,6.69 2.78,10.5 0,0.99 -0.06,1.94 -0.18,2.87 -0.06,0.92 -0.2,1.76 -0.43,2.52 h -35.32 c 0.23,2.71 1.01,5.03 2.34,6.94 1.39,1.91 3.07,3.35 5.03,4.34 2.03,0.92 4.14,1.39 6.34,1.39 3.01,0 5.58,-0.7 7.72,-2.09 2.2,-1.44 3.62,-3.41 4.26,-5.9 l 9.63,0.52 c -1.27,4.86 -3.88,8.65 -7.81,11.37 -3.88,2.72 -8.48,4.08 -13.8,4.08 z m -13.63,-28.03 h 25.95 c -0.05,-3.41 -1.27,-6.16 -3.64,-8.25 -2.37,-2.14 -5.41,-3.21 -9.11,-3.21 -2.03,0 -4,0.44 -5.91,1.3 -1.9,0.81 -3.52,2.06 -4.86,3.74 -1.27,1.67 -2.08,3.82 -2.43,6.42 z m 46.76,26.99 v -45.13 h 9.29 v 5.82 c 1.33,-2.26 3.21,-3.97 5.64,-5.12 2.49,-1.16 5.15,-1.74 7.98,-1.74 5.32,0 9.55,1.74 12.67,5.21 3.13,3.41 4.69,8.13 4.69,14.14 v 26.82 h -9.98 v -26.21 c 0,-3.47 -0.87,-6.19 -2.61,-8.16 -1.73,-2.02 -4.13,-3.04 -7.2,-3.04 -3.12,0 -5.67,1.05 -7.64,3.13 -1.9,2.08 -2.86,4.77 -2.86,8.07 v 26.21 z m 59.5,-51.46 c -1.79,0 -3.36,-0.58 -4.69,-1.74 -1.33,-1.22 -1.99,-2.75 -1.99,-4.6 0,-1.97 0.66,-3.53 1.99,-4.69 1.33,-1.15 2.9,-1.73 4.69,-1.73 1.85,0 3.44,0.58 4.77,1.73 1.33,1.16 2,2.72 2,4.69 0,1.85 -0.67,3.38 -2,4.6 -1.33,1.16 -2.92,1.74 -4.77,1.74 z m -9.46,70.98 c -1.27,0 -2.57,-0.14 -3.9,-0.43 -1.28,-0.23 -2.49,-0.64 -3.65,-1.21 v -7.55 h 0.43 c 0.93,0.4 1.8,0.69 2.61,0.86 0.81,0.18 1.73,0.26 2.78,0.26 1.9,0 3.41,-0.55 4.51,-1.65 1.16,-1.04 1.73,-2.8 1.73,-5.29 v -49.64 h 9.98 v 50.51 c 0,4.45 -1.36,7.93 -4.07,10.41 -2.67,2.49 -6.14,3.73 -10.42,3.73 z m 41.3,-18.48 c -4.57,0 -8.27,-1.16 -11.11,-3.47 -2.83,-2.37 -4.25,-5.5 -4.25,-9.37 0,-2.95 0.67,-5.41 2,-7.38 1.33,-1.97 3.12,-3.53 5.38,-4.69 2.25,-1.15 4.74,-1.99 7.46,-2.51 l 15.1,-2.95 v -1.22 c 0,-2.2 -0.9,-3.96 -2.69,-5.29 -1.79,-1.39 -4.19,-2.09 -7.2,-2.09 -2.61,0 -4.83,0.58 -6.68,1.74 -1.86,1.16 -3.04,2.92 -3.56,5.29 l -9.46,-0.43 c 0.46,-3.18 1.62,-5.87 3.47,-8.07 1.85,-2.2 4.19,-3.88 7.03,-5.03 2.83,-1.16 5.96,-1.74 9.37,-1.74 6.25,0 11.08,1.45 14.49,4.34 3.48,2.89 5.21,6.65 5.21,11.28 v 30.55 h -9.55 v -5.47 c -1.38,2.08 -3.41,3.7 -6.07,4.86 -2.6,1.1 -5.58,1.65 -8.94,1.65 z m 2.17,-7.9 c 3.76,0 6.77,-0.95 9.03,-2.86 2.25,-1.91 3.38,-4.66 3.38,-8.25 v -3.99 l -12.32,2.35 c -2.2,0.4 -4.02,1.18 -5.47,2.34 -1.45,1.1 -2.17,2.63 -2.17,4.6 0,1.96 0.72,3.44 2.17,4.42 1.45,0.93 3.24,1.39 5.38,1.39 z m 48.24,6.86 -16.49,-45.13 h 10.85 l 10.42,29.77 11.63,-29.77 h 8.59 l 11.11,29.77 10.84,-29.77 h 10.76 l -17.35,45.13 h -8.25 l -11.63,-31.59 -12.15,31.59 z m 79.43,1.04 c -4.57,0 -8.28,-1.16 -11.11,-3.47 -2.84,-2.37 -4.25,-5.5 -4.25,-9.37 0,-2.95 0.66,-5.41 1.99,-7.38 1.33,-1.97 3.13,-3.53 5.38,-4.69 2.26,-1.15 4.75,-1.99 7.47,-2.51 l 15.1,-2.95 v -1.22 c 0,-2.2 -0.9,-3.96 -2.69,-5.29 -1.8,-1.39 -4.2,-2.09 -7.21,-2.09 -2.6,0 -4.83,0.58 -6.68,1.74 -1.85,1.16 -3.04,2.92 -3.56,5.29 l -9.46,-0.43 c 0.47,-3.18 1.62,-5.87 3.48,-8.07 1.85,-2.2 4.19,-3.88 7.03,-5.03 2.83,-1.16 5.95,-1.74 9.37,-1.74 6.25,0 11.08,1.45 14.49,4.34 3.47,2.89 5.21,6.65 5.21,11.28 v 30.55 h -9.55 v -5.47 c -1.39,2.08 -3.41,3.7 -6.07,4.86 -2.61,1.1 -5.59,1.65 -8.94,1.65 z m 2.17,-7.9 c 3.76,0 6.77,-0.95 9.02,-2.86 2.26,-1.91 3.39,-4.66 3.39,-8.25 v -3.99 l -12.33,2.35 c -2.19,0.4 -4.02,1.18 -5.46,2.34 -1.45,1.1 -2.17,2.63 -2.17,4.6 0,1.96 0.72,3.44 2.17,4.42 1.44,0.93 3.24,1.39 5.38,1.39 z m 61.48,7.9 c -3.18,0 -6.1,-0.61 -8.77,-1.82 -2.66,-1.22 -4.86,-2.98 -6.59,-5.3 v 6.08 h -9.29 v -61.62 h 9.98 v 21.96 c 1.62,-2.08 3.71,-3.68 6.25,-4.77 2.6,-1.16 5.47,-1.74 8.59,-1.74 4.23,0 8.02,0.98 11.37,2.95 3.41,1.97 6.1,4.74 8.07,8.33 2.03,3.53 3.04,7.64 3.04,12.32 0,4.69 -0.98,8.8 -2.95,12.33 -1.97,3.53 -4.66,6.3 -8.07,8.33 -3.42,1.97 -7.29,2.95 -11.63,2.95 z m -0.96,-9.03 c 3.88,0 7.09,-1.33 9.64,-3.99 2.54,-2.66 3.82,-6.19 3.82,-10.59 0,-4.45 -1.28,-8.01 -3.82,-10.67 -2.55,-2.66 -5.76,-3.99 -9.64,-3.99 -2.54,0 -4.86,0.58 -6.94,1.73 -2.08,1.16 -3.73,2.84 -4.95,5.04 -1.21,2.14 -1.82,4.77 -1.82,7.89 0,3.07 0.61,5.7 1.82,7.9 1.22,2.14 2.87,3.79 4.95,4.95 2.08,1.16 4.4,1.73 6.94,1.73 z"
     fill="#eaeaea"
     id="path166" />
  <defs
     id="defs184">
    <linearGradient
       id="paint0_linear_70_3266"
       x1="1080"
       y1="0"
       x2="1080"
       y2="4332"
       gradientUnits="userSpaceOnUse">
      <stop
         offset="0.0459809"
         stop-color="#0B3168"
         id="stop174" />
      <stop
         offset="0.607389"
         stop-color="#2073BF"
         id="stop176" />
      <stop
         offset="1"
         stop-color="#FFBB52"
         id="stop178" />
    </linearGradient>
    <clipPath
       id="clip0_70_3266">
      <rect
         width="2160"
         height="3840"
         fill="white"
         id="rect181" />
    </clipPath>
    <mask
       id="mask0_70_3266"
       style="mask-type:alpha"
       maskUnits="userSpaceOnUse"
       x="672"
       y="553"
       width="816"
       height="816">
      <circle
         cx="1080"
         cy="961"
         r="408"
         fill="#313131"
         id="circle155" />
    </mask>
  </defs>
</svg>
