<?xml version="1.0" encoding="UTF-8" standalone="no"?>
<svg
   width="412.20999"
   height="412.20999"
   viewBox="0 0 412.20999 412.20999"
   fill="none"
   version="1.1"
   id="svg186"
   xmlns="http://www.w3.org/2000/svg"
   xmlns:svg="http://www.w3.org/2000/svg">
  <defs
     id="defs184">
    <linearGradient
       id="paint0_linear_70_3266"
       x1="1080"
       y1="0"
       x2="1080"
       y2="4332"
       gradientUnits="userSpaceOnUse">
      <stop
         offset="0.0459809"
         stop-color="#0B3168"
         id="stop174" />
      <stop
         offset="0.607389"
         stop-color="#2073BF"
         id="stop176" />
      <stop
         offset="1"
         stop-color="#FFBB52"
         id="stop178" />
    </linearGradient>
    <clipPath
       id="clip0_70_3266">
      <rect
         width="2160"
         height="3840"
         fill="#ffffff"
         id="rect181"
         x="0"
         y="0" />
    </clipPath>
    <mask
       id="mask0_70_3266"
       maskUnits="userSpaceOnUse"
       x="672"
       y="553"
       width="816"
       height="816">
      <circle
         cx="1080"
         cy="961"
         r="408"
         fill="#313131"
         id="circle155" />
    </mask>
  </defs>
  <circle
     cx="206.105"
     cy="206.105"
     r="206.105"
     fill="#2cc94c"
     id="circle168" />
  <path
     d="m 170.03301,251.25487 c -26.008,-26.13 -45.716,-57.7 -45.716,-83.74 0,-11.52 3.87,-21.96 12.599,-30.4 5.309,-5.17 11.429,-7.89 17.368,-7.89 4.86,0 9.27,1.91 12.42,6.26 l 19.348,27.49 c 2.97,4.27 4.5,7.8 4.5,11.07 0,4.17 -2.43,7.8 -6.39,11.98 l -6.389,6.62 c -0.99,1 -1.35,2.18 -1.35,3.36 0,1.36 0.54,2.63 0.99,3.63 2.879,5.62 11.069,15.24 19.888,24.13 8.909,8.89 18.449,17.15 24.028,20.14 0.9,0.45 2.25,1 3.6,1 1.17,0 2.43,-0.45 3.42,-1.45 l 6.389,-6.35 c 4.14,-4.09 7.83,-6.45 11.879,-6.45 3.24,0 6.75,1.46 10.979,4.36 l 27.628,19.78 c 4.23,3.08 5.94,7.44 5.94,11.97 0,6.17 -2.97,12.43 -7.74,17.79 -8.189,9.07 -18.358,13.15 -29.967,13.15 -25.828,0 -57.416,-20.23 -83.424,-46.45 z"
     fill="#ffffff"
     id="path170" />
</svg>
