<?xml version="1.0" encoding="UTF-8" standalone="no"?>
<!-- Created with Inkscape (http://www.inkscape.org/) -->

<svg
   width="571.5mm"
   height="411.65988mm"
   viewBox="0 0 571.5 411.65988"
   version="1.1"
   id="svg1082"
   xmlns="http://www.w3.org/2000/svg"
   xmlns:svg="http://www.w3.org/2000/svg">
  <defs
     id="defs1079">
    <clipPath
       id="clip1_287_23878">
      <rect
         width="2160"
         height="259.20001"
         fill="#ffffff"
         transform="translate(0,2287)"
         id="rect373"
         x="0"
         y="0" />
    </clipPath>
  </defs>
  <g
     id="layer1"
     transform="translate(106.63507,117.85602)">
    <g
       id="g949"
       transform="matrix(0.26458333,0,0,0.26458333,-106.63507,-722.19611)">
      <rect
         y="2287"
         width="2160"
         height="1553"
         fill="#171717"
         id="rect244"
         x="0" />
      <line
         y1="2285.5601"
         x2="2160"
         y2="2285.5601"
         stroke="#4b4b4d"
         stroke-width="2.88"
         id="line246"
         x1="0" />
      <path
         d="m 143.998,2379.16 v 103.68"
         stroke="#007aff"
         stroke-width="8.64"
         stroke-linecap="round"
         id="path248" />
      <path
         d="M 92.1582,2431 H 195.838"
         stroke="#007aff"
         stroke-width="8.64"
         stroke-linecap="round"
         id="path250" />
      <path
         fill-rule="evenodd"
         clip-rule="evenodd"
         d="m 1740.51,2387.88 c 1.09,-2.73 3.74,-4.53 6.69,-4.53 h 18.96 c 2.94,0 5.59,1.8 6.68,4.53 l 2.87,7.16 c 0.65,1.64 2.24,2.71 4.01,2.71 h 11.52 c 10.33,0 18.72,8.39 18.72,18.72 v 40.32 c 0,10.34 -8.39,18.72 -18.72,18.72 h -69.12 c -10.34,0 -18.72,-8.38 -18.72,-18.72 v -40.32 c 0,-10.33 8.38,-18.72 18.72,-18.72 h 11.52 c 1.76,0 3.35,-1.07 4.01,-2.71 z m 6.69,-13.17 c -6.48,0 -12.31,3.95 -14.71,9.96 l -1.78,4.44 h -8.59 c -15.11,0 -27.36,12.25 -27.36,27.36 v 40.32 c 0,15.12 12.25,27.36 27.36,27.36 h 69.12 c 15.11,0 27.36,-12.24 27.36,-27.36 v -40.32 c 0,-15.11 -12.25,-27.36 -27.36,-27.36 h -8.6 l -1.78,-4.44 c -2.4,-6.01 -8.23,-9.96 -14.7,-9.96 z m 29.64,57.6 c 0,11.14 -9.03,20.16 -20.16,20.16 -11.14,0 -20.16,-9.02 -20.16,-20.16 0,-11.13 9.02,-20.16 20.16,-20.16 11.13,0 20.16,9.03 20.16,20.16 z m 8.64,0 c 0,15.91 -12.9,28.8 -28.8,28.8 -15.91,0 -28.8,-12.89 -28.8,-28.8 0,-15.9 12.89,-28.8 28.8,-28.8 15.9,0 28.8,12.9 28.8,28.8 z"
         fill="#007aff"
         id="path252" />
      <path
         fill-rule="evenodd"
         clip-rule="evenodd"
         d="m 2007.84,2391.31 v 42.54 c 0,8.37 -6.78,15.15 -15.15,15.15 -8.36,0 -15.14,-6.78 -15.14,-15.15 v -42.54 c 0,-8.37 6.78,-15.15 15.14,-15.15 8.37,0 15.15,6.78 15.15,15.15 z m -38.93,0 c 0,-13.14 10.65,-23.79 23.78,-23.79 13.14,0 23.79,10.65 23.79,23.79 v 42.54 c 0,13.14 -10.65,23.79 -23.79,23.79 -13.13,0 -23.78,-10.65 -23.78,-23.79 z m 23.8,78.88 c -20.82,0 -37.3,-15.93 -37.3,-35.1 h -8.64 c 0,22.97 18.45,41.49 41.62,43.55 v 15.59 h 8.64 v -15.59 c 23.17,-2.06 41.62,-20.58 41.62,-43.55 h -8.64 c 0,19.17 -16.48,35.1 -37.3,35.1 z"
         fill="#007aff"
         id="path254" />
      <rect
         x="267.841"
         y="2347.48"
         width="1319.04"
         height="167.03999"
         rx="83.519997"
         fill="#2c2c2e"
         stroke="#4b4b4d"
         stroke-width="5.76"
         id="rect256" />
      <path
         fill-rule="evenodd"
         clip-rule="evenodd"
         d="M 1462.92,2387.69 H 1509 c 11.13,0 20.16,9.02 20.16,20.16 v 17.98 c 0,0.24 -0.01,0.49 -0.02,0.74 h -14.38 c -18.29,0 -33.12,14.83 -33.12,33.12 v 14.4 h -18.72 c -11.14,0 -20.16,-9.03 -20.16,-20.16 v -46.08 c 0,-11.14 9.02,-20.16 20.16,-20.16 z m 27.36,85.52 c 3.56,-1.08 6.8,-3.14 9.3,-6.01 l 24.59,-28.1 c 1.05,-1.2 1.94,-2.5 2.67,-3.89 h -12.08 c -13.52,0 -24.48,10.96 -24.48,24.48 z m 18.72,-94.16 h -46.08 c -15.91,0 -28.8,12.89 -28.8,28.8 v 46.08 c 0,15.9 12.89,28.8 28.8,28.8 h 21.49 c 8.3,0 16.2,-3.59 21.67,-9.84 l 24.59,-28.1 c 4.6,-5.25 7.13,-11.99 7.13,-18.96 v -17.98 c 0,-15.91 -12.9,-28.8 -28.8,-28.8 z"
         fill="#007aff"
         id="path258" />
      <g
         clip-path="url(#clip1_287_23878)"
         id="g272">
        <path
           d="M 2160,2287 H 0 v 259.2 h 2160 z"
           fill="#ffffff"
           id="path260" />
        <path
           d="M 2160,2287 H 0 v 259.2 h 2160 z"
           fill="#171717"
           id="path262" />
        <path
           d="M 1969.92,2318.68 H 806.397 c -52.489,0 -95.04,42.55 -95.04,95.04 v 5.76 c 0,52.49 42.551,95.04 95.04,95.04 H 1969.92 c 52.49,0 95.04,-42.55 95.04,-95.04 v -5.76 c 0,-52.49 -42.55,-95.04 -95.04,-95.04 z"
           fill="#ffffff"
           fill-opacity="0.5"
           id="path264" />
        <path
           opacity="0.45"
           fill-rule="evenodd"
           clip-rule="evenodd"
           d="m 1967.04,2338.84 c 42.94,0 77.76,34.81 77.76,77.76 0,42.95 -34.82,77.76 -77.76,77.76 -42.95,0 -77.76,-34.81 -77.76,-77.76 0,-42.95 34.81,-77.76 77.76,-77.76 z m -10.57,34.56 c -3.18,0 -5.76,2.58 -5.76,5.76 v 74.88 c 0,3.18 2.58,5.76 5.76,5.76 3.19,0 5.76,-2.58 5.76,-5.76 v -74.88 c 0,-3.18 -2.57,-5.76 -5.76,-5.76 z m 38.39,11.52 c -3.18,0 -5.76,2.58 -5.76,5.76 v 54.72 c 0,3.18 2.58,5.76 5.76,5.76 3.18,0 5.76,-2.58 5.76,-5.76 v -54.72 c 0,-3.18 -2.58,-5.76 -5.76,-5.76 z m -19.18,4.32 c -3.19,0 -5.76,2.58 -5.76,5.76 v 46.08 c 0,3.18 2.57,5.76 5.76,5.76 3.18,0 5.76,-2.58 5.76,-5.76 V 2395 c 0,-3.18 -2.58,-5.76 -5.76,-5.76 z m -37.44,1.44 c -3.19,0 -5.76,2.58 -5.76,5.76 v 40.32 c 0,3.18 2.57,5.76 5.76,5.76 3.18,0 5.76,-2.58 5.76,-5.76 v -40.32 c 0,-3.18 -2.58,-5.76 -5.76,-5.76 z m -18.24,17.28 c -3.19,0 -5.76,2.58 -5.76,5.76 v 8.64 c 0,3.18 2.57,5.76 5.76,5.76 3.18,0 5.76,-2.58 5.76,-5.76 v -8.64 c 0,-3.18 -2.58,-5.76 -5.76,-5.76 z m 94.07,0 c -3.18,0 -5.76,2.58 -5.76,5.76 v 8.64 c 0,3.18 2.58,5.76 5.76,5.76 3.19,0 5.76,-2.58 5.76,-5.76 v -8.64 c 0,-3.18 -2.57,-5.76 -5.76,-5.76 z"
           fill="#000000"
           id="path266" />
        <path
           opacity="0.45"
           fill-rule="evenodd"
           clip-rule="evenodd"
           d="m 510.36,2344.6 c 40.294,0 72.96,32.66 72.96,72.96 0,40.29 -32.666,72.96 -72.96,72.96 H 475.8 c -40.295,0 -72.96,-32.67 -72.96,-72.96 0,-40.3 32.665,-72.96 72.96,-72.96 z m 50.716,6.05 c 19.687,8 43.006,30.31 43.006,65.53 0,35.25 -21.503,60.94 -43.006,67.41 15.176,-13.07 31.974,-32.16 31.974,-67.41 0,-35.22 -22.141,-54.36 -31.974,-65.53 z m -104.381,92.66 c -1.907,-0.32 -4.079,-0.2 -6.304,0.32 l -1.599,2.77 -0.075,0.13 c -0.369,0.64 -1.974,3.42 -1.991,3.44 -0.168,0.29 -0.335,0.59 -0.502,0.88 -0.155,0.27 -0.309,0.54 -0.458,0.82 -0.326,0.6 -0.636,1.22 -0.869,1.87 -0.235,0.65 -0.38,1.31 -0.416,2.01 -0.035,0.68 0.026,1.39 0.205,2.06 0.179,0.66 0.444,1.33 0.821,1.9 0.382,0.59 0.809,1.13 1.353,1.57 0.537,0.43 0.754,0.55 0.954,0.66 0.201,0.12 0.412,0.25 1.054,0.5 0.653,0.25 1.332,0.35 2.032,0.39 0.688,0.04 1.396,-0.07 2.061,-0.24 0.665,-0.18 1.312,-0.48 1.889,-0.86 0.587,-0.38 1.081,-0.83 1.531,-1.36 0.444,-0.53 0.824,-1.1 1.182,-1.69 l 0.483,-0.81 c 0.168,-0.28 0.335,-0.57 0.502,-0.86 0.02,-0.04 2.049,-3.55 2.069,-3.59 l 3.194,-5.53 -0.651,-0.85 c -1.818,-2.12 -4.253,-3.15 -6.465,-3.53 z m 43.597,-51.35 c -1.901,1.89 -3.769,4.9 -4.54,7.95 -1.133,4.48 -1,9.76 1.957,14.88 l 1.604,2.78 5.361,9.29 7.854,13.6 7.367,12.76 0.075,0.13 c 0.37,0.65 1.976,3.43 1.993,3.46 0.167,0.29 0.334,0.58 0.503,0.86 l 0.483,0.81 c 0.358,0.59 0.738,1.16 1.181,1.69 0.451,0.53 0.945,0.98 1.532,1.36 0.577,0.38 1.224,0.68 1.889,0.86 0.665,0.17 1.373,0.28 2.061,0.24 0.7,-0.04 1.379,-0.14 2.031,-0.39 0.642,-0.25 0.854,-0.38 1.054,-0.5 0.201,-0.11 0.418,-0.23 0.954,-0.66 0.545,-0.44 0.971,-0.98 1.354,-1.57 0.376,-0.57 0.642,-1.24 0.821,-1.9 0.179,-0.67 0.24,-1.38 0.204,-2.06 -0.035,-0.7 -0.18,-1.36 -0.416,-2.01 -0.232,-0.65 -0.542,-1.27 -0.868,-1.87 -0.15,-0.28 -0.303,-0.55 -0.459,-0.82 l -0.502,-0.88 -0.075,-0.13 c -0.369,-0.64 -1.974,-3.42 -1.99,-3.44 l -3.425,-5.94 h 8.016 0.469 l 0.469,-0.01 c 0.682,-0.02 1.369,-0.06 2.042,-0.18 0.684,-0.13 1.32,-0.33 1.941,-0.65 0.61,-0.31 1.194,-0.71 1.678,-1.2 0.484,-0.49 0.925,-1.05 1.236,-1.66 0.316,-0.62 0.568,-1.26 0.675,-1.94 0.105,-0.68 0.099,-0.93 0.099,-1.16 v -0.18 c -0.004,-0.2 -0.02,-0.47 -0.099,-0.97 -0.107,-0.69 -0.359,-1.33 -0.675,-1.95 -0.311,-0.61 -0.752,-1.17 -1.236,-1.66 -0.484,-0.49 -1.068,-0.89 -1.678,-1.2 -0.621,-0.32 -1.257,-0.52 -1.941,-0.65 -0.673,-0.12 -1.36,-0.16 -2.042,-0.18 -0.312,0 -0.625,-0.01 -0.938,-0.01 h -15.87 l -9.302,-16.12 z m -0.642,-26.24 c -0.688,-0.03 -1.396,0.07 -2.061,0.25 -0.665,0.17 -1.312,0.48 -1.889,0.85 -0.587,0.38 -1.081,0.83 -1.531,1.37 -0.444,0.52 -0.824,1.1 -1.182,1.68 -0.164,0.27 -0.324,0.54 -0.482,0.81 -0.17,0.29 -0.338,0.58 -0.506,0.87 -0.019,0.03 -0.037,0.07 -0.055,0.1 l -1.688,2.92 -1.688,-2.92 -0.027,-0.05 c -0.196,-0.34 -0.364,-0.63 -0.534,-0.92 l -0.483,-0.81 -0.558,-0.86 -0.623,-0.82 c -0.45,-0.54 -0.944,-0.99 -1.531,-1.37 -0.578,-0.37 -1.224,-0.68 -1.89,-0.85 -0.665,-0.18 -1.373,-0.28 -2.061,-0.25 -0.7,0.04 -1.379,0.14 -2.031,0.4 -0.642,0.24 -0.853,0.37 -1.053,0.49 -0.201,0.11 -0.418,0.23 -0.955,0.66 -0.545,0.44 -0.971,0.98 -1.354,1.57 -0.376,0.58 -0.641,1.24 -0.821,1.91 -0.179,0.66 -0.24,1.37 -0.204,2.06 0.036,0.7 0.18,1.35 0.416,2.01 0.233,0.64 0.542,1.26 0.868,1.86 0.15,0.28 0.304,0.55 0.459,0.83 0.165,0.29 0.332,0.58 0.499,0.86 0.019,0.04 0.039,0.07 0.058,0.1 l 5.63,9.76 -13,22.51 -9.302,16.12 h -15.982 c -0.313,0 -0.625,0.01 -0.938,0.01 -0.681,0.02 -1.368,0.06 -2.042,0.18 -0.683,0.13 -1.32,0.33 -1.941,0.65 -0.61,0.31 -1.194,0.71 -1.678,1.2 -0.484,0.49 -0.925,1.05 -1.236,1.66 -0.316,0.62 -0.568,1.26 -0.675,1.95 -0.078,0.5 -0.095,0.77 -0.098,0.97 v 0.36 c 0.003,0.2 0.02,0.47 0.098,0.98 0.107,0.68 0.359,1.32 0.675,1.94 0.311,0.61 0.752,1.17 1.236,1.66 0.484,0.49 1.068,0.89 1.678,1.2 0.621,0.32 1.258,0.52 1.941,0.65 0.674,0.12 1.361,0.16 2.042,0.18 0.313,0 0.625,0.01 0.938,0.01 h 60.812 l 0.336,-0.97 c 1.241,-4.16 -0.273,-7.33 -1.744,-9.15 -1.943,-2.42 -4.691,-3.48 -7.91,-3.48 h -19.746 l 5.361,-9.29 9.058,-15.69 7.883,-13.65 5.63,-9.76 0.028,-0.05 c 0.196,-0.33 0.363,-0.62 0.529,-0.91 0.155,-0.28 0.309,-0.55 0.458,-0.83 0.326,-0.6 0.636,-1.22 0.868,-1.86 0.237,-0.66 0.381,-1.31 0.417,-2.01 0.035,-0.69 -0.026,-1.4 -0.205,-2.06 -0.179,-0.67 -0.444,-1.33 -0.821,-1.91 -0.382,-0.59 -0.809,-1.13 -1.353,-1.57 -0.537,-0.43 -0.755,-0.55 -0.955,-0.66 -0.2,-0.12 -0.411,-0.25 -1.053,-0.49 -0.653,-0.26 -1.332,-0.36 -2.032,-0.4 z"
           fill="#ffffff"
           id="path268" />
        <path
           opacity="0.45"
           fill-rule="evenodd"
           clip-rule="evenodd"
           d="m 252.56,2485.95 c 15.284,0 22.962,-7.61 22.962,-22.67 v -76.57 c 0,-15.06 -7.678,-22.59 -22.962,-22.59 h -19.918 c -5.703,0 -7.532,-1.17 -10.749,-4.83 l -5.923,-6.58 c -3.656,-4.02 -7.386,-6.21 -14.918,-6.21 h -29.177 c -7.531,0 -11.261,2.19 -14.917,6.21 l -5.85,6.58 c -3.218,3.59 -5.046,4.83 -10.749,4.83 h -19.48 c -15.283,0 -22.961,7.53 -22.961,22.59 v 76.57 c 0,15.06 7.678,22.67 22.961,22.67 z m -66.234,-24.71 c -22.322,0 -40.283,-17.91 -40.283,-40.32 0,-22.41 17.961,-40.32 40.283,-40.32 22.396,0 40.357,17.91 40.357,40.32 0,22.41 -17.961,40.32 -40.357,40.32 z m 0.002,-12.96 c 15.119,0 27.395,-12.19 27.395,-27.36 0,-15.17 -12.276,-27.36 -27.395,-27.36 -15.119,0 -27.325,12.19 -27.325,27.36 0,15.17 12.275,27.36 27.325,27.36 z"
           fill="#ffffff"
           id="path270" />
      </g>
    </g>
  </g>
</svg>
