<?xml version="1.0" encoding="UTF-8" standalone="no"?>
<!-- Created with Inkscape (http://www.inkscape.org/) -->

<svg
   width="571.5mm"
   height="411.65988mm"
   viewBox="0 0 571.5 411.65988"
   version="1.1"
   id="svg1082"
   xmlns="http://www.w3.org/2000/svg"
   xmlns:svg="http://www.w3.org/2000/svg">
  <defs
     id="defs1079">
    <clipPath
       id="clip1_287_23878">
      <rect
         width="2160"
         height="259.20001"
         fill="#ffffff"
         transform="translate(0,2287)"
         id="rect373"
         x="0"
         y="0" />
    </clipPath>
  </defs>
  <rect
     y="0.76198572"
     width="571.5"
     height="410.89792"
     fill="#171717"
     id="rect244"
     x="0"
     style="stroke-width:0.264583" />
  <line
     y1="0.3810012"
     x2="571.5"
     y2="0.3810012"
     stroke="#4b4b4d"
     stroke-width="0.762"
     id="line246"
     x1="0" />
  <path
     d="m 38.09947,25.145985 v 27.432"
     stroke="#007aff"
     stroke-width="2.286"
     stroke-linecap="round"
     id="path248" />
  <path
     d="M 24.383523,38.861985 H 51.81547"
     stroke="#007aff"
     stroke-width="2.286"
     stroke-linecap="round"
     id="path250" />
  <path
     fill-rule="evenodd"
     clip-rule="evenodd"
     d="m 460.50993,27.453152 c 0.2884,-0.722312 0.98954,-1.198562 1.77006,-1.198562 h 5.0165 c 0.77788,0 1.47902,0.47625 1.76742,1.198562 l 0.75935,1.894417 c 0.17198,0.433916 0.59267,0.717021 1.06098,0.717021 h 3.048 c 2.73315,0 4.953,2.219854 4.953,4.952999 v 10.668 c 0,2.735792 -2.21985,4.953 -4.953,4.953 h -18.288 c -2.73579,0 -4.953,-2.217208 -4.953,-4.953 v -10.668 c 0,-2.733145 2.21721,-4.952999 4.953,-4.952999 h 3.048 c 0.46567,0 0.88636,-0.283105 1.06098,-0.717021 z m 1.77006,-3.484562 c -1.7145,0 -3.25702,1.045104 -3.89202,2.63525 l -0.47095,1.17475 h -2.27278 c -3.99785,0 -7.239,3.241145 -7.239,7.238999 v 10.668 c 0,4.0005 3.24115,7.239 7.239,7.239 h 18.288 c 3.99786,0 7.239,-3.2385 7.239,-7.239 v -10.668 c 0,-3.997854 -3.24114,-7.238999 -7.239,-7.238999 h -2.27541 l -0.47096,-1.17475 c -0.635,-1.590146 -2.17752,-2.63525 -3.88938,-2.63525 z m 7.84225,15.239999 c 0,2.947459 -2.38918,5.334 -5.334,5.334 -2.94745,0 -5.334,-2.386541 -5.334,-5.334 0,-2.944812 2.38655,-5.334 5.334,-5.334 2.94482,0 5.334,2.389188 5.334,5.334 z m 2.286,0 c 0,4.209521 -3.41312,7.62 -7.62,7.62 -4.20952,0 -7.62,-3.410479 -7.62,-7.62 0,-4.206875 3.41048,-7.62 7.62,-7.62 4.20688,0 7.62,3.413125 7.62,7.62 z"
     fill="#007aff"
     id="path252"
     style="stroke-width:0.264583" />
  <path
     fill-rule="evenodd"
     clip-rule="evenodd"
     d="m 531.24099,28.360673 v 11.255375 c 0,2.214562 -1.79387,4.008437 -4.00843,4.008437 -2.21192,0 -4.0058,-1.793875 -4.0058,-4.008437 V 28.360673 c 0,-2.214563 1.79388,-4.008438 4.0058,-4.008438 2.21456,0 4.00843,1.793875 4.00843,4.008438 z m -10.30023,0 c 0,-3.476625 2.81782,-6.294438 6.2918,-6.294438 3.47662,0 6.29443,2.817813 6.29443,6.294438 v 11.255375 c 0,3.476625 -2.81781,6.294437 -6.29443,6.294437 -3.47398,0 -6.2918,-2.817812 -6.2918,-6.294437 z m 6.29709,20.870333 c -5.50863,0 -9.86896,-4.214813 -9.86896,-9.286875 h -2.286 c 0,6.077479 4.88156,10.977562 11.01196,11.522604 v 4.124854 h 2.286 v -4.124854 c 6.13039,-0.545042 11.01196,-5.445125 11.01196,-11.522604 h -2.286 c 0,5.072062 -4.36034,9.286875 -9.86896,9.286875 z"
     fill="#007aff"
     id="path254"
     style="stroke-width:0.264583" />
  <rect
     x="70.866264"
     y="16.763981"
     width="348.996"
     height="44.195999"
     rx="22.098"
     fill="#2c2c2e"
     stroke="#4b4b4d"
     stroke-width="1.524"
     id="rect256" />
  <path
     fill-rule="evenodd"
     clip-rule="evenodd"
     d="m 387.06425,27.402881 h 12.19199 c 2.94482,0 5.334,2.386542 5.334,5.334 v 4.757208 c 0,0.0635 -0.003,0.129646 -0.005,0.195792 h -3.80471 c -4.83922,0 -8.76299,3.923771 -8.76299,8.763 v 3.81 h -4.953 c -2.94746,0 -5.334,-2.389188 -5.334,-5.334 v -12.192 c 0,-2.947458 2.38654,-5.334 5.334,-5.334 z m 7.239,22.627167 c 0.94191,-0.28575 1.79916,-0.830792 2.46062,-1.590146 l 6.5061,-7.434792 c 0.27782,-0.3175 0.5133,-0.661458 0.70644,-1.029229 h -3.19617 c -3.57716,0 -6.47699,2.899833 -6.47699,6.477 z m 4.95299,-24.913167 h -12.19199 c -4.20953,0 -7.62,3.410479 -7.62,7.62 v 12.192 c 0,4.206875 3.41047,7.62 7.62,7.62 h 5.68589 c 2.19604,0 4.28625,-0.949854 5.73352,-2.6035 l 6.50611,-7.434792 c 1.21708,-1.389062 1.88647,-3.172354 1.88647,-5.0165 v -4.757208 c 0,-4.209521 -3.41312,-7.62 -7.62,-7.62 z"
     fill="#007aff"
     id="path258"
     style="stroke-width:0.264583" />
  <path
     d="M 571.49999,0.76198571 H 0 V 69.341985 h 571.49999 z"
     fill="#ffffff"
     id="path260"
     style="stroke-width:0.264583" />
  <path
     d="M 571.49999,0.76198571 H 0 V 90.652794 h 571.49999 z"
     fill="#171717"
     id="path262"
     style="stroke:none;stroke-width:0.302915" />
  <path
     d="M 521.20799,9.1439856 H 213.3592 c -13.88771,0 -25.146,11.2580204 -25.146,25.1459994 v 1.524 c 0,13.887979 11.25829,25.146 25.146,25.146 h 307.84879 c 13.88798,0 25.146,-11.258021 25.146,-25.146 v -1.524 c 0,-13.887979 -11.25802,-25.1459994 -25.146,-25.1459994 z"
     fill="#ffffff"
     fill-opacity="0.5"
     id="path264"
     style="stroke-width:0.264583" />
  <path
     opacity="0.45"
     fill-rule="evenodd"
     clip-rule="evenodd"
     d="m 520.44599,14.477986 c 11.36121,0 20.574,9.210145 20.574,20.573999 0,11.363854 -9.21279,20.574 -20.574,20.574 -11.36385,0 -20.574,-9.210146 -20.574,-20.574 0,-11.363854 9.21015,-20.573999 20.574,-20.573999 z m -2.79664,9.143999 c -0.84138,0 -1.524,0.682625 -1.524,1.524 v 19.812 c 0,0.841375 0.68262,1.524 1.524,1.524 0.84402,0 1.524,-0.682625 1.524,-1.524 v -19.812 c 0,-0.841375 -0.67998,-1.524 -1.524,-1.524 z m 10.15735,3.048 c -0.84137,0 -1.524,0.682625 -1.524,1.524 v 14.478 c 0,0.841375 0.68263,1.524 1.524,1.524 0.84138,0 1.524,-0.682625 1.524,-1.524 v -14.478 c 0,-0.841375 -0.68262,-1.524 -1.524,-1.524 z m -5.07471,1.143 c -0.84402,0 -1.524,0.682625 -1.524,1.524 v 12.192 c 0,0.841375 0.67998,1.524 1.524,1.524 0.84138,0 1.524,-0.682625 1.524,-1.524 v -12.192 c 0,-0.841375 -0.68262,-1.524 -1.524,-1.524 z m -9.906,0.381 c -0.84402,0 -1.524,0.682625 -1.524,1.524 v 10.668 c 0,0.841375 0.67998,1.524 1.524,1.524 0.84138,0 1.524,-0.682625 1.524,-1.524 v -10.668 c 0,-0.841375 -0.68262,-1.524 -1.524,-1.524 z m -4.826,4.572 c -0.84402,0 -1.524,0.682625 -1.524,1.524 v 2.286 c 0,0.841375 0.67998,1.524 1.524,1.524 0.84138,0 1.524,-0.682625 1.524,-1.524 v -2.286 c 0,-0.841375 -0.68262,-1.524 -1.524,-1.524 z m 24.88936,0 c -0.84138,0 -1.524,0.682625 -1.524,1.524 v 2.286 c 0,0.841375 0.68262,1.524 1.524,1.524 0.84402,0 1.524,-0.682625 1.524,-1.524 v -2.286 c 0,-0.841375 -0.67998,-1.524 -1.524,-1.524 z"
     fill="#000000"
     id="path266"
     style="stroke-width:0.264583" />
  <path
     opacity="0.45"
     fill-rule="evenodd"
     clip-rule="evenodd"
     d="m 135.03275,16.001986 c 10.66112,0 19.304,8.641291 19.304,19.303999 0,10.660063 -8.64288,19.304 -19.304,19.304 h -9.144 c -10.66139,0 -19.304,-8.643937 -19.304,-19.304 0,-10.662708 8.64261,-19.303999 19.304,-19.303999 z m 13.41861,1.600729 c 5.20885,2.116666 11.37867,8.01952 11.37867,17.338145 0,9.326563 -5.68934,16.123708 -11.37867,17.835563 4.01531,-3.458105 8.45978,-8.509 8.45978,-17.835563 0,-9.318625 -5.85814,-14.38275 -8.45978,-17.338145 z m -27.61748,24.516291 c -0.50456,-0.08467 -1.07923,-0.05292 -1.66793,0.08467 l -0.42307,0.732896 -0.0198,0.0344 c -0.0976,0.169334 -0.52229,0.904875 -0.52679,0.910167 -0.0445,0.07673 -0.0886,0.156104 -0.13282,0.232833 -0.041,0.07144 -0.0817,0.142875 -0.12118,0.216959 -0.0863,0.15875 -0.16827,0.322791 -0.22992,0.49477 -0.0622,0.17198 -0.10054,0.346605 -0.11007,0.531813 -0.009,0.179917 0.007,0.367771 0.0542,0.545042 0.0474,0.174625 0.11748,0.351895 0.21723,0.502708 0.10107,0.156104 0.21404,0.298979 0.35798,0.415396 0.14208,0.113771 0.19949,0.145521 0.25241,0.174625 0.0532,0.03175 0.10901,0.06615 0.27887,0.132291 0.17277,0.06615 0.35243,0.09261 0.53763,0.103188 0.18204,0.01058 0.36936,-0.01852 0.54531,-0.0635 0.17595,-0.04763 0.34713,-0.127 0.4998,-0.227542 0.15531,-0.100541 0.28601,-0.219604 0.40507,-0.359833 0.11748,-0.140229 0.21802,-0.291042 0.31274,-0.447146 l 0.1278,-0.214312 c 0.0444,-0.07408 0.0886,-0.150813 0.13282,-0.227542 0.005,-0.01058 0.54213,-0.939271 0.54742,-0.949854 l 0.84508,-1.463146 -0.17224,-0.224896 c -0.48102,-0.560916 -1.12528,-0.833437 -1.71054,-0.933979 z m 11.53504,-13.586354 c -0.50297,0.500063 -0.99721,1.296458 -1.2012,2.103438 -0.29978,1.185333 -0.26459,2.582333 0.51778,3.936999 l 0.4244,0.735542 1.41843,2.457979 2.07803,3.598334 1.94919,3.376083 0.0198,0.0344 c 0.0979,0.171979 0.52282,0.90752 0.52732,0.915458 0.0442,0.07673 0.0884,0.153458 0.13308,0.227542 l 0.1278,0.214312 c 0.0947,0.156104 0.19526,0.306917 0.31247,0.447146 0.11933,0.140229 0.25003,0.259292 0.40534,0.359833 0.15267,0.100542 0.32385,0.179917 0.4998,0.227542 0.17595,0.04498 0.36327,0.07408 0.54531,0.0635 0.1852,-0.01058 0.36486,-0.03704 0.53737,-0.103188 0.16986,-0.06614 0.22595,-0.100541 0.27887,-0.132291 0.0532,-0.0291 0.11059,-0.06085 0.25241,-0.174625 0.1442,-0.116417 0.25691,-0.259292 0.35824,-0.415396 0.0995,-0.150813 0.16987,-0.328083 0.21723,-0.502708 0.0474,-0.177271 0.0635,-0.365125 0.054,-0.545042 -0.009,-0.185208 -0.0476,-0.359833 -0.11006,-0.531813 -0.0614,-0.171979 -0.14341,-0.33602 -0.22966,-0.49477 -0.0397,-0.07408 -0.0802,-0.145521 -0.12145,-0.216959 l -0.13282,-0.232833 -0.0198,-0.0344 c -0.0976,-0.169333 -0.52229,-0.904875 -0.52652,-0.910166 l -0.9062,-1.571625 h 2.1209 0.12409 l 0.12409,-0.0026 c 0.18045,-0.0053 0.36221,-0.01588 0.54028,-0.04763 0.18097,-0.0344 0.34925,-0.08731 0.51355,-0.171979 0.1614,-0.08202 0.31592,-0.187855 0.44398,-0.3175 0.12805,-0.129646 0.24474,-0.277813 0.32702,-0.439209 0.0836,-0.164041 0.15028,-0.333375 0.17859,-0.513291 0.0278,-0.179917 0.0262,-0.246063 0.0262,-0.306917 v -0.04762 c -0.001,-0.05292 -0.005,-0.124354 -0.0262,-0.256646 -0.0283,-0.182562 -0.095,-0.351896 -0.17859,-0.515937 -0.0823,-0.161396 -0.19897,-0.309563 -0.32702,-0.439209 -0.12806,-0.129646 -0.28258,-0.235479 -0.44398,-0.3175 -0.1643,-0.08467 -0.33258,-0.137583 -0.51355,-0.171979 -0.17807,-0.03175 -0.35983,-0.04233 -0.54028,-0.04763 -0.0825,0 -0.16537,-0.0026 -0.24818,-0.0026 h -4.19894 l -2.46115,-4.265083 z m -0.16986,-6.942667 c -0.18203,-0.0079 -0.36936,0.01852 -0.54531,0.06615 -0.17594,0.04498 -0.34713,0.127 -0.49979,0.224896 -0.15531,0.100542 -0.28602,0.219604 -0.40508,0.362479 -0.11748,0.137584 -0.21802,0.291042 -0.31274,0.4445 -0.0434,0.07144 -0.0857,0.142875 -0.12753,0.214313 -0.045,0.07673 -0.0894,0.153458 -0.13388,0.230187 -0.005,0.0079 -0.01,0.01852 -0.0146,0.02646 l -0.44661,0.772583 -0.44662,-0.772583 -0.007,-0.01323 c -0.0519,-0.08996 -0.0963,-0.166687 -0.14128,-0.243416 l -0.1278,-0.214313 -0.14763,-0.227541 -0.16484,-0.216959 c -0.11906,-0.142875 -0.24977,-0.261937 -0.40508,-0.362479 -0.15293,-0.0979 -0.32385,-0.179917 -0.50006,-0.224896 -0.17595,-0.04763 -0.36327,-0.07408 -0.54531,-0.06615 -0.1852,0.01058 -0.36486,0.03704 -0.53736,0.105834 -0.16987,0.0635 -0.22569,0.0979 -0.27861,0.129646 -0.0532,0.0291 -0.1106,0.06085 -0.25268,0.174625 -0.1442,0.116416 -0.25691,0.259291 -0.35824,0.415395 -0.0995,0.153459 -0.1696,0.328084 -0.21723,0.505355 -0.0474,0.174625 -0.0635,0.362479 -0.054,0.545041 0.01,0.185209 0.0476,0.357188 0.11007,0.531813 0.0616,0.169333 0.1434,0.333375 0.22965,0.492125 0.0397,0.07408 0.0804,0.145521 0.12145,0.219604 0.0436,0.07673 0.0878,0.153458 0.13202,0.227542 0.005,0.01058 0.0103,0.01852 0.0153,0.02646 l 1.4896,2.582333 -3.43958,5.955771 -2.46115,4.265083 h -4.22857 c -0.0828,0 -0.16537,0.0026 -0.24818,0.0026 -0.18018,0.0053 -0.36195,0.01588 -0.54028,0.04763 -0.18071,0.0344 -0.34925,0.08731 -0.51356,0.171979 -0.16139,0.08202 -0.31591,0.187854 -0.44397,0.3175 -0.12806,0.129646 -0.24474,0.277813 -0.32702,0.439209 -0.0836,0.164041 -0.15029,0.333375 -0.1786,0.515937 -0.0206,0.132292 -0.0251,0.203729 -0.0259,0.256646 v 0.09525 c 8e-4,0.05292 0.005,0.124354 0.0259,0.259292 0.0283,0.179916 0.095,0.34925 0.1786,0.513291 0.0823,0.161396 0.19896,0.309563 0.32702,0.439209 0.12806,0.129645 0.28258,0.235479 0.44397,0.3175 0.16431,0.08467 0.33285,0.137583 0.51356,0.171979 0.17833,0.03175 0.3601,0.04233 0.54028,0.04763 0.0828,0 0.16536,0.0026 0.24818,0.0026 h 16.08984 l 0.0889,-0.256646 c 0.32835,-1.100667 -0.0722,-1.939396 -0.46144,-2.420938 -0.51408,-0.640291 -1.24116,-0.92075 -2.09285,-0.92075 h -5.22446 l 1.41843,-2.457979 2.3966,-4.151312 2.08571,-3.611563 1.4896,-2.582333 0.007,-0.01323 c 0.0519,-0.08731 0.096,-0.164042 0.13996,-0.240771 0.041,-0.07408 0.0818,-0.145521 0.12118,-0.219604 0.0863,-0.15875 0.16828,-0.322792 0.22966,-0.492125 0.0627,-0.174625 0.10081,-0.346604 0.11033,-0.531813 0.009,-0.182562 -0.007,-0.370416 -0.0542,-0.545041 -0.0474,-0.177271 -0.11747,-0.351896 -0.21722,-0.505355 -0.10107,-0.156104 -0.21405,-0.298979 -0.35798,-0.415395 -0.14208,-0.113771 -0.19976,-0.145521 -0.25268,-0.174625 -0.0529,-0.03175 -0.10874,-0.06615 -0.27861,-0.129646 -0.17277,-0.06879 -0.35242,-0.09525 -0.53763,-0.105834 z"
     fill="#ffffff"
     id="path268"
     style="stroke-width:0.264583" />
  <path
     opacity="0.45"
     fill-rule="evenodd"
     clip-rule="evenodd"
     d="m 66.823166,53.400839 c 4.043891,0 6.075362,-2.013479 6.075362,-5.998104 V 27.14359 c 0,-3.984625 -2.031471,-5.976938 -6.075362,-5.976938 h -5.269971 c -1.508919,0 -1.992842,-0.309562 -2.844006,-1.277937 L 57.142062,18.147756 C 56.174745,17.084131 55.187849,16.504694 53.195008,16.504694 H 45.47526 c -1.992577,0 -2.979473,0.579437 -3.94679,1.643062 l -1.547812,1.740959 c -0.851429,0.949854 -1.335088,1.277937 -2.844006,1.277937 h -5.154084 c -4.043627,0 -6.075097,1.992313 -6.075097,5.976938 v 20.259145 c 0,3.984625 2.03147,5.998104 6.075097,5.998104 z M 49.298754,46.862985 c -5.90603,0 -10.658211,-4.738687 -10.658211,-10.668 0,-5.929312 4.752181,-10.668 10.658211,-10.668 5.925608,0 10.677789,4.738688 10.677789,10.668 0,5.929313 -4.752181,10.668 -10.677789,10.668 z m 5.29e-4,-3.429 c 4.000235,0 7.24826,-3.225271 7.24826,-7.239 0,-4.013729 -3.248025,-7.239 -7.24826,-7.239 -4.000236,0 -7.22974,3.225271 -7.22974,7.239 0,4.013729 3.247761,7.239 7.22974,7.239 z"
     fill="#ffffff"
     id="path270"
     style="stroke-width:0.264583" />
</svg>
