<?xml version="1.0" encoding="UTF-8" standalone="no"?>
<!-- Created with Inkscape (http://www.inkscape.org/) -->

<svg
   width="433.55948mm"
   height="143.16869mm"
   viewBox="0 0 433.55948 143.16869"
   version="1.1"
   id="svg831"
   xmlns="http://www.w3.org/2000/svg"
   xmlns:svg="http://www.w3.org/2000/svg">
  <defs
     id="defs828">
    <filter
       id="filter1_d_287_23878"
       x="115.853"
       y="909"
       width="1638.65"
       height="541.10999"
       filterUnits="userSpaceOnUse"
       color-interpolation-filters="sRGB">
      <feFlood
         flood-opacity="0"
         result="BackgroundImageFix"
         id="feFlood355" />
      <feColorMatrix
         in="SourceAlpha"
         type="matrix"
         values="0 0 0 0 0 0 0 0 0 0 0 0 0 0 0 0 0 0 127 0"
         result="hardAlpha"
         id="feColorMatrix357" />
      <feOffset
         dy="5.14676"
         id="feOffset359" />
      <feGaussianBlur
         stdDeviation="2.57338"
         id="feGaussianBlur361" />
      <feColorMatrix
         type="matrix"
         values="0 0 0 0 0 0 0 0 0 0 0 0 0 0 0 0 0 0 0.2 0"
         id="feColorMatrix363" />
      <feBlend
         mode="normal"
         in2="BackgroundImageFix"
         result="effect1_dropShadow_287_23878"
         id="feBlend365" />
      <feBlend
         mode="normal"
         in="SourceGraphic"
         in2="effect1_dropShadow_287_23878"
         result="shape"
         id="feBlend367" />
    </filter>
    <clipPath
       id="clip3_287_23878">
      <rect
         width="40.883999"
         height="92.280998"
         fill="#ffffff"
         transform="matrix(-1,0,0,1,161.885,1314.89)"
         id="rect379"
         x="0"
         y="0" />
    </clipPath>
  </defs>
  <g
     id="layer1"
     transform="translate(82.003678,19.151873)">
    <g
       filter="url(#filter1_d_287_23878)"
       id="g318"
       transform="matrix(0.26458333,0,0,0.26458333,-112.65645,-259.65812)">
      <g
         clip-path="url(#clip3_287_23878)"
         id="g310">
        <path
           d="m 121.001,1351.17 c 21.089,-9.17 30.059,-17.86 42.052,-38.38 v 53.73 c -18.794,-0.3 -27.87,-3.93 -42.052,-15.35 z"
           fill="#0078ff"
           id="path308" />
      </g>
      <rect
         x="161.88499"
         y="909"
         width="1587.47"
         height="498.17401"
         rx="30.880501"
         fill="#0078ff"
         id="rect312" />
      <path
         d="m 257.452,1030.18 v -54.758 h 6.787 v 27.458 l 24.369,-27.458 h 8.869 l -20.36,23.29 22.75,31.468 h -8.174 l -19.357,-26.3 -8.097,9.1 v 17.2 z m 48.561,0 21.747,-54.758 h 6.786 l 21.825,54.758 h -7.558 l -5.553,-14.19 h -24.137 l -5.553,14.19 z m 15.346,-20.13 h 19.588 l -9.794,-25.22 z m 45.068,20.13 V 975.422 H 386.4 c 5.347,0 9.511,1.465 12.493,4.396 3.034,2.879 4.55,6.709 4.55,11.49 0,4.062 -1.131,7.481 -3.393,10.262 -2.262,2.77 -5.373,4.54 -9.331,5.32 l 16.889,23.29 h -8.098 l -16.889,-22.91 h -9.408 v 22.91 z m 6.786,-28.92 H 386.4 c 3.188,0 5.681,-0.9 7.481,-2.703 1.85,-1.85 2.776,-4.267 2.776,-7.249 0,-3.033 -0.926,-5.424 -2.776,-7.172 -1.8,-1.799 -4.293,-2.699 -7.481,-2.699 h -13.187 z m 54.877,28.92 v -48.743 h -16.04 v -6.015 h 38.79 v 6.015 h -15.963 v 48.743 z m 51.901,0.92 c -3.753,0 -7.12,-0.8 -10.102,-2.39 -2.982,-1.59 -5.347,-3.83 -7.095,-6.71 -1.697,-2.88 -2.545,-6.19 -2.545,-9.95 v -36.628 h 6.786 v 36.558 c 0,3.8 1.183,6.91 3.548,9.33 2.416,2.41 5.552,3.62 9.408,3.62 3.959,0 7.121,-1.21 9.486,-3.62 2.416,-2.42 3.624,-5.53 3.624,-9.33 v -36.558 h 6.787 v 36.628 c 0,3.76 -0.874,7.07 -2.622,9.95 -1.697,2.88 -4.036,5.12 -7.018,6.71 -2.982,1.59 -6.401,2.39 -10.257,2.39 z m 50.085,-0.92 v -54.758 h 6.787 v 27.458 l 24.369,-27.458 h 8.868 l -20.359,23.29 22.75,31.468 h -8.174 l -19.357,-26.3 -8.097,9.1 v 17.2 z m 52.416,0 v -54.758 h 19.974 c 5.347,0 9.511,1.465 12.493,4.396 3.033,2.879 4.55,6.709 4.55,11.49 0,4.062 -1.131,7.481 -3.393,10.262 -2.262,2.77 -5.373,4.54 -9.332,5.32 l 16.889,23.29 h -8.097 l -16.889,-22.91 h -9.408 v 22.91 z m 6.787,-28.92 h 13.187 c 3.187,0 5.681,-0.9 7.48,-2.703 1.851,-1.85 2.777,-4.267 2.777,-7.249 0,-3.033 -0.926,-5.424 -2.777,-7.172 -1.799,-1.799 -4.293,-2.699 -7.48,-2.699 h -13.187 z m 44.424,28.92 v -54.758 h 33.932 v 6.015 H 640.49 v 17.814 h 24.061 v 6.019 H 640.49 v 18.89 h 27.145 v 6.02 z m 44.735,0 v -54.758 h 17.814 c 5.861,0 10.925,1.131 15.192,3.393 4.268,2.262 7.558,5.45 9.871,9.563 2.365,4.061 3.548,8.868 3.548,14.422 0,5.4 -1.183,10.15 -3.548,14.27 -2.313,4.11 -5.629,7.32 -9.948,9.64 -4.267,2.31 -9.305,3.47 -15.115,3.47 z m 6.786,-6.02 h 11.182 c 4.422,0 8.226,-0.92 11.414,-2.78 3.239,-1.9 5.732,-4.44 7.48,-7.63 1.748,-3.24 2.622,-6.89 2.622,-10.95 0,-4.165 -0.874,-7.841 -2.622,-11.029 -1.748,-3.239 -4.241,-5.758 -7.48,-7.558 -3.188,-1.85 -6.992,-2.776 -11.414,-2.776 h -11.182 z m 51.956,6.02 v -54.758 h 6.324 v 54.758 z m 32.82,0 v -48.743 h -16.041 v -6.015 h 38.791 v 6.015 h -15.964 v 48.743 z m 45.864,0 21.748,-54.758 h 6.786 l 21.824,54.758 h -7.557 l -5.553,-14.19 h -24.138 l -5.552,14.19 z m 15.347,-20.13 h 19.588 l -9.794,-25.22 z m 45.068,20.13 v -54.758 h 6.246 l 30.462,42.338 v -42.338 h 6.786 v 54.758 h -6.324 l -30.384,-42.573 v 42.573 z m 57.386,0 v -54.758 h 17.814 c 5.861,0 10.925,1.131 15.193,3.393 4.267,2.262 7.557,5.45 9.871,9.563 2.365,4.061 3.547,8.868 3.547,14.422 0,5.4 -1.182,10.15 -3.547,14.27 -2.314,4.11 -5.63,7.32 -9.949,9.64 -4.267,2.31 -9.305,3.47 -15.115,3.47 z m 6.786,-6.02 h 11.183 c 4.421,0 8.225,-0.92 11.413,-2.78 3.239,-1.9 5.732,-4.44 7.48,-7.63 1.748,-3.24 2.622,-6.89 2.622,-10.95 0,-4.165 -0.874,-7.841 -2.622,-11.029 -1.748,-3.239 -4.241,-5.758 -7.48,-7.558 -3.188,-1.85 -6.992,-2.776 -11.413,-2.776 h -11.183 z m 45.465,6.02 21.744,-54.758 h 6.79 l 21.82,54.758 h -7.55 l -5.56,-14.19 h -24.134 l -5.553,14.19 z m 15.344,-20.13 h 19.59 l -9.79,-25.22 z m 74.2,20.13 v -48.743 h -16.04 v -6.015 h 38.79 v 6.015 h -15.96 v 48.743 z m 32.77,0 v -54.758 h 33.94 v 6.015 h -27.15 v 17.814 h 24.06 v 6.019 h -24.06 v 18.89 h 27.15 v 6.02 z m 44.74,0 v -54.758 h 19.97 c 5.35,0 9.51,1.465 12.5,4.396 3.03,2.879 4.55,6.709 4.55,11.49 0,4.062 -1.14,7.481 -3.4,10.262 -2.26,2.77 -5.37,4.54 -9.33,5.32 l 16.89,23.29 h -8.1 l -16.89,-22.91 h -9.4 v 22.91 z m 6.79,-28.92 h 13.18 c 3.19,0 5.68,-0.9 7.48,-2.703 1.85,-1.85 2.78,-4.267 2.78,-7.249 0,-3.033 -0.93,-5.424 -2.78,-7.172 -1.8,-1.799 -4.29,-2.699 -7.48,-2.699 h -13.18 z m 44.42,28.92 v -54.758 h 21.13 c 3.03,0 5.73,0.617 8.1,1.851 2.41,1.182 4.32,2.879 5.7,5.09 1.39,2.21 2.09,4.807 2.09,7.789 0,2.21 -0.52,4.395 -1.55,6.555 -1.02,2.107 -2.77,3.933 -5.24,5.473 2.73,0.98 4.91,2.6 6.56,4.86 1.64,2.21 2.46,4.86 2.46,7.94 0,2.83 -0.72,5.4 -2.16,7.72 -1.38,2.26 -3.36,4.08 -5.93,5.47 -2.57,1.34 -5.61,2.01 -9.1,2.01 z m 6.79,-30.697 h 13.72 c 2.88,0 5.22,-0.823 7.02,-2.468 1.8,-1.697 2.7,-3.882 2.7,-6.555 0,-2.673 -0.9,-4.833 -2.7,-6.478 -1.8,-1.696 -4.14,-2.545 -7.02,-2.545 h -13.72 z m 0,24.677 h 15.42 c 3.08,0 5.55,-0.87 7.4,-2.62 1.91,-1.75 2.86,-3.96 2.86,-6.63 0,-2.88 -0.95,-5.2 -2.86,-6.94 -1.9,-1.75 -4.37,-2.63 -7.4,-2.63 h -15.42 z m 44.04,6.02 v -54.758 h 6.79 v 48.738 h 28 v 6.02 z m 70.28,0.92 c -4.01,0 -7.71,-0.69 -11.1,-2.08 -3.39,-1.44 -6.35,-3.45 -8.87,-6.02 -2.47,-2.57 -4.4,-5.57 -5.78,-9.02 -1.39,-3.44 -2.09,-7.17 -2.09,-11.18 0,-4.011 0.7,-7.739 2.09,-11.183 1.38,-3.445 3.34,-6.452 5.86,-9.023 2.52,-2.571 5.47,-4.55 8.87,-5.938 3.39,-1.44 7.06,-2.159 11.02,-2.159 3.96,0 7.64,0.719 11.03,2.159 3.39,1.439 6.35,3.445 8.87,6.015 2.52,2.519 4.47,5.501 5.86,8.946 1.39,3.444 2.08,7.172 2.08,11.183 0,4.01 -0.69,7.74 -2.08,11.18 -1.39,3.45 -3.34,6.45 -5.86,9.02 -2.47,2.57 -5.4,4.58 -8.79,6.02 -3.39,1.39 -7.1,2.08 -11.11,2.08 z m 0,-6.17 c 4.22,0 7.87,-0.95 10.95,-2.85 3.14,-1.96 5.58,-4.6 7.33,-7.94 1.75,-3.35 2.62,-7.13 2.62,-11.34 0,-4.217 -0.87,-7.996 -2.62,-11.337 -1.7,-3.342 -4.11,-5.964 -7.25,-7.866 -3.13,-1.954 -6.81,-2.931 -11.03,-2.931 -4.21,0 -7.89,0.977 -11.02,2.931 -3.14,1.902 -5.58,4.524 -7.33,7.866 -1.7,3.341 -2.55,7.12 -2.55,11.337 0,4.21 0.85,7.99 2.55,11.34 1.75,3.34 4.19,5.98 7.33,7.94 3.13,1.9 6.81,2.85 11.02,2.85 z m 40.21,5.25 v -54.758 h 6.78 v 27.458 l 24.37,-27.458 h 8.87 l -20.36,23.29 22.75,31.468 h -8.17 l -19.36,-26.3 -8.1,9.1 v 17.2 z m 52.41,0 v -54.758 h 6.33 v 54.758 z m 20.64,0 v -54.758 h 19.97 c 5.35,0 9.51,1.465 12.49,4.396 3.04,2.879 4.55,6.709 4.55,11.49 0,4.062 -1.13,7.481 -3.39,10.262 -2.26,2.77 -5.37,4.54 -9.33,5.32 l 16.89,23.29 h -8.1 l -16.89,-22.91 h -9.41 v 22.91 z m 6.78,-28.92 h 13.19 c 3.19,0 5.68,-0.9 7.48,-2.703 1.85,-1.85 2.78,-4.267 2.78,-7.249 0,-3.033 -0.93,-5.424 -2.78,-7.172 -1.8,-1.799 -4.29,-2.699 -7.48,-2.699 h -13.19 z M 270.177,1130.1 c -2.931,0 -5.578,-0.51 -7.943,-1.54 -2.314,-1.03 -4.165,-2.47 -5.553,-4.32 -1.388,-1.9 -2.159,-4.11 -2.313,-6.63 l 5.861,-0.7 c 0.308,2.32 1.362,4.17 3.161,5.56 1.8,1.38 4.062,2.08 6.787,2.08 2.416,0 4.421,-0.52 6.015,-1.54 1.594,-1.08 2.391,-2.47 2.391,-4.17 0,-1.54 -0.463,-2.75 -1.388,-3.62 -0.926,-0.93 -2.134,-1.65 -3.625,-2.16 -1.491,-0.57 -3.085,-1.06 -4.781,-1.47 -1.594,-0.41 -3.188,-0.87 -4.782,-1.39 -1.542,-0.51 -2.982,-1.18 -4.318,-2 -1.286,-0.87 -2.314,-1.98 -3.085,-3.32 -0.771,-1.38 -1.157,-3.13 -1.157,-5.24 0,-3.39 1.26,-6.12 3.779,-8.17 2.571,-2.11 5.912,-3.17 10.025,-3.17 3.959,0 7.275,1.03 9.949,3.09 2.673,2 4.164,4.7 4.472,8.1 l -5.938,0.69 c -0.257,-1.95 -1.182,-3.5 -2.776,-4.63 -1.542,-1.13 -3.419,-1.69 -5.63,-1.69 -2.262,0 -4.087,0.48 -5.475,1.46 -1.388,0.98 -2.082,2.26 -2.082,3.86 0,1.49 0.437,2.67 1.311,3.54 0.925,0.88 2.108,1.57 3.547,2.09 1.491,0.46 3.085,0.92 4.782,1.38 1.593,0.42 3.187,0.9 4.781,1.47 1.594,0.51 3.033,1.21 4.319,2.08 1.336,0.88 2.39,2.03 3.161,3.47 0.823,1.39 1.234,3.16 1.234,5.32 0,2.32 -0.642,4.35 -1.928,6.1 -1.285,1.74 -3.033,3.11 -5.244,4.08 -2.21,0.93 -4.73,1.39 -7.557,1.39 z m 29.294,-47.43 c -1.286,0 -2.417,-0.43 -3.393,-1.31 -0.977,-0.92 -1.466,-2.05 -1.466,-3.39 0,-1.39 0.489,-2.52 1.466,-3.39 0.976,-0.93 2.107,-1.39 3.393,-1.39 1.336,0 2.468,0.46 3.393,1.39 0.977,0.87 1.465,2 1.465,3.39 0,1.34 -0.488,2.47 -1.465,3.39 -0.925,0.88 -2.057,1.31 -3.393,1.31 z m -3.162,46.51 v -39.95 h 6.324 v 39.95 z m 19.265,0 v -54.76 h 6.324 v 54.76 z m 31.615,0.92 c -4.113,0 -7.429,-1.03 -9.949,-3.08 -2.519,-2.06 -3.778,-4.81 -3.778,-8.26 0,-3.7 1.182,-6.58 3.547,-8.63 2.416,-2.11 5.578,-3.55 9.486,-4.32 l 14.266,-2.78 v -1.39 c 0,-2.31 -0.925,-4.19 -2.776,-5.62 -1.851,-1.44 -4.37,-2.16 -7.557,-2.16 -2.725,0 -5.064,0.61 -7.018,1.85 -1.902,1.23 -3.136,3.08 -3.702,5.55 l -6.092,-0.31 c 0.72,-3.96 2.622,-7.04 5.707,-9.25 3.084,-2.27 6.812,-3.4 11.182,-3.4 5.192,0 9.254,1.24 12.184,3.7 2.931,2.47 4.396,5.69 4.396,9.64 v 27.54 h -6.169 v -5.4 c -1.183,1.9 -2.931,3.44 -5.244,4.62 -2.314,1.14 -5.142,1.7 -8.483,1.7 z m 0.848,-5.47 c 3.959,0 7.069,-1.01 9.331,-3.01 2.262,-2.01 3.393,-4.81 3.393,-8.41 v -4.86 l -12.647,2.47 c -2.365,0.46 -4.344,1.34 -5.938,2.62 -1.542,1.24 -2.314,2.91 -2.314,5.02 0,2.16 0.797,3.72 2.391,4.7 1.594,0.98 3.522,1.47 5.784,1.47 z m 32.906,4.55 v -54.99 h 6.324 v 20.82 c 1.337,-2.36 3.111,-4.06 5.321,-5.09 2.211,-1.08 4.55,-1.62 7.018,-1.62 4.576,0 8.303,1.47 11.182,4.4 2.879,2.93 4.319,7.22 4.319,12.88 v 23.6 h -6.324 v -23.29 c 0,-4.12 -0.977,-7.15 -2.93,-9.1 -1.954,-1.96 -4.396,-2.93 -7.327,-2.93 -3.29,0 -5.989,1.1 -8.097,3.31 -2.108,2.16 -3.162,5.07 -3.162,8.72 v 23.29 z m 45.714,0 v -55.68 h 6.324 v 34.24 l 19.742,-18.51 h 8.02 l -15.886,15.5 17.428,24.45 h -7.48 l -14.73,-20.44 -7.094,6.86 v 13.58 z m 55.488,0.92 c -4.113,0 -7.429,-1.03 -9.948,-3.08 -2.519,-2.06 -3.779,-4.81 -3.779,-8.26 0,-3.7 1.183,-6.58 3.547,-8.63 2.417,-2.11 5.579,-3.55 9.486,-4.32 l 14.267,-2.78 v -1.39 c 0,-2.31 -0.926,-4.19 -2.776,-5.62 -1.851,-1.44 -4.37,-2.16 -7.558,-2.16 -2.725,0 -5.064,0.61 -7.018,1.85 -1.902,1.23 -3.136,3.08 -3.701,5.55 l -6.093,-0.31 c 0.72,-3.96 2.622,-7.04 5.707,-9.25 3.085,-2.27 6.812,-3.4 11.182,-3.4 5.193,0 9.254,1.24 12.185,3.7 2.93,2.47 4.395,5.69 4.395,9.64 v 27.54 h -6.169 v -5.4 c -1.182,1.9 -2.93,3.44 -5.244,4.62 -2.314,1.14 -5.141,1.7 -8.483,1.7 z m 0.848,-5.47 c 3.959,0 7.069,-1.01 9.332,-3.01 2.262,-2.01 3.393,-4.81 3.393,-8.41 v -4.86 l -12.648,2.47 c -2.364,0.46 -4.344,1.34 -5.938,2.62 -1.542,1.24 -2.313,2.91 -2.313,5.02 0,2.16 0.797,3.72 2.391,4.7 1.593,0.98 3.521,1.47 5.783,1.47 z m 32.907,4.55 v -39.95 h 6.169 v 5.71 c 2.622,-4.43 6.787,-6.64 12.493,-6.64 4.782,0 8.56,1.55 11.337,4.63 2.776,3.09 4.164,7.3 4.164,12.65 v 23.6 h -6.324 v -23.29 c 0,-3.81 -0.925,-6.76 -2.776,-8.87 -1.799,-2.11 -4.293,-3.16 -7.48,-3.16 -3.342,0 -6.067,1.13 -8.175,3.39 -2.056,2.21 -3.085,5.09 -3.085,8.64 v 23.29 z m 81.012,0.92 c -3.856,0 -7.275,-0.87 -10.256,-2.62 -2.982,-1.75 -5.347,-4.19 -7.095,-7.33 -1.697,-3.13 -2.545,-6.78 -2.545,-10.95 0,-4.16 0.848,-7.81 2.545,-10.95 1.748,-3.13 4.113,-5.58 7.095,-7.32 3.033,-1.75 6.426,-2.63 10.179,-2.63 3.033,0 5.835,0.67 8.406,2.01 2.622,1.28 4.678,3.06 6.169,5.32 v -22.13 h 6.324 v 55.68 h -6.169 v -6.56 c -1.594,2.37 -3.676,4.22 -6.247,5.55 -2.571,1.29 -5.372,1.93 -8.406,1.93 z m 0.463,-5.71 c 2.622,0 4.987,-0.59 7.095,-1.77 2.159,-1.18 3.856,-2.9 5.09,-5.17 1.233,-2.26 1.85,-5.01 1.85,-8.25 0,-3.24 -0.617,-5.99 -1.85,-8.25 -1.234,-2.26 -2.931,-3.98 -5.09,-5.17 -2.108,-1.18 -4.473,-1.77 -7.095,-1.77 -2.674,0 -5.064,0.64 -7.172,1.93 -2.057,1.23 -3.702,2.98 -4.936,5.24 -1.182,2.26 -1.773,4.94 -1.773,8.02 0,3.04 0.591,5.71 1.773,8.02 1.234,2.26 2.879,4.04 4.936,5.32 2.108,1.24 4.498,1.85 7.172,1.85 z m 44.88,5.71 c -4.113,0 -7.429,-1.03 -9.948,-3.08 -2.519,-2.06 -3.779,-4.81 -3.779,-8.26 0,-3.7 1.183,-6.58 3.548,-8.63 2.416,-2.11 5.578,-3.55 9.485,-4.32 l 14.267,-2.78 v -1.39 c 0,-2.31 -0.926,-4.19 -2.776,-5.62 -1.851,-1.44 -4.37,-2.16 -7.558,-2.16 -2.725,0 -5.064,0.61 -7.018,1.85 -1.902,1.23 -3.136,3.08 -3.701,5.55 l -6.093,-0.31 c 0.72,-3.96 2.622,-7.04 5.707,-9.25 3.085,-2.27 6.812,-3.4 11.182,-3.4 5.193,0 9.254,1.24 12.185,3.7 2.93,2.47 4.396,5.69 4.396,9.64 v 27.54 h -6.17 v -5.4 c -1.182,1.9 -2.93,3.44 -5.244,4.62 -2.313,1.14 -5.141,1.7 -8.483,1.7 z m 0.848,-5.47 c 3.959,0 7.07,-1.01 9.332,-3.01 2.262,-2.01 3.393,-4.81 3.393,-8.41 v -4.86 l -12.647,2.47 c -2.365,0.46 -4.345,1.34 -5.939,2.62 -1.542,1.24 -2.313,2.91 -2.313,5.02 0,2.16 0.797,3.72 2.391,4.7 1.593,0.98 3.521,1.47 5.783,1.47 z m 39.231,4.55 v -34.55 h -8.638 v -5.4 h 8.638 v -6.48 c 0,-3.65 1.054,-6.32 3.161,-8.02 2.16,-1.75 4.73,-2.62 7.712,-2.62 1.131,0 2.237,0.13 3.316,0.38 1.131,0.21 2.211,0.6 3.239,1.16 v 5.01 h -0.385 c -1.594,-0.87 -3.291,-1.31 -5.09,-1.31 -1.44,0 -2.751,0.41 -3.933,1.24 -1.131,0.77 -1.697,2.21 -1.697,4.32 v 6.32 h 11.105 v 5.4 h -11.105 v 34.55 z m 41.988,0.92 c -3.136,0 -5.655,-0.9 -7.557,-2.7 -1.851,-1.8 -2.776,-4.32 -2.776,-7.56 v -25.21 h -8.021 v -5.4 h 8.021 v -10.49 l 5.861,-2.08 h 0.462 v 12.57 h 10.565 v 5.4 h -10.565 v 24.75 c 0,1.6 0.386,2.91 1.157,3.93 0.771,1.03 2.082,1.55 3.933,1.55 1.542,0 3.239,-0.44 5.09,-1.31 h 0.385 v 5.01 c -2.056,1.03 -4.241,1.54 -6.555,1.54 z m 29.543,0 c -4.113,0 -7.429,-1.03 -9.948,-3.08 -2.519,-2.06 -3.779,-4.81 -3.779,-8.26 0,-3.7 1.183,-6.58 3.548,-8.63 2.416,-2.11 5.578,-3.55 9.485,-4.32 l 14.267,-2.78 v -1.39 c 0,-2.31 -0.925,-4.19 -2.776,-5.62 -1.851,-1.44 -4.37,-2.16 -7.558,-2.16 -2.725,0 -5.064,0.61 -7.018,1.85 -1.902,1.23 -3.136,3.08 -3.701,5.55 l -6.092,-0.31 c 0.719,-3.96 2.622,-7.04 5.706,-9.25 3.085,-2.27 6.812,-3.4 11.182,-3.4 5.193,0 9.254,1.24 12.185,3.7 2.93,2.47 4.396,5.69 4.396,9.64 v 27.54 h -6.17 v -5.4 c -1.182,1.9 -2.93,3.44 -5.244,4.62 -2.313,1.14 -5.141,1.7 -8.483,1.7 z m 0.849,-5.47 c 3.958,0 7.069,-1.01 9.331,-3.01 2.262,-2.01 3.393,-4.81 3.393,-8.41 v -4.86 l -12.647,2.47 c -2.365,0.46 -4.345,1.34 -5.938,2.62 -1.543,1.24 -2.314,2.91 -2.314,5.02 0,2.16 0.797,3.72 2.391,4.7 1.593,0.98 3.521,1.47 5.784,1.47 z m 32.906,4.55 v -39.95 h 6.169 v 6.01 c 1.337,-2.46 3.034,-4.24 5.09,-5.32 2.057,-1.08 4.01,-1.62 5.861,-1.62 1.234,0 2.262,0.18 3.085,0.54 v 5.94 h -0.309 c -0.308,-0.1 -0.668,-0.18 -1.079,-0.23 -0.36,-0.05 -0.977,-0.08 -1.851,-0.08 -1.902,0 -3.676,0.49 -5.321,1.47 -1.594,0.97 -2.879,2.41 -3.856,4.32 -0.977,1.85 -1.465,4.11 -1.465,6.78 v 22.14 z m 29.446,0 v -55.68 h 6.324 v 34.24 l 19.742,-18.51 h 8.021 l -15.887,15.5 17.429,24.45 h -7.481 l -14.729,-20.44 -7.095,6.86 v 13.58 z m 55.489,0.92 c -4.113,0 -7.429,-1.03 -9.949,-3.08 -2.519,-2.06 -3.778,-4.81 -3.778,-8.26 0,-3.7 1.182,-6.58 3.547,-8.63 2.416,-2.11 5.578,-3.55 9.486,-4.32 l 14.266,-2.78 v -1.39 c 0,-2.31 -0.925,-4.19 -2.776,-5.62 -1.851,-1.44 -4.37,-2.16 -7.557,-2.16 -2.725,0 -5.065,0.61 -7.018,1.85 -1.902,1.23 -3.136,3.08 -3.702,5.55 l -6.092,-0.31 c 0.72,-3.96 2.622,-7.04 5.707,-9.25 3.084,-2.27 6.812,-3.4 11.182,-3.4 5.192,0 9.254,1.24 12.184,3.7 2.931,2.47 4.396,5.69 4.396,9.64 v 27.54 h -6.169 v -5.4 c -1.183,1.9 -2.931,3.44 -5.244,4.62 -2.314,1.14 -5.142,1.7 -8.483,1.7 z m 0.848,-5.47 c 3.959,0 7.069,-1.01 9.331,-3.01 2.262,-2.01 3.393,-4.81 3.393,-8.41 v -4.86 l -12.647,2.47 c -2.365,0.46 -4.344,1.34 -5.938,2.62 -1.542,1.24 -2.314,2.91 -2.314,5.02 0,2.16 0.797,3.72 2.391,4.7 1.594,0.98 3.522,1.47 5.784,1.47 z m 32.906,4.55 v -39.95 h 6.17 v 5.71 c 2.622,-4.43 6.786,-6.64 12.493,-6.64 4.781,0 8.56,1.55 11.336,4.63 2.776,3.09 4.165,7.3 4.165,12.65 v 23.6 h -6.324 v -23.29 c 0,-3.81 -0.926,-6.76 -2.776,-8.87 -1.8,-2.11 -4.293,-3.16 -7.481,-3.16 -3.342,0 -6.066,1.13 -8.174,3.39 -2.057,2.21 -3.085,5.09 -3.085,8.64 v 23.29 z m 76.694,0.92 c -4.318,0 -7.866,-1.34 -10.642,-4.01 -2.776,-2.72 -4.165,-6.86 -4.165,-12.41 v -24.45 h 6.324 v 23.91 c 0,4.11 0.926,7.01 2.776,8.71 1.851,1.7 4.165,2.54 6.941,2.54 3.239,0 5.912,-0.97 8.02,-2.93 2.108,-1.95 3.162,-4.73 3.162,-8.32 v -23.91 h 6.321 v 39.95 h -6.167 v -5.56 c -1.336,2.21 -3.11,3.86 -5.321,4.94 -2.159,1.03 -4.575,1.54 -7.249,1.54 z m 30.327,-0.92 v -54.76 h 6.32 v 54.76 z m 31.61,0.92 c -4.11,0 -7.43,-1.03 -9.95,-3.08 -2.52,-2.06 -3.78,-4.81 -3.78,-8.26 0,-3.7 1.19,-6.58 3.55,-8.63 2.42,-2.11 5.58,-3.55 9.49,-4.32 l 14.26,-2.78 v -1.39 c 0,-2.31 -0.92,-4.19 -2.77,-5.62 -1.85,-1.44 -4.37,-2.16 -7.56,-2.16 -2.73,0 -5.06,0.61 -7.02,1.85 -1.9,1.23 -3.13,3.08 -3.7,5.55 l -6.09,-0.31 c 0.72,-3.96 2.62,-7.04 5.7,-9.25 3.09,-2.27 6.82,-3.4 11.19,-3.4 5.19,0 9.25,1.24 12.18,3.7 2.93,2.47 4.4,5.69 4.4,9.64 v 27.54 h -6.17 v -5.4 c -1.19,1.9 -2.93,3.44 -5.25,4.62 -2.31,1.14 -5.14,1.7 -8.48,1.7 z m 0.85,-5.47 c 3.96,0 7.07,-1.01 9.33,-3.01 2.26,-2.01 3.39,-4.81 3.39,-8.41 v -4.86 l -12.64,2.47 c -2.37,0.46 -4.35,1.34 -5.94,2.62 -1.54,1.24 -2.32,2.91 -2.32,5.02 0,2.16 0.8,3.72 2.39,4.7 1.6,0.98 3.53,1.47 5.79,1.47 z m 32.91,4.55 v -39.95 h 6.16 v 5.71 c 2.63,-4.43 6.79,-6.64 12.5,-6.64 4.78,0 8.56,1.55 11.33,4.63 2.78,3.09 4.17,7.3 4.17,12.65 v 23.6 h -6.33 v -23.29 c 0,-3.81 -0.92,-6.76 -2.77,-8.87 -1.8,-2.11 -4.29,-3.16 -7.48,-3.16 -3.34,0 -6.07,1.13 -8.18,3.39 -2.05,2.21 -3.08,5.09 -3.08,8.64 v 23.29 z m 64.83,16.34 c -3.13,0 -6.04,-0.51 -8.71,-1.54 -2.67,-1.03 -4.94,-2.54 -6.79,-4.55 -1.8,-2 -3,-4.42 -3.62,-7.25 l 6.25,-0.69 c 0.97,2.67 2.62,4.73 4.93,6.17 2.37,1.44 4.99,2.16 7.87,2.16 2.46,0 4.73,-0.57 6.78,-1.7 2.11,-1.08 3.78,-2.7 5.02,-4.86 1.23,-2.1 1.85,-4.68 1.85,-7.71 v -4.7 c -1.44,2.26 -3.47,4.06 -6.1,5.4 -2.62,1.28 -5.42,1.92 -8.4,1.92 -3.75,0 -7.12,-0.85 -10.1,-2.54 -2.99,-1.75 -5.35,-4.11 -7.1,-7.1 -1.7,-3.03 -2.54,-6.45 -2.54,-10.25 0,-3.86 0.84,-7.28 2.54,-10.26 1.7,-3.03 4.04,-5.4 7.02,-7.09 2.98,-1.75 6.4,-2.63 10.26,-2.63 2.93,0 5.7,0.65 8.32,1.93 2.63,1.24 4.71,3.06 6.25,5.48 v -6.48 h 6.17 v 36.32 c 0,4.11 -0.9,7.66 -2.7,10.64 -1.75,3.04 -4.11,5.35 -7.09,6.94 -2.99,1.6 -6.35,2.39 -10.11,2.39 z m -0.38,-23.05 c 2.62,0 4.99,-0.57 7.09,-1.7 2.11,-1.13 3.78,-2.75 5.02,-4.86 1.23,-2.16 1.85,-4.7 1.85,-7.63 0,-2.99 -0.62,-5.53 -1.85,-7.64 -1.24,-2.16 -2.91,-3.8 -5.02,-4.93 -2.1,-1.13 -4.47,-1.7 -7.09,-1.7 -2.68,0 -5.07,0.62 -7.17,1.85 -2.06,1.18 -3.68,2.85 -4.86,5.01 -1.18,2.11 -1.78,4.58 -1.78,7.41 0,2.77 0.6,5.24 1.78,7.4 1.18,2.11 2.8,3.78 4.86,5.01 2.1,1.19 4.49,1.78 7.17,1.78 z m 64.06,7.63 c -3.13,0 -5.65,-0.9 -7.55,-2.7 -1.86,-1.8 -2.78,-4.32 -2.78,-7.56 v -25.21 h -8.02 v -5.4 h 8.02 v -10.49 l 5.86,-2.08 h 0.46 v 12.57 h 10.57 v 5.4 h -10.57 v 24.75 c 0,1.6 0.39,2.91 1.16,3.93 0.77,1.03 2.08,1.55 3.93,1.55 1.55,0 3.24,-0.44 5.09,-1.31 h 0.39 v 5.01 c -2.06,1.03 -4.24,1.54 -6.56,1.54 z m 31.4,0 c -4.32,0 -7.87,-1.34 -10.65,-4.01 -2.77,-2.72 -4.16,-6.86 -4.16,-12.41 v -24.45 h 6.32 v 23.91 c 0,4.11 0.93,7.01 2.78,8.71 1.85,1.7 4.16,2.54 6.94,2.54 3.24,0 5.91,-0.97 8.02,-2.93 2.11,-1.95 3.16,-4.73 3.16,-8.32 v -23.91 h 6.33 v 39.95 h -6.17 v -5.56 c -1.34,2.21 -3.11,3.86 -5.32,4.94 -2.16,1.03 -4.58,1.54 -7.25,1.54 z m 30.32,-0.92 v -54.76 h 6.32 v 54.76 z m 23.21,-46.51 c -1.29,0 -2.42,-0.43 -3.4,-1.31 -0.97,-0.92 -1.46,-2.05 -1.46,-3.39 0,-1.39 0.49,-2.52 1.46,-3.39 0.98,-0.93 2.11,-1.39 3.4,-1.39 1.33,0 2.47,0.46 3.39,1.39 0.98,0.87 1.47,2 1.47,3.39 0,1.34 -0.49,2.47 -1.47,3.39 -0.92,0.88 -2.06,1.31 -3.39,1.31 z m -3.16,46.51 v -39.95 h 6.32 v 39.95 z m 32.76,0.92 c -2.93,0 -5.58,-0.51 -7.95,-1.54 -2.31,-1.03 -4.16,-2.47 -5.55,-4.32 -1.39,-1.9 -2.16,-4.11 -2.31,-6.63 l 5.86,-0.7 c 0.31,2.32 1.36,4.17 3.16,5.56 1.8,1.38 4.06,2.08 6.79,2.08 2.41,0 4.42,-0.52 6.01,-1.54 1.6,-1.08 2.39,-2.47 2.39,-4.17 0,-1.54 -0.46,-2.75 -1.39,-3.62 -0.92,-0.93 -2.13,-1.65 -3.62,-2.16 -1.49,-0.57 -3.08,-1.06 -4.78,-1.47 -1.59,-0.41 -3.19,-0.87 -4.78,-1.39 -1.54,-0.51 -2.98,-1.18 -4.32,-2 -1.29,-0.87 -2.31,-1.98 -3.09,-3.32 -0.77,-1.38 -1.15,-3.13 -1.15,-5.24 0,-3.39 1.26,-6.12 3.78,-8.17 2.57,-2.11 5.91,-3.17 10.02,-3.17 3.96,0 7.28,1.03 9.95,3.09 2.67,2 4.16,4.7 4.47,8.1 l -5.94,0.69 c -0.25,-1.95 -1.18,-3.5 -2.77,-4.63 -1.54,-1.13 -3.42,-1.69 -5.63,-1.69 -2.26,0 -4.09,0.48 -5.48,1.46 -1.38,0.98 -2.08,2.26 -2.08,3.86 0,1.49 0.44,2.67 1.31,3.54 0.93,0.88 2.11,1.57 3.55,2.09 1.49,0.46 3.08,0.92 4.78,1.38 1.59,0.42 3.19,0.9 4.78,1.47 1.6,0.51 3.04,1.21 4.32,2.08 1.34,0.88 2.39,2.03 3.16,3.47 0.83,1.39 1.24,3.16 1.24,5.32 0,2.32 -0.65,4.35 -1.93,6.1 -1.29,1.74 -3.03,3.11 -5.25,4.08 -2.21,0.93 -4.73,1.39 -7.55,1.39 z m 42.46,-0.92 v -39.95 h 6.17 v 5.71 c 2.62,-4.43 6.78,-6.64 12.49,-6.64 4.78,0 8.56,1.55 11.34,4.63 2.77,3.09 4.16,7.3 4.16,12.65 v 23.6 h -6.32 v -23.29 c 0,-3.81 -0.93,-6.76 -2.78,-8.87 -1.8,-2.11 -4.29,-3.16 -7.48,-3.16 -3.34,0 -6.07,1.13 -8.17,3.39 -2.06,2.21 -3.09,5.09 -3.09,8.64 v 23.29 z m 64.68,0.92 c -3.96,0 -7.48,-0.87 -10.56,-2.62 -3.09,-1.8 -5.53,-4.27 -7.33,-7.4 -1.75,-3.14 -2.62,-6.76 -2.62,-10.88 0,-4.11 0.87,-7.74 2.62,-10.87 1.75,-3.14 4.16,-5.58 7.25,-7.33 3.08,-1.8 6.63,-2.7 10.64,-2.7 3.86,0 7.33,0.88 10.41,2.63 3.09,1.74 5.5,4.19 7.25,7.32 1.8,3.14 2.7,6.79 2.7,10.95 0,4.12 -0.9,7.74 -2.7,10.88 -1.8,3.13 -4.24,5.6 -7.32,7.4 -3.04,1.75 -6.48,2.62 -10.34,2.62 z m 0,-5.71 c 2.62,0 4.99,-0.61 7.1,-1.85 2.1,-1.28 3.75,-3.06 4.93,-5.32 1.24,-2.31 1.85,-4.98 1.85,-8.02 0,-3.03 -0.61,-5.68 -1.85,-7.94 -1.23,-2.31 -2.9,-4.09 -5.01,-5.32 -2.06,-1.29 -4.4,-1.93 -7.02,-1.93 -2.72,0 -5.17,0.64 -7.32,1.93 -2.11,1.23 -3.76,3.01 -4.94,5.32 -1.18,2.26 -1.77,4.91 -1.77,7.94 0,3.04 0.59,5.71 1.77,8.02 1.18,2.26 2.83,4.04 4.94,5.32 2.15,1.24 4.6,1.85 7.32,1.85 z m 36.05,5.25 c -1.39,0 -2.55,-0.44 -3.47,-1.31 -0.93,-0.88 -1.39,-2.06 -1.39,-3.55 0,-1.49 0.46,-2.67 1.39,-3.55 0.92,-0.92 2.08,-1.39 3.47,-1.39 1.44,0 2.62,0.47 3.54,1.39 0.93,0.88 1.39,2.06 1.39,3.55 0,1.49 -0.46,2.67 -1.39,3.55 -0.92,0.87 -2.1,1.31 -3.54,1.31 z m -1208.249,98.54 v -55.68 h 6.324 v 34.24 l 19.742,-18.51 h 8.02 l -15.886,15.5 17.429,24.45 h -7.481 l -14.729,-20.44 -7.095,6.86 v 13.58 z m 55.488,0.92 c -4.113,0 -7.429,-1.03 -9.948,-3.08 -2.519,-2.06 -3.779,-4.81 -3.779,-8.26 0,-3.7 1.183,-6.58 3.548,-8.63 2.416,-2.11 5.578,-3.55 9.485,-4.32 l 14.267,-2.78 v -1.39 c 0,-2.31 -0.925,-4.19 -2.776,-5.62 -1.851,-1.44 -4.37,-2.16 -7.558,-2.16 -2.725,0 -5.064,0.61 -7.017,1.85 -1.903,1.23 -3.137,3.08 -3.702,5.55 l -6.092,-0.31 c 0.719,-3.96 2.622,-7.04 5.706,-9.25 3.085,-2.27 6.812,-3.4 11.182,-3.4 5.193,0 9.255,1.24 12.185,3.7 2.93,2.47 4.396,5.69 4.396,9.64 v 27.54 h -6.17 v -5.4 c -1.182,1.9 -2.93,3.44 -5.244,4.62 -2.313,1.14 -5.141,1.7 -8.483,1.7 z m 0.849,-5.47 c 3.958,0 7.069,-1.01 9.331,-3.01 2.262,-2.01 3.393,-4.81 3.393,-8.41 v -4.86 l -12.647,2.47 c -2.365,0.46 -4.345,1.34 -5.938,2.62 -1.543,1.24 -2.314,2.91 -2.314,5.02 0,2.16 0.797,3.72 2.391,4.7 1.594,0.98 3.521,1.47 5.784,1.47 z m 32.906,4.55 v -39.95 h 6.17 v 6.01 c 1.336,-2.46 3.033,-4.24 5.089,-5.32 2.057,-1.08 4.01,-1.62 5.861,-1.62 1.234,0 2.262,0.18 3.085,0.54 v 5.94 h -0.308 c -0.309,-0.1 -0.669,-0.18 -1.08,-0.23 -0.36,-0.05 -0.977,-0.08 -1.851,-0.08 -1.902,0 -3.676,0.49 -5.321,1.47 -1.594,0.97 -2.879,2.41 -3.856,4.32 -0.977,1.85 -1.465,4.11 -1.465,6.78 v 22.14 z m 43.945,0.92 c -3.136,0 -5.656,-0.9 -7.558,-2.7 -1.851,-1.8 -2.776,-4.32 -2.776,-7.56 v -25.21 h -8.02 v -5.4 h 8.02 v -10.49 l 5.861,-2.08 h 0.463 v 12.57 h 10.565 v 5.4 h -10.565 v 24.75 c 0,1.6 0.385,2.91 1.156,3.93 0.771,1.03 2.082,1.55 3.933,1.55 1.543,0 3.239,-0.44 5.09,-1.31 h 0.386 v 5.01 c -2.057,1.03 -4.242,1.54 -6.555,1.54 z m 31.393,0 c -4.318,0 -7.866,-1.34 -10.642,-4.01 -2.776,-2.72 -4.164,-6.86 -4.164,-12.41 v -24.45 h 6.323 v 23.91 c 0,4.11 0.926,7.01 2.777,8.71 1.85,1.7 4.164,2.54 6.94,2.54 3.239,0 5.913,-0.97 8.02,-2.93 2.108,-1.95 3.162,-4.73 3.162,-8.32 v -23.91 h 6.324 v 39.95 h -6.17 v -5.56 c -1.336,2.21 -3.11,3.86 -5.321,4.94 -2.159,1.03 -4.575,1.54 -7.249,1.54 z m 47.268,-0.92 v -55.68 h 6.323 v 34.24 l 19.742,-18.51 h 8.021 l -15.887,15.5 17.429,24.45 h -7.48 l -14.73,-20.44 -7.095,6.86 v 13.58 z m 43.303,0 v -39.95 h 6.169 v 6.01 c 1.337,-2.46 3.034,-4.24 5.09,-5.32 2.057,-1.08 4.01,-1.62 5.861,-1.62 1.234,0 2.262,0.18 3.085,0.54 v 5.94 h -0.309 c -0.308,-0.1 -0.668,-0.18 -1.079,-0.23 -0.36,-0.05 -0.977,-0.08 -1.851,-0.08 -1.902,0 -3.676,0.49 -5.321,1.47 -1.594,0.97 -2.879,2.41 -3.856,4.32 -0.977,1.85 -1.465,4.11 -1.465,6.78 v 22.14 z m 48.041,0.92 c -3.856,0 -7.352,-0.87 -10.488,-2.62 -3.085,-1.8 -5.527,-4.27 -7.326,-7.4 -1.8,-3.14 -2.699,-6.76 -2.699,-10.88 0,-4.11 0.899,-7.74 2.699,-10.87 1.799,-3.14 4.215,-5.58 7.249,-7.33 3.084,-1.8 6.529,-2.7 10.334,-2.7 4.01,0 7.454,0.85 10.333,2.55 2.931,1.69 5.193,3.96 6.787,6.78 1.594,2.83 2.39,5.97 2.39,9.41 0,1.34 -0.128,2.73 -0.385,4.17 h -33.084 c 0.206,2.88 0.977,5.34 2.314,7.4 1.336,2.01 3.059,3.55 5.167,4.63 2.108,1.08 4.344,1.62 6.709,1.62 3.085,0 5.784,-0.77 8.097,-2.32 2.314,-1.59 3.805,-3.75 4.473,-6.47 l 6.17,0.46 c -1.029,4.21 -3.265,7.53 -6.71,9.95 -3.444,2.41 -7.454,3.62 -12.03,3.62 z m -14.036,-24.29 h 27.069 c -0.052,-3.5 -1.285,-6.4 -3.702,-8.72 -2.416,-2.36 -5.604,-3.54 -9.562,-3.54 -2.211,0 -4.319,0.49 -6.324,1.46 -2.005,0.93 -3.676,2.29 -5.013,4.09 -1.336,1.8 -2.159,4.04 -2.468,6.71 z m 62.446,24.29 c -3.856,0 -7.275,-0.87 -10.257,-2.62 -2.981,-1.75 -5.346,-4.19 -7.094,-7.33 -1.697,-3.13 -2.545,-6.78 -2.545,-10.95 0,-4.16 0.848,-7.81 2.545,-10.95 1.748,-3.13 4.113,-5.58 7.094,-7.32 3.034,-1.75 6.427,-2.63 10.18,-2.63 3.033,0 5.835,0.67 8.406,2.01 2.622,1.28 4.678,3.06 6.169,5.32 v -22.13 h 6.324 v 55.68 h -6.17 v -6.56 c -1.593,2.37 -3.675,4.22 -6.246,5.55 -2.571,1.29 -5.373,1.93 -8.406,1.93 z m 0.463,-5.71 c 2.622,0 4.987,-0.59 7.095,-1.77 2.159,-1.18 3.856,-2.9 5.089,-5.17 1.234,-2.26 1.851,-5.01 1.851,-8.25 0,-3.24 -0.617,-5.99 -1.851,-8.25 -1.233,-2.26 -2.93,-3.98 -5.089,-5.17 -2.108,-1.18 -4.473,-1.77 -7.095,-1.77 -2.674,0 -5.064,0.64 -7.172,1.93 -2.057,1.23 -3.702,2.98 -4.936,5.24 -1.182,2.26 -1.773,4.94 -1.773,8.02 0,3.04 0.591,5.71 1.773,8.02 1.234,2.26 2.879,4.04 4.936,5.32 2.108,1.24 4.498,1.85 7.172,1.85 z m 36.474,-41.72 c -1.285,0 -2.416,-0.43 -3.393,-1.31 -0.977,-0.92 -1.465,-2.05 -1.465,-3.39 0,-1.39 0.488,-2.52 1.465,-3.39 0.977,-0.93 2.108,-1.39 3.393,-1.39 1.337,0 2.468,0.46 3.393,1.39 0.977,0.87 1.466,2 1.466,3.39 0,1.34 -0.489,2.47 -1.466,3.39 -0.925,0.88 -2.056,1.31 -3.393,1.31 z m -3.162,46.51 v -39.95 h 6.324 v 39.95 z m 33.764,0.92 c -3.137,0 -5.656,-0.9 -7.558,-2.7 -1.851,-1.8 -2.776,-4.32 -2.776,-7.56 v -25.21 h -8.021 v -5.4 h 8.021 v -10.49 l 5.861,-2.08 h 0.462 v 12.57 h 10.566 v 5.4 h -10.566 v 24.75 c 0,1.6 0.386,2.91 1.157,3.93 0.771,1.03 2.082,1.55 3.933,1.55 1.543,0 3.239,-0.44 5.09,-1.31 h 0.386 v 5.01 c -2.057,1.03 -4.242,1.54 -6.555,1.54 z m 52.657,0 c -3.856,0 -7.275,-0.87 -10.257,-2.62 -2.982,-1.75 -5.347,-4.19 -7.095,-7.33 -1.697,-3.13 -2.545,-6.78 -2.545,-10.95 0,-4.16 0.848,-7.81 2.545,-10.95 1.748,-3.13 4.113,-5.58 7.095,-7.32 3.033,-1.75 6.426,-2.63 10.179,-2.63 3.034,0 5.836,0.67 8.406,2.01 2.622,1.28 4.679,3.06 6.17,5.32 v -22.13 h 6.323 v 55.68 h -6.169 v -6.56 c -1.594,2.37 -3.676,4.22 -6.247,5.55 -2.57,1.29 -5.372,1.93 -8.405,1.93 z m 0.462,-5.71 c 2.622,0 4.987,-0.59 7.095,-1.77 2.159,-1.18 3.856,-2.9 5.09,-5.17 1.234,-2.26 1.851,-5.01 1.851,-8.25 0,-3.24 -0.617,-5.99 -1.851,-8.25 -1.234,-2.26 -2.931,-3.98 -5.09,-5.17 -2.108,-1.18 -4.473,-1.77 -7.095,-1.77 -2.673,0 -5.064,0.64 -7.172,1.93 -2.056,1.23 -3.701,2.98 -4.935,5.24 -1.183,2.26 -1.774,4.94 -1.774,8.02 0,3.04 0.591,5.71 1.774,8.02 1.234,2.26 2.879,4.04 4.935,5.32 2.108,1.24 4.499,1.85 7.172,1.85 z m 44.881,5.71 c -4.113,0 -7.429,-1.03 -9.949,-3.08 -2.519,-2.06 -3.778,-4.81 -3.778,-8.26 0,-3.7 1.182,-6.58 3.547,-8.63 2.416,-2.11 5.578,-3.55 9.485,-4.32 l 14.267,-2.78 v -1.39 c 0,-2.31 -0.925,-4.19 -2.776,-5.62 -1.851,-1.44 -4.37,-2.16 -7.558,-2.16 -2.724,0 -5.064,0.61 -7.017,1.85 -1.902,1.23 -3.136,3.08 -3.702,5.55 l -6.092,-0.31 c 0.72,-3.96 2.622,-7.04 5.707,-9.25 3.084,-2.27 6.812,-3.4 11.182,-3.4 5.192,0 9.254,1.24 12.184,3.7 2.931,2.47 4.396,5.69 4.396,9.64 v 27.54 h -6.169 v -5.4 c -1.183,1.9 -2.931,3.44 -5.244,4.62 -2.314,1.14 -5.142,1.7 -8.483,1.7 z m 0.848,-5.47 c 3.959,0 7.069,-1.01 9.331,-3.01 2.262,-2.01 3.393,-4.81 3.393,-8.41 v -4.86 l -12.647,2.47 c -2.365,0.46 -4.344,1.34 -5.938,2.62 -1.542,1.24 -2.314,2.91 -2.314,5.02 0,2.16 0.797,3.72 2.391,4.7 1.594,0.98 3.522,1.47 5.784,1.47 z m 32.906,4.55 v -39.95 h 6.17 v 5.71 c 2.622,-4.43 6.786,-6.64 12.493,-6.64 4.781,0 8.56,1.55 11.336,4.63 2.776,3.09 4.165,7.3 4.165,12.65 v 23.6 h -6.324 v -23.29 c 0,-3.81 -0.926,-6.76 -2.776,-8.87 -1.8,-2.11 -4.293,-3.16 -7.481,-3.16 -3.342,0 -6.066,1.13 -8.174,3.39 -2.057,2.21 -3.085,5.09 -3.085,8.64 v 23.29 z m 89.419,0.92 c -4.011,0 -7.712,-0.69 -11.105,-2.08 -3.342,-1.44 -6.247,-3.42 -8.715,-5.94 -2.416,-2.57 -4.318,-5.58 -5.707,-9.02 -1.336,-3.45 -2.005,-7.2 -2.005,-11.26 0,-4.06 0.669,-7.82 2.005,-11.26 1.389,-3.44 3.317,-6.43 5.784,-8.95 2.468,-2.57 5.373,-4.55 8.715,-5.93 3.341,-1.44 7.017,-2.16 11.028,-2.16 4.575,0 8.688,0.87 12.338,2.62 3.651,1.75 6.607,4.09 8.869,7.02 2.313,2.93 3.65,6.17 4.01,9.71 l -6.555,0.62 c -0.308,-2.72 -1.362,-5.12 -3.162,-7.17 -1.748,-2.06 -3.984,-3.68 -6.709,-4.86 -2.725,-1.18 -5.655,-1.77 -8.791,-1.77 -4.062,0 -7.661,0.95 -10.797,2.85 -3.085,1.85 -5.501,4.45 -7.249,7.79 -1.697,3.29 -2.545,7.12 -2.545,11.49 0,4.37 0.848,8.22 2.545,11.57 1.697,3.29 4.087,5.88 7.172,7.79 3.136,1.85 6.761,2.77 10.874,2.77 3.238,0 6.195,-0.56 8.868,-1.69 2.725,-1.19 4.961,-2.81 6.709,-4.86 1.748,-2.11 2.777,-4.53 3.085,-7.25 l 6.555,0.61 c -0.411,3.55 -1.748,6.79 -4.01,9.72 -2.211,2.93 -5.141,5.27 -8.791,7.02 -3.651,1.75 -7.789,2.62 -12.416,2.62 z m 53.111,-0.92 -20.976,-54.76 h 7.404 l 16.966,45.19 17.043,-45.19 h 7.403 l -20.976,54.76 z m 61.663,0.92 c -4.01,0 -7.71,-0.69 -11.11,-2.08 -3.338,-1.44 -6.243,-3.42 -8.711,-5.94 -2.416,-2.57 -4.318,-5.58 -5.706,-9.02 -1.337,-3.45 -2.005,-7.2 -2.005,-11.26 0,-4.06 0.668,-7.82 2.005,-11.26 1.388,-3.44 3.316,-6.43 5.784,-8.95 2.467,-2.57 5.372,-4.55 8.713,-5.93 3.34,-1.44 7.02,-2.16 11.03,-2.16 4.57,0 8.69,0.87 12.34,2.62 3.65,1.75 6.6,4.09 8.87,7.02 2.31,2.93 3.65,6.17 4.01,9.71 l -6.56,0.62 c -0.31,-2.72 -1.36,-5.12 -3.16,-7.17 -1.75,-2.06 -3.99,-3.68 -6.71,-4.86 -2.72,-1.18 -5.66,-1.77 -8.79,-1.77 -4.06,0 -7.66,0.95 -10.8,2.85 -3.083,1.85 -5.499,4.45 -7.247,7.79 -1.696,3.29 -2.545,7.12 -2.545,11.49 0,4.37 0.849,8.22 2.545,11.57 1.697,3.29 4.087,5.88 7.177,7.79 3.13,1.85 6.76,2.77 10.87,2.77 3.24,0 6.19,-0.56 8.87,-1.69 2.72,-1.19 4.96,-2.81 6.71,-4.86 1.74,-2.11 2.77,-4.53 3.08,-7.25 l 6.56,0.61 c -0.42,3.55 -1.75,6.79 -4.01,9.72 -2.21,2.93 -5.15,5.27 -8.8,7.02 -3.65,1.75 -7.78,2.62 -12.41,2.62 z m 33.73,-0.92 21.75,-54.76 h 6.71 l -21.75,54.76 z m 64.47,0.92 c -4.01,0 -7.71,-0.69 -11.1,-2.08 -3.34,-1.44 -6.25,-3.42 -8.72,-5.94 -2.41,-2.57 -4.31,-5.58 -5.7,-9.02 -1.34,-3.45 -2.01,-7.2 -2.01,-11.26 0,-4.06 0.67,-7.82 2.01,-11.26 1.39,-3.44 3.31,-6.43 5.78,-8.95 2.47,-2.57 5.37,-4.55 8.72,-5.93 3.34,-1.44 7.01,-2.16 11.02,-2.16 4.58,0 8.69,0.87 12.34,2.62 3.65,1.75 6.61,4.09 8.87,7.02 2.31,2.93 3.65,6.17 4.01,9.71 l -6.55,0.62 c -0.31,-2.72 -1.37,-5.12 -3.17,-7.17 -1.74,-2.06 -3.98,-3.68 -6.71,-4.86 -2.72,-1.18 -5.65,-1.77 -8.79,-1.77 -4.06,0 -7.66,0.95 -10.79,2.85 -3.09,1.85 -5.5,4.45 -7.25,7.79 -1.7,3.29 -2.55,7.12 -2.55,11.49 0,4.37 0.85,8.22 2.55,11.57 1.69,3.29 4.09,5.88 7.17,7.79 3.14,1.85 6.76,2.77 10.87,2.77 3.24,0 6.2,-0.56 8.87,-1.69 2.73,-1.19 4.96,-2.81 6.71,-4.86 1.75,-2.11 2.78,-4.53 3.09,-7.25 l 6.55,0.61 c -0.41,3.55 -1.75,6.79 -4.01,9.72 -2.21,2.93 -5.14,5.27 -8.79,7.02 -3.65,1.75 -7.79,2.62 -12.42,2.62 z m 53.12,-0.92 -20.98,-54.76 h 7.4 l 16.97,45.19 17.04,-45.19 h 7.41 l -20.98,54.76 z m 54.97,0 -20.97,-54.76 h 7.4 l 16.97,45.19 17.04,-45.19 h 7.4 l -20.97,54.76 z m 66.22,0.92 c -4.12,0 -7.43,-1.03 -9.95,-3.08 -2.52,-2.06 -3.78,-4.81 -3.78,-8.26 0,-3.7 1.18,-6.58 3.55,-8.63 2.41,-2.11 5.58,-3.55 9.48,-4.32 l 14.27,-2.78 v -1.39 c 0,-2.31 -0.93,-4.19 -2.78,-5.62 -1.85,-1.44 -4.37,-2.16 -7.55,-2.16 -2.73,0 -5.07,0.61 -7.02,1.85 -1.9,1.23 -3.14,3.08 -3.7,5.55 l -6.1,-0.31 c 0.72,-3.96 2.63,-7.04 5.71,-9.25 3.09,-2.27 6.81,-3.4 11.18,-3.4 5.2,0 9.26,1.24 12.19,3.7 2.93,2.47 4.39,5.69 4.39,9.64 v 27.54 H 1298 v -5.4 c -1.18,1.9 -2.93,3.44 -5.24,4.62 -2.31,1.14 -5.14,1.7 -8.48,1.7 z m 0.85,-5.47 c 3.95,0 7.06,-1.01 9.33,-3.01 2.26,-2.01 3.39,-4.81 3.39,-8.41 v -4.86 l -12.65,2.47 c -2.36,0.46 -4.34,1.34 -5.94,2.62 -1.54,1.24 -2.31,2.91 -2.31,5.02 0,2.16 0.8,3.72 2.39,4.7 1.6,0.98 3.52,1.47 5.79,1.47 z m 32.9,4.55 v -39.95 h 6.17 v 5.71 c 2.62,-4.43 6.79,-6.64 12.49,-6.64 4.79,0 8.56,1.55 11.34,4.63 2.78,3.09 4.16,7.3 4.16,12.65 v 23.6 h -6.32 v -23.29 c 0,-3.81 -0.92,-6.76 -2.77,-8.87 -1.8,-2.11 -4.3,-3.16 -7.49,-3.16 -3.34,0 -6.06,1.13 -8.17,3.39 -2.06,2.21 -3.08,5.09 -3.08,8.64 v 23.29 z m 64.07,0.92 c -3.86,0 -7.28,-0.87 -10.26,-2.62 -2.98,-1.75 -5.34,-4.19 -7.09,-7.33 -1.7,-3.13 -2.55,-6.78 -2.55,-10.95 0,-4.16 0.85,-7.81 2.55,-10.95 1.75,-3.13 4.11,-5.58 7.09,-7.32 3.04,-1.75 6.43,-2.63 10.18,-2.63 3.04,0 5.84,0.67 8.41,2.01 2.62,1.28 4.68,3.06 6.17,5.32 v -22.13 h 6.32 v 55.68 h -6.17 v -6.56 c -1.59,2.37 -3.67,4.22 -6.24,5.55 -2.58,1.29 -5.38,1.93 -8.41,1.93 z m 0.46,-5.71 c 2.62,0 4.99,-0.59 7.1,-1.77 2.16,-1.18 3.85,-2.9 5.09,-5.17 1.23,-2.26 1.85,-5.01 1.85,-8.25 0,-3.24 -0.62,-5.99 -1.85,-8.25 -1.24,-2.26 -2.93,-3.98 -5.09,-5.17 -2.11,-1.18 -4.48,-1.77 -7.1,-1.77 -2.67,0 -5.06,0.64 -7.17,1.93 -2.06,1.23 -3.7,2.98 -4.94,5.24 -1.18,2.26 -1.77,4.94 -1.77,8.02 0,3.04 0.59,5.71 1.77,8.02 1.24,2.26 2.88,4.04 4.94,5.32 2.11,1.24 4.5,1.85 7.17,1.85 z m 44.88,5.71 c -4.11,0 -7.43,-1.03 -9.95,-3.08 -2.52,-2.06 -3.77,-4.81 -3.77,-8.26 0,-3.7 1.18,-6.58 3.54,-8.63 2.42,-2.11 5.58,-3.55 9.49,-4.32 l 14.26,-2.78 v -1.39 c 0,-2.31 -0.92,-4.19 -2.77,-5.62 -1.85,-1.44 -4.37,-2.16 -7.56,-2.16 -2.72,0 -5.06,0.61 -7.02,1.85 -1.9,1.23 -3.13,3.08 -3.7,5.55 l -6.09,-0.31 c 0.72,-3.96 2.62,-7.04 5.71,-9.25 3.08,-2.27 6.81,-3.4 11.18,-3.4 5.19,0 9.25,1.24 12.18,3.7 2.93,2.47 4.4,5.69 4.4,9.64 v 27.54 h -6.17 v -5.4 c -1.18,1.9 -2.93,3.44 -5.24,4.62 -2.32,1.14 -5.15,1.7 -8.49,1.7 z m 0.85,-5.47 c 3.96,0 7.07,-1.01 9.33,-3.01 2.26,-2.01 3.39,-4.81 3.39,-8.41 v -4.86 l -12.64,2.47 c -2.37,0.46 -4.35,1.34 -5.94,2.62 -1.54,1.24 -2.31,2.91 -2.31,5.02 0,2.16 0.79,3.72 2.39,4.7 1.59,0.98 3.52,1.47 5.78,1.47 z m 37.77,5.01 c -1.39,0 -2.55,-0.44 -3.47,-1.31 -0.93,-0.88 -1.39,-2.06 -1.39,-3.55 0,-1.49 0.46,-2.67 1.39,-3.55 0.92,-0.92 2.08,-1.39 3.47,-1.39 1.43,0 2.62,0.47 3.54,1.39 0.93,0.88 1.39,2.06 1.39,3.55 0,1.49 -0.46,2.67 -1.39,3.55 -0.92,0.87 -2.11,1.31 -3.54,1.31 z m 34.22,-0.46 v -55.68 h 6.33 v 34.24 l 19.74,-18.51 h 8.02 l -15.89,15.5 17.43,24.45 h -7.48 l -14.73,-20.44 -7.09,6.86 v 13.58 z m 43.31,0 v -54.76 h 6.32 v 54.76 z m 23.21,-46.51 c -1.29,0 -2.42,-0.43 -3.4,-1.31 -0.97,-0.92 -1.46,-2.05 -1.46,-3.39 0,-1.39 0.49,-2.52 1.46,-3.39 0.98,-0.93 2.11,-1.39 3.4,-1.39 1.33,0 2.46,0.46 3.39,1.39 0.98,0.87 1.46,2 1.46,3.39 0,1.34 -0.48,2.47 -1.46,3.39 -0.93,0.88 -2.06,1.31 -3.39,1.31 z m -3.17,46.51 v -39.95 h 6.33 v 39.95 z m 19.27,0 v -55.68 h 6.32 v 34.24 l 19.74,-18.51 h 8.02 l -15.88,15.5 17.43,24.45 h -7.48 l -14.73,-20.44 -7.1,6.86 v 13.58 z M 275.035,1328.1 c -3.856,0 -7.275,-0.87 -10.256,-2.62 -2.982,-1.75 -5.347,-4.19 -7.095,-7.33 -1.697,-3.13 -2.545,-6.78 -2.545,-10.95 0,-4.16 0.848,-7.81 2.545,-10.95 1.748,-3.13 4.113,-5.58 7.095,-7.32 3.033,-1.75 6.426,-2.63 10.179,-2.63 3.033,0 5.835,0.67 8.406,2.01 2.622,1.28 4.678,3.06 6.169,5.32 v -22.13 h 6.324 v 55.68 h -6.169 v -6.56 c -1.594,2.37 -3.676,4.22 -6.247,5.55 -2.571,1.29 -5.372,1.93 -8.406,1.93 z m 0.463,-5.71 c 2.622,0 4.987,-0.59 7.095,-1.77 2.159,-1.18 3.856,-2.9 5.09,-5.17 1.233,-2.26 1.85,-5.01 1.85,-8.25 0,-3.24 -0.617,-5.99 -1.85,-8.25 -1.234,-2.26 -2.931,-3.98 -5.09,-5.17 -2.108,-1.18 -4.473,-1.77 -7.095,-1.77 -2.673,0 -5.064,0.64 -7.172,1.93 -2.057,1.23 -3.702,2.98 -4.936,5.24 -1.182,2.26 -1.773,4.94 -1.773,8.02 0,3.04 0.591,5.71 1.773,8.02 1.234,2.26 2.879,4.04 4.936,5.32 2.108,1.24 4.499,1.85 7.172,1.85 z m 36.474,-41.72 c -1.285,0 -2.416,-0.43 -3.393,-1.31 -0.977,-0.92 -1.465,-2.05 -1.465,-3.39 0,-1.39 0.488,-2.52 1.465,-3.39 0.977,-0.93 2.108,-1.39 3.393,-1.39 1.337,0 2.468,0.46 3.393,1.39 0.977,0.87 1.466,2 1.466,3.39 0,1.34 -0.489,2.47 -1.466,3.39 -0.925,0.88 -2.056,1.31 -3.393,1.31 z m -3.162,46.51 v -39.95 h 6.324 v 39.95 z m 49.706,0.92 c -2.931,0 -5.578,-0.51 -7.943,-1.54 -2.314,-1.03 -4.165,-2.47 -5.553,-4.32 -1.388,-1.9 -2.159,-4.11 -2.313,-6.63 l 5.861,-0.7 c 0.308,2.32 1.362,4.17 3.162,5.56 1.799,1.38 4.061,2.08 6.786,2.08 2.416,0 4.421,-0.52 6.015,-1.54 1.594,-1.08 2.391,-2.47 2.391,-4.17 0,-1.54 -0.463,-2.75 -1.388,-3.62 -0.926,-0.93 -2.134,-1.65 -3.625,-2.16 -1.491,-0.57 -3.085,-1.06 -4.781,-1.47 -1.594,-0.41 -3.188,-0.87 -4.781,-1.39 -1.543,-0.51 -2.982,-1.18 -4.319,-2 -1.285,-0.87 -2.314,-1.98 -3.085,-3.32 -0.771,-1.38 -1.157,-3.13 -1.157,-5.24 0,-3.39 1.26,-6.12 3.779,-8.17 2.571,-2.11 5.913,-3.17 10.026,-3.17 3.958,0 7.274,1.03 9.948,3.09 2.673,2 4.164,4.7 4.473,8.1 l -5.938,0.69 c -0.258,-1.95 -1.183,-3.5 -2.777,-4.63 -1.542,-1.13 -3.419,-1.69 -5.629,-1.69 -2.262,0 -4.088,0.48 -5.476,1.46 -1.388,0.98 -2.082,2.26 -2.082,3.86 0,1.49 0.437,2.67 1.311,3.54 0.926,0.88 2.108,1.57 3.548,2.09 1.491,0.46 3.084,0.92 4.781,1.38 1.594,0.42 3.187,0.9 4.781,1.47 1.594,0.51 3.033,1.21 4.319,2.08 1.336,0.88 2.39,2.03 3.162,3.47 0.822,1.39 1.234,3.16 1.234,5.32 0,2.32 -0.643,4.35 -1.928,6.1 -1.286,1.74 -3.034,3.11 -5.244,4.08 -2.211,0.93 -4.73,1.39 -7.558,1.39 z m 29.294,-47.43 c -1.285,0 -2.416,-0.43 -3.393,-1.31 -0.977,-0.92 -1.465,-2.05 -1.465,-3.39 0,-1.39 0.488,-2.52 1.465,-3.39 0.977,-0.93 2.108,-1.39 3.393,-1.39 1.337,0 2.468,0.46 3.393,1.39 0.977,0.87 1.465,2 1.465,3.39 0,1.34 -0.488,2.47 -1.465,3.39 -0.925,0.88 -2.056,1.31 -3.393,1.31 z m -3.162,46.51 v -39.95 h 6.324 v 39.95 z m 19.265,0 v -39.95 h 6.17 v 5.71 c 2.622,-4.43 6.786,-6.64 12.493,-6.64 4.781,0 8.56,1.55 11.336,4.63 2.776,3.09 4.164,7.3 4.164,12.65 v 23.6 h -6.323 v -23.29 c 0,-3.81 -0.926,-6.76 -2.777,-8.87 -1.799,-2.11 -4.292,-3.16 -7.48,-3.16 -3.342,0 -6.067,1.13 -8.174,3.39 -2.057,2.21 -3.085,5.09 -3.085,8.64 v 23.29 z m 49.492,-46.51 c -1.285,0 -2.416,-0.43 -3.393,-1.31 -0.977,-0.92 -1.465,-2.05 -1.465,-3.39 0,-1.39 0.488,-2.52 1.465,-3.39 0.977,-0.93 2.108,-1.39 3.393,-1.39 1.337,0 2.468,0.46 3.394,1.39 0.976,0.87 1.465,2 1.465,3.39 0,1.34 -0.489,2.47 -1.465,3.39 -0.926,0.88 -2.057,1.31 -3.394,1.31 z m -3.161,46.51 v -39.95 h 6.323 v 39.95 z m 50.245,0.92 c -4.319,0 -7.866,-1.34 -10.642,-4.01 -2.777,-2.72 -4.165,-6.86 -4.165,-12.41 v -24.45 h 6.324 v 23.91 c 0,4.11 0.925,7.01 2.776,8.71 1.851,1.7 4.165,2.54 6.941,2.54 3.239,0 5.912,-0.97 8.02,-2.93 2.108,-1.95 3.162,-4.73 3.162,-8.32 v -23.91 h 6.324 v 39.95 h -6.17 v -5.56 c -1.337,2.21 -3.11,3.86 -5.321,4.94 -2.159,1.03 -4.576,1.54 -7.249,1.54 z m 28.009,-0.92 21.747,-54.76 h 6.709 l -21.747,54.76 z m 66.839,0.92 c -4.113,0 -7.429,-1.03 -9.949,-3.08 -2.519,-2.06 -3.778,-4.81 -3.778,-8.26 0,-3.7 1.182,-6.58 3.547,-8.63 2.416,-2.11 5.578,-3.55 9.486,-4.32 l 14.266,-2.78 v -1.39 c 0,-2.31 -0.925,-4.19 -2.776,-5.62 -1.851,-1.44 -4.37,-2.16 -7.557,-2.16 -2.725,0 -5.064,0.61 -7.018,1.85 -1.902,1.23 -3.136,3.08 -3.702,5.55 l -6.092,-0.31 c 0.72,-3.96 2.622,-7.04 5.707,-9.25 3.084,-2.27 6.812,-3.4 11.182,-3.4 5.192,0 9.254,1.24 12.184,3.7 2.931,2.47 4.396,5.69 4.396,9.64 v 27.54 h -6.169 v -5.4 c -1.183,1.9 -2.931,3.44 -5.244,4.62 -2.314,1.14 -5.142,1.7 -8.483,1.7 z m 0.848,-5.47 c 3.959,0 7.069,-1.01 9.331,-3.01 2.262,-2.01 3.393,-4.81 3.393,-8.41 v -4.86 l -12.647,2.47 c -2.365,0.46 -4.344,1.34 -5.938,2.62 -1.542,1.24 -2.314,2.91 -2.314,5.02 0,2.16 0.797,3.72 2.391,4.7 1.594,0.98 3.522,1.47 5.784,1.47 z m 32.906,4.55 v -55.68 h 6.324 v 34.24 l 19.742,-18.51 h 8.021 l -15.887,15.5 17.429,24.45 h -7.48 l -14.73,-20.44 -7.095,6.86 v 13.58 z m 57.802,0.92 c -3.136,0 -5.655,-0.9 -7.557,-2.7 -1.851,-1.8 -2.777,-4.32 -2.777,-7.56 v -25.21 h -8.02 v -5.4 h 8.02 v -10.49 l 5.861,-2.08 h 0.463 v 12.57 h 10.565 v 5.4 h -10.565 v 24.75 c 0,1.6 0.386,2.91 1.157,3.93 0.771,1.03 2.082,1.55 3.933,1.55 1.542,0 3.239,-0.44 5.09,-1.31 h 0.385 v 5.01 c -2.056,1.03 -4.241,1.54 -6.555,1.54 z m 21.137,-47.43 c -1.285,0 -2.416,-0.43 -3.393,-1.31 -0.977,-0.92 -1.465,-2.05 -1.465,-3.39 0,-1.39 0.488,-2.52 1.465,-3.39 0.977,-0.93 2.108,-1.39 3.393,-1.39 1.337,0 2.468,0.46 3.393,1.39 0.977,0.87 1.466,2 1.466,3.39 0,1.34 -0.489,2.47 -1.466,3.39 -0.925,0.88 -2.056,1.31 -3.393,1.31 z m -3.162,46.51 v -39.95 h 6.324 v 39.95 z m 25.589,0 v -34.55 h -8.637 v -5.4 h 8.637 v -6.48 c 0,-3.65 1.054,-6.32 3.162,-8.02 2.159,-1.75 4.73,-2.62 7.712,-2.62 1.131,0 2.236,0.13 3.316,0.38 1.131,0.21 2.21,0.6 3.239,1.16 v 5.01 H 747.5 c -1.594,-0.87 -3.29,-1.31 -5.09,-1.31 -1.439,0 -2.75,0.41 -3.933,1.24 -1.131,0.77 -1.696,2.21 -1.696,4.32 v 6.32 h 11.105 v 5.4 h -11.105 v 34.55 z m 39.299,0.92 c -4.113,0 -7.429,-1.03 -9.948,-3.08 -2.52,-2.06 -3.779,-4.81 -3.779,-8.26 0,-3.7 1.182,-6.58 3.547,-8.63 2.417,-2.11 5.578,-3.55 9.486,-4.32 l 14.267,-2.78 v -1.39 c 0,-2.31 -0.926,-4.19 -2.777,-5.62 -1.851,-1.44 -4.37,-2.16 -7.557,-2.16 -2.725,0 -5.064,0.61 -7.018,1.85 -1.902,1.23 -3.136,3.08 -3.702,5.55 l -6.092,-0.31 c 0.72,-3.96 2.622,-7.04 5.707,-9.25 3.084,-2.27 6.812,-3.4 11.182,-3.4 5.192,0 9.254,1.24 12.184,3.7 2.931,2.47 4.396,5.69 4.396,9.64 v 27.54 h -6.169 v -5.4 c -1.183,1.9 -2.931,3.44 -5.244,4.62 -2.314,1.14 -5.141,1.7 -8.483,1.7 z m 0.848,-5.47 c 3.959,0 7.069,-1.01 9.331,-3.01 2.262,-2.01 3.394,-4.81 3.394,-8.41 v -4.86 l -12.648,2.47 c -2.365,0.46 -4.344,1.34 -5.938,2.62 -1.542,1.24 -2.313,2.91 -2.313,5.02 0,2.16 0.796,3.72 2.39,4.7 1.594,0.98 3.522,1.47 5.784,1.47 z m 46.402,5.47 c -2.93,0 -5.578,-0.51 -7.943,-1.54 -2.314,-1.03 -4.164,-2.47 -5.553,-4.32 -1.388,-1.9 -2.159,-4.11 -2.313,-6.63 l 5.861,-0.7 c 0.308,2.32 1.362,4.17 3.162,5.56 1.799,1.38 4.061,2.08 6.786,2.08 2.416,0 4.422,-0.52 6.015,-1.54 1.594,-1.08 2.391,-2.47 2.391,-4.17 0,-1.54 -0.463,-2.75 -1.388,-3.62 -0.926,-0.93 -2.134,-1.65 -3.625,-2.16 -1.491,-0.57 -3.084,-1.06 -4.781,-1.47 -1.594,-0.41 -3.188,-0.87 -4.781,-1.39 -1.543,-0.51 -2.982,-1.18 -4.319,-2 -1.285,-0.87 -2.313,-1.98 -3.085,-3.32 -0.771,-1.38 -1.156,-3.13 -1.156,-5.24 0,-3.39 1.259,-6.12 3.778,-8.17 2.571,-2.11 5.913,-3.17 10.026,-3.17 3.958,0 7.275,1.03 9.948,3.09 2.673,2 4.164,4.7 4.473,8.1 l -5.938,0.69 c -0.257,-1.95 -1.183,-3.5 -2.777,-4.63 -1.542,-1.13 -3.418,-1.69 -5.629,-1.69 -2.262,0 -4.087,0.48 -5.476,1.46 -1.388,0.98 -2.082,2.26 -2.082,3.86 0,1.49 0.437,2.67 1.311,3.54 0.926,0.88 2.108,1.57 3.548,2.09 1.491,0.46 3.084,0.92 4.781,1.38 1.594,0.42 3.188,0.9 4.781,1.47 1.594,0.51 3.034,1.21 4.319,2.08 1.337,0.88 2.391,2.03 3.162,3.47 0.822,1.39 1.234,3.16 1.234,5.32 0,2.32 -0.643,4.35 -1.928,6.1 -1.286,1.74 -3.034,3.11 -5.244,4.08 -2.211,0.93 -4.73,1.39 -7.558,1.39 z m 29.294,-47.43 c -1.285,0 -2.416,-0.43 -3.393,-1.31 -0.977,-0.92 -1.465,-2.05 -1.465,-3.39 0,-1.39 0.488,-2.52 1.465,-3.39 0.977,-0.93 2.108,-1.39 3.393,-1.39 1.337,0 2.468,0.46 3.393,1.39 0.977,0.87 1.466,2 1.466,3.39 0,1.34 -0.489,2.47 -1.466,3.39 -0.925,0.88 -2.056,1.31 -3.393,1.31 z m -3.162,46.51 v -39.95 h 6.324 v 39.95 z m 24.124,-27.23 c -1.388,0 -2.545,-0.43 -3.471,-1.31 -0.925,-0.87 -1.388,-2.05 -1.388,-3.55 0,-1.49 0.463,-2.67 1.388,-3.54 0.926,-0.93 2.083,-1.39 3.471,-1.39 1.439,0 2.622,0.46 3.547,1.39 0.926,0.87 1.388,2.05 1.388,3.54 0,1.5 -0.462,2.68 -1.388,3.55 -0.925,0.88 -2.108,1.31 -3.547,1.31 z m 0,27.69 c -1.388,0 -2.545,-0.44 -3.471,-1.31 -0.925,-0.88 -1.388,-2.06 -1.388,-3.55 0,-1.49 0.463,-2.67 1.388,-3.55 0.926,-0.92 2.083,-1.39 3.471,-1.39 1.439,0 2.622,0.47 3.547,1.39 0.926,0.88 1.388,2.06 1.388,3.55 0,1.49 -0.462,2.67 -1.388,3.55 -0.925,0.87 -2.108,1.31 -3.547,1.31 z m 55.589,0.46 c -2.828,0 -5.424,-0.54 -7.789,-1.62 -2.365,-1.08 -4.318,-2.65 -5.861,-4.7 v 5.4 h -8.251 v -54.76 h 8.868 v 19.51 c 1.44,-1.85 3.291,-3.26 5.553,-4.24 2.313,-1.03 4.858,-1.54 7.634,-1.54 3.753,0 7.121,0.87 10.103,2.62 3.033,1.75 5.424,4.22 7.172,7.4 1.799,3.14 2.699,6.79 2.699,10.96 0,4.16 -0.874,7.81 -2.622,10.95 -1.748,3.13 -4.139,5.6 -7.172,7.4 -3.033,1.75 -6.478,2.62 -10.334,2.62 z m -0.848,-8.02 c 3.444,0 6.298,-1.18 8.56,-3.55 2.262,-2.36 3.393,-5.5 3.393,-9.4 0,-3.96 -1.131,-7.13 -3.393,-9.49 -2.262,-2.37 -5.116,-3.55 -8.56,-3.55 -2.262,0 -4.319,0.52 -6.17,1.54 -1.85,1.03 -3.316,2.52 -4.395,4.48 -1.08,1.9 -1.62,4.24 -1.62,7.02 0,2.72 0.54,5.06 1.62,7.01 1.079,1.91 2.545,3.37 4.395,4.4 1.851,1.03 3.908,1.54 6.17,1.54 z m 35.543,-38.64 c -1.593,0 -2.982,-0.51 -4.164,-1.54 -1.183,-1.08 -1.774,-2.44 -1.774,-4.08 0,-1.75 0.591,-3.14 1.774,-4.17 1.182,-1.03 2.571,-1.54 4.164,-1.54 1.594,0 2.982,0.51 4.165,1.54 1.182,1.03 1.773,2.42 1.773,4.17 0,1.64 -0.591,3 -1.773,4.08 -1.183,1.03 -2.571,1.54 -4.165,1.54 z m -4.395,45.74 v -40.11 h 8.868 v 40.11 z m 36.589,0.92 c -3.496,0 -6.324,-0.98 -8.483,-2.93 -2.159,-2 -3.239,-4.83 -3.239,-8.48 v -22.14 h -7.635 v -7.48 h 7.635 v -9.71 l 8.329,-2.93 h 0.54 v 12.64 h 9.639 v 7.48 h -9.639 v 21.37 c 0,1.49 0.385,2.72 1.156,3.7 0.772,0.92 2.031,1.39 3.779,1.39 0.72,0 1.44,-0.08 2.16,-0.24 0.719,-0.2 1.439,-0.46 2.159,-0.77 h 0.385 v 6.71 c -0.976,0.47 -2.056,0.8 -3.238,1.01 -1.183,0.25 -2.365,0.38 -3.548,0.38 z m 22.66,-0.46 c -1.59,0 -2.98,-0.52 -4.16,-1.54 -1.13,-1.08 -1.7,-2.52 -1.7,-4.32 0,-1.9 0.57,-3.37 1.7,-4.4 1.18,-1.08 2.57,-1.62 4.16,-1.62 1.7,0 3.11,0.54 4.24,1.62 1.19,1.03 1.78,2.5 1.78,4.4 0,1.8 -0.59,3.24 -1.78,4.32 -1.13,1.02 -2.54,1.54 -4.24,1.54 z m 17.56,-0.46 v -54.76 h 8.87 v 54.76 z m 26.71,16.58 c -1.02,0 -2,-0.08 -2.93,-0.24 -0.92,-0.15 -1.67,-0.38 -2.23,-0.69 v -7.56 h 0.77 c 0.36,0.11 0.8,0.18 1.31,0.23 0.51,0.11 1.13,0.16 1.85,0.16 1.44,0 2.78,-0.54 4.01,-1.62 1.29,-1.08 2.42,-2.93 3.39,-5.55 l 1.32,-3.24 -16.28,-38.18 h 9.41 l 11.42,27.54 11.41,-27.54 h 9.33 l -18.12,42.96 c -1.08,2.62 -2.24,4.96 -3.47,7.02 -1.19,2.05 -2.65,3.67 -4.4,4.86 -1.75,1.23 -4.01,1.85 -6.79,1.85 z m 38.99,-16.58 21.82,-54.76 h 9.33 l -21.82,54.76 z m 51.76,0.92 c -4.06,0 -7.35,-1.03 -9.87,-3.08 -2.52,-2.11 -3.78,-4.89 -3.78,-8.33 0,-2.62 0.59,-4.81 1.78,-6.56 1.18,-1.75 2.77,-3.13 4.78,-4.16 2,-1.03 4.21,-1.78 6.63,-2.24 l 13.42,-2.62 v -1.08 c 0,-1.95 -0.8,-3.52 -2.39,-4.7 -1.6,-1.24 -3.73,-1.85 -6.4,-1.85 -2.32,0 -4.3,0.51 -5.94,1.54 -1.65,1.03 -2.7,2.59 -3.16,4.7 l -8.41,-0.38 c 0.41,-2.83 1.44,-5.22 3.09,-7.18 1.64,-1.95 3.72,-3.44 6.24,-4.47 2.52,-1.03 5.3,-1.54 8.33,-1.54 5.55,0 9.85,1.28 12.88,3.85 3.09,2.58 4.63,5.92 4.63,10.03 v 27.15 h -8.49 v -4.86 c -1.23,1.85 -3.03,3.29 -5.39,4.32 -2.32,0.97 -4.96,1.46 -7.95,1.46 z m 1.93,-7.02 c 3.34,0 6.02,-0.84 8.02,-2.54 2.01,-1.7 3.01,-4.14 3.01,-7.33 v -3.55 l -10.95,2.09 c -1.96,0.36 -3.57,1.05 -4.86,2.08 -1.29,0.98 -1.93,2.34 -1.93,4.09 0,1.74 0.64,3.06 1.93,3.93 1.29,0.82 2.88,1.23 4.78,1.23 z m 32.73,6.1 v -55.68 h 8.87 v 31.92 l 16.89,-16.35 h 10.72 l -15.27,15.74 17.2,24.37 h -10.41 l -13.34,-18.67 -5.79,5.71 v 12.96 z m 61.08,0.92 c -3.5,0 -6.32,-0.98 -8.48,-2.93 -2.16,-2 -3.24,-4.83 -3.24,-8.48 v -22.14 h -7.64 v -7.48 h 7.64 v -9.71 l 8.33,-2.93 h 0.54 v 12.64 h 9.64 v 7.48 h -9.64 v 21.37 c 0,1.49 0.38,2.72 1.15,3.7 0.77,0.92 2.03,1.39 3.78,1.39 0.72,0 1.44,-0.08 2.16,-0.24 0.72,-0.2 1.44,-0.46 2.16,-0.77 h 0.39 v 6.71 c -0.98,0.47 -2.06,0.8 -3.24,1.01 -1.19,0.25 -2.37,0.38 -3.55,0.38 z m 21.35,-46.66 c -1.59,0 -2.98,-0.51 -4.16,-1.54 -1.19,-1.08 -1.78,-2.44 -1.78,-4.08 0,-1.75 0.59,-3.14 1.78,-4.17 1.18,-1.03 2.57,-1.54 4.16,-1.54 1.6,0 2.98,0.51 4.17,1.54 1.18,1.03 1.77,2.42 1.77,4.17 0,1.64 -0.59,3 -1.77,4.08 -1.19,1.03 -2.57,1.54 -4.17,1.54 z m -4.39,45.74 v -40.11 h 8.86 v 40.11 z m 26.33,0 v -32.63 h -8.1 v -7.48 h 8.1 v -5.32 c 0,-3.9 1.16,-6.81 3.47,-8.71 2.31,-1.95 5.17,-2.93 8.56,-2.93 1.18,0 2.36,0.1 3.55,0.31 1.18,0.2 2.26,0.56 3.24,1.08 v 6.71 h -0.39 c -0.67,-0.36 -1.39,-0.62 -2.16,-0.78 -0.72,-0.15 -1.44,-0.23 -2.16,-0.23 -1.44,0 -2.67,0.39 -3.7,1.16 -1.03,0.72 -1.54,1.95 -1.54,3.7 v 5.01 h 9.95 v 7.48 h -9.95 v 32.63 z m 39.38,0.92 c -4.06,0 -7.35,-1.03 -9.87,-3.08 -2.52,-2.11 -3.78,-4.89 -3.78,-8.33 0,-2.62 0.6,-4.81 1.78,-6.56 1.18,-1.75 2.77,-3.13 4.78,-4.16 2,-1.03 4.21,-1.78 6.63,-2.24 l 13.42,-2.62 v -1.08 c 0,-1.95 -0.8,-3.52 -2.39,-4.7 -1.59,-1.24 -3.73,-1.85 -6.4,-1.85 -2.32,0 -4.29,0.51 -5.94,1.54 -1.65,1.03 -2.7,2.59 -3.16,4.7 l -8.41,-0.38 c 0.41,-2.83 1.44,-5.22 3.09,-7.18 1.64,-1.95 3.72,-3.44 6.24,-4.47 2.52,-1.03 5.3,-1.54 8.33,-1.54 5.55,0 9.85,1.28 12.88,3.85 3.09,2.58 4.63,5.92 4.63,10.03 v 27.15 h -8.48 v -4.86 c -1.24,1.85 -3.04,3.29 -5.4,4.32 -2.32,0.97 -4.96,1.46 -7.95,1.46 z m 1.93,-7.02 c 3.34,0 6.02,-0.84 8.02,-2.54 2.01,-1.7 3.01,-4.14 3.01,-7.33 v -3.55 l -10.95,2.09 c -1.95,0.36 -3.57,1.05 -4.86,2.08 -1.28,0.98 -1.93,2.34 -1.93,4.09 0,1.74 0.65,3.06 1.93,3.93 1.29,0.82 2.88,1.23 4.78,1.23 z m 47,7.02 c -4.83,0 -8.76,-1.13 -11.8,-3.39 -2.98,-2.32 -4.57,-5.43 -4.78,-9.33 l 8.18,-0.85 c 0.25,2.05 1.13,3.67 2.62,4.86 1.54,1.18 3.44,1.77 5.7,1.77 1.96,0 3.58,-0.41 4.86,-1.23 1.29,-0.83 1.93,-1.93 1.93,-3.32 0,-1.28 -0.41,-2.29 -1.23,-3.01 -0.77,-0.77 -1.83,-1.39 -3.17,-1.85 -1.33,-0.46 -2.77,-0.9 -4.31,-1.31 -1.55,-0.41 -3.14,-0.87 -4.79,-1.39 -1.59,-0.51 -3.05,-1.18 -4.39,-2 -1.34,-0.88 -2.42,-2.01 -3.24,-3.4 -0.82,-1.43 -1.23,-3.26 -1.23,-5.47 0,-3.65 1.33,-6.56 4.01,-8.71 2.72,-2.22 6.32,-3.32 10.79,-3.32 4.37,0 8,1.05 10.88,3.16 2.88,2.06 4.44,4.86 4.7,8.41 l -8.25,0.85 c -0.21,-1.8 -1,-3.17 -2.39,-4.09 -1.34,-0.98 -2.91,-1.47 -4.71,-1.47 -1.85,0 -3.34,0.41 -4.47,1.24 -1.13,0.77 -1.7,1.8 -1.7,3.08 0,1.24 0.39,2.24 1.16,3.01 0.82,0.72 1.88,1.31 3.16,1.77 1.34,0.41 2.78,0.83 4.32,1.24 1.54,0.41 3.11,0.87 4.71,1.38 1.64,0.52 3.13,1.21 4.47,2.09 1.39,0.87 2.49,2.05 3.31,3.54 0.83,1.44 1.24,3.32 1.24,5.63 0,2.42 -0.67,4.55 -2.01,6.4 -1.28,1.8 -3.11,3.22 -5.47,4.25 -2.32,0.97 -5.01,1.46 -8.1,1.46 z m 30.13,-46.66 c -1.59,0 -2.98,-0.51 -4.16,-1.54 -1.19,-1.08 -1.78,-2.44 -1.78,-4.08 0,-1.75 0.59,-3.14 1.78,-4.17 1.18,-1.03 2.57,-1.54 4.16,-1.54 1.59,0 2.98,0.51 4.16,1.54 1.19,1.03 1.78,2.42 1.78,4.17 0,1.64 -0.59,3 -1.78,4.08 -1.18,1.03 -2.57,1.54 -4.16,1.54 z m -4.4,45.74 v -40.11 h 8.87 v 40.11 z m 20.86,-16.2 v -8.02 h 26.99 v 8.02 z m 38.55,16.2 v -55.68 h 8.87 v 31.92 l 16.89,-16.35 h 10.72 l -15.27,15.74 17.2,24.37 h -10.41 l -13.34,-18.67 -5.79,5.71 v 12.96 z m 45.04,0 v -55.68 h 8.87 v 31.92 l 16.89,-16.35 h 10.72 l -15.27,15.74 17.19,24.37 h -10.41 l -13.34,-18.67 -5.78,5.71 v 12.96 z"
         fill="#ffffff"
         id="path314" />
      <path
         d="m 895.32,1336.82 h 649.03 v 3.85 H 895.32 Z"
         fill="#ffffff"
         id="path316" />
    </g>
  </g>
</svg>
