<?xml version="1.0" encoding="UTF-8" standalone="no"?>
<svg
   width="2160"
   height="3840"
   viewBox="0 0 2160 3840"
   fill="none"
   version="1.1"
   id="svg384"
   xmlns="http://www.w3.org/2000/svg"
   xmlns:svg="http://www.w3.org/2000/svg">
  <rect
     width="2160"
     height="3840"
     fill="#eaeaea"
     id="rect242"
     x="0"
     y="0" />
  <g
     filter="url(#filter0_d_287_23878)"
     id="g276">
    <rect
       width="2160"
       height="600"
       fill="#171717"
       id="rect274"
       x="0"
       y="0" />
  </g>
  <path
     d="m 695.15,440.328 v -21.002 h -20.53 v -7.19 h 20.53 v -20.813 h 7.663 v 20.813 h 20.434 v 7.19 h -20.434 v 21.002 z m 65.69,1.135 c -4.919,0 -9.239,-1.072 -12.961,-3.216 -3.721,-2.208 -6.653,-5.424 -8.798,-9.65 -2.081,-4.226 -3.122,-9.397 -3.122,-15.515 0,-5.298 0.662,-10.407 1.987,-15.326 1.387,-4.92 3.469,-9.303 6.244,-13.15 2.838,-3.911 6.433,-6.97 10.785,-9.177 4.415,-2.271 9.65,-3.406 15.704,-3.406 1.64,0 3.185,0.063 4.636,0.189 1.451,0.126 2.807,0.316 4.068,0.568 v 7.568 c -1.324,-0.252 -2.712,-0.441 -4.163,-0.567 -1.387,-0.126 -2.869,-0.19 -4.446,-0.19 -5.613,0 -10.154,1.136 -13.623,3.406 -3.469,2.208 -6.118,5.172 -7.947,8.893 -1.766,3.658 -2.964,7.632 -3.595,11.92 2.081,-2.838 4.541,-4.793 7.379,-5.865 2.901,-1.135 5.834,-1.703 8.798,-1.703 4.163,0 7.884,0.946 11.164,2.838 3.343,1.892 5.992,4.541 7.947,7.947 1.955,3.343 2.933,7.222 2.933,11.636 0,4.478 -1.01,8.452 -3.028,11.921 -2.018,3.406 -4.762,6.086 -8.231,8.041 -3.468,1.892 -7.379,2.838 -11.731,2.838 z m -0.189,-7.473 c 4.289,0 7.789,-1.388 10.501,-4.163 2.776,-2.775 4.163,-6.433 4.163,-10.974 0,-2.965 -0.631,-5.582 -1.892,-7.853 -1.261,-2.27 -2.996,-4.068 -5.203,-5.392 -2.208,-1.325 -4.731,-1.987 -7.569,-1.987 -2.964,0 -5.613,0.694 -7.947,2.082 -2.333,1.324 -4.162,3.122 -5.487,5.392 -1.324,2.271 -1.986,4.856 -1.986,7.758 0,3.027 0.662,5.676 1.986,7.947 1.388,2.27 3.248,4.036 5.582,5.297 2.334,1.262 4.951,1.893 7.852,1.893 z m 32.117,6.338 v -5.487 l 19.583,-19.867 c 4.163,-4.226 7.411,-7.758 9.744,-10.596 2.334,-2.838 3.974,-5.329 4.92,-7.474 0.946,-2.207 1.419,-4.415 1.419,-6.622 0,-3.343 -1.167,-5.96 -3.501,-7.852 -2.27,-1.893 -5.298,-2.839 -9.082,-2.839 -3.847,0 -7.032,1.041 -9.555,3.122 -2.523,2.082 -3.91,5.078 -4.163,8.988 l -8.136,-0.284 c 0.316,-3.91 1.419,-7.316 3.312,-10.217 1.892,-2.902 4.446,-5.141 7.663,-6.717 3.216,-1.64 6.906,-2.46 11.068,-2.46 4.226,0 7.884,0.757 10.975,2.271 3.153,1.513 5.581,3.626 7.284,6.338 1.766,2.712 2.649,5.834 2.649,9.366 0,2.586 -0.473,5.14 -1.419,7.663 -0.883,2.46 -2.365,5.109 -4.446,7.947 -2.082,2.775 -4.857,5.96 -8.326,9.555 l -17.218,17.786 h 33.774 v 7.379 z m 98.654,1.135 c -4.73,0 -8.893,-0.851 -12.488,-2.554 -3.532,-1.703 -6.307,-4.036 -8.325,-7.001 -2.019,-3.027 -3.028,-6.528 -3.028,-10.501 0,-4.289 1.167,-7.978 3.501,-11.069 2.396,-3.09 5.613,-5.203 9.649,-6.338 -2.901,-1.325 -5.234,-3.248 -7,-5.771 -1.703,-2.586 -2.555,-5.487 -2.555,-8.704 0,-3.532 0.883,-6.591 2.649,-9.177 1.766,-2.649 4.163,-4.698 7.19,-6.149 3.091,-1.451 6.56,-2.176 10.407,-2.176 3.91,0 7.379,0.725 10.406,2.176 3.091,1.451 5.519,3.5 7.285,6.149 1.766,2.586 2.649,5.645 2.649,9.177 0,3.154 -0.883,6.023 -2.649,8.609 -1.703,2.586 -4.036,4.541 -7.001,5.866 4.1,1.135 7.316,3.248 9.65,6.338 2.397,3.091 3.595,6.78 3.595,11.069 0,3.973 -1.009,7.474 -3.027,10.501 -2.019,2.965 -4.825,5.298 -8.42,7.001 -3.595,1.703 -7.758,2.554 -12.488,2.554 z m 0,-40.869 c 3.595,0 6.496,-0.915 8.703,-2.744 2.208,-1.892 3.312,-4.446 3.312,-7.663 0,-3.342 -1.073,-5.991 -3.217,-7.947 -2.144,-1.955 -5.077,-2.932 -8.798,-2.932 -3.658,0 -6.56,0.977 -8.704,2.932 -2.144,1.956 -3.216,4.605 -3.216,7.947 0,3.217 1.072,5.771 3.216,7.663 2.208,1.829 5.109,2.744 8.704,2.744 z m 0,33.585 c 4.73,0 8.483,-1.167 11.258,-3.501 2.775,-2.396 4.162,-5.613 4.162,-9.649 0,-4.037 -1.387,-7.222 -4.162,-9.556 -2.775,-2.333 -6.528,-3.5 -11.258,-3.5 -4.667,0 -8.389,1.167 -11.164,3.5 -2.775,2.334 -4.162,5.519 -4.162,9.556 0,4.036 1.387,7.253 4.162,9.649 2.775,2.334 6.497,3.501 11.164,3.501 z m 56.81,7.284 c -4.478,0 -8.451,-0.82 -11.92,-2.459 -3.469,-1.64 -6.275,-3.942 -8.42,-6.907 -2.081,-3.027 -3.279,-6.496 -3.595,-10.406 l 8.136,-0.284 c 0.379,3.847 2.018,6.906 4.92,9.177 2.901,2.207 6.528,3.311 10.879,3.311 4.668,0 8.389,-1.419 11.164,-4.257 2.775,-2.902 4.162,-6.717 4.162,-11.448 0,-3.027 -0.63,-5.739 -1.892,-8.136 -1.261,-2.396 -3.059,-4.288 -5.392,-5.676 -2.271,-1.387 -4.983,-2.081 -8.136,-2.081 -3.406,0 -6.402,0.757 -8.988,2.27 -2.586,1.451 -4.509,3.154 -5.771,5.109 l -7.19,-1.798 5.204,-34.72 h 37.747 v 7.379 h -31.693 l -2.743,19.3 c 1.829,-1.514 3.942,-2.712 6.338,-3.595 2.46,-0.883 5.077,-1.324 7.853,-1.324 4.541,0 8.546,1.04 12.014,3.121 3.469,2.019 6.181,4.794 8.137,8.326 2.018,3.469 3.027,7.411 3.027,11.825 0,4.668 -1.041,8.767 -3.122,12.299 -2.081,3.469 -4.92,6.181 -8.515,8.136 -3.595,1.892 -7.663,2.838 -12.204,2.838 z m 32.781,-1.135 v -5.487 l 19.587,-19.867 c 4.16,-4.226 7.41,-7.758 9.74,-10.596 2.33,-2.838 3.97,-5.329 4.92,-7.474 0.95,-2.207 1.42,-4.415 1.42,-6.622 0,-3.343 -1.17,-5.96 -3.5,-7.852 -2.27,-1.893 -5.3,-2.839 -9.08,-2.839 -3.85,0 -7.035,1.041 -9.558,3.122 -2.523,2.082 -3.911,5.078 -4.163,8.988 l -8.136,-0.284 c 0.315,-3.91 1.419,-7.316 3.311,-10.217 1.892,-2.902 4.447,-5.141 7.663,-6.717 3.217,-1.64 6.903,-2.46 11.073,-2.46 4.22,0 7.88,0.757 10.97,2.271 3.15,1.513 5.58,3.626 7.28,6.338 1.77,2.712 2.65,5.834 2.65,9.366 0,2.586 -0.47,5.14 -1.42,7.663 -0.88,2.46 -2.36,5.109 -4.44,7.947 -2.08,2.775 -4.86,5.96 -8.33,9.555 l -17.215,17.786 h 33.775 v 7.379 z m 72.917,0 19.3,-25.449 -17.69,-23.556 h 9.37 l 13.05,17.312 13.06,-17.312 h 9.37 l -17.7,23.556 19.21,25.449 h -9.65 l -14.29,-19.11 -14.28,19.11 z m 53.12,0 19.3,-25.449 -17.69,-23.556 h 9.36 l 13.06,17.312 13.05,-17.312 h 9.37 l -17.69,23.556 19.2,25.449 h -9.65 l -14.28,-19.11 -14.29,19.11 z m 53.11,0 19.3,-25.449 -17.69,-23.556 h 9.36 l 13.06,17.312 13.06,-17.312 h 9.36 l -17.69,23.556 19.21,25.449 h -9.65 l -14.29,-19.11 -14.29,19.11 z m 53.11,0 19.3,-25.449 -17.69,-23.556 h 9.37 l 13.05,17.312 13.06,-17.312 h 9.36 l -17.69,23.556 19.21,25.449 h -9.65 l -14.29,-19.11 -14.28,19.11 z m 71.49,0 19.3,-25.449 -17.69,-23.556 h 9.37 l 13.05,17.312 13.06,-17.312 h 9.36 l -17.69,23.556 19.21,25.449 h -9.65 l -14.29,-19.11 -14.28,19.11 z m 53.11,0 19.3,-25.449 -17.69,-23.556 h 9.37 l 13.05,17.312 13.06,-17.312 h 9.36 l -17.69,23.556 19.21,25.449 h -9.65 l -14.29,-19.11 -14.28,19.11 z m 53.12,0 19.3,-25.449 -17.7,-23.556 h 9.37 l 13.06,17.312 13.05,-17.312 h 9.37 l -17.69,23.556 19.2,25.449 h -9.65 l -14.28,-19.11 -14.29,19.11 z m 53.11,0 19.3,-25.449 -17.69,-23.556 h 9.36 l 13.06,17.312 13.05,-17.312 h 9.37 l -17.69,23.556 19.2,25.449 h -9.65 l -14.28,-19.11 -14.29,19.11 z"
     fill="#ffffff"
     id="path278" />
  <path
     d="m 982.452,780.938 v -47.142 h 5.843 v 20.982 h 25.035 v -20.982 h 5.84 v 47.142 h -5.84 v -20.982 h -25.035 v 20.982 z m 56.828,0.796 c -3.54,0 -6.4,-0.885 -8.56,-2.656 -2.17,-1.77 -3.26,-4.138 -3.26,-7.104 0,-3.187 1.02,-5.666 3.06,-7.436 2.08,-1.815 4.8,-3.054 8.16,-3.718 l 12.29,-2.391 v -1.195 c 0,-1.992 -0.8,-3.607 -2.39,-4.847 -1.6,-1.239 -3.77,-1.859 -6.51,-1.859 -2.35,0 -4.36,0.531 -6.04,1.594 -1.64,1.062 -2.7,2.656 -3.19,4.78 l -5.25,-0.265 c 0.62,-3.409 2.26,-6.065 4.92,-7.968 2.65,-1.947 5.86,-2.921 9.63,-2.921 4.47,0 7.96,1.062 10.49,3.187 2.52,2.124 3.78,4.891 3.78,8.299 v 23.704 h -5.31 v -4.648 c -1.02,1.638 -2.52,2.965 -4.52,3.984 -1.99,0.973 -4.42,1.46 -7.3,1.46 z m 0.73,-4.714 c 3.41,0 6.09,-0.863 8.03,-2.589 1.95,-1.727 2.93,-4.139 2.93,-7.237 v -4.183 l -10.89,2.124 c -2.04,0.399 -3.74,1.151 -5.12,2.258 -1.32,1.062 -1.99,2.501 -1.99,4.315 0,1.86 0.69,3.21 2.06,4.051 1.37,0.841 3.03,1.261 4.98,1.261 z m 26.64,3.918 v -34.394 h 5.31 v 5.179 c 1.15,-2.124 2.61,-3.651 4.38,-4.581 1.77,-0.93 3.46,-1.394 5.05,-1.394 1.06,0 1.95,0.155 2.65,0.464 v 5.113 h -0.26 c -0.27,-0.089 -0.58,-0.155 -0.93,-0.199 -0.31,-0.044 -0.84,-0.067 -1.59,-0.067 -1.64,0 -3.17,0.421 -4.59,1.262 -1.37,0.841 -2.47,2.08 -3.32,3.718 -0.84,1.594 -1.26,3.541 -1.26,5.843 v 19.056 z m 26.91,-40.037 c -1.11,0 -2.08,-0.376 -2.92,-1.129 -0.84,-0.797 -1.26,-1.77 -1.26,-2.921 0,-1.195 0.42,-2.169 1.26,-2.922 0.84,-0.796 1.81,-1.195 2.92,-1.195 1.15,0 2.13,0.399 2.92,1.195 0.84,0.753 1.26,1.727 1.26,2.922 0,1.151 -0.42,2.124 -1.26,2.921 -0.79,0.753 -1.77,1.129 -2.92,1.129 z m -2.72,40.037 v -34.394 h 5.44 v 34.394 z m 31.04,-40.037 c -1.1,0 -2.08,-0.376 -2.92,-1.129 -0.84,-0.797 -1.26,-1.77 -1.26,-2.921 0,-1.195 0.42,-2.169 1.26,-2.922 0.84,-0.796 1.82,-1.195 2.92,-1.195 1.15,0 2.13,0.399 2.92,1.195 0.84,0.753 1.26,1.727 1.26,2.922 0,1.151 -0.42,2.124 -1.26,2.921 -0.79,0.753 -1.77,1.129 -2.92,1.129 z m -2.72,40.037 v -34.394 h 5.44 v 34.394 z m 14.89,0 v -34.394 h 5.31 v 4.914 c 2.26,-3.807 5.85,-5.71 10.76,-5.71 4.12,0 7.37,1.328 9.76,3.983 2.39,2.656 3.59,6.286 3.59,10.889 v 20.318 h -5.45 v -20.052 c 0,-3.276 -0.79,-5.821 -2.39,-7.636 -1.55,-1.814 -3.69,-2.722 -6.44,-2.722 -2.88,0 -5.22,0.974 -7.04,2.922 -1.77,1.903 -2.65,4.382 -2.65,7.436 v 20.052 z m 40.92,-40.037 c -1.11,0 -2.08,-0.376 -2.92,-1.129 -0.84,-0.797 -1.26,-1.77 -1.26,-2.921 0,-1.195 0.42,-2.169 1.26,-2.922 0.84,-0.796 1.81,-1.195 2.92,-1.195 1.15,0 2.13,0.399 2.92,1.195 0.84,0.753 1.26,1.727 1.26,2.922 0,1.151 -0.42,2.124 -1.26,2.921 -0.79,0.753 -1.77,1.129 -2.92,1.129 z m -2.72,40.037 v -34.394 h 5.44 v 34.394 z"
     fill="#4b4b4d"
     id="path280" />
  <path
     d="m 135.923,457.29 c 1.553,1.485 3.443,2.295 5.603,2.295 4.522,0 8.032,-3.51 8.032,-7.965 0,-2.228 -0.877,-4.253 -2.43,-5.805 L 99.8781,399.645 147.128,353.61 c 1.553,-1.553 2.43,-3.645 2.43,-5.805 0,-4.455 -3.51,-7.965 -8.032,-7.965 -2.16,0 -4.05,0.81 -5.535,2.295 l -52.5154,51.3 c -1.89,1.755 -2.835,3.915 -2.835,6.277 0,2.363 0.945,4.388 2.7675,6.21 z"
     fill="#3478f6"
     id="path282" />
  <g
     clip-path="url(#clip2_287_23878)"
     id="g288">
    <rect
       x="1910.88"
       y="352.79999"
       width="100.8"
       height="89.279999"
       rx="18.719999"
       stroke="#3478f6"
       stroke-width="8.64"
       id="rect284" />
    <path
       d="m 2013.69,401.29 c -1.96,-2.189 -1.96,-5.508 0,-7.698 l 26.82,-29.86 c 3.53,-3.93 10.05,-1.434 10.05,3.848 v 59.722 c 0,5.282 -6.52,7.778 -10.05,3.849 z"
       stroke="#3478f6"
       stroke-width="8.64"
       id="path286" />
  </g>
  <path
     d="m 2037.17,121.155 c 1.81,0 3.55,1.196 4.83,3.324 1.28,2.127 2,5.013 2,8.023 0,3.009 -0.72,5.895 -2,8.022 -1.28,2.128 -3.02,3.324 -4.83,3.324 v -11.346 z"
     fill="#37c058"
     id="path290" />
  <path
     fill-rule="evenodd"
     clip-rule="evenodd"
     d="M 1921.44,105.184 C 1921,106.04 1921,107.16 1921,109.4 v 46.2 c 0,2.24 0,3.36 0.44,4.216 0.38,0.753 0.99,1.365 1.74,1.748 0.86,0.436 1.98,0.436 4.22,0.436 h 101.09 c 2.24,0 3.36,0 4.21,-0.436 0.76,-0.383 1.37,-0.995 1.75,-1.748 0.44,-0.856 0.44,-1.976 0.44,-4.216 v -46.2 c 0,-2.24 0,-3.36 -0.44,-4.216 -0.38,-0.753 -0.99,-1.365 -1.75,-1.748 C 2031.85,103 2030.73,103 2028.49,103 H 1927.4 c -2.24,0 -3.36,0 -4.22,0.436 -0.75,0.383 -1.36,0.995 -1.74,1.748 z m 53.71,27.295 c 0,2.276 1.06,3.702 2.79,3.702 1.75,0 2.8,-1.426 2.8,-3.702 v -0.009 c 0,-2.281 -1.05,-3.697 -2.8,-3.697 -1.73,0 -2.79,1.416 -2.79,3.697 z m 4.1,0 c 0,1.592 -0.47,2.535 -1.31,2.535 -0.83,0 -1.3,-0.943 -1.3,-2.535 v -0.009 c 0,-1.597 0.47,-2.53 1.3,-2.53 0.84,0 1.31,0.933 1.31,2.53 z"
     fill="#37c058"
     id="path292" />
  <path
     d="m 1939.11,144.344 v -18.092 l -5.09,2.669 v -3.549 l 6.13,-3.329 h 2.76 v 22.301 z m 18.46,0.377 c -1.86,0 -3.49,-0.461 -4.87,-1.382 -1.36,-0.943 -2.42,-2.272 -3.17,-3.989 -0.73,-1.718 -1.1,-3.77 -1.1,-6.157 0,-2.387 0.37,-4.439 1.1,-6.156 0.73,-1.717 1.78,-3.037 3.14,-3.958 1.38,-0.942 3.01,-1.413 4.87,-1.413 1.88,0 3.51,0.46 4.87,1.382 1.36,0.921 2.41,2.24 3.14,3.957 0.75,1.717 1.13,3.78 1.13,6.188 0,2.387 -0.37,4.439 -1.1,6.157 -0.73,1.717 -1.78,3.046 -3.14,3.989 -1.36,0.921 -2.98,1.382 -4.87,1.382 z m 0,-3.455 c 1.72,0 3.02,-0.691 3.9,-2.074 0.9,-1.402 1.35,-3.402 1.35,-5.999 0,-2.617 -0.45,-4.617 -1.35,-5.999 -0.88,-1.382 -2.18,-2.073 -3.9,-2.073 -1.72,0 -3.02,0.701 -3.93,2.104 -0.9,1.382 -1.35,3.372 -1.35,5.968 0,2.576 0.45,4.565 1.35,5.968 0.93,1.403 2.23,2.105 3.93,2.105 z m 22.21,3.455 c -1.86,0 -3.49,-0.461 -4.87,-1.382 -1.36,-0.943 -2.42,-2.272 -3.17,-3.989 -0.73,-1.718 -1.1,-3.77 -1.1,-6.157 0,-2.387 0.37,-4.439 1.1,-6.156 0.73,-1.717 1.78,-3.037 3.14,-3.958 1.38,-0.942 3,-1.413 4.87,-1.413 1.88,0 3.51,0.46 4.87,1.382 1.36,0.921 2.4,2.24 3.14,3.957 0.75,1.717 1.13,3.78 1.13,6.188 0,2.387 -0.37,4.439 -1.1,6.157 -0.73,1.717 -1.78,3.046 -3.14,3.989 -1.36,0.921 -2.99,1.382 -4.87,1.382 z m 0,-3.455 c 1.72,0 3.01,-0.691 3.89,-2.074 0.9,-1.402 1.35,-3.402 1.35,-5.999 0,-2.617 -0.45,-4.617 -1.35,-5.999 -0.88,-1.382 -2.17,-2.073 -3.89,-2.073 -1.72,0 -3.03,0.701 -3.93,2.104 -0.9,1.382 -1.35,3.372 -1.35,5.968 0,2.576 0.45,4.565 1.35,5.968 0.92,1.403 2.23,2.105 3.93,2.105 z m 19.29,-7.822 c -1.13,0 -2.14,-0.251 -3.02,-0.753 -0.86,-0.503 -1.54,-1.194 -2.04,-2.073 -0.48,-0.88 -0.72,-1.875 -0.72,-2.984 0,-1.131 0.24,-2.136 0.72,-3.016 0.5,-0.879 1.18,-1.57 2.04,-2.073 0.88,-0.502 1.89,-0.754 3.02,-0.754 1.13,0 2.12,0.252 2.98,0.754 0.88,0.503 1.56,1.194 2.04,2.073 0.5,0.88 0.76,1.885 0.76,3.016 0,1.109 -0.26,2.104 -0.76,2.984 -0.48,0.879 -1.16,1.57 -2.04,2.073 -0.86,0.502 -1.85,0.753 -2.98,0.753 z m -2.55,10.9 17.15,-22.301 h 3.74 l -17.18,22.301 z m 2.55,-13.601 c 0.83,0 1.52,-0.293 2.07,-0.879 0.56,-0.587 0.85,-1.33 0.85,-2.23 0,-0.922 -0.29,-1.676 -0.85,-2.262 -0.55,-0.607 -1.24,-0.911 -2.07,-0.911 -0.84,0 -1.54,0.304 -2.11,0.911 -0.54,0.586 -0.82,1.34 -0.82,2.262 0,0.9 0.28,1.643 0.82,2.23 0.57,0.586 1.27,0.879 2.11,0.879 z m 15.76,13.852 c -1.13,0 -2.13,-0.251 -3.01,-0.754 -0.86,-0.502 -1.54,-1.193 -2.04,-2.073 -0.48,-0.879 -0.73,-1.884 -0.73,-3.015 0,-1.131 0.25,-2.126 0.73,-2.984 0.5,-0.88 1.18,-1.571 2.04,-2.073 0.88,-0.503 1.88,-0.754 3.01,-0.754 1.13,0 2.13,0.251 2.99,0.754 0.88,0.502 1.56,1.193 2.04,2.073 0.5,0.858 0.75,1.853 0.75,2.984 0,1.131 -0.25,2.136 -0.75,3.015 -0.48,0.88 -1.16,1.571 -2.04,2.073 -0.86,0.503 -1.86,0.754 -2.99,0.754 z m 0,-2.67 c 0.84,0 1.53,-0.293 2.08,-0.879 0.56,-0.608 0.84,-1.372 0.84,-2.293 0,-0.922 -0.28,-1.665 -0.84,-2.23 -0.55,-0.587 -1.24,-0.88 -2.08,-0.88 -0.83,0 -1.54,0.293 -2.1,0.88 -0.57,0.565 -0.85,1.308 -0.85,2.23 0,0.921 0.28,1.685 0.85,2.293 0.56,0.586 1.27,0.879 2.1,0.879 z"
     fill="#000000"
     id="path294" />
  <path
     d="m 1736.67,117.75 c 0,-2.715 2.09,-4.917 4.66,-4.917 h 4.67 c 2.58,0 4.67,2.202 4.67,4.917 v 39.333 c 0,2.716 -2.09,4.917 -4.67,4.917 h -4.67 c -2.57,0 -4.66,-2.201 -4.66,-4.917 z"
     fill="#ffffff"
     id="path296" />
  <path
     d="m 1760,107.917 c 0,-2.716 2.09,-4.917 4.67,-4.917 h 4.66 c 2.58,0 4.67,2.201 4.67,4.917 v 49.166 c 0,2.716 -2.09,4.917 -4.67,4.917 h -4.66 c -2.58,0 -4.67,-2.201 -4.67,-4.917 z"
     fill="#ffffff"
     id="path298" />
  <path
     d="m 1713.33,134.958 c 0,-2.715 2.09,-4.916 4.67,-4.916 h 4.67 c 2.57,0 4.66,2.201 4.66,4.916 v 22.125 c 0,2.716 -2.09,4.917 -4.66,4.917 H 1718 c -2.58,0 -4.67,-2.201 -4.67,-4.917 z"
     fill="#ffffff"
     id="path300" />
  <path
     d="m 1690,147.25 c 0,-2.715 2.09,-4.917 4.67,-4.917 h 4.66 c 2.58,0 4.67,2.202 4.67,4.917 v 9.833 c 0,2.716 -2.09,4.917 -4.67,4.917 h -4.66 c -2.58,0 -4.67,-2.201 -4.67,-4.917 z"
     fill="#ffffff"
     id="path302" />
  <path
     fill-rule="evenodd"
     clip-rule="evenodd"
     d="m 1845.4,116.128 c 12.12,0.001 23.79,4.757 32.58,13.287 0.66,0.658 1.72,0.65 2.37,-0.019 l 6.32,-6.518 c 0.33,-0.339 0.52,-0.798 0.51,-1.276 0,-0.478 -0.19,-0.936 -0.52,-1.271 -23.07,-22.5664 -59.46,-22.5664 -82.53,0 -0.34,0.335 -0.53,0.792 -0.53,1.27 0,0.478 0.18,0.938 0.51,1.277 l 6.33,6.518 c 0.65,0.67 1.71,0.678 2.37,0.019 8.79,-8.53 20.46,-13.287 32.59,-13.287 z m 0.17,19.676 c 6.66,-0.001 13.09,2.527 18.03,7.093 0.67,0.648 1.72,0.633 2.37,-0.032 l 6.32,-6.518 c 0.33,-0.341 0.52,-0.805 0.51,-1.287 0,-0.482 -0.2,-0.942 -0.54,-1.277 -15.04,-14.281 -38.33,-14.281 -53.37,0 -0.34,0.335 -0.53,0.795 -0.54,1.277 0,0.482 0.18,0.946 0.52,1.287 l 6.31,6.518 c 0.65,0.665 1.71,0.68 2.38,0.032 4.93,-4.563 11.35,-7.09 18.01,-7.093 z m 12.85,12.721 c 0.01,0.484 -0.18,0.95 -0.51,1.288 l -10.93,11.26 c -0.32,0.331 -0.76,0.518 -1.22,0.518 -0.45,0 -0.89,-0.187 -1.21,-0.518 l -10.93,-11.26 c -0.34,-0.339 -0.53,-0.805 -0.52,-1.288 0.01,-0.483 0.22,-0.941 0.57,-1.265 6.98,-6.027 17.2,-6.027 24.19,0 0.35,0.324 0.55,0.782 0.56,1.265 z"
     fill="#ffffff"
     id="path304" />
  <path
     d="m 142.332,157 2.556,-12.212 H 134.38 l 0.994,-4.828 h 10.579 l 3.55,-16.756 h -10.579 l 1.065,-4.899 h 10.508 l 2.485,-11.715 h 5.751 l -2.485,11.715 h 13.206 l 2.485,-11.715 h 5.751 l -2.485,11.715 h 10.508 l -0.994,4.899 h -10.508 l -3.55,16.756 h 10.437 l -0.923,4.828 H 169.596 L 167.04,157 h -5.751 l 2.556,-12.212 H 150.639 L 148.083,157 Z m 9.372,-17.04 h 13.206 l 3.55,-16.756 h -13.206 z m 39.722,17.04 20.022,-50.41 h 6.248 L 237.789,157 h -6.958 l -5.112,-13.064 H 203.496 L 198.384,157 Z m 14.129,-18.531 h 18.034 l -9.017,-23.217 z M 253.932,157 240.655,120.222 h 6.248 l 9.869,28.329 11.005,-28.329 h 5.396 l 10.792,28.187 10.011,-28.187 h 6.248 L 286.592,157 h -5.183 L 270.475,128.245 259.257,157 Z m 65.263,0.852 c -3.786,0 -6.839,-0.947 -9.159,-2.84 -2.319,-1.893 -3.479,-4.426 -3.479,-7.597 0,-3.408 1.089,-6.059 3.266,-7.952 2.225,-1.941 5.136,-3.266 8.733,-3.976 l 13.135,-2.556 v -1.278 c 0,-2.13 -0.852,-3.858 -2.556,-5.183 -1.704,-1.325 -4.023,-1.988 -6.958,-1.988 -2.508,0 -4.662,0.568 -6.461,1.704 -1.751,1.136 -2.887,2.84 -3.408,5.112 l -5.609,-0.284 c 0.663,-3.645 2.414,-6.485 5.254,-8.52 2.84,-2.083 6.272,-3.124 10.295,-3.124 4.781,0 8.52,1.136 11.218,3.408 2.698,2.272 4.047,5.23 4.047,8.875 V 157 h -5.68 v -4.97 c -1.088,1.751 -2.698,3.171 -4.828,4.26 -2.13,1.041 -4.733,1.562 -7.81,1.562 z m 0.781,-5.041 c 3.645,0 6.509,-0.923 8.591,-2.769 2.083,-1.846 3.124,-4.426 3.124,-7.739 v -4.473 l -11.644,2.272 c -2.177,0.426 -3.999,1.231 -5.467,2.414 -1.42,1.136 -2.13,2.674 -2.13,4.615 0,1.988 0.734,3.432 2.201,4.331 1.468,0.899 3.243,1.349 5.325,1.349 z m 42.721,5.041 c -2.698,0 -5.135,-0.473 -7.313,-1.42 -2.13,-0.947 -3.834,-2.272 -5.112,-3.976 -1.278,-1.751 -1.988,-3.787 -2.13,-6.106 l 5.396,-0.639 c 0.284,2.13 1.255,3.834 2.911,5.112 1.657,1.278 3.74,1.917 6.248,1.917 2.225,0 4.071,-0.473 5.538,-1.42 1.468,-0.994 2.201,-2.272 2.201,-3.834 0,-1.42 -0.426,-2.532 -1.278,-3.337 -0.852,-0.852 -1.964,-1.515 -3.337,-1.988 -1.372,-0.521 -2.84,-0.97 -4.402,-1.349 -1.467,-0.379 -2.934,-0.805 -4.402,-1.278 -1.42,-0.473 -2.745,-1.089 -3.976,-1.846 -1.183,-0.805 -2.13,-1.822 -2.84,-3.053 -0.71,-1.278 -1.065,-2.887 -1.065,-4.828 0,-3.124 1.16,-5.633 3.479,-7.526 2.367,-1.941 5.444,-2.911 9.23,-2.911 3.645,0 6.698,0.947 9.159,2.84 2.462,1.846 3.834,4.331 4.118,7.455 l -5.467,0.639 c -0.236,-1.799 -1.088,-3.219 -2.556,-4.26 -1.42,-1.041 -3.147,-1.562 -5.183,-1.562 -2.082,0 -3.763,0.45 -5.041,1.349 -1.278,0.899 -1.917,2.083 -1.917,3.55 0,1.373 0.403,2.461 1.207,3.266 0.852,0.805 1.941,1.444 3.266,1.917 1.373,0.426 2.84,0.852 4.402,1.278 1.468,0.379 2.935,0.828 4.402,1.349 1.468,0.473 2.793,1.112 3.976,1.917 1.231,0.805 2.201,1.87 2.911,3.195 0.758,1.278 1.136,2.911 1.136,4.899 0,2.13 -0.591,4 -1.775,5.609 -1.183,1.609 -2.792,2.864 -4.828,3.763 -2.035,0.852 -4.354,1.278 -6.958,1.278 z M 386.898,157 v -50.41 h 6.532 l 18.744,39.689 18.744,-39.689 h 6.532 V 157 h -6.248 V 120.364 L 413.878,157 h -3.337 L 393.146,120.364 V 157 Z m 80.06,0.852 c -3.645,0 -6.887,-0.805 -9.727,-2.414 -2.84,-1.657 -5.088,-3.929 -6.745,-6.816 -1.609,-2.887 -2.414,-6.224 -2.414,-10.011 0,-3.787 0.805,-7.124 2.414,-10.011 1.609,-2.887 3.834,-5.136 6.674,-6.745 2.84,-1.657 6.106,-2.485 9.798,-2.485 3.55,0 6.745,0.805 9.585,2.414 2.84,1.609 5.065,3.858 6.674,6.745 1.657,2.887 2.485,6.248 2.485,10.082 0,3.787 -0.828,7.124 -2.485,10.011 -1.657,2.887 -3.905,5.159 -6.745,6.816 -2.793,1.609 -5.964,2.414 -9.514,2.414 z m 0,-5.254 c 2.414,0 4.591,-0.568 6.532,-1.704 1.941,-1.183 3.455,-2.816 4.544,-4.899 1.136,-2.13 1.704,-4.591 1.704,-7.384 0,-2.793 -0.568,-5.23 -1.704,-7.313 -1.136,-2.13 -2.674,-3.763 -4.615,-4.899 -1.893,-1.183 -4.047,-1.775 -6.461,-1.775 -2.509,0 -4.757,0.592 -6.745,1.775 -1.941,1.136 -3.455,2.769 -4.544,4.899 -1.089,2.083 -1.633,4.52 -1.633,7.313 0,2.793 0.544,5.254 1.633,7.384 1.089,2.083 2.603,3.716 4.544,4.899 1.988,1.136 4.236,1.704 6.745,1.704 z m 45.61,5.254 c -3.55,0 -6.698,-0.805 -9.443,-2.414 -2.746,-1.609 -4.923,-3.858 -6.532,-6.745 -1.562,-2.887 -2.343,-6.248 -2.343,-10.082 0,-3.834 0.781,-7.195 2.343,-10.082 1.609,-2.887 3.786,-5.136 6.532,-6.745 2.792,-1.609 5.916,-2.414 9.372,-2.414 2.792,0 5.372,0.615 7.739,1.846 2.414,1.183 4.307,2.816 5.68,4.899 v -20.377 h 5.822 V 157 h -5.68 v -6.035 c -1.468,2.177 -3.385,3.881 -5.751,5.112 -2.367,1.183 -4.947,1.775 -7.739,1.775 z m 0.426,-5.254 c 2.414,0 4.591,-0.544 6.532,-1.633 1.988,-1.089 3.55,-2.674 4.686,-4.757 1.136,-2.083 1.704,-4.615 1.704,-7.597 0,-2.982 -0.568,-5.514 -1.704,-7.597 -1.136,-2.083 -2.698,-3.668 -4.686,-4.757 -1.941,-1.089 -4.118,-1.633 -6.532,-1.633 -2.462,0 -4.663,0.592 -6.603,1.775 -1.894,1.136 -3.408,2.745 -4.544,4.828 -1.089,2.083 -1.633,4.544 -1.633,7.384 0,2.793 0.544,5.254 1.633,7.384 1.136,2.083 2.65,3.716 4.544,4.899 1.94,1.136 4.141,1.704 6.603,1.704 z m 43.024,5.254 c -3.976,0 -7.242,-1.231 -9.798,-3.692 -2.556,-2.509 -3.834,-6.319 -3.834,-11.431 v -22.507 h 5.822 v 22.01 c 0,3.787 0.852,6.461 2.556,8.023 1.704,1.562 3.834,2.343 6.39,2.343 2.982,0 5.443,-0.899 7.384,-2.698 1.94,-1.799 2.911,-4.355 2.911,-7.668 v -22.01 h 5.822 V 157 h -5.68 v -5.112 c -1.231,2.035 -2.864,3.55 -4.899,4.544 -1.988,0.947 -4.213,1.42 -6.674,1.42 z m 40.341,0 c -2.698,0 -5.135,-0.473 -7.313,-1.42 -2.13,-0.947 -3.834,-2.272 -5.112,-3.976 -1.278,-1.751 -1.988,-3.787 -2.13,-6.106 l 5.396,-0.639 c 0.284,2.13 1.255,3.834 2.911,5.112 1.657,1.278 3.74,1.917 6.248,1.917 2.225,0 4.071,-0.473 5.538,-1.42 1.468,-0.994 2.201,-2.272 2.201,-3.834 0,-1.42 -0.426,-2.532 -1.278,-3.337 -0.852,-0.852 -1.964,-1.515 -3.337,-1.988 -1.372,-0.521 -2.84,-0.97 -4.402,-1.349 -1.467,-0.379 -2.934,-0.805 -4.402,-1.278 -1.42,-0.473 -2.745,-1.089 -3.976,-1.846 -1.183,-0.805 -2.13,-1.822 -2.84,-3.053 -0.71,-1.278 -1.065,-2.887 -1.065,-4.828 0,-3.124 1.16,-5.633 3.479,-7.526 2.367,-1.941 5.444,-2.911 9.23,-2.911 3.645,0 6.698,0.947 9.159,2.84 2.462,1.846 3.834,4.331 4.118,7.455 l -5.467,0.639 c -0.236,-1.799 -1.088,-3.219 -2.556,-4.26 -1.42,-1.041 -3.147,-1.562 -5.183,-1.562 -2.082,0 -3.763,0.45 -5.041,1.349 -1.278,0.899 -1.917,2.083 -1.917,3.55 0,1.373 0.403,2.461 1.207,3.266 0.852,0.805 1.941,1.444 3.266,1.917 1.373,0.426 2.84,0.852 4.402,1.278 1.468,0.379 2.935,0.828 4.402,1.349 1.468,0.473 2.793,1.112 3.976,1.917 1.231,0.805 2.201,1.87 2.911,3.195 0.758,1.278 1.136,2.911 1.136,4.899 0,2.13 -0.591,4 -1.775,5.609 -1.183,1.609 -2.792,2.864 -4.828,3.763 -2.035,0.852 -4.354,1.278 -6.958,1.278 z"
     fill="#ffffff"
     id="path306" />
  <defs
     id="defs382">
    <filter
       id="filter0_d_287_23878"
       x="0"
       y="0"
       width="2160"
       height="602.88"
       filterUnits="userSpaceOnUse"
       color-interpolation-filters="sRGB">
      <feFlood
         flood-opacity="0"
         result="BackgroundImageFix"
         id="feFlood342" />
      <feColorMatrix
         in="SourceAlpha"
         type="matrix"
         values="0 0 0 0 0 0 0 0 0 0 0 0 0 0 0 0 0 0 127 0"
         result="hardAlpha"
         id="feColorMatrix344" />
      <feOffset
         dy="2.88"
         id="feOffset346" />
      <feColorMatrix
         type="matrix"
         values="0 0 0 0 0.698039 0 0 0 0 0.698039 0 0 0 0 0.698039 0 0 0 1 0"
         id="feColorMatrix348" />
      <feBlend
         mode="normal"
         in2="BackgroundImageFix"
         result="effect1_dropShadow_287_23878"
         id="feBlend350" />
      <feBlend
         mode="normal"
         in="SourceGraphic"
         in2="effect1_dropShadow_287_23878"
         result="shape"
         id="feBlend352" />
    </filter>
    <filter
       id="filter1_d_287_23878"
       x="115.853"
       y="909"
       width="1638.65"
       height="541.11"
       filterUnits="userSpaceOnUse"
       color-interpolation-filters="sRGB">
      <feFlood
         flood-opacity="0"
         result="BackgroundImageFix"
         id="feFlood355" />
      <feColorMatrix
         in="SourceAlpha"
         type="matrix"
         values="0 0 0 0 0 0 0 0 0 0 0 0 0 0 0 0 0 0 127 0"
         result="hardAlpha"
         id="feColorMatrix357" />
      <feOffset
         dy="5.14676"
         id="feOffset359" />
      <feGaussianBlur
         stdDeviation="2.57338"
         id="feGaussianBlur361" />
      <feColorMatrix
         type="matrix"
         values="0 0 0 0 0 0 0 0 0 0 0 0 0 0 0 0 0 0 0.2 0"
         id="feColorMatrix363" />
      <feBlend
         mode="normal"
         in2="BackgroundImageFix"
         result="effect1_dropShadow_287_23878"
         id="feBlend365" />
      <feBlend
         mode="normal"
         in="SourceGraphic"
         in2="effect1_dropShadow_287_23878"
         result="shape"
         id="feBlend367" />
    </filter>
    <clipPath
       id="clip0_287_23878">
      <rect
         width="2160"
         height="3840"
         fill="white"
         id="rect370" />
    </clipPath>
    <clipPath
       id="clip1_287_23878">
      <rect
         width="2160"
         height="259.2"
         fill="white"
         transform="translate(0 2287)"
         id="rect373" />
    </clipPath>
    <clipPath
       id="clip2_287_23878">
      <rect
         width="149.76"
         height="149.76"
         fill="white"
         transform="translate(1906.56 322.559)"
         id="rect376" />
    </clipPath>
    <clipPath
       id="clip3_287_23878">
      <rect
         width="40.884"
         height="92.281"
         fill="white"
         transform="matrix(-1 0 0 1 161.885 1314.89)"
         id="rect379" />
    </clipPath>
  </defs>
</svg>
