<svg width="1382" height="2033" viewBox="0 0 1382 2033" fill="none" xmlns="http://www.w3.org/2000/svg">
<path d="M0.738572 175L68.4886 3.20542H98.0082L166 175H133.819L118.333 134.834H48.6475L33.1618 175H0.738572ZM57.8421 108.944H108.897L83.4903 41.4358L57.8421 108.944ZM196.506 227.022C193.28 227.022 190.215 226.78 187.312 226.296C184.408 225.812 182.069 225.087 180.295 224.119V200.406H182.715C183.844 200.729 185.215 200.971 186.828 201.132C188.441 201.455 190.377 201.616 192.635 201.616C197.152 201.616 201.346 199.922 205.217 196.535C209.25 193.147 212.799 187.34 215.864 179.113L219.977 168.951L168.923 49.1786H198.442L234.253 135.56L270.064 49.1786H299.341L242.48 183.953C239.092 192.179 235.463 199.519 231.591 205.971C227.881 212.424 223.284 217.505 217.799 221.215C212.315 225.087 205.217 227.022 196.506 227.022ZM378.702 177.904C366.12 177.904 354.828 175.081 344.827 169.435C334.826 163.789 326.921 156.046 321.114 146.206C315.468 136.205 312.646 124.833 312.646 112.089C312.646 99.1846 315.468 87.8122 321.114 77.9724C326.921 68.1325 334.745 60.3896 344.585 54.7438C354.586 49.098 365.958 46.2751 378.702 46.2751C391.284 46.2751 402.495 49.098 412.335 54.7438C422.175 60.2283 429.917 67.9712 435.563 77.9724C441.37 87.8122 444.274 99.1846 444.274 112.089C444.274 124.833 441.37 136.205 435.563 146.206C429.917 156.046 422.094 163.789 412.093 169.435C402.253 175.081 391.123 177.904 378.702 177.904ZM378.702 152.739C385.799 152.739 392.171 151.046 397.817 147.658C403.463 144.271 407.899 139.512 411.125 133.382C414.351 127.252 415.964 120.155 415.964 112.089C415.964 103.863 414.27 96.6843 410.883 90.5545C407.657 84.4247 403.221 79.6661 397.575 76.2786C392.09 72.8911 385.799 71.1974 378.702 71.1974C367.571 71.1974 358.457 74.9881 351.36 82.5697C344.423 89.9899 340.955 99.8298 340.955 112.089C340.955 124.188 344.423 134.027 351.36 141.609C358.457 149.029 367.571 152.739 378.702 152.739ZM581.738 177.904C569.64 177.904 558.832 175.161 549.315 169.677C539.798 164.031 532.216 156.288 526.57 146.448C521.086 136.608 518.343 125.155 518.343 112.089C518.343 99.0232 521.086 87.5703 526.57 77.7304C532.216 67.7292 539.798 59.9864 549.315 54.5018C558.832 49.0173 569.479 46.2751 581.254 46.2751C589.804 46.2751 597.627 47.9688 604.725 51.3563C611.984 54.5825 617.871 59.0185 622.388 64.6643V0.301841H650.214V175H624.324V157.579C619.646 164.192 613.516 169.274 605.934 172.822C598.514 176.21 590.449 177.904 581.738 177.904ZM584.4 152.739C595.046 152.739 603.999 149.19 611.258 142.093C618.678 134.834 622.388 124.833 622.388 112.089C622.388 99.1846 618.678 89.1834 611.258 82.0858C603.999 74.8268 595.046 71.1974 584.4 71.1974C577.302 71.1974 570.85 72.8911 565.043 76.2786C559.397 79.6661 554.88 84.4247 551.493 90.5545C548.266 96.6843 546.653 103.863 546.653 112.089C546.653 120.316 548.266 127.494 551.493 133.624C554.88 139.593 559.397 144.271 565.043 147.658C570.85 151.046 577.302 152.739 584.4 152.739ZM727.618 177.904C713.745 177.904 702.454 173.548 693.743 164.838C685.032 155.965 680.677 143.141 680.677 126.365V49.1786H708.503V123.462C708.503 133.785 710.922 141.286 715.762 145.964C720.762 150.642 726.973 152.981 734.393 152.981C742.942 152.981 749.879 150.4 755.202 145.238C760.686 140.077 763.429 132.818 763.429 123.462V49.1786H791.254V175H765.364V159.998C761.17 166.128 755.686 170.645 748.911 173.548C742.297 176.452 735.199 177.904 727.618 177.904ZM821.744 175V0.301841H849.57V100.475L902.56 49.1786H936.193L888.284 98.5393L942.242 175H909.577L867.717 116.445L849.57 134.35V175H821.744ZM1003.73 177.904C989.859 177.904 978.567 173.548 969.856 164.838C961.145 155.965 956.79 143.141 956.79 126.365V49.1786H984.616V123.462C984.616 133.785 987.036 141.286 991.875 145.964C996.876 150.642 1003.09 152.981 1010.51 152.981C1019.06 152.981 1025.99 150.4 1031.32 145.238C1036.8 140.077 1039.54 132.818 1039.54 123.462V49.1786H1067.37V175H1041.48V159.998C1037.28 166.128 1031.8 170.645 1025.02 173.548C1018.41 176.452 1011.31 177.904 1003.73 177.904ZM1097.86 175V49.1786H1123.75V65.3902C1127.46 59.0992 1132.7 54.3405 1139.47 51.1143C1146.41 47.8881 1153.83 46.2751 1161.74 46.2751C1176.58 46.2751 1188.35 51.1143 1197.06 60.7929C1205.77 70.3102 1210.13 83.4569 1210.13 100.233V175H1182.3V101.927C1182.3 92.2482 1179.88 84.6667 1175.04 79.1822C1170.2 73.5363 1163.51 70.7134 1154.96 70.7134C1146.25 70.7134 1139.15 73.617 1133.67 79.4241C1128.34 85.2313 1125.68 92.7322 1125.68 101.927V175H1097.86ZM1301.98 227.748C1291.82 227.748 1282.38 225.974 1273.67 222.425C1264.96 218.876 1257.7 213.714 1251.89 206.939C1246.09 200.164 1242.3 192.018 1240.52 182.501L1266.9 179.839C1269.64 187.26 1274.15 192.905 1280.45 196.777C1286.9 200.648 1294 202.584 1301.74 202.584C1308.35 202.584 1314.4 201.132 1319.89 198.229C1325.53 195.486 1330.05 191.292 1333.44 185.646C1336.82 180.162 1338.52 173.306 1338.52 165.079V153.223C1334.32 158.708 1328.6 163.144 1321.34 166.531C1314.08 169.757 1306.26 171.371 1297.87 171.371C1286.09 171.371 1275.53 168.628 1266.17 163.144C1256.81 157.659 1249.39 150.239 1243.91 140.883C1238.42 131.366 1235.68 120.639 1235.68 108.702C1235.68 96.7649 1238.34 86.1185 1243.67 76.7625C1249.15 67.2453 1256.57 59.825 1265.93 54.5018C1275.45 49.0173 1286.25 46.2751 1298.35 46.2751C1306.74 46.2751 1314.72 47.9688 1322.31 51.3563C1329.89 54.5825 1335.94 59.4218 1340.45 65.8741V49.1786H1366.34V165.079C1366.34 177.984 1363.52 189.115 1357.87 198.471C1352.23 207.826 1344.57 215.005 1334.89 220.005C1325.21 225.167 1314.24 227.748 1301.98 227.748ZM1301.25 146.206C1311.74 146.206 1320.53 142.899 1327.63 136.286C1334.89 129.672 1338.52 120.558 1338.52 108.944C1338.52 97.1682 1334.89 87.9735 1327.63 81.3599C1320.53 74.5849 1311.74 71.1974 1301.25 71.1974C1290.45 71.1974 1281.49 74.6655 1274.4 81.6018C1267.46 88.5381 1263.99 97.6521 1263.99 108.944C1263.99 119.913 1267.46 128.865 1274.4 135.802C1281.49 142.738 1290.45 146.206 1301.25 146.206ZM279.847 536.748C269.685 536.748 260.248 534.974 251.537 531.425C242.827 527.876 235.568 522.714 229.76 515.939C223.953 509.164 220.163 501.018 218.388 491.501L244.762 488.839C247.505 496.26 252.021 501.905 258.312 505.777C264.765 509.648 271.862 511.584 279.605 511.584C286.219 511.584 292.268 510.132 297.752 507.229C303.398 504.486 307.915 500.292 311.302 494.646C314.69 489.162 316.384 482.306 316.384 474.079V462.223C312.19 467.708 306.463 472.144 299.204 475.531C291.945 478.757 284.122 480.371 275.734 480.371C263.958 480.371 253.392 477.628 244.036 472.144C234.68 466.659 227.26 459.239 221.776 449.883C216.291 440.366 213.549 429.639 213.549 417.702C213.549 405.765 216.211 395.118 221.534 385.763C227.018 376.245 234.438 368.825 243.794 363.502C253.312 358.017 264.119 355.275 276.218 355.275C284.606 355.275 292.591 356.969 300.172 360.356C307.754 363.582 313.803 368.422 318.319 374.874V358.179H344.21V474.079C344.21 486.984 341.387 498.115 335.741 507.471C330.095 516.826 322.433 524.005 312.754 529.005C303.076 534.167 292.107 536.748 279.847 536.748ZM279.121 455.206C289.606 455.206 298.398 451.899 305.495 445.286C312.754 438.672 316.384 429.558 316.384 417.944C316.384 406.168 312.754 396.974 305.495 390.36C298.398 383.585 289.606 380.197 279.121 380.197C268.313 380.197 259.361 383.666 252.263 390.602C245.327 397.538 241.859 406.652 241.859 417.944C241.859 428.913 245.327 437.865 252.263 444.802C259.361 451.738 268.313 455.206 279.121 455.206ZM438.574 486.904C426.153 486.904 414.942 484.081 404.941 478.435C394.94 472.789 387.035 465.046 381.228 455.206C375.421 445.205 372.517 433.833 372.517 421.089C372.517 408.185 375.34 396.812 380.986 386.972C386.793 377.132 394.617 369.39 404.457 363.744C414.297 358.098 425.266 355.275 437.364 355.275C450.591 355.275 461.883 358.017 471.239 363.502C480.595 368.825 487.773 376.003 492.774 385.037C497.936 393.909 500.517 403.668 500.517 414.314C500.517 417.057 500.355 419.718 500.033 422.299C499.871 424.88 499.468 427.219 498.823 429.316H400.343C400.989 436.898 403.166 443.35 406.876 448.673C410.748 453.996 415.426 458.029 420.91 460.771C426.556 463.352 432.444 464.643 438.574 464.643C446.962 464.643 454.14 462.707 460.109 458.836C466.238 454.803 470.19 449.318 471.965 442.382L498.823 443.834C495.274 457.384 488.015 467.95 477.046 475.531C466.238 483.113 453.414 486.904 438.574 486.904ZM400.585 408.749H472.933C472.771 399.232 469.384 391.57 462.77 385.763C456.156 379.794 447.688 376.81 437.364 376.81C431.718 376.81 426.234 378.02 420.91 380.439C415.587 382.698 411.07 386.166 407.36 390.844C403.812 395.522 401.553 401.49 400.585 408.749ZM528.528 484V358.179H554.418V375.116C558.451 368.018 563.612 362.937 569.904 359.872C576.195 356.807 582.082 355.275 587.567 355.275C589.825 355.275 591.842 355.436 593.616 355.759C595.552 356.082 597.084 356.485 598.213 356.969V382.859H597.004C595.713 382.536 594.181 382.294 592.406 382.133C590.632 381.81 588.615 381.649 586.357 381.649C578.292 381.649 571.275 384.633 565.306 390.602C559.338 396.409 556.354 404.797 556.354 415.766V484H528.528ZM659.323 486.904C646.579 486.904 636.255 483.677 628.351 477.225C620.447 470.611 616.495 461.901 616.495 451.093C616.495 442.866 618.35 436.01 622.06 430.526C625.77 425.041 630.771 420.686 637.062 417.46C643.353 414.234 650.289 411.895 657.871 410.443L699.973 402.216V398.829C699.973 392.699 697.472 387.779 692.472 384.069C687.471 380.197 680.777 378.262 672.389 378.262C665.13 378.262 658.919 379.875 653.757 383.101C648.595 386.327 645.289 391.247 643.837 397.861L617.463 396.651C618.753 387.779 621.979 380.278 627.141 374.148C632.303 368.018 638.836 363.341 646.74 360.114C654.645 356.888 663.355 355.275 672.873 355.275C690.294 355.275 703.763 359.308 713.281 367.373C722.959 375.439 727.798 385.924 727.798 398.829V484H701.182V468.756C697.311 474.563 691.665 479.08 684.245 482.306C676.986 485.371 668.679 486.904 659.323 486.904ZM665.372 464.885C675.857 464.885 684.245 462.223 690.536 456.9C696.827 451.577 699.973 443.915 699.973 433.913V422.783L665.614 429.316C659.484 430.445 654.403 432.623 650.37 435.849C646.337 438.914 644.321 443.189 644.321 448.673C644.321 454.158 646.337 458.271 650.37 461.013C654.403 463.594 659.403 464.885 665.372 464.885ZM765.653 484V309.302H793.478V409.475L846.469 358.179H880.102L832.193 407.539L886.151 484H853.486L811.626 425.445L793.478 443.35V484H765.653ZM942.525 486.904C929.781 486.904 919.457 483.677 911.553 477.225C903.649 470.611 899.697 461.901 899.697 451.093C899.697 442.866 901.552 436.01 905.262 430.526C908.972 425.041 913.973 420.686 920.264 417.46C926.555 414.234 933.491 411.895 941.073 410.443L983.175 402.216V398.829C983.175 392.699 980.674 387.779 975.674 384.069C970.673 380.197 963.979 378.262 955.591 378.262C948.332 378.262 942.121 379.875 936.959 383.101C931.798 386.327 928.491 391.247 927.039 397.861L900.665 396.651C901.955 387.779 905.181 380.278 910.343 374.148C915.505 368.018 922.038 363.341 929.942 360.114C937.847 356.888 946.557 355.275 956.075 355.275C973.496 355.275 986.965 359.308 996.483 367.373C1006.16 375.439 1011 385.924 1011 398.829V484H984.384V468.756C980.513 474.563 974.867 479.08 967.447 482.306C960.188 485.371 951.881 486.904 942.525 486.904ZM948.574 464.885C959.059 464.885 967.447 462.223 973.738 456.9C980.029 451.577 983.175 443.915 983.175 433.913V422.783L948.816 429.316C942.686 430.445 937.605 432.623 933.572 435.849C929.539 438.914 927.523 443.189 927.523 448.673C927.523 454.158 929.539 458.271 933.572 461.013C937.605 463.594 942.605 464.885 948.574 464.885ZM1048.85 484V358.179H1074.74V374.39C1078.45 368.099 1083.7 363.341 1090.47 360.114C1097.41 356.888 1104.83 355.275 1112.73 355.275C1127.57 355.275 1139.35 360.114 1148.06 369.793C1156.77 379.31 1161.13 392.457 1161.13 409.233V484H1133.3V410.927C1133.3 401.248 1130.88 393.667 1126.04 388.182C1121.2 382.536 1114.51 379.713 1105.96 379.713C1097.25 379.713 1090.15 382.617 1084.67 388.424C1079.34 394.231 1076.68 401.732 1076.68 410.927V484H1048.85Z" fill="#154F8C"/>
<path d="M7.24417 794V622.205H67.2513C86.931 622.205 103.707 625.674 117.58 632.61C131.614 639.385 142.341 649.144 149.761 661.888C157.181 674.631 160.891 690.036 160.891 708.103C160.891 725.685 157.101 740.929 149.519 753.834C142.099 766.739 131.372 776.659 117.338 783.596C103.304 790.532 86.6084 794 67.2513 794H7.24417ZM44.7486 760.609H68.4611C85.7212 760.609 99.1906 755.931 108.869 746.575C118.548 737.058 123.387 724.234 123.387 708.103C123.387 692.294 118.548 679.632 108.869 670.114C99.1906 660.436 85.7212 655.596 68.4611 655.596H44.7486V760.609ZM249.146 796.904C236.403 796.904 224.869 794 214.545 788.193C204.383 782.386 196.317 774.482 190.349 764.48C184.542 754.479 181.638 743.188 181.638 730.605C181.638 718.023 184.542 706.732 190.349 696.73C196.317 686.729 204.383 678.906 214.545 673.26C224.708 667.453 236.241 664.549 249.146 664.549C262.212 664.549 273.826 667.453 283.989 673.26C294.151 678.906 302.136 686.729 307.943 696.73C313.75 706.57 316.654 717.862 316.654 730.605C316.654 743.349 313.67 754.721 307.701 764.722C301.894 774.724 293.909 782.628 283.747 788.435C273.584 794.081 262.051 796.904 249.146 796.904ZM249.146 764.238C258.018 764.238 265.358 761.093 271.165 754.802C276.972 748.511 279.875 740.445 279.875 730.605C279.875 720.766 276.972 712.781 271.165 706.651C265.358 700.36 258.018 697.214 249.146 697.214C240.274 697.214 232.934 700.36 227.127 706.651C221.32 712.781 218.417 720.766 218.417 730.605C218.417 740.445 221.32 748.511 227.127 754.802C232.934 761.093 240.274 764.238 249.146 764.238ZM341.429 794V667.453H374.336V681.729C378.207 675.921 383.531 671.647 390.306 668.905C397.081 666.001 403.936 664.549 410.873 664.549C425.552 664.549 437.166 669.388 445.715 679.067C454.426 688.584 458.781 701.731 458.781 718.507V794H422.487V721.169C422.487 713.587 420.471 707.619 416.438 703.263C412.405 698.908 407.001 696.73 400.226 696.73C393.612 696.73 388.209 698.989 384.015 703.505C379.821 708.022 377.723 713.91 377.723 721.169V794H341.429ZM489.123 693.343V677.373C494.608 677.373 499.205 676.325 502.915 674.228C506.787 671.969 509.126 668.824 509.932 664.791C509.61 664.952 508.884 665.033 507.755 665.033C501.786 665.033 496.544 663.097 492.027 659.226C487.672 655.355 485.494 649.951 485.494 643.014C485.494 635.917 487.672 630.432 492.027 626.561C496.544 622.689 501.786 620.754 507.755 620.754C514.53 620.754 519.853 623.173 523.724 628.013C527.757 632.852 529.773 639.466 529.773 647.854C529.773 661.242 526.144 672.211 518.885 680.761C511.787 689.149 501.867 693.343 489.123 693.343ZM616.478 796.904C604.218 796.904 594.217 793.516 586.474 786.741C578.893 779.805 575.102 769.965 575.102 757.221V697.94H552.357V667.453H575.102V639.869L609.461 627.771H611.397V667.453H638.497V697.94H611.397V753.592C611.397 758.109 612.606 761.738 615.026 764.48C617.446 767.061 621.156 768.352 626.156 768.352C627.931 768.352 629.786 768.19 631.722 767.868C633.819 767.384 635.674 766.819 637.287 766.174H638.497V792.79C635.754 794.081 632.367 795.049 628.334 795.694C624.463 796.5 620.511 796.904 616.478 796.904ZM716.256 794V622.205H753.76V692.859L815.945 622.205H861.192L797.072 697.214L866.758 794H820.784L770.94 725.524L753.76 745.123V794H716.256ZM886.51 794V667.453H919.417V681.729C923.288 675.921 928.612 671.647 935.387 668.905C942.162 666.001 949.017 664.549 955.954 664.549C970.633 664.549 982.247 669.388 990.796 679.067C999.507 688.584 1003.86 701.731 1003.86 718.507V794H967.568V721.169C967.568 713.587 965.552 707.619 961.519 703.263C957.486 698.908 952.082 696.73 945.307 696.73C938.694 696.73 933.29 698.989 929.096 703.505C924.902 708.022 922.805 713.91 922.805 721.169V794H886.51ZM1093.97 796.904C1081.23 796.904 1069.69 794 1059.37 788.193C1049.21 782.386 1041.14 774.482 1035.17 764.48C1029.37 754.479 1026.46 743.188 1026.46 730.605C1026.46 718.023 1029.37 706.732 1035.17 696.73C1041.14 686.729 1049.21 678.906 1059.37 673.26C1069.53 667.453 1081.06 664.549 1093.97 664.549C1107.04 664.549 1118.65 667.453 1128.81 673.26C1138.97 678.906 1146.96 686.729 1152.77 696.73C1158.57 706.57 1161.48 717.862 1161.48 730.605C1161.48 743.349 1158.49 754.721 1152.52 764.722C1146.72 774.724 1138.73 782.628 1128.57 788.435C1118.41 794.081 1106.87 796.904 1093.97 796.904ZM1093.97 764.238C1102.84 764.238 1110.18 761.093 1115.99 754.802C1121.8 748.511 1124.7 740.445 1124.7 730.605C1124.7 720.766 1121.8 712.781 1115.99 706.651C1110.18 700.36 1102.84 697.214 1093.97 697.214C1085.1 697.214 1077.76 700.36 1071.95 706.651C1066.14 712.781 1063.24 720.766 1063.24 730.605C1063.24 740.445 1066.14 748.511 1071.95 754.802C1077.76 761.093 1085.1 764.238 1093.97 764.238ZM1217.84 794L1171.14 667.453H1210.82L1235.02 736.413L1261.88 667.453H1291.88L1316.56 736.654L1342.93 667.453H1381.89L1331.32 794H1303.25L1275.67 716.571L1246.39 794H1217.84ZM147.574 1104V932.205H185.078V1002.86L247.263 932.205H292.51L228.39 1007.21L298.076 1104H252.102L202.258 1035.52L185.078 1055.12V1104H147.574ZM352.266 1106.9C339.523 1106.9 329.199 1103.6 321.295 1096.98C313.552 1090.21 309.68 1081.42 309.68 1070.61C309.68 1061.9 311.697 1054.8 315.73 1049.32C319.762 1043.83 324.924 1039.56 331.215 1036.49C337.668 1033.43 344.443 1031.25 351.54 1029.96L390.738 1022.7V1020.04C390.738 1014.88 388.641 1010.84 384.447 1007.94C380.253 1004.88 374.85 1003.34 368.236 1003.34C362.59 1003.34 357.589 1004.63 353.234 1007.21C349.04 1009.8 346.298 1013.83 345.007 1019.31L310.89 1018.1C312.181 1008.59 315.488 1000.6 320.811 994.148C326.295 987.696 333.151 982.857 341.378 979.63C349.766 976.243 358.961 974.549 368.962 974.549C387.674 974.549 402.03 978.824 412.031 987.373C422.033 995.761 427.033 1006.65 427.033 1020.04V1104H392.674V1090.69C388.641 1096.18 382.996 1100.29 375.737 1103.03C368.478 1105.61 360.654 1106.9 352.266 1106.9ZM361.703 1079.8C370.252 1079.8 377.189 1077.63 382.512 1073.27C387.996 1068.92 390.738 1062.54 390.738 1054.16V1047.14L361.945 1052.46C357.105 1053.27 353.153 1054.88 350.089 1057.3C347.185 1059.56 345.733 1062.79 345.733 1066.98C345.733 1071.01 347.185 1074.16 350.089 1076.42C353.153 1078.67 357.025 1079.8 361.703 1079.8ZM508.857 1106.9C492.403 1106.9 479.256 1103.27 469.417 1096.02C459.738 1088.76 454.657 1078.76 454.173 1066.01L487.564 1062.87C488.37 1068.83 490.629 1073.27 494.339 1076.17C498.21 1079.08 502.888 1080.53 508.373 1080.53C513.051 1080.53 516.842 1079.64 519.745 1077.87C522.81 1075.93 524.342 1073.27 524.342 1069.88C524.342 1065.37 521.923 1062.14 517.084 1060.2C512.406 1058.11 506.84 1056.25 500.388 1054.64C495.549 1053.35 490.548 1051.9 485.386 1050.28C480.386 1048.51 475.708 1046.25 471.352 1043.51C466.997 1040.77 463.448 1037.14 460.706 1032.62C458.125 1027.94 456.834 1022.05 456.834 1014.96C456.834 1002.54 461.27 992.696 470.142 985.438C479.176 978.179 491.274 974.549 506.437 974.549C521.761 974.549 534.263 977.937 543.942 984.712C553.62 991.487 558.782 1000.76 559.427 1012.54L525.794 1015.68C525.149 1010.52 523.052 1006.73 519.503 1004.31C515.954 1001.89 512.002 1000.68 507.647 1000.68C503.13 1000.68 499.581 1001.65 497 1003.58C494.42 1005.36 493.129 1007.86 493.129 1011.09C493.129 1015.6 495.468 1018.91 500.146 1021.01C504.985 1022.94 510.631 1024.64 517.084 1026.09C521.923 1027.22 526.843 1028.67 531.843 1030.44C537.005 1032.06 541.764 1034.31 546.119 1037.22C550.475 1039.96 553.943 1043.75 556.524 1048.59C559.266 1053.27 560.637 1059.4 560.637 1066.98C560.637 1079.08 555.878 1088.76 546.361 1096.02C537.005 1103.27 524.504 1106.9 508.857 1106.9ZM604.308 962.935C598.339 962.935 593.097 961.08 588.58 957.37C584.225 953.66 582.047 948.578 582.047 942.126C582.047 935.512 584.225 930.35 588.58 926.64C593.097 922.93 598.339 921.075 604.308 921.075C610.276 921.075 615.438 922.93 619.794 926.64C624.149 930.35 626.327 935.512 626.327 942.126C626.327 948.578 624.149 953.66 619.794 957.37C615.438 961.08 610.276 962.935 604.308 962.935ZM586.161 1104V977.453H622.455V1104H586.161ZM652.485 1104V931.963H688.78V989.551C692.813 984.389 697.813 980.598 703.782 978.179C709.911 975.759 715.96 974.549 721.929 974.549C736.447 974.549 748.061 979.308 756.772 988.825C765.482 998.342 769.838 1011.57 769.838 1028.51V1104H733.543V1031.17C733.543 1023.26 731.446 1017.22 727.252 1013.02C723.219 1008.83 717.896 1006.73 711.282 1006.73C704.669 1006.73 699.265 1008.99 695.071 1013.51C690.877 1017.86 688.78 1023.75 688.78 1031.17V1104H652.485ZM850.442 1104V932.205H885.769L960.052 1036.73V932.205H997.072V1104H961.746L887.463 997.778V1104H850.442ZM1091.87 1106.9C1079.13 1106.9 1067.59 1104 1057.27 1098.19C1047.11 1092.39 1039.04 1084.48 1033.07 1074.48C1027.27 1064.48 1024.36 1053.19 1024.36 1040.61C1024.36 1028.02 1027.27 1016.73 1033.07 1006.73C1039.04 996.729 1047.11 988.906 1057.27 983.26C1067.43 977.453 1078.97 974.549 1091.87 974.549C1104.94 974.549 1116.55 977.453 1126.71 983.26C1136.88 988.906 1144.86 996.729 1150.67 1006.73C1156.48 1016.57 1159.38 1027.86 1159.38 1040.61C1159.38 1053.35 1156.4 1064.72 1150.43 1074.72C1144.62 1084.72 1136.63 1092.63 1126.47 1098.43C1116.31 1104.08 1104.78 1106.9 1091.87 1106.9ZM1091.87 1074.24C1100.74 1074.24 1108.08 1071.09 1113.89 1064.8C1119.7 1058.51 1122.6 1050.45 1122.6 1040.61C1122.6 1030.77 1119.7 1022.78 1113.89 1016.65C1108.08 1010.36 1100.74 1007.21 1091.87 1007.21C1083 1007.21 1075.66 1010.36 1069.85 1016.65C1064.05 1022.78 1061.14 1030.77 1061.14 1040.61C1061.14 1050.45 1064.05 1058.51 1069.85 1064.8C1075.66 1071.09 1083 1074.24 1091.87 1074.24ZM1191.41 1045.44L1188.51 929.302H1227.71L1224.8 1045.44H1191.41ZM1208.11 1105.45C1202.14 1105.45 1196.9 1103.52 1192.38 1099.64C1188.03 1095.77 1185.85 1090.37 1185.85 1083.43C1185.85 1076.5 1188.03 1071.09 1192.38 1067.22C1196.9 1063.19 1202.14 1061.17 1208.11 1061.17C1214.24 1061.17 1219.4 1063.19 1223.59 1067.22C1227.95 1071.09 1230.13 1076.5 1230.13 1083.43C1230.13 1090.37 1227.95 1095.77 1223.59 1099.64C1219.4 1103.52 1214.24 1105.45 1208.11 1105.45Z" fill="white"/>
<path d="M104.074 1413V1241.21H166.501C184.729 1241.21 198.602 1245.96 208.119 1255.48C217.797 1265 222.637 1277.66 222.637 1293.47C222.637 1303.63 220.459 1312.67 216.104 1320.57C211.748 1328.47 205.377 1334.68 196.989 1339.2C188.6 1343.56 178.438 1345.73 166.501 1345.73H133.352V1413H104.074ZM133.352 1320.09H166.501C174.889 1320.09 181.503 1317.59 186.342 1312.58C191.181 1307.58 193.601 1301.13 193.601 1293.23C193.601 1285.16 191.181 1278.79 186.342 1274.11C181.503 1269.27 174.889 1266.85 166.501 1266.85H133.352V1320.09ZM265.943 1269.52C260.942 1269.52 256.587 1267.9 252.877 1264.68C249.166 1261.29 247.311 1257.01 247.311 1251.85C247.311 1246.37 249.166 1242.01 252.877 1238.79C256.587 1235.56 260.942 1233.95 265.943 1233.95C270.943 1233.95 275.299 1235.56 279.009 1238.79C282.719 1242.01 284.574 1246.37 284.574 1251.85C284.574 1257.01 282.719 1261.29 279.009 1264.68C275.299 1267.9 270.943 1269.52 265.943 1269.52ZM252.151 1413V1287.18H279.977V1413H252.151ZM314.205 1413V1238.3H342.031V1338.48L395.021 1287.18H428.654L380.745 1336.54L434.703 1413H402.038L360.178 1354.44L342.031 1372.35V1413H314.205ZM468.332 1269.52C463.332 1269.52 458.977 1267.9 455.266 1264.68C451.556 1261.29 449.701 1257.01 449.701 1251.85C449.701 1246.37 451.556 1242.01 455.266 1238.79C458.977 1235.56 463.332 1233.95 468.332 1233.95C473.333 1233.95 477.688 1235.56 481.399 1238.79C485.109 1242.01 486.964 1246.37 486.964 1251.85C486.964 1257.01 485.109 1261.29 481.399 1264.68C477.688 1267.9 473.333 1269.52 468.332 1269.52ZM454.54 1413V1287.18H482.366V1413H454.54ZM516.595 1413V1287.18H542.485V1304.12C546.518 1297.02 551.68 1291.94 557.971 1288.87C564.262 1285.81 570.15 1284.28 575.634 1284.28C577.892 1284.28 579.909 1284.44 581.683 1284.76C583.619 1285.08 585.151 1285.48 586.281 1285.97V1311.86H585.071C583.78 1311.54 582.248 1311.29 580.473 1311.13C578.699 1310.81 576.683 1310.65 574.424 1310.65C566.359 1310.65 559.342 1313.63 553.373 1319.6C547.405 1325.41 544.421 1333.8 544.421 1344.77V1413H516.595ZM704.669 1415.9C690.796 1415.9 679.505 1411.55 670.794 1402.84C662.083 1393.97 657.728 1381.14 657.728 1364.37V1287.18H685.554V1361.46C685.554 1371.79 687.974 1379.29 692.813 1383.96C697.813 1388.64 704.024 1390.98 711.444 1390.98C719.993 1390.98 726.93 1388.4 732.253 1383.24C737.738 1378.08 740.48 1370.82 740.48 1361.46V1287.18H768.306V1413H742.415V1398C738.221 1404.13 732.737 1408.64 725.962 1411.55C719.348 1414.45 712.251 1415.9 704.669 1415.9ZM798.795 1413V1241.21H826.621V1413H798.795ZM900.29 1415.9C887.546 1415.9 877.222 1412.68 869.318 1406.23C861.414 1399.61 857.462 1390.9 857.462 1380.09C857.462 1371.87 859.317 1365.01 863.027 1359.53C866.737 1354.04 871.738 1349.69 878.029 1346.46C884.32 1343.23 891.256 1340.89 898.838 1339.44L940.94 1331.22V1327.83C940.94 1321.7 938.439 1316.78 933.439 1313.07C928.438 1309.2 921.744 1307.26 913.356 1307.26C906.097 1307.26 899.886 1308.87 894.724 1312.1C889.562 1315.33 886.256 1320.25 884.804 1326.86L858.43 1325.65C859.72 1316.78 862.946 1309.28 868.108 1303.15C873.27 1297.02 879.803 1292.34 887.707 1289.11C895.612 1285.89 904.322 1284.28 913.84 1284.28C931.261 1284.28 944.73 1288.31 954.248 1296.37C963.926 1304.44 968.765 1314.92 968.765 1327.83V1413H942.149V1397.76C938.278 1403.56 932.632 1408.08 925.212 1411.31C917.953 1414.37 909.646 1415.9 900.29 1415.9ZM906.339 1393.88C916.824 1393.88 925.212 1391.22 931.503 1385.9C937.794 1380.58 940.94 1372.91 940.94 1362.91V1351.78L906.581 1358.32C900.451 1359.45 895.37 1361.62 891.337 1364.85C887.304 1367.91 885.288 1372.19 885.288 1377.67C885.288 1383.16 887.304 1387.27 891.337 1390.01C895.37 1392.59 900.37 1393.88 906.339 1393.88ZM1006.62 1413V1287.18H1032.51V1303.39C1036.22 1297.1 1041.46 1292.34 1048.24 1289.11C1055.17 1285.89 1062.59 1284.28 1070.5 1284.28C1085.34 1284.28 1097.11 1289.11 1105.82 1298.79C1114.54 1308.31 1118.89 1321.46 1118.89 1338.23V1413H1091.07V1339.93C1091.07 1330.25 1088.65 1322.67 1083.81 1317.18C1078.97 1311.54 1072.27 1308.71 1063.72 1308.71C1055.01 1308.71 1047.91 1311.62 1042.43 1317.42C1037.11 1323.23 1034.45 1330.73 1034.45 1339.93V1413H1006.62ZM1210.74 1465.75C1200.58 1465.75 1191.14 1463.97 1182.43 1460.42C1173.72 1456.88 1166.46 1451.71 1160.66 1444.94C1154.85 1438.16 1151.06 1430.02 1149.28 1420.5L1175.66 1417.84C1178.4 1425.26 1182.92 1430.91 1189.21 1434.78C1195.66 1438.65 1202.76 1440.58 1210.5 1440.58C1217.11 1440.58 1223.16 1439.13 1228.65 1436.23C1234.29 1433.49 1238.81 1429.29 1242.2 1423.65C1245.59 1418.16 1247.28 1411.31 1247.28 1403.08V1391.22C1243.09 1396.71 1237.36 1401.14 1230.1 1404.53C1222.84 1407.76 1215.02 1409.37 1206.63 1409.37C1194.85 1409.37 1184.29 1406.63 1174.93 1401.14C1165.58 1395.66 1158.16 1388.24 1152.67 1378.88C1147.19 1369.37 1144.44 1358.64 1144.44 1346.7C1144.44 1334.76 1147.11 1324.12 1152.43 1314.76C1157.91 1305.25 1165.33 1297.83 1174.69 1292.5C1184.21 1287.02 1195.02 1284.28 1207.11 1284.28C1215.5 1284.28 1223.49 1285.97 1231.07 1289.36C1238.65 1292.58 1244.7 1297.42 1249.22 1303.87V1287.18H1275.11V1403.08C1275.11 1415.98 1272.28 1427.11 1266.64 1436.47C1260.99 1445.83 1253.33 1453 1243.65 1458.01C1233.97 1463.17 1223 1465.75 1210.74 1465.75ZM1210.02 1384.21C1220.5 1384.21 1229.29 1380.9 1236.39 1374.29C1243.65 1367.67 1247.28 1358.56 1247.28 1346.94C1247.28 1335.17 1243.65 1325.97 1236.39 1319.36C1229.29 1312.58 1220.5 1309.2 1210.02 1309.2C1199.21 1309.2 1190.26 1312.67 1183.16 1319.6C1176.22 1326.54 1172.75 1335.65 1172.75 1346.94C1172.75 1357.91 1176.22 1366.87 1183.16 1373.8C1190.26 1380.74 1199.21 1384.21 1210.02 1384.21ZM246.257 1725.9C231.094 1725.9 218.753 1722.35 209.236 1715.26C199.88 1708 194.88 1698.24 194.234 1685.98L219.882 1683.32C220.689 1689.77 223.431 1694.85 228.109 1698.56C232.949 1702.27 238.917 1704.13 246.015 1704.13C252.144 1704.13 257.226 1702.84 261.258 1700.26C265.291 1697.67 267.307 1694.21 267.307 1689.85C267.307 1685.82 266.017 1682.67 263.436 1680.41C261.016 1677.99 257.71 1676.06 253.516 1674.61C249.321 1673.16 244.805 1671.78 239.966 1670.49C235.126 1669.2 230.126 1667.75 224.964 1666.14C219.963 1664.53 215.366 1662.43 211.172 1659.85C206.978 1657.11 203.59 1653.56 201.009 1649.2C198.428 1644.68 197.138 1638.96 197.138 1632.02C197.138 1620.57 201.332 1611.45 209.72 1604.68C218.269 1597.74 229.561 1594.28 243.595 1594.28C257.306 1594.28 268.679 1597.58 277.712 1604.2C286.745 1610.65 291.665 1619.44 292.472 1630.57L266.582 1633.23C265.936 1627.59 263.436 1623.31 259.081 1620.41C254.887 1617.34 249.967 1615.81 244.321 1615.81C238.514 1615.81 233.836 1617.1 230.287 1619.68C226.738 1622.1 224.964 1625.33 224.964 1629.36C224.964 1633.23 226.174 1636.38 228.593 1638.8C231.174 1641.05 234.481 1642.91 238.514 1644.36C242.708 1645.65 247.224 1646.94 252.064 1648.23C256.903 1649.52 261.823 1650.98 266.824 1652.59C271.985 1654.2 276.663 1656.38 280.857 1659.12C285.213 1661.86 288.681 1665.57 291.262 1670.25C293.843 1674.77 295.133 1680.66 295.133 1687.92C295.133 1695.5 293.036 1702.19 288.842 1708C284.81 1713.64 279.083 1718.08 271.663 1721.31C264.404 1724.37 255.935 1725.9 246.257 1725.9ZM382.927 1725.9C370.506 1725.9 359.295 1723.08 349.294 1717.43C339.292 1711.79 331.388 1704.05 325.581 1694.21C319.774 1684.21 316.87 1672.83 316.87 1660.09C316.87 1647.18 319.693 1635.81 325.339 1625.97C331.146 1616.13 338.97 1608.39 348.81 1602.74C358.65 1597.1 369.619 1594.28 381.717 1594.28C394.944 1594.28 406.236 1597.02 415.592 1602.5C424.948 1607.83 432.126 1615 437.127 1624.04C442.289 1632.91 444.87 1642.67 444.87 1653.31C444.87 1656.06 444.708 1658.72 444.386 1661.3C444.224 1663.88 443.821 1666.22 443.176 1668.32H344.696C345.342 1675.9 347.519 1682.35 351.229 1687.67C355.101 1693 359.779 1697.03 365.263 1699.77C370.909 1702.35 376.797 1703.64 382.927 1703.64C391.315 1703.64 398.493 1701.71 404.461 1697.84C410.591 1693.8 414.543 1688.32 416.318 1681.38L443.176 1682.83C439.627 1696.38 432.368 1706.95 421.399 1714.53C410.591 1722.11 397.767 1725.9 382.927 1725.9ZM344.938 1647.75H417.286C417.124 1638.23 413.737 1630.57 407.123 1624.76C400.509 1618.79 392.041 1615.81 381.717 1615.81C376.071 1615.81 370.587 1617.02 365.263 1619.44C359.94 1621.7 355.423 1625.17 351.713 1629.84C348.164 1634.52 345.906 1640.49 344.938 1647.75ZM541.598 1725.9C532.726 1725.9 524.58 1724.21 517.16 1720.82C509.74 1717.43 503.61 1712.51 498.771 1706.06V1723H472.881V1551.21H500.707V1612.42C505.223 1606.62 511.03 1602.18 518.128 1599.11C525.387 1595.89 533.372 1594.28 542.082 1594.28C553.858 1594.28 564.424 1597.02 573.78 1602.5C583.297 1607.99 590.798 1615.73 596.282 1625.73C601.928 1635.57 604.751 1647.02 604.751 1660.09C604.751 1673.16 602.009 1684.61 596.524 1694.45C591.04 1704.29 583.539 1712.03 574.022 1717.68C564.504 1723.16 553.697 1725.9 541.598 1725.9ZM538.937 1700.74C549.745 1700.74 558.697 1697.03 565.795 1689.61C572.893 1682.19 576.441 1672.35 576.441 1660.09C576.441 1647.67 572.893 1637.75 565.795 1630.33C558.697 1622.91 549.745 1619.2 538.937 1619.2C531.839 1619.2 525.387 1620.81 519.58 1624.04C513.773 1627.26 509.175 1631.94 505.788 1638.07C502.4 1644.04 500.707 1651.38 500.707 1660.09C500.707 1668.64 502.4 1675.98 505.788 1682.11C509.175 1688.08 513.773 1692.67 519.58 1695.9C525.387 1699.13 531.839 1700.74 538.937 1700.74ZM694.011 1725.9C681.591 1725.9 670.38 1723.08 660.378 1717.43C650.377 1711.79 642.473 1704.05 636.666 1694.21C630.859 1684.21 627.955 1672.83 627.955 1660.09C627.955 1647.18 630.778 1635.81 636.424 1625.97C642.231 1616.13 650.055 1608.39 659.894 1602.74C669.734 1597.1 680.703 1594.28 692.802 1594.28C706.029 1594.28 717.321 1597.02 726.677 1602.5C736.032 1607.83 743.211 1615 748.211 1624.04C753.373 1632.91 755.954 1642.67 755.954 1653.31C755.954 1656.06 755.793 1658.72 755.47 1661.3C755.309 1663.88 754.906 1666.22 754.26 1668.32H655.781C656.426 1675.9 658.604 1682.35 662.314 1687.67C666.185 1693 670.863 1697.03 676.348 1699.77C681.994 1702.35 687.882 1703.64 694.011 1703.64C702.399 1703.64 709.578 1701.71 715.546 1697.84C721.676 1693.8 725.628 1688.32 727.402 1681.38L754.26 1682.83C750.712 1696.38 743.453 1706.95 732.484 1714.53C721.676 1722.11 708.852 1725.9 694.011 1725.9ZM656.023 1647.75H728.37C728.209 1638.23 724.821 1630.57 718.208 1624.76C711.594 1618.79 703.125 1615.81 692.802 1615.81C687.156 1615.81 681.671 1617.02 676.348 1619.44C671.025 1621.7 666.508 1625.17 662.798 1629.84C659.249 1634.52 656.991 1640.49 656.023 1647.75ZM783.965 1723V1551.21H811.791V1723H783.965ZM891.993 1725.9C878.12 1725.9 866.829 1721.55 858.118 1712.84C849.407 1703.97 845.052 1691.14 845.052 1674.37V1597.18H872.878V1671.46C872.878 1681.79 875.297 1689.29 880.137 1693.96C885.137 1698.64 891.348 1700.98 898.768 1700.98C907.317 1700.98 914.254 1698.4 919.577 1693.24C925.061 1688.08 927.804 1680.82 927.804 1671.46V1597.18H955.629V1723H929.739V1708C925.545 1714.13 920.061 1718.64 913.286 1721.55C906.672 1724.45 899.574 1725.9 891.993 1725.9ZM986.119 1723V1597.18H1012.01V1612.91C1016.2 1606.13 1021.53 1601.37 1027.98 1598.63C1034.43 1595.73 1041.37 1594.28 1048.79 1594.28C1058.14 1594.28 1066.29 1596.29 1073.23 1600.32C1080.16 1604.2 1085.57 1610.08 1089.44 1617.99C1093.63 1609.6 1099.52 1603.55 1107.1 1599.84C1114.84 1596.13 1122.67 1594.28 1130.57 1594.28C1145.09 1594.28 1156.54 1598.95 1164.93 1608.31C1173.48 1617.5 1177.75 1630.81 1177.75 1648.23V1723H1149.93V1649.93C1149.93 1639.44 1147.51 1631.62 1142.67 1626.46C1137.99 1621.29 1131.78 1618.71 1124.04 1618.71C1115.65 1618.71 1108.88 1621.54 1103.71 1627.18C1098.55 1632.83 1095.97 1640.41 1095.97 1649.93V1723H1068.14V1649.93C1068.14 1639.44 1065.73 1631.62 1060.89 1626.46C1056.21 1621.29 1049.92 1618.71 1042.01 1618.71C1033.79 1618.71 1027.01 1621.54 1021.69 1627.18C1016.53 1632.83 1013.94 1640.41 1013.94 1649.93V1723H986.119ZM272.91 2033V1858.3H300.736V1958.48L353.727 1907.18H387.36L339.451 1956.54L393.409 2033H360.743L318.884 1974.44L300.736 1992.35V2033H272.91ZM411.794 2033V1861.21H439.62V2033H411.794ZM490.544 1889.52C485.543 1889.52 481.188 1887.9 477.478 1884.68C473.768 1881.29 471.913 1877.01 471.913 1871.85C471.913 1866.37 473.768 1862.01 477.478 1858.79C481.188 1855.56 485.543 1853.95 490.544 1853.95C495.545 1853.95 499.9 1855.56 503.61 1858.79C507.32 1862.01 509.175 1866.37 509.175 1871.85C509.175 1877.01 507.32 1881.29 503.61 1884.68C499.9 1887.9 495.545 1889.52 490.544 1889.52ZM476.752 2033V1907.18H504.578V2033H476.752ZM538.806 2033V1858.3H566.632V1958.48L619.623 1907.18H653.256L605.347 1956.54L659.305 2033H626.639L584.78 1974.44L566.632 1992.35V2033H538.806ZM728.436 2033V1861.21H756.262V2033H728.436ZM807.186 1889.52C802.186 1889.52 797.83 1887.9 794.12 1884.68C790.41 1881.29 788.555 1877.01 788.555 1871.85C788.555 1866.37 790.41 1862.01 794.12 1858.79C797.83 1855.56 802.186 1853.95 807.186 1853.95C812.187 1853.95 816.542 1855.56 820.252 1858.79C823.962 1862.01 825.818 1866.37 825.818 1871.85C825.818 1877.01 823.962 1881.29 820.252 1884.68C816.542 1887.9 812.187 1889.52 807.186 1889.52ZM793.394 2033V1907.18H821.22V2033H793.394ZM855.449 2033V1907.18H881.339V1923.39C885.049 1917.1 890.292 1912.34 897.067 1909.11C904.003 1905.89 911.423 1904.28 919.327 1904.28C934.168 1904.28 945.943 1909.11 954.654 1918.79C963.365 1928.31 967.72 1941.46 967.72 1958.23V2033H939.894V1959.93C939.894 1950.25 937.475 1942.67 932.635 1937.18C927.796 1931.54 921.102 1928.71 912.552 1928.71C903.842 1928.71 896.744 1931.62 891.259 1937.42C885.936 1943.23 883.275 1950.73 883.275 1959.93V2033H855.449ZM998.113 2033V1858.3H1025.94V1958.48L1078.93 1907.18H1112.56L1064.65 1956.54L1118.61 2033H1085.95L1044.09 1974.44L1025.94 1992.35V2033H998.113Z" fill="#154F8C"/>
</svg>
